<svg viewBox="0 0 200 190" fill="none" xmlns="http://www.w3.org/2000/svg">
<path d="M52.6212 168.824C50.0204 168.825 47.4651 168.141 45.2124 166.841C42.9598 165.542 41.0891 163.671 39.7886 161.419C38.4881 159.167 37.8037 156.612 37.8041 154.011C37.8046 151.41 38.4899 148.855 39.7912 146.604L94.2312 52.3336C99.9312 42.4536 114.231 42.4536 120.131 52.7536L171.901 142.424C172.498 143.454 173.353 144.312 174.381 144.914L189.801 153.814C191.094 154.562 192.599 154.862 194.08 154.667C195.561 154.472 196.937 153.793 197.993 152.736C199.049 151.679 199.726 150.303 199.919 148.821C200.112 147.34 199.811 145.836 199.061 144.544L119.881 7.41357C118.583 5.16001 116.714 3.28823 114.463 1.98674C112.211 0.685251 109.657 0 107.056 0C104.456 0 101.901 0.685251 99.6494 1.98674C97.3979 3.28823 95.5291 5.16001 94.2312 7.41357L2.01116 167.124C0.70989 169.375 0.0245602 171.93 0.0241091 174.531C0.023658 177.132 0.708102 179.687 2.00859 181.939C3.30908 184.191 5.17976 186.062 7.43244 187.361C9.68512 188.661 12.2404 189.345 14.8412 189.344H170.401C171.892 189.339 173.34 188.843 174.521 187.933C175.703 187.023 176.552 185.75 176.937 184.31C177.323 182.87 177.224 181.342 176.655 179.964C176.087 178.586 175.08 177.433 173.791 176.684L161.741 169.684C160.71 169.09 159.541 168.776 158.351 168.774L52.6212 168.824Z" fill="white"/>
</svg>
