<svg viewBox="0 0 1550 233" fill="none" xmlns="http://www.w3.org/2000/svg">
<path opacity="0.85" d="M53.0167 169.705C50.4159 169.707 47.8606 169.023 45.6079 167.723C43.3553 166.423 41.4846 164.553 40.1841 162.301C38.8836 160.049 38.1992 157.494 38.1996 154.893C38.2001 152.292 38.8854 149.737 40.1867 147.485L94.6267 53.2154C100.327 43.3354 114.627 43.3354 120.527 53.6354L172.297 143.305C172.892 144.335 173.747 145.191 174.777 145.785L190.197 154.695C191.49 155.443 192.994 155.743 194.475 155.549C195.957 155.354 197.332 154.675 198.388 153.618C199.444 152.561 200.121 151.185 200.314 149.703C200.508 148.222 200.206 146.718 199.457 145.425L120.277 8.2954C118.979 6.04185 117.11 4.17007 114.858 2.86858C112.607 1.56709 110.052 0.881836 107.452 0.881836C104.851 0.881836 102.296 1.56709 100.045 2.86858C97.7934 4.17007 95.9246 6.04185 94.6267 8.2954L2.40667 167.995C1.1054 170.247 0.420068 172.802 0.419617 175.403C0.419166 178.004 1.10361 180.559 2.4041 182.811C3.70459 185.063 5.57526 186.933 7.82795 188.233C10.0806 189.533 12.6359 190.217 15.2367 190.215H170.797C172.289 190.215 173.739 189.722 174.922 188.814C176.106 187.905 176.957 186.632 177.343 185.19C177.729 183.749 177.629 182.221 177.058 180.842C176.488 179.464 175.478 178.312 174.187 177.565L162.137 170.615C161.105 170.022 159.937 169.708 158.747 169.705H53.0167Z" fill="url(#paint0_linear_115_128)"/>
<path d="M226.597 62.8953H247.837V84.3753H248.327C250.115 77.5675 253.956 71.4751 259.327 66.9253C264.533 62.6117 271.117 60.3152 277.877 60.4553C279.571 60.4446 281.265 60.5448 282.947 60.7553C284.447 60.9653 285.607 61.1453 286.427 61.3053V81.9353C285.017 81.4884 283.561 81.2033 282.087 81.0853C279.763 80.8235 277.425 80.7 275.087 80.7153C270.062 80.605 265.104 81.8707 260.747 84.3753C256.595 86.8722 253.281 90.5483 251.227 94.9353C248.864 100.121 247.715 105.778 247.867 111.475V189.845H226.597V62.8953Z" fill="#212429"/>
<path d="M310.917 232.266C308.837 232.066 307.107 231.846 305.727 231.596V214.266C306.627 214.426 307.657 214.585 308.837 214.755C310.073 214.919 311.319 214.999 312.567 214.996C319.32 214.996 324.71 213.816 328.737 211.456C332.763 209.096 336.04 204.336 338.567 197.176L341.127 189.976L294.007 62.8955H316.717L353.337 173.496L348.817 168.606H355.167L350.647 173.496L387.407 62.8955H409.747L360.177 197.776C357.701 204.792 354.29 211.441 350.037 217.546C346.576 222.438 341.908 226.351 336.487 228.906C331.2 231.346 324.73 232.565 317.077 232.565C315.02 232.569 312.964 232.469 310.917 232.266Z" fill="#212429"/>
<path d="M440.277 187.525C434.14 184.564 428.98 179.907 425.407 174.105C421.784 168.022 419.944 161.044 420.097 153.965V153.715C420.097 142.895 424.127 134.249 432.187 127.775C440.247 121.302 451.557 117.662 466.117 116.855L513.117 114.165V130.645L468.557 133.335C460.097 133.815 453.527 135.849 448.847 139.435C446.61 141.07 444.804 143.224 443.584 145.712C442.365 148.199 441.769 150.946 441.847 153.715V153.965C441.747 156.762 442.322 159.541 443.523 162.068C444.724 164.596 446.515 166.797 448.747 168.485C453.333 172.065 459.457 173.855 467.117 173.855C473.372 173.955 479.555 172.509 485.117 169.645C490.287 166.981 494.666 163.005 497.817 158.115C500.957 153.198 502.591 147.47 502.517 141.635V104.155C502.517 96.4287 500.097 90.3454 495.257 85.9054C490.417 81.4654 483.56 79.2487 474.687 79.2554C466.547 79.2554 459.973 81.0254 454.967 84.5654C450.173 87.7945 446.824 92.7613 445.627 98.4154L445.387 99.5154H424.897L425.017 98.1754C425.63 91.3118 428.098 84.7442 432.157 79.1754C436.549 73.2434 442.407 68.5537 449.157 65.5654C456.41 62.1854 464.997 60.4954 474.917 60.4954C484.837 60.4954 493.483 62.2054 500.857 65.6254C507.766 68.7202 513.637 73.7405 517.767 80.0854C521.767 86.3187 523.767 93.652 523.767 102.085V189.845H502.537V169.215H502.047C499.604 173.857 496.286 177.983 492.277 181.365C483.947 188.462 473.35 192.34 462.407 192.295C454.758 192.465 447.176 190.831 440.277 187.525Z" fill="#212429"/>
<path d="M659.337 13.7053H675.567V40.0653H669.957L616.857 189.845H593.777L659.337 13.7053ZM631.137 120.705H709.257L716.587 139.385H623.807L631.137 120.705ZM670.407 40.0653V13.7053H681.027L746.457 189.845H723.407L670.407 40.0653Z" fill="#212429"/>
<path d="M764.587 62.8953H785.827V80.9653H786.317C789.911 74.8463 795.044 69.7749 801.207 66.2553C807.713 62.382 815.77 60.4487 825.377 60.4553C839.297 60.4553 850.1 64.6653 857.787 73.0853C865.473 81.5053 869.32 92.962 869.327 107.455V189.845H848.087V111.235C848.087 100.902 845.663 92.9887 840.817 87.4953C835.97 82.002 828.667 79.2553 818.907 79.2553C812.775 79.1033 806.721 80.6429 801.407 83.7053C796.439 86.683 792.436 91.03 789.877 96.2253C787.031 102.118 785.629 108.603 785.787 115.145V189.845H764.587V62.8953Z" fill="#212429"/>
<path d="M912.567 187.525C906.443 184.561 901.296 179.904 897.737 174.105C894.107 168.024 892.26 161.046 892.407 153.965V153.715C892.407 142.895 896.433 134.249 904.487 127.775C912.54 121.302 923.847 117.662 938.407 116.855L985.407 114.165V130.645L940.857 133.335C932.383 133.815 925.81 135.849 921.137 139.435C918.9 141.07 917.094 143.224 915.874 145.712C914.655 148.199 914.059 150.946 914.137 153.715V153.965C914.037 156.762 914.612 159.541 915.813 162.068C917.014 164.596 918.805 166.797 921.037 168.485C925.637 172.065 931.76 173.855 939.407 173.855C945.662 173.955 951.845 172.509 957.407 169.645C962.576 166.983 966.953 163.007 970.097 158.115C973.241 153.2 974.876 147.47 974.797 141.635V104.155C974.797 96.4287 972.377 90.3454 967.537 85.9054C962.697 81.4654 955.84 79.2487 946.967 79.2554C938.827 79.2554 932.257 81.0254 927.257 84.5654C922.46 87.7914 919.11 92.7596 917.917 98.4154L917.677 99.5154H897.187L897.307 98.1754C897.92 91.3118 900.388 84.7442 904.447 79.1754C908.839 73.2434 914.697 68.5537 921.447 65.5654C928.687 62.1854 937.273 60.4954 947.207 60.4954C957.14 60.4954 965.787 62.2054 973.147 65.6254C980.053 68.7204 985.921 73.7408 990.047 80.0854C994.047 86.3187 996.047 93.652 996.047 102.085V189.845H974.817V169.215H974.337C971.89 173.855 968.573 177.98 964.567 181.365C956.226 188.471 945.613 192.35 934.657 192.295C927.021 192.459 919.454 190.825 912.567 187.525Z" fill="#212429"/>
<path d="M1025.41 13.7053H1046.65V189.845H1025.41V13.7053Z" fill="#212429"/>
<path d="M1082.61 232.266C1080.53 232.066 1078.8 231.846 1077.42 231.596V214.266C1078.32 214.426 1079.35 214.585 1080.53 214.755C1081.76 214.919 1083.01 214.999 1084.26 214.996C1091.01 214.996 1096.4 213.816 1100.43 211.456C1104.45 209.096 1107.73 204.336 1110.26 197.176L1112.82 189.976L1065.7 62.8955H1088.41L1125.03 173.496L1120.51 168.606H1126.86L1122.34 173.496L1159.09 62.8955H1181.41L1131.86 197.776C1129.39 204.793 1125.98 211.443 1121.73 217.546C1118.27 222.438 1113.6 226.351 1108.18 228.906C1102.89 231.346 1096.42 232.565 1088.77 232.565C1086.71 232.569 1084.65 232.469 1082.61 232.266Z" fill="#212429"/>
<path d="M1214.54 183.985C1208.76 178.459 1205.87 169.632 1205.87 157.505V80.5055H1187.31V62.8955H1205.87V28.5955H1227.87V62.8955H1252.04V80.4755H1227.87V157.375C1227.87 164.135 1229.33 168.715 1232.27 171.115C1235.2 173.515 1239.51 174.715 1245.21 174.715C1246.45 174.72 1247.69 174.657 1248.93 174.525L1252.04 174.225V191.435C1250.74 191.595 1249.04 191.785 1246.98 191.985C1244.92 192.185 1242.8 192.295 1240.69 192.295C1229.03 192.295 1220.31 189.525 1214.54 183.985Z" fill="#212429"/>
<path d="M1278.53 37.5055C1277.29 36.2675 1276.3 34.7975 1275.63 33.1794C1274.96 31.5614 1274.62 29.827 1274.62 28.0755C1274.62 26.3239 1274.96 24.5896 1275.63 22.9715C1276.3 21.3534 1277.29 19.8834 1278.53 18.6455C1280.39 16.7702 1282.76 15.4918 1285.35 14.9737C1287.94 14.4556 1290.63 14.7212 1293.06 15.7366C1295.5 16.7521 1297.58 18.4712 1299.04 20.6744C1300.49 22.8776 1301.26 25.4648 1301.24 28.1055C1301.26 29.851 1300.94 31.5838 1300.27 33.1994C1299.61 34.8149 1298.63 36.2797 1297.39 37.5055C1296.15 38.7445 1294.68 39.7275 1293.06 40.3981C1291.44 41.0688 1289.71 41.414 1287.96 41.414C1286.21 41.414 1284.47 41.0688 1282.85 40.3981C1281.23 39.7275 1279.76 38.7445 1278.53 37.5055ZM1277.31 62.8955H1298.55V189.895H1277.31V62.8955Z" fill="#212429"/>
<path d="M1350.15 184.175C1341.23 178.668 1334.13 170.672 1329.71 161.175C1324.9 151.289 1322.5 139.622 1322.5 126.175V126.046C1322.5 112.712 1324.94 101.116 1329.83 91.2555C1334.33 81.8356 1341.45 73.9127 1350.34 68.4355C1359.12 63.0555 1369.38 60.3688 1381.1 60.3755C1391.68 60.3755 1400.75 62.4288 1408.32 66.5355C1415.5 70.2953 1421.64 75.7667 1426.2 82.4655C1430.42 88.6228 1433.12 95.6927 1434.08 103.096L1434.2 104.096H1413.41L1413.16 103.096C1411.53 96.6176 1407.98 90.7863 1402.97 86.3755C1397.72 81.5755 1390.42 79.1755 1381.06 79.1755C1374.18 79.037 1367.43 81.0661 1361.77 84.9755C1356.01 89.1124 1351.53 94.7756 1348.83 101.326C1345.73 108.366 1344.19 116.699 1344.19 126.326V126.446C1344.19 136.299 1345.75 144.722 1348.89 151.716C1351.62 158.221 1356.15 163.81 1361.95 167.826C1367.68 171.618 1374.43 173.579 1381.3 173.446C1390.01 173.446 1397.07 171.226 1402.48 166.785C1407.88 162.372 1411.67 156.302 1413.28 149.516L1413.53 148.516H1434.41L1434.29 149.376C1433.21 157.267 1430.17 164.761 1425.44 171.166C1420.61 177.69 1414.29 182.964 1407.01 186.546C1399.01 190.435 1390.2 192.381 1381.31 192.225C1369.37 192.272 1358.99 189.589 1350.15 184.175Z" fill="#212429"/>
<path d="M1474.51 187.525C1467.74 184.781 1461.85 180.236 1457.48 174.383C1453.12 168.531 1450.43 161.594 1449.73 154.325L1449.61 153.225H1470.85L1471.09 154.445C1472.13 160.378 1475.41 165.685 1480.25 169.275C1485.05 172.815 1491.76 174.585 1500.39 174.585C1505.4 174.706 1510.4 173.944 1515.16 172.335C1518.83 171.098 1522.09 168.856 1524.56 165.865C1526.78 163.012 1527.94 159.479 1527.86 155.865V155.775C1527.86 151.215 1526.47 147.549 1523.71 144.775C1520.94 142.002 1515.94 139.722 1508.71 137.935L1488.57 133.055C1476.61 130.209 1467.7 125.915 1461.84 120.175C1455.98 114.435 1453.05 107.009 1453.05 97.8953V97.7753C1452.93 90.8432 1455 84.0502 1458.97 78.3653C1463.15 72.5691 1468.83 68.0229 1475.41 65.2153C1483.05 61.9206 1491.31 60.2977 1499.64 60.4553C1508.92 60.4553 1516.99 62.102 1523.87 65.3953C1530.36 68.3744 1535.96 73.0054 1540.1 78.8253C1544.04 84.4551 1546.34 91.0659 1546.76 97.9253L1546.88 99.5153H1526.62L1526.49 98.6653C1525.87 92.8297 1522.96 87.4769 1518.41 83.7753C1513.81 80.0353 1507.56 78.1653 1499.67 78.1653C1495.12 78.0583 1490.6 78.8466 1486.36 80.4853C1482.92 81.7944 1479.94 84.0607 1477.76 87.0153C1475.74 89.8887 1474.68 93.3327 1474.76 96.8453V96.9653C1474.72 99.0202 1475.11 101.06 1475.91 102.954C1476.71 104.849 1477.89 106.556 1479.39 107.965C1482.49 110.985 1487.53 113.345 1494.53 115.045L1514.67 119.935C1527.53 123.022 1536.56 127.272 1541.77 132.685C1546.97 138.099 1549.58 145.322 1549.58 154.355V154.475C1549.69 161.557 1547.43 168.474 1543.18 174.135C1538.6 180.06 1532.53 184.669 1525.6 187.495C1517.57 190.827 1508.95 192.471 1500.27 192.325C1490.36 192.305 1481.77 190.705 1474.51 187.525Z" fill="#212429"/>
<defs>
<linearGradient id="paint0_linear_115_128" x1="-2.22333" y1="57.7254" x2="167.597" y2="158.765" gradientUnits="userSpaceOnUse">
<stop stop-color="#10007F"/>
<stop offset="1" stop-color="#0084E9"/>
</linearGradient>
</defs>
</svg>
