<svg viewBox="0 0 524 232" fill="none" xmlns="http://www.w3.org/2000/svg">
<path opacity="0.85" d="M52.9235 168.854C50.3227 168.856 47.7675 168.172 45.5148 166.872C43.2621 165.572 41.3915 163.702 40.091 161.45C38.7905 159.198 38.106 156.643 38.1065 154.042C38.1069 151.441 38.7923 148.886 40.0935 146.634L94.5335 52.3643C100.234 42.4843 114.534 42.4843 120.434 52.7843L172.204 142.454C172.798 143.484 173.654 144.339 174.684 144.934L190.104 153.844C191.397 154.592 192.901 154.892 194.382 154.698C195.864 154.503 197.239 153.824 198.295 152.767C199.351 151.71 200.028 150.334 200.221 148.852C200.415 147.371 200.113 145.867 199.364 144.574L120.184 7.44433C118.886 5.19077 117.017 3.31899 114.765 2.0175C112.514 0.716013 109.959 0.0307617 107.359 0.0307617C104.758 0.0307617 102.203 0.716013 99.9518 2.0175C97.7003 3.31899 95.8314 5.19077 94.5335 7.44433L2.31353 167.144C1.01226 169.396 0.326928 171.951 0.326477 174.552C0.326026 177.153 1.01047 179.708 2.31096 181.96C3.61145 184.212 5.48212 186.082 7.73481 187.382C9.98749 188.682 12.5427 189.366 15.1435 189.364H170.704C172.196 189.364 173.646 188.871 174.829 187.962C176.013 187.054 176.863 185.78 177.25 184.339C177.636 182.898 177.536 181.37 176.965 179.991C176.395 178.613 175.385 177.461 174.094 176.714L162.044 169.764C161.012 169.171 159.843 168.857 158.654 168.854H52.9235Z" fill="white"/>
<path opacity="0.85" d="M226.504 62.0443H247.744V83.5243H248.234C250.022 76.7165 253.863 70.6241 259.234 66.0743C264.44 61.7607 271.024 59.4642 277.784 59.6043C279.478 59.5937 281.172 59.6939 282.854 59.9043C284.354 60.1143 285.514 60.2943 286.334 60.4543V81.0843C284.924 80.6375 283.468 80.3523 281.994 80.2343C279.67 79.9726 277.332 79.849 274.994 79.8643C269.969 79.7541 265.01 81.0197 260.654 83.5243C256.502 86.0212 253.188 89.6973 251.134 94.0843C248.771 99.2705 247.621 104.927 247.774 110.624V188.994H226.504V62.0443Z" fill="white"/>
<path opacity="0.85" d="M310.824 231.414C308.744 231.214 307.014 230.994 305.634 230.744V213.414C306.534 213.574 307.563 213.734 308.743 213.904C309.98 214.068 311.226 214.148 312.474 214.144C319.227 214.144 324.617 212.964 328.643 210.604C332.67 208.244 335.947 203.484 338.474 196.324L341.034 189.124L293.914 62.0443H316.624L353.243 172.644L348.724 167.754H355.074L350.553 172.644L387.314 62.0443H409.654L360.083 196.924C357.608 203.94 354.197 210.59 349.944 216.694C346.483 221.587 341.815 225.5 336.393 228.054C331.107 230.494 324.637 231.714 316.984 231.714C314.926 231.718 312.87 231.618 310.824 231.414Z" fill="white"/>
<path opacity="0.85" d="M440.184 186.674C434.045 183.716 428.884 179.058 425.314 173.254C421.691 167.171 419.851 160.193 420.004 153.114V152.864C420.004 142.044 424.034 133.398 432.094 126.924C440.154 120.451 451.464 116.811 466.024 116.004L513.024 113.314V129.794L468.464 132.484C460.004 132.964 453.434 134.998 448.754 138.584C446.517 140.219 444.711 142.373 443.491 144.86C442.272 147.348 441.675 150.095 441.754 152.864V153.114C441.654 155.911 442.229 158.69 443.43 161.217C444.631 163.745 446.422 165.946 448.654 167.634C453.24 171.214 459.364 173.004 467.024 173.004C473.279 173.104 479.462 171.658 485.024 168.794C490.194 166.13 494.573 162.154 497.724 157.264C500.864 152.347 502.498 146.618 502.424 140.784V103.304C502.424 95.5776 500.004 89.4943 495.164 85.0543C490.324 80.6143 483.467 78.3976 474.594 78.4043C466.454 78.4043 459.88 80.1743 454.874 83.7143C450.08 86.9434 446.731 91.9102 445.534 97.5643L445.294 98.6643H424.804L424.924 97.3243C425.537 90.4607 428.005 83.8931 432.064 78.3243C436.456 72.3924 442.314 67.7027 449.064 64.7143C456.317 61.3343 464.904 59.6443 474.824 59.6443C484.744 59.6443 493.39 61.3543 500.764 64.7743C507.673 67.8691 513.544 72.8894 517.674 79.2343C521.674 85.4676 523.674 92.8009 523.674 101.234V188.994H502.444V168.364H501.954C499.51 173.006 496.193 177.132 492.184 180.514C483.854 187.611 473.257 191.489 462.314 191.444C454.665 191.614 447.083 189.98 440.184 186.674Z" fill="white"/>
</svg>
