<svg viewBox="0 0 524 233" fill="none" xmlns="http://www.w3.org/2000/svg">
<path opacity="0.85" d="M52.9235 169.538C50.3227 169.539 47.7675 168.855 45.5148 167.556C43.2621 166.256 41.3915 164.386 40.091 162.133C38.7905 159.881 38.106 157.326 38.1065 154.725C38.1069 152.125 38.7923 149.57 40.0935 147.318L94.5335 53.0479C100.234 43.1679 114.534 43.1679 120.434 53.4679L172.204 143.138C172.798 144.168 173.654 145.023 174.684 145.618L190.104 154.528C191.397 155.276 192.901 155.576 194.382 155.381C195.864 155.186 197.239 154.508 198.295 153.451C199.351 152.394 200.028 151.017 200.221 149.536C200.415 148.054 200.113 146.55 199.364 145.258L120.184 8.12792C118.886 5.87436 117.017 4.00259 114.765 2.7011C112.514 1.39961 109.959 0.714355 107.359 0.714355C104.758 0.714355 102.203 1.39961 99.9518 2.7011C97.7003 4.00259 95.8314 5.87436 94.5335 8.12792L2.31353 167.828C1.01226 170.08 0.326928 172.635 0.326477 175.235C0.326026 177.836 1.01047 180.391 2.31096 182.643C3.61145 184.896 5.48212 186.766 7.73481 188.066C9.98749 189.365 12.5427 190.049 15.1435 190.048H170.704C172.196 190.047 173.646 189.555 174.829 188.646C176.013 187.738 176.863 186.464 177.25 185.023C177.636 183.582 177.536 182.054 176.965 180.675C176.395 179.296 175.385 178.145 174.094 177.398L162.044 170.448C161.012 169.854 159.843 169.541 158.654 169.538H52.9235Z" fill="url(#paint0_linear_115_105)"/>
<path d="M226.504 62.7279H247.744V84.2079H248.234C250.022 77.4001 253.863 71.3077 259.234 66.7579C264.44 62.4443 271.024 60.1478 277.784 60.2879C279.478 60.2772 281.172 60.3775 282.854 60.5879C284.354 60.7979 285.514 60.9779 286.334 61.1379V81.7679C284.924 81.3211 283.468 81.0359 281.994 80.9179C279.67 80.6562 277.332 80.5326 274.994 80.5479C269.969 80.4377 265.01 81.7033 260.654 84.2079C256.502 86.7048 253.188 90.3809 251.134 94.7679C248.771 99.9541 247.621 105.611 247.774 111.308V189.678H226.504V62.7279Z" fill="#212429"/>
<path d="M310.824 232.098C308.744 231.898 307.014 231.678 305.634 231.428V214.098C306.534 214.258 307.564 214.418 308.744 214.588C309.98 214.752 311.226 214.832 312.474 214.828C319.227 214.828 324.617 213.648 328.644 211.288C332.67 208.928 335.947 204.168 338.474 197.008L341.034 189.808L293.914 62.7279H316.624L353.244 173.328L348.724 168.438H355.074L350.554 173.328L387.314 62.7279H409.654L360.084 197.608C357.608 204.624 354.197 211.274 349.944 217.378C346.483 222.27 341.815 226.184 336.394 228.738C331.107 231.178 324.637 232.398 316.984 232.398C314.927 232.402 312.871 232.302 310.824 232.098Z" fill="#212429"/>
<path d="M440.184 187.358C434.045 184.399 428.884 179.742 425.314 173.938C421.691 167.855 419.851 160.876 420.004 153.798V153.548C420.004 142.728 424.034 134.081 432.094 127.608C440.154 121.135 451.464 117.495 466.024 116.688L513.024 113.998V130.478L468.464 133.168C460.004 133.648 453.434 135.681 448.754 139.268C446.517 140.902 444.711 143.056 443.491 145.544C442.272 148.032 441.675 150.779 441.754 153.548V153.798C441.654 156.594 442.229 159.374 443.43 161.901C444.631 164.428 446.422 166.629 448.654 168.318C453.24 171.898 459.364 173.688 467.024 173.688C473.279 173.788 479.462 172.341 485.024 169.478C490.194 166.813 494.573 162.837 497.724 157.948C500.864 153.031 502.498 147.302 502.424 141.468V103.988C502.424 96.2612 500.004 90.1779 495.164 85.7379C490.324 81.2979 483.467 79.0812 474.594 79.0879C466.454 79.0879 459.88 80.8579 454.874 84.3979C450.08 87.627 446.731 92.5938 445.534 98.2479L445.294 99.3479H424.804L424.924 98.0079C425.537 91.1443 428.005 84.5767 432.064 79.0079C436.456 73.0759 442.314 68.3863 449.064 65.3979C456.317 62.0179 464.904 60.3279 474.824 60.3279C484.744 60.3279 493.39 62.0379 500.764 65.4579C507.673 68.5527 513.544 73.573 517.674 79.9179C521.674 86.1512 523.674 93.4845 523.674 101.918V189.678H502.444V169.048H501.954C499.51 173.69 496.193 177.815 492.184 181.198C483.854 188.295 473.257 192.173 462.314 192.128C454.665 192.298 447.083 190.663 440.184 187.358Z" fill="#212429"/>
<defs>
<linearGradient id="paint0_linear_115_105" x1="-2.31647" y1="57.5579" x2="167.504" y2="158.598" gradientUnits="userSpaceOnUse">
<stop stop-color="#10007F"/>
<stop offset="1" stop-color="#0084E9"/>
</linearGradient>
</defs>
</svg>
