<svg viewBox="0 0 1550 232" fill="none" xmlns="http://www.w3.org/2000/svg">
<path d="M53.1484 168.882C44.9484 168.882 38.3484 162.282 38.3484 154.082C38.3484 151.482 39.0484 148.882 40.3484 146.682L94.7484 52.3819C100.448 42.4819 114.748 42.4819 120.648 52.7819L172.448 142.482C173.048 143.482 173.948 144.382 174.948 144.982L190.348 153.882C193.548 155.782 197.748 154.682 199.648 151.382C200.848 149.282 200.848 146.682 199.648 144.582L120.448 7.48193C116.348 0.381928 107.348 -2.01807 100.248 2.08193C97.9484 3.38193 96.1484 5.28193 94.8484 7.48193L2.54842 167.182C-1.55158 174.282 0.84842 183.282 7.94842 187.382C10.2484 188.682 12.7484 189.382 15.3484 189.382H170.948C174.648 189.382 177.748 186.382 177.748 182.582C177.748 180.182 176.448 177.882 174.348 176.682L162.248 169.782C161.248 169.182 160.048 168.882 158.848 168.882H53.1484Z" fill="white"/>
<path d="M226.748 62.082H247.948V83.582H248.448C250.248 76.782 254.048 70.682 259.448 66.082C264.648 61.782 271.248 59.482 277.948 59.582C279.648 59.582 281.348 59.682 283.048 59.882C284.548 60.082 285.748 60.282 286.548 60.482V81.082C285.148 80.682 283.648 80.382 282.248 80.282C279.948 79.982 277.548 79.882 275.248 79.882C270.248 79.782 265.248 81.082 260.948 83.582C256.748 86.082 253.448 89.782 251.448 94.182C249.048 99.382 247.948 104.982 248.048 110.682V189.082H226.748V62.082Z" fill="white"/>
<path d="M311.048 231.482C308.948 231.282 307.248 231.082 305.848 230.782V213.482C306.748 213.682 307.748 213.782 308.948 213.982C310.148 214.182 311.448 214.182 312.648 214.182C319.448 214.182 324.748 212.982 328.848 210.682C332.948 208.382 336.148 203.582 338.648 196.382L341.249 189.182L294.148 62.082H316.848L353.448 172.682L348.948 167.782H355.348L350.848 172.682L387.548 62.082H409.848L360.249 196.982C357.749 203.982 354.348 210.682 350.148 216.782C346.648 221.682 342.049 225.582 336.648 228.182C331.348 230.582 324.849 231.882 317.249 231.882C315.149 231.782 313.148 231.682 311.048 231.482Z" fill="white"/>
<path d="M440.449 186.682C434.349 183.682 429.149 179.082 425.549 173.282C421.949 167.182 420.049 160.182 420.249 153.182V152.982C420.249 142.182 424.248 133.482 432.348 127.082C440.448 120.682 451.749 116.982 466.249 116.182L513.249 113.482V129.982L468.649 132.682C460.149 133.182 453.649 135.182 448.949 138.782C444.449 142.082 441.749 147.482 441.949 153.082V153.282C441.749 158.982 444.348 164.382 448.848 167.782C453.448 171.382 459.549 173.182 467.249 173.182C473.549 173.282 479.649 171.882 485.249 168.982C490.449 166.282 494.749 162.382 497.949 157.482C501.049 152.582 502.749 146.882 502.649 140.982V103.482C502.649 95.782 500.248 89.682 495.348 85.282C490.548 80.882 483.649 78.582 474.749 78.582C466.649 78.582 460.049 80.382 455.049 83.882C450.249 87.082 446.949 92.082 445.749 97.682L445.549 98.782H425.049L425.149 97.482C425.749 90.582 428.249 84.082 432.249 78.482C436.649 72.582 442.549 67.882 449.249 64.882C456.549 61.482 465.049 59.782 475.049 59.782C485.049 59.782 493.648 61.482 500.949 64.882C507.849 67.982 513.748 72.982 517.848 79.382C521.848 85.582 523.848 92.982 523.848 101.382V189.082H502.649V168.482H502.149C499.749 173.082 496.348 177.282 492.348 180.582C484.048 187.682 473.449 191.582 462.449 191.482C454.949 191.682 447.349 189.982 440.449 186.682Z" fill="white"/>
<path d="M659.448 12.8818H675.648V39.2818H670.048L617.048 189.082H593.948L659.448 12.8818ZM631.248 119.882H709.348L716.648 138.582H623.848L631.248 119.882ZM670.548 39.2818V12.8818H681.148L746.548 189.082H723.548L670.548 39.2818Z" fill="white"/>
<path d="M764.748 62.0819H785.948V80.1819H786.448C790.048 74.0819 795.148 68.9819 801.348 65.4819C807.848 61.5819 815.948 59.6819 825.548 59.6819C839.448 59.6819 850.248 63.8819 857.948 72.2819C865.648 80.6819 869.448 92.1819 869.448 106.682V189.082H848.248V110.482C848.248 100.182 845.848 92.2819 840.948 86.7819C836.048 81.2819 828.748 78.5819 819.048 78.5819C812.948 78.3819 806.848 79.9819 801.548 82.9819C796.548 85.9819 792.548 90.2819 790.048 95.4819C787.248 101.382 785.848 107.882 785.948 114.382V189.082H764.748V62.0819Z" fill="white"/>
<path d="M912.748 186.682C906.648 183.682 901.448 179.082 897.948 173.282C894.348 167.182 892.448 160.182 892.648 153.182V152.982C892.648 142.182 896.648 133.482 904.748 127.082C912.848 120.682 924.148 116.982 938.648 116.182L985.648 113.482V129.982L941.148 132.682C932.648 133.182 926.148 135.182 921.448 138.782C916.948 142.082 914.248 147.482 914.448 153.082V153.282C914.248 158.982 916.848 164.382 921.348 167.782C925.948 171.382 932.048 173.182 939.748 173.182C946.048 173.282 952.148 171.882 957.748 168.982C962.948 166.282 967.248 162.382 970.448 157.482C973.548 152.582 975.248 146.882 975.148 140.982V103.482C975.148 95.782 972.748 89.682 967.848 85.282C963.048 80.882 956.148 78.582 947.248 78.582C939.148 78.582 932.548 80.382 927.548 83.882C922.748 87.082 919.448 92.082 918.248 97.682L918.048 98.782H897.548L897.648 97.482C898.248 90.582 900.748 84.082 904.748 78.482C909.148 72.582 915.048 67.882 921.748 64.882C928.948 61.482 937.548 59.782 947.548 59.782C957.548 59.782 966.148 61.482 973.448 64.882C980.348 67.982 986.248 72.982 990.348 79.382C994.348 85.582 996.348 92.982 996.348 101.382V189.082H975.148V168.482H974.648C972.248 173.082 968.848 177.282 964.848 180.582C956.548 187.682 945.848 191.582 934.948 191.482C927.148 191.682 919.548 189.982 912.748 186.682Z" fill="white"/>
<path d="M1025.55 12.8818H1046.75V189.082H1025.55V12.8818Z" fill="white"/>
<path d="M1082.75 231.482C1080.65 231.282 1078.95 231.082 1077.55 230.782V213.482C1078.45 213.682 1079.45 213.782 1080.65 213.982C1081.85 214.182 1083.15 214.182 1084.35 214.182C1091.15 214.182 1096.45 212.982 1100.55 210.682C1104.65 208.382 1107.85 203.582 1110.35 196.382L1112.95 189.182L1065.85 62.082H1088.55L1125.15 172.682L1120.65 167.782H1126.95L1122.45 172.682L1159.25 62.082H1181.55L1131.95 196.982C1129.45 203.982 1126.05 210.682 1121.85 216.782C1118.35 221.682 1113.75 225.582 1108.25 228.182C1102.95 230.582 1096.45 231.882 1088.85 231.882C1086.85 231.782 1084.75 231.682 1082.75 231.482Z" fill="white"/>
<path d="M1214.65 183.182C1208.85 177.682 1205.95 168.782 1205.95 156.682V79.682H1187.35V62.082H1205.95V27.782H1227.95V62.082H1252.15V79.682H1227.95V156.582C1227.95 163.382 1229.45 167.882 1232.35 170.282C1235.25 172.682 1239.55 173.882 1245.25 173.882C1246.45 173.882 1247.75 173.782 1248.95 173.682L1252.05 173.382V190.582C1250.75 190.782 1249.05 190.982 1246.95 191.182C1244.85 191.382 1242.75 191.482 1240.65 191.482C1229.15 191.482 1220.45 188.682 1214.65 183.182Z" fill="white"/>
<path d="M1278.65 36.682C1273.45 31.482 1273.45 23.082 1278.65 17.782C1283.85 12.582 1292.25 12.582 1297.45 17.682C1299.95 20.182 1301.45 23.682 1301.35 27.182C1301.45 30.682 1300.05 34.082 1297.55 36.582C1292.35 41.882 1283.85 41.882 1278.65 36.682ZM1277.45 62.082H1298.65V189.082H1277.45V62.082Z" fill="white"/>
<path d="M1350.25 183.382C1341.35 177.882 1334.25 169.882 1329.85 160.382C1325.05 150.482 1322.65 138.782 1322.65 125.382V125.282C1322.65 111.982 1325.05 100.382 1329.95 90.482C1334.45 81.082 1341.55 73.182 1350.45 67.682C1359.25 62.282 1369.45 59.582 1381.25 59.582C1391.85 59.582 1400.95 61.682 1408.45 65.782C1415.65 69.582 1421.75 74.982 1426.35 81.682C1430.55 87.882 1433.25 94.882 1434.25 102.282L1434.35 103.282H1413.55L1413.35 102.282C1411.75 95.782 1408.15 89.982 1403.15 85.582C1397.95 80.782 1390.65 78.382 1381.25 78.382C1374.35 78.282 1367.65 80.282 1361.95 84.182C1356.15 88.282 1351.75 93.982 1349.05 100.482C1345.95 107.482 1344.45 115.882 1344.45 125.482V125.582C1344.45 135.482 1346.05 143.882 1349.15 150.882C1351.85 157.382 1356.45 162.982 1362.25 166.982C1367.95 170.782 1374.75 172.782 1381.55 172.582C1390.25 172.582 1397.35 170.382 1402.75 165.882C1408.15 161.482 1411.95 155.382 1413.55 148.582L1413.75 147.582H1434.65L1434.55 148.482C1433.45 156.382 1430.45 163.882 1425.75 170.282C1420.95 176.782 1414.65 182.082 1407.35 185.682C1399.35 189.582 1390.55 191.482 1381.65 191.382C1369.55 191.482 1359.15 188.782 1350.25 183.382Z" fill="white"/>
<path d="M1474.65 186.682C1460.85 181.082 1451.35 168.282 1449.85 153.482L1449.75 152.382H1470.95L1471.15 153.582C1472.15 159.482 1475.45 164.782 1480.35 168.382C1485.15 171.882 1491.85 173.682 1500.45 173.682C1505.45 173.782 1510.45 173.082 1515.25 171.482C1518.95 170.282 1522.15 167.982 1524.65 164.982C1526.85 162.082 1528.05 158.582 1527.95 154.982V154.882C1527.95 150.282 1526.55 146.682 1523.75 143.882C1520.95 141.082 1515.95 138.782 1508.75 137.082L1488.65 132.182C1476.65 129.382 1467.75 125.082 1461.95 119.282C1456.05 113.582 1453.15 106.082 1453.15 96.9821V96.8821C1453.05 89.9821 1455.15 83.182 1459.05 77.482C1463.25 71.682 1468.95 67.1821 1475.45 64.3821C1483.05 61.0821 1491.35 59.482 1499.65 59.582C1508.95 59.582 1517.05 61.182 1523.85 64.482C1530.35 67.482 1535.95 72.0821 1540.05 77.8821C1543.95 83.4821 1546.25 90.0821 1546.75 96.9821L1546.85 98.5821H1526.55L1526.45 97.7821C1525.85 91.9821 1522.95 86.5821 1518.35 82.8821C1513.75 79.1821 1507.55 77.2821 1499.65 77.2821C1495.15 77.1821 1490.55 77.982 1486.35 79.582C1482.95 80.882 1479.95 83.182 1477.75 86.082C1475.75 88.982 1474.65 92.3821 1474.75 95.8821V95.9821C1474.65 100.182 1476.35 104.082 1479.35 106.982C1482.45 109.982 1487.45 112.382 1494.45 114.082L1514.55 118.982C1527.45 122.082 1536.45 126.282 1541.65 131.782C1546.85 137.182 1549.45 144.382 1549.45 153.482V153.582C1549.55 160.682 1547.35 167.582 1543.05 173.282C1538.45 179.182 1532.45 183.782 1525.45 186.682C1517.45 189.982 1508.85 191.682 1500.15 191.482C1490.55 191.482 1481.95 189.882 1474.65 186.682Z" fill="white"/>
</svg>
