<!--
  - Copyright 2023 Synnax Labs, Inc.
  -
  - Use of this software is governed by the Business Source License included in the file
  - licenses/BSL.txt.
  -
  - As of the Change Date specified in that file, in accordance with the Business Source
  - License, use of this software will be governed by the Apache License, Version 2.0,
  - included in the file licenses/APL.txt.
  -->

<svg xmlns="http://www.w3.org/2000/svg"
     xmlns:xlink="http://www.w3.org/1999/xlink" viewBox="0 0 1050 285">
    <defs>
        <style>
            .cls-1{opacity:0.85;isolation:isolate;fill:url(#linear-gradient);}.cls-2{font-size:252px;fill:#212429;font-family:Roboto-Regular,
            Roboto, sans-serif;}
        </style>
        <linearGradient id="linear-gradient" x1="-2.64" y1="16561.34"
                        x2="167.18" y2="16460.3"
                        gradientTransform="matrix(1, 0, 0, -1, 0, 16643.76)"
                        gradientUnits="userSpaceOnUse">
            <stop offset="0" stop-color="#10007f"/>
            <stop offset="1" stop-color="#0084e9"/>
        </linearGradient>
        <symbol id="Synnax_Logo" data-name="Synnax Logo" viewBox="0 0 1050 285">
            <g id="Layer_2-2" data-name="Layer 2">
                <g id="Layer_1-2-2" data-name="Layer 1-2">
                    <path class="cls-1"
                          d="M52.6,194.4a14.81,14.81,0,0,1-12.83-22.22L94.21,77.91c5.7-9.88,20-9.88,25.9.42L171.88,168a6.78,6.78,0,0,0,2.48,2.48l15.42,8.91a6.78,6.78,0,0,0,9.26-9.27L119.86,33a14.8,14.8,0,0,0-25.65,0L2,192.69a14.81,14.81,0,0,0,12.83,22.22H170.38a6.78,6.78,0,0,0,3.39-12.65l-12.05-6.95a6.73,6.73,0,0,0-3.39-.91Z"/>
                    <text class="cls-2" transform="translate(208.99 215.58)">
                        Synnax
                    </text>
                </g>
            </g>
        </symbol>
    </defs>
    <g id="Layer_2" data-name="Layer 2">
        <g id="Layer_1-2" data-name="Layer 1">
            <use width="1050" height="285" xlink:href="#Synnax_Logo"/>
        </g>
    </g>
</svg>
