<svg width="553" height="106" viewBox="0 0 553 106" fill="none" xmlns="http://www.w3.org/2000/svg">
<rect x="0.5" y="0.5" width="552" height="83" rx="11.5" stroke="#3774D0"/>
<rect x="24.5" y="24.5" width="59" height="35" rx="5.5" fill="#171717"/>
<rect x="24.5" y="24.5" width="59" height="35" rx="5.5" stroke="#313131"/>
<path d="M50.2259 35.4091V48.5H48.2443V37.3906H48.1676L45.0355 39.4361V37.544L48.3018 35.4091H50.2259ZM54.116 48.6214C53.7666 48.6214 53.4661 48.4979 53.2147 48.2507C52.9633 47.9993 52.8376 47.6967 52.8376 47.343C52.8376 46.9936 52.9633 46.6953 53.2147 46.4482C53.4661 46.1967 53.7666 46.071 54.116 46.071C54.4654 46.071 54.7658 46.1967 55.0173 46.4482C55.2687 46.6953 55.3944 46.9936 55.3944 47.343C55.3944 47.5774 55.3347 47.7926 55.2154 47.9886C55.1004 48.1804 54.947 48.3338 54.7552 48.4489C54.5634 48.5639 54.3504 48.6214 54.116 48.6214ZM61.1334 35.4091V48.5H59.1519V37.3906H59.0752L55.9431 39.4361V37.544L59.2094 35.4091H61.1334Z" fill="white"/>
<rect x="96.5" y="24.5" width="59" height="35" rx="5.5" fill="#171717"/>
<rect x="96.5" y="24.5" width="59" height="35" rx="5.5" stroke="#313131"/>
<path d="M118.58 48.679C117.779 48.679 117.059 48.5256 116.42 48.2188C115.785 47.9077 115.278 47.4815 114.898 46.9403C114.519 46.3991 114.317 45.7812 114.291 45.0866H116.209C116.256 45.6491 116.505 46.1115 116.957 46.4737C117.408 46.8359 117.95 47.017 118.58 47.017C119.083 47.017 119.528 46.902 119.916 46.6719C120.308 46.4375 120.615 46.1158 120.837 45.7067C121.063 45.2976 121.175 44.831 121.175 44.3068C121.175 43.7741 121.06 43.299 120.83 42.8814C120.6 42.4638 120.283 42.1357 119.878 41.897C119.477 41.6584 119.017 41.5369 118.497 41.5327C118.101 41.5327 117.702 41.6009 117.302 41.7372C116.901 41.8736 116.577 42.0526 116.33 42.2741L114.521 42.0057L115.256 35.4091H122.454V37.103H116.899L116.484 40.7656H116.56C116.816 40.5185 117.155 40.3118 117.577 40.1456C118.003 39.9794 118.459 39.8963 118.945 39.8963C119.741 39.8963 120.451 40.0859 121.073 40.4652C121.7 40.8445 122.192 41.3622 122.55 42.0185C122.912 42.6705 123.091 43.4205 123.087 44.2685C123.091 45.1165 122.899 45.8729 122.511 46.5376C122.128 47.2024 121.595 47.7266 120.913 48.1101C120.236 48.4893 119.458 48.679 118.58 48.679ZM126.052 48.6214C125.702 48.6214 125.402 48.4979 125.15 48.2507C124.899 47.9993 124.773 47.6967 124.773 47.343C124.773 46.9936 124.899 46.6953 125.15 46.4482C125.402 46.1967 125.702 46.071 126.052 46.071C126.401 46.071 126.701 46.1967 126.953 46.4482C127.204 46.6953 127.33 46.9936 127.33 47.343C127.33 47.5774 127.27 47.7926 127.151 47.9886C127.036 48.1804 126.882 48.3338 126.691 48.4489C126.499 48.5639 126.286 48.6214 126.052 48.6214ZM129.791 48.5L135.506 37.1989V37.103H128.897V35.4091H137.551V37.1605L131.856 48.5H129.791Z" fill="white"/>
<rect x="168.5" y="24.5" width="59" height="35" rx="5.5" fill="#171717"/>
<rect x="168.5" y="24.5" width="59" height="35" rx="5.5" stroke="#313131"/>
<path d="M187.726 35.4091V48.5H185.744V37.3906H185.668L182.536 39.4361V37.544L185.802 35.4091H187.726ZM191.528 48.5L197.243 37.1989V37.103H190.633V35.4091H199.288V37.1605L193.593 48.5H191.528ZM200.366 48.6214C200.016 48.6214 199.716 48.4979 199.464 48.2507C199.213 47.9993 199.087 47.6967 199.087 47.343C199.087 46.9936 199.213 46.6953 199.464 46.4482C199.716 46.1967 200.016 46.071 200.366 46.071C200.715 46.071 201.016 46.1967 201.267 46.4482C201.518 46.6953 201.644 46.9936 201.644 47.343C201.644 47.5774 201.584 47.7926 201.465 47.9886C201.35 48.1804 201.197 48.3338 201.005 48.4489C200.813 48.5639 200.6 48.6214 200.366 48.6214ZM203.999 48.5V47.0682L208.428 42.4787C208.901 41.9801 209.291 41.5433 209.598 41.1683C209.909 40.7891 210.141 40.429 210.295 40.0881C210.448 39.7472 210.525 39.3849 210.525 39.0014C210.525 38.5668 210.423 38.1918 210.218 37.8764C210.013 37.5568 209.734 37.3118 209.381 37.1413C209.027 36.9666 208.629 36.8793 208.185 36.8793C207.717 36.8793 207.307 36.9751 206.958 37.1669C206.609 37.3587 206.34 37.6293 206.153 37.9787C205.965 38.3281 205.871 38.7372 205.871 39.206H203.986C203.986 38.4091 204.169 37.7124 204.535 37.1158C204.902 36.5192 205.405 36.0568 206.044 35.7287C206.683 35.3963 207.41 35.2301 208.224 35.2301C209.046 35.2301 209.771 35.3942 210.397 35.7223C211.028 36.0462 211.52 36.4893 211.874 37.0518C212.227 37.6101 212.404 38.2408 212.404 38.9439C212.404 39.4297 212.312 39.9048 212.129 40.3693C211.95 40.8338 211.637 41.3516 211.19 41.9226C210.742 42.4893 210.12 43.1776 209.323 43.9872L206.722 46.7102V46.8061H212.615V48.5H203.999Z" fill="white"/>
<rect x="240.5" y="24.5" width="59" height="35" rx="5.5" fill="#171717"/>
<rect x="240.5" y="24.5" width="59" height="35" rx="5.5" stroke="#313131"/>
<path d="M262.33 48.679C261.746 48.6705 261.17 48.5639 260.604 48.3594C260.041 48.1548 259.53 47.8139 259.07 47.3366C258.609 46.8594 258.241 46.218 257.964 45.4126C257.691 44.6072 257.555 43.6016 257.555 42.3956C257.555 41.2536 257.668 40.2393 257.893 39.353C258.124 38.4666 258.454 37.7188 258.884 37.1094C259.315 36.4957 259.835 36.0291 260.444 35.7095C261.053 35.3899 261.737 35.2301 262.496 35.2301C263.276 35.2301 263.968 35.3835 264.573 35.6903C265.178 35.9972 265.668 36.4212 266.043 36.9624C266.423 37.5036 266.663 38.1193 266.766 38.8097H264.816C264.684 38.2642 264.422 37.8189 264.03 37.4737C263.638 37.1286 263.126 36.956 262.496 36.956C261.537 36.956 260.789 37.3736 260.252 38.2088C259.719 39.044 259.451 40.2053 259.447 41.6925H259.543C259.768 41.3217 260.045 41.0064 260.374 40.7464C260.706 40.4822 261.077 40.2798 261.486 40.1392C261.899 39.9943 262.334 39.9219 262.79 39.9219C263.548 39.9219 264.234 40.1072 264.848 40.478C265.466 40.8445 265.958 41.3516 266.325 41.9993C266.691 42.647 266.874 43.3885 266.874 44.2237C266.874 45.0589 266.685 45.8153 266.305 46.4929C265.93 47.1705 265.402 47.7074 264.72 48.1037C264.038 48.4957 263.241 48.6875 262.33 48.679ZM262.323 47.017C262.826 47.017 263.276 46.8935 263.672 46.6463C264.068 46.3991 264.381 46.0668 264.612 45.6491C264.842 45.2315 264.957 44.7649 264.957 44.2493C264.957 43.7464 264.844 43.2884 264.618 42.875C264.396 42.4616 264.089 42.1335 263.697 41.8906C263.31 41.6477 262.866 41.5263 262.368 41.5263C261.989 41.5263 261.637 41.5987 261.313 41.7436C260.994 41.8885 260.712 42.0888 260.469 42.3445C260.227 42.6001 260.035 42.8942 259.894 43.2266C259.758 43.5547 259.69 43.902 259.69 44.2685C259.69 44.7585 259.803 45.2124 260.028 45.63C260.259 46.0476 260.572 46.3842 260.968 46.6399C261.369 46.8913 261.82 47.017 262.323 47.017ZM269.71 48.6214C269.36 48.6214 269.06 48.4979 268.808 48.2507C268.557 47.9993 268.431 47.6967 268.431 47.343C268.431 46.9936 268.557 46.6953 268.808 46.4482C269.06 46.1967 269.36 46.071 269.71 46.071C270.059 46.071 270.36 46.1967 270.611 46.4482C270.862 46.6953 270.988 46.9936 270.988 47.343C270.988 47.5774 270.928 47.7926 270.809 47.9886C270.694 48.1804 270.541 48.3338 270.349 48.4489C270.157 48.5639 269.944 48.6214 269.71 48.6214ZM277.426 48.679C276.548 48.679 275.764 48.5277 275.073 48.2251C274.387 47.9226 273.844 47.5028 273.443 46.9659C273.047 46.4247 272.834 45.7983 272.804 45.0866H274.811C274.837 45.4744 274.967 45.8111 275.201 46.0966C275.44 46.3778 275.751 46.5952 276.134 46.7486C276.518 46.902 276.944 46.9787 277.413 46.9787C277.928 46.9787 278.384 46.8892 278.781 46.7102C279.181 46.5312 279.494 46.282 279.72 45.9624C279.946 45.6385 280.059 45.2656 280.059 44.8438C280.059 44.4048 279.946 44.0192 279.72 43.6868C279.499 43.3501 279.173 43.0859 278.742 42.8942C278.316 42.7024 277.801 42.6065 277.195 42.6065H276.09V40.9957H277.195C277.681 40.9957 278.107 40.9084 278.474 40.7337C278.845 40.5589 279.134 40.3161 279.343 40.005C279.552 39.6896 279.656 39.321 279.656 38.8991C279.656 38.4943 279.565 38.1428 279.381 37.8445C279.203 37.5419 278.947 37.3054 278.614 37.1349C278.286 36.9645 277.899 36.8793 277.451 36.8793C277.025 36.8793 276.627 36.9581 276.256 37.1158C275.889 37.2692 275.591 37.4908 275.361 37.7805C275.131 38.0661 275.007 38.4091 274.99 38.8097H273.079C273.1 38.1023 273.309 37.4801 273.705 36.9432C274.106 36.4062 274.634 35.9865 275.291 35.6839C275.947 35.3814 276.676 35.2301 277.477 35.2301C278.316 35.2301 279.041 35.3942 279.65 35.7223C280.264 36.0462 280.737 36.4787 281.069 37.0199C281.406 37.5611 281.572 38.1534 281.568 38.7969C281.572 39.5298 281.367 40.152 280.954 40.6634C280.545 41.1747 279.999 41.5178 279.318 41.6925V41.7947C280.187 41.9268 280.86 42.272 281.337 42.8303C281.819 43.3885 282.058 44.081 282.053 44.9077C282.058 45.6278 281.857 46.2734 281.453 46.8445C281.052 47.4155 280.504 47.8651 279.81 48.1932C279.115 48.517 278.32 48.679 277.426 48.679Z" fill="white"/>
<rect x="312.5" y="24.5" width="59" height="35" rx="5.5" fill="#171717"/>
<rect x="312.5" y="24.5" width="59" height="35" rx="5.5" stroke="#313131"/>
<path d="M334.317 48.679C333.439 48.679 332.655 48.5277 331.964 48.2251C331.278 47.9226 330.735 47.5028 330.335 46.9659C329.938 46.4247 329.725 45.7983 329.695 45.0866H331.702C331.728 45.4744 331.858 45.8111 332.092 46.0966C332.331 46.3778 332.642 46.5952 333.026 46.7486C333.409 46.902 333.835 46.9787 334.304 46.9787C334.82 46.9787 335.276 46.8892 335.672 46.7102C336.072 46.5312 336.386 46.282 336.612 45.9624C336.837 45.6385 336.95 45.2656 336.95 44.8438C336.95 44.4048 336.837 44.0192 336.612 43.6868C336.39 43.3501 336.064 43.0859 335.634 42.8942C335.207 42.7024 334.692 42.6065 334.087 42.6065H332.981V40.9957H334.087C334.572 40.9957 334.999 40.9084 335.365 40.7337C335.736 40.5589 336.026 40.3161 336.234 40.005C336.443 39.6896 336.548 39.321 336.548 38.8991C336.548 38.4943 336.456 38.1428 336.273 37.8445C336.094 37.5419 335.838 37.3054 335.506 37.1349C335.178 36.9645 334.79 36.8793 334.342 36.8793C333.916 36.8793 333.518 36.9581 333.147 37.1158C332.781 37.2692 332.482 37.4908 332.252 37.7805C332.022 38.0661 331.898 38.4091 331.881 38.8097H329.97C329.991 38.1023 330.2 37.4801 330.597 36.9432C330.997 36.4062 331.526 35.9865 332.182 35.6839C332.838 35.3814 333.567 35.2301 334.368 35.2301C335.207 35.2301 335.932 35.3942 336.541 35.7223C337.155 36.0462 337.628 36.4787 337.96 37.0199C338.297 37.5611 338.463 38.1534 338.459 38.7969C338.463 39.5298 338.259 40.152 337.845 40.6634C337.436 41.1747 336.891 41.5178 336.209 41.6925V41.7947C337.078 41.9268 337.751 42.272 338.229 42.8303C338.71 43.3885 338.949 44.081 338.945 44.9077C338.949 45.6278 338.749 46.2734 338.344 46.8445C337.943 47.4155 337.396 47.8651 336.701 48.1932C336.006 48.517 335.212 48.679 334.317 48.679ZM342.079 48.6214C341.729 48.6214 341.429 48.4979 341.178 48.2507C340.926 47.9993 340.8 47.6967 340.8 47.343C340.8 46.9936 340.926 46.6953 341.178 46.4482C341.429 46.1967 341.729 46.071 342.079 46.071C342.428 46.071 342.729 46.1967 342.98 46.4482C343.232 46.6953 343.357 46.9936 343.357 47.343C343.357 47.5774 343.298 47.7926 343.178 47.9886C343.063 48.1804 342.91 48.3338 342.718 48.4489C342.526 48.5639 342.313 48.6214 342.079 48.6214ZM349.822 48.679C349.021 48.679 348.301 48.5256 347.661 48.2188C347.026 47.9077 346.519 47.4815 346.14 46.9403C345.761 46.3991 345.558 45.7812 345.533 45.0866H347.45C347.497 45.6491 347.747 46.1115 348.198 46.4737C348.65 46.8359 349.191 47.017 349.822 47.017C350.325 47.017 350.77 46.902 351.158 46.6719C351.55 46.4375 351.857 46.1158 352.078 45.7067C352.304 45.2976 352.417 44.831 352.417 44.3068C352.417 43.7741 352.302 43.299 352.072 42.8814C351.842 42.4638 351.524 42.1357 351.119 41.897C350.719 41.6584 350.259 41.5369 349.739 41.5327C349.342 41.5327 348.944 41.6009 348.543 41.7372C348.143 41.8736 347.819 42.0526 347.572 42.2741L345.763 42.0057L346.498 35.4091H353.695V37.103H348.141L347.725 40.7656H347.802C348.058 40.5185 348.396 40.3118 348.818 40.1456C349.244 39.9794 349.7 39.8963 350.186 39.8963C350.983 39.8963 351.693 40.0859 352.315 40.4652C352.941 40.8445 353.433 41.3622 353.791 42.0185C354.153 42.6705 354.332 43.4205 354.328 44.2685C354.332 45.1165 354.141 45.8729 353.753 46.5376C353.369 47.2024 352.837 47.7266 352.155 48.1101C351.477 48.4893 350.7 48.679 349.822 48.679Z" fill="white"/>
<rect x="384.5" y="24.5" width="59" height="35" rx="5.5" fill="#171717"/>
<rect x="384.5" y="24.5" width="59" height="35" rx="5.5" stroke="#313131"/>
<path d="M402.226 35.4091V48.5H400.244V37.3906H400.168L397.036 39.4361V37.544L400.302 35.4091H402.226ZM410.145 48.7173C409.135 48.7131 408.272 48.4467 407.556 47.9183C406.84 47.3899 406.292 46.6207 405.913 45.6108C405.534 44.6009 405.344 43.3842 405.344 41.9609C405.344 40.5419 405.534 39.3295 405.913 38.3239C406.297 37.3182 406.846 36.5511 407.562 36.0227C408.282 35.4943 409.143 35.2301 410.145 35.2301C411.146 35.2301 412.005 35.4964 412.721 36.0291C413.436 36.5575 413.984 37.3246 414.363 38.3303C414.747 39.3317 414.939 40.5419 414.939 41.9609C414.939 43.3885 414.749 44.6072 414.37 45.6172C413.99 46.6229 413.443 47.392 412.727 47.9247C412.011 48.4531 411.15 48.7173 410.145 48.7173ZM410.145 47.0107C411.031 47.0107 411.723 46.5781 412.222 45.7131C412.725 44.848 412.976 43.5973 412.976 41.9609C412.976 40.8743 412.861 39.956 412.631 39.206C412.405 38.4517 412.079 37.8807 411.653 37.4929C411.231 37.1009 410.728 36.9048 410.145 36.9048C409.262 36.9048 408.57 37.3395 408.067 38.2088C407.564 39.0781 407.311 40.3288 407.307 41.9609C407.307 43.0518 407.419 43.9744 407.645 44.7287C407.875 45.4787 408.201 46.0476 408.623 46.4354C409.045 46.8189 409.552 47.0107 410.145 47.0107ZM417.836 48.6214C417.487 48.6214 417.187 48.4979 416.935 48.2507C416.684 47.9993 416.558 47.6967 416.558 47.343C416.558 46.9936 416.684 46.6953 416.935 46.4482C417.187 46.1967 417.487 46.071 417.836 46.071C418.186 46.071 418.486 46.1967 418.738 46.4482C418.989 46.6953 419.115 46.9936 419.115 47.343C419.115 47.5774 419.055 47.7926 418.936 47.9886C418.821 48.1804 418.667 48.3338 418.476 48.4489C418.284 48.5639 418.071 48.6214 417.836 48.6214ZM425.579 48.679C424.778 48.679 424.058 48.5256 423.419 48.2188C422.784 47.9077 422.277 47.4815 421.897 46.9403C421.518 46.3991 421.316 45.7812 421.29 45.0866H423.208C423.255 45.6491 423.504 46.1115 423.956 46.4737C424.407 46.8359 424.949 47.017 425.579 47.017C426.082 47.017 426.527 46.902 426.915 46.6719C427.307 46.4375 427.614 46.1158 427.836 45.7067C428.062 45.2976 428.174 44.831 428.174 44.3068C428.174 43.7741 428.059 43.299 427.829 42.8814C427.599 42.4638 427.282 42.1357 426.877 41.897C426.476 41.6584 426.016 41.5369 425.496 41.5327C425.1 41.5327 424.701 41.6009 424.301 41.7372C423.9 41.8736 423.576 42.0526 423.329 42.2741L421.52 42.0057L422.255 35.4091H429.453V37.103H423.898L423.483 40.7656H423.559C423.815 40.5185 424.154 40.3118 424.576 40.1456C425.002 39.9794 425.458 39.8963 425.944 39.8963C426.741 39.8963 427.45 40.0859 428.072 40.4652C428.699 40.8445 429.191 41.3622 429.549 42.0185C429.911 42.6705 430.09 43.4205 430.086 44.2685C430.09 45.1165 429.898 45.8729 429.51 46.5376C429.127 47.2024 428.594 47.7266 427.912 48.1101C427.235 48.4893 426.457 48.679 425.579 48.679Z" fill="white"/>
<rect x="456.5" y="24.5" width="59" height="35" rx="5.5" fill="#171717"/>
<rect x="456.5" y="24.5" width="59" height="35" rx="5.5" stroke="#313131"/>
<path d="M474.317 48.679C473.439 48.679 472.655 48.5277 471.964 48.2251C471.278 47.9226 470.735 47.5028 470.335 46.9659C469.938 46.4247 469.725 45.7983 469.695 45.0866H471.702C471.728 45.4744 471.858 45.8111 472.092 46.0966C472.331 46.3778 472.642 46.5952 473.026 46.7486C473.409 46.902 473.835 46.9787 474.304 46.9787C474.82 46.9787 475.276 46.8892 475.672 46.7102C476.072 46.5312 476.386 46.282 476.612 45.9624C476.837 45.6385 476.95 45.2656 476.95 44.8438C476.95 44.4048 476.837 44.0192 476.612 43.6868C476.39 43.3501 476.064 43.0859 475.634 42.8942C475.207 42.7024 474.692 42.6065 474.087 42.6065H472.981V40.9957H474.087C474.572 40.9957 474.999 40.9084 475.365 40.7337C475.736 40.5589 476.026 40.3161 476.234 40.005C476.443 39.6896 476.548 39.321 476.548 38.8991C476.548 38.4943 476.456 38.1428 476.273 37.8445C476.094 37.5419 475.838 37.3054 475.506 37.1349C475.178 36.9645 474.79 36.8793 474.342 36.8793C473.916 36.8793 473.518 36.9581 473.147 37.1158C472.781 37.2692 472.482 37.4908 472.252 37.7805C472.022 38.0661 471.898 38.4091 471.881 38.8097H469.97C469.991 38.1023 470.2 37.4801 470.597 36.9432C470.997 36.4062 471.526 35.9865 472.182 35.6839C472.838 35.3814 473.567 35.2301 474.368 35.2301C475.207 35.2301 475.932 35.3942 476.541 35.7223C477.155 36.0462 477.628 36.4787 477.96 37.0199C478.297 37.5611 478.463 38.1534 478.459 38.7969C478.463 39.5298 478.259 40.152 477.845 40.6634C477.436 41.1747 476.891 41.5178 476.209 41.6925V41.7947C477.078 41.9268 477.751 42.272 478.229 42.8303C478.71 43.3885 478.949 44.081 478.945 44.9077C478.949 45.6278 478.749 46.2734 478.344 46.8445C477.943 47.4155 477.396 47.8651 476.701 48.1932C476.006 48.517 475.212 48.679 474.317 48.679ZM482.079 48.6214C481.729 48.6214 481.429 48.4979 481.178 48.2507C480.926 47.9993 480.8 47.6967 480.8 47.343C480.8 46.9936 480.926 46.6953 481.178 46.4482C481.429 46.1967 481.729 46.071 482.079 46.071C482.428 46.071 482.729 46.1967 482.98 46.4482C483.232 46.6953 483.357 46.9936 483.357 47.343C483.357 47.5774 483.298 47.7926 483.178 47.9886C483.063 48.1804 482.91 48.3338 482.718 48.4489C482.526 48.5639 482.313 48.6214 482.079 48.6214ZM489.096 35.4091V48.5H487.115V37.3906H487.038L483.906 39.4361V37.544L487.172 35.4091H489.096ZM492.183 45.9432V44.3452L497.84 35.4091H499.099V37.7614H498.3L494.254 44.1662V44.2685H502.007V45.9432H492.183ZM498.389 48.5V45.4574L498.402 44.7287V35.4091H500.275V48.5H498.389Z" fill="white"/>
<path d="M10.696 101H9.2983L12.4389 92.2727H13.9602L17.1009 101H15.7031L13.2358 93.858H13.1676L10.696 101ZM10.9304 97.5824H15.4645V98.6903H10.9304V97.5824ZM28.5455 95.1108H27.216C27.1648 94.8267 27.0697 94.5767 26.9305 94.3608C26.7913 94.1449 26.6208 93.9616 26.4191 93.8111C26.2174 93.6605 25.9915 93.5469 25.7415 93.4702C25.4944 93.3935 25.2316 93.3551 24.9532 93.3551C24.4503 93.3551 24.0001 93.4815 23.6023 93.7344C23.2074 93.9872 22.8949 94.358 22.6648 94.8466C22.4376 95.3352 22.3239 95.9318 22.3239 96.6364C22.3239 97.3466 22.4376 97.946 22.6648 98.4347C22.8949 98.9233 23.2089 99.2926 23.6066 99.5426C24.0043 99.7926 24.4518 99.9176 24.9489 99.9176C25.2245 99.9176 25.4859 99.8807 25.733 99.8068C25.983 99.7301 26.2089 99.6179 26.4106 99.4702C26.6123 99.3224 26.7827 99.142 26.9219 98.929C27.064 98.7131 27.162 98.4659 27.216 98.1875L28.5455 98.1918C28.4745 98.6207 28.3367 99.0156 28.1322 99.3764C27.9305 99.7344 27.6705 100.044 27.3523 100.305C27.037 100.564 26.6762 100.764 26.2699 100.906C25.8637 101.048 25.4205 101.119 24.9404 101.119C24.1847 101.119 23.5114 100.94 22.9205 100.582C22.3296 100.222 21.8637 99.706 21.5228 99.0355C21.1847 98.3651 21.0157 97.5653 21.0157 96.6364C21.0157 95.7045 21.1861 94.9048 21.527 94.2372C21.868 93.5668 22.3339 93.0526 22.9248 92.6946C23.5157 92.3338 24.1876 92.1534 24.9404 92.1534C25.4035 92.1534 25.8353 92.2202 26.2359 92.3537C26.6393 92.4844 27.0015 92.6776 27.3225 92.9332C27.6435 93.1861 27.9091 93.4957 28.1194 93.8622C28.3296 94.2259 28.4716 94.642 28.5455 95.1108ZM31.173 97.1136V101H29.8989V92.2727H31.156V95.5199H31.2369C31.3904 95.1676 31.6247 94.8878 31.9401 94.6804C32.2554 94.473 32.6673 94.3693 33.1759 94.3693C33.6247 94.3693 34.0168 94.4616 34.352 94.6463C34.6901 94.831 34.9514 95.1065 35.1361 95.473C35.3236 95.8366 35.4173 96.2912 35.4173 96.8366V101H34.1432V96.9901C34.1432 96.5099 34.0196 96.1378 33.7725 95.8736C33.5253 95.6065 33.1815 95.473 32.7412 95.473C32.4401 95.473 32.1702 95.5369 31.9315 95.6648C31.6958 95.7926 31.5097 95.9801 31.3733 96.2273C31.2398 96.4716 31.173 96.767 31.173 97.1136ZM38.9025 101.145C38.4877 101.145 38.1127 101.068 37.7775 100.915C37.4422 100.759 37.1766 100.533 36.9806 100.237C36.7874 99.9418 36.6908 99.5795 36.6908 99.1506C36.6908 98.7812 36.7618 98.4773 36.9039 98.2386C37.0459 98 37.2377 97.8111 37.4792 97.6719C37.7206 97.5327 37.9905 97.4276 38.2888 97.3565C38.5871 97.2855 38.8911 97.2315 39.2008 97.1946C39.5928 97.1491 39.911 97.1122 40.1553 97.0838C40.3996 97.0526 40.5772 97.0028 40.688 96.9347C40.7988 96.8665 40.8542 96.7557 40.8542 96.6023V96.5724C40.8542 96.2003 40.749 95.9119 40.5388 95.7074C40.3314 95.5028 40.0218 95.4006 39.6098 95.4006C39.1809 95.4006 38.8428 95.4957 38.5956 95.6861C38.3513 95.8736 38.1823 96.0824 38.0885 96.3125L36.8911 96.0398C37.0331 95.642 37.2405 95.321 37.5133 95.0767C37.7888 94.8295 38.1056 94.6506 38.4635 94.5398C38.8215 94.4261 39.1979 94.3693 39.5928 94.3693C39.8542 94.3693 40.1312 94.4006 40.4238 94.4631C40.7192 94.5227 40.9948 94.6335 41.2505 94.7955C41.509 94.9574 41.7206 95.1889 41.8854 95.4901C42.0502 95.7884 42.1326 96.1761 42.1326 96.6534V101H40.8883V100.105H40.8371C40.7547 100.27 40.6312 100.432 40.4664 100.591C40.3016 100.75 40.09 100.882 39.8314 100.987C39.5729 101.092 39.2633 101.145 38.9025 101.145ZM39.1794 100.122C39.5317 100.122 39.8329 100.053 40.0829 99.9134C40.3357 99.7741 40.5275 99.5923 40.6581 99.3679C40.7917 99.1406 40.8584 98.8977 40.8584 98.6392V97.7955C40.813 97.8409 40.7249 97.8835 40.5942 97.9233C40.4664 97.9602 40.3201 97.9929 40.1553 98.0213C39.9905 98.0469 39.83 98.071 39.6738 98.0938C39.5175 98.1136 39.3868 98.1307 39.2817 98.1449C39.0346 98.1761 38.8087 98.2287 38.6042 98.3026C38.4025 98.3764 38.2405 98.483 38.1184 98.6222C37.999 98.7585 37.9394 98.9403 37.9394 99.1676C37.9394 99.483 38.0559 99.7216 38.2888 99.8835C38.5218 100.043 38.8187 100.122 39.1794 100.122ZM44.9838 97.1136V101H43.7097V94.4545H44.9327V95.5199H45.0136C45.1642 95.1733 45.4 94.8949 45.721 94.6847C46.0449 94.4744 46.4526 94.3693 46.944 94.3693C47.3901 94.3693 47.7807 94.4631 48.1159 94.6506C48.4511 94.8352 48.7111 95.1108 48.8957 95.4773C49.0804 95.8437 49.1727 96.2969 49.1727 96.8366V101H47.8986V96.9901C47.8986 96.5156 47.775 96.1449 47.5278 95.8778C47.2807 95.608 46.9412 95.473 46.5094 95.473C46.2139 95.473 45.9511 95.5369 45.721 95.6648C45.4938 95.7926 45.3134 95.9801 45.1798 96.2273C45.0491 96.4716 44.9838 96.767 44.9838 97.1136ZM52.0357 97.1136V101H50.7615V94.4545H51.9845V95.5199H52.0655C52.2161 95.1733 52.4519 94.8949 52.7729 94.6847C53.0968 94.4744 53.5044 94.3693 53.9959 94.3693C54.4419 94.3693 54.8326 94.4631 55.1678 94.6506C55.503 94.8352 55.763 95.1108 55.9476 95.4773C56.1323 95.8437 56.2246 96.2969 56.2246 96.8366V101H54.9505V96.9901C54.9505 96.5156 54.8269 96.1449 54.5797 95.8778C54.3326 95.608 53.9931 95.473 53.5612 95.473C53.2658 95.473 53.003 95.5369 52.7729 95.6648C52.5456 95.7926 52.3652 95.9801 52.2317 96.2273C52.101 96.4716 52.0357 96.767 52.0357 97.1136ZM60.6344 101.132C59.9895 101.132 59.4341 100.994 58.9682 100.719C58.5052 100.44 58.1472 100.05 57.8944 99.5469C57.6444 99.0412 57.5194 98.4489 57.5194 97.7699C57.5194 97.0994 57.6444 96.5085 57.8944 95.9972C58.1472 95.4858 58.4995 95.0866 58.9512 94.7997C59.4057 94.5128 59.937 94.3693 60.5449 94.3693C60.9143 94.3693 61.2722 94.4304 61.6188 94.5526C61.9654 94.6747 62.2765 94.8665 62.552 95.1278C62.8276 95.3892 63.0449 95.7287 63.204 96.1463C63.3631 96.5611 63.4427 97.0653 63.4427 97.6591V98.1108H58.2395V97.1562H62.1941C62.1941 96.821 62.1259 96.5241 61.9895 96.2656C61.8532 96.0043 61.6614 95.7983 61.4143 95.6477C61.1699 95.4972 60.883 95.4219 60.5535 95.4219C60.1955 95.4219 59.883 95.5099 59.616 95.6861C59.3518 95.8594 59.1472 96.0866 59.0023 96.3679C58.8603 96.6463 58.7893 96.9489 58.7893 97.2756V98.0213C58.7893 98.4588 58.866 98.831 59.0194 99.1378C59.1756 99.4446 59.393 99.679 59.6714 99.8409C59.9498 100 60.2751 100.08 60.6472 100.08C60.8887 100.08 61.1089 100.045 61.3077 99.9773C61.5066 99.9062 61.6785 99.8011 61.8234 99.6619C61.9682 99.5227 62.079 99.3509 62.1557 99.1463L63.3617 99.3636C63.2651 99.7187 63.0918 100.03 62.8418 100.297C62.5947 100.561 62.2836 100.767 61.9086 100.915C61.5364 101.06 61.1117 101.132 60.6344 101.132ZM66.0105 92.2727V101H64.7364V92.2727H66.0105Z" fill="white"/>
</svg>
