<svg width="492" height="224" viewBox="0 0 492 224" fill="none" xmlns="http://www.w3.org/2000/svg">
<rect x="0.5" y="0.5" width="491" height="200" rx="11.5" stroke="#3774D0"/>
<rect x="24.5" y="32.5" width="443" height="59" rx="11.5" stroke="#DC136C"/>
<rect x="36.5" y="44.5" width="59" height="35" rx="5.5" fill="#171717"/>
<rect x="36.5" y="44.5" width="59" height="35" rx="5.5" stroke="#313131"/>
<path d="M58.3168 68.679C57.4389 68.679 56.6548 68.5277 55.9645 68.2251C55.2784 67.9226 54.7351 67.5028 54.3345 66.9659C53.9382 66.4247 53.7251 65.7983 53.6953 65.0866H55.7024C55.728 65.4744 55.858 65.8111 56.0923 66.0966C56.331 66.3778 56.642 66.5952 57.0256 66.7486C57.4091 66.902 57.8352 66.9787 58.304 66.9787C58.8196 66.9787 59.2756 66.8892 59.6719 66.7102C60.0724 66.5312 60.3857 66.282 60.6115 65.9624C60.8374 65.6385 60.9503 65.2656 60.9503 64.8438C60.9503 64.4048 60.8374 64.0192 60.6115 63.6868C60.3899 63.3501 60.0639 63.0859 59.6335 62.8942C59.2074 62.7024 58.6918 62.6065 58.0866 62.6065H56.9808V60.9957H58.0866C58.5724 60.9957 58.9986 60.9084 59.3651 60.7337C59.7358 60.5589 60.0256 60.3161 60.2344 60.005C60.4432 59.6896 60.5476 59.321 60.5476 58.8991C60.5476 58.4943 60.456 58.1428 60.2727 57.8445C60.0938 57.5419 59.8381 57.3054 59.5057 57.1349C59.1776 56.9645 58.7898 56.8793 58.3423 56.8793C57.9162 56.8793 57.5178 56.9581 57.147 57.1158C56.7805 57.2692 56.4822 57.4908 56.2521 57.7805C56.022 58.0661 55.8984 58.4091 55.8814 58.8097H53.9702C53.9915 58.1023 54.2003 57.4801 54.5966 56.9432C54.9972 56.4062 55.5256 55.9865 56.1818 55.6839C56.8381 55.3814 57.5668 55.2301 58.3679 55.2301C59.2074 55.2301 59.9318 55.3942 60.5412 55.7223C61.1548 56.0462 61.6278 56.4787 61.9602 57.0199C62.2969 57.5611 62.4631 58.1534 62.4588 58.7969C62.4631 59.5298 62.2585 60.152 61.8452 60.6634C61.4361 61.1747 60.8906 61.5178 60.2088 61.6925V61.7947C61.0781 61.9268 61.7514 62.272 62.2287 62.8303C62.7102 63.3885 62.9489 64.081 62.9446 64.9077C62.9489 65.6278 62.7486 66.2734 62.3438 66.8445C61.9432 67.4155 61.3956 67.8651 60.701 68.1932C60.0064 68.517 59.2116 68.679 58.3168 68.679ZM66.0789 68.6214C65.7294 68.6214 65.429 68.4979 65.1776 68.2507C64.9262 67.9993 64.8005 67.6967 64.8005 67.343C64.8005 66.9936 64.9262 66.6953 65.1776 66.4482C65.429 66.1967 65.7294 66.071 66.0789 66.071C66.4283 66.071 66.7287 66.1967 66.9802 66.4482C67.2316 66.6953 67.3573 66.9936 67.3573 67.343C67.3573 67.5774 67.2976 67.7926 67.1783 67.9886C67.0633 68.1804 66.9098 68.3338 66.7181 68.4489C66.5263 68.5639 66.3133 68.6214 66.0789 68.6214ZM69.7117 68.5V67.0682L74.1414 62.4787C74.6144 61.9801 75.0043 61.5433 75.3112 61.1683C75.6222 60.7891 75.8545 60.429 76.0079 60.0881C76.1613 59.7472 76.238 59.3849 76.238 59.0014C76.238 58.5668 76.1357 58.1918 75.9312 57.8764C75.7266 57.5568 75.4475 57.3118 75.0938 57.1413C74.7401 56.9666 74.3417 56.8793 73.8985 56.8793C73.4298 56.8793 73.0207 56.9751 72.6713 57.1669C72.3218 57.3587 72.0534 57.6293 71.8659 57.9787C71.6784 58.3281 71.5846 58.7372 71.5846 59.206H69.6989C69.6989 58.4091 69.8822 57.7124 70.2487 57.1158C70.6151 56.5192 71.118 56.0568 71.7572 55.7287C72.3964 55.3963 73.123 55.2301 73.9369 55.2301C74.7593 55.2301 75.4838 55.3942 76.1102 55.7223C76.7409 56.0462 77.233 56.4893 77.5867 57.0518C77.9404 57.6101 78.1173 58.2408 78.1173 58.9439C78.1173 59.4297 78.0257 59.9048 77.8424 60.3693C77.6634 60.8338 77.3502 61.3516 76.9028 61.9226C76.4553 62.4893 75.8332 63.1776 75.0363 63.9872L72.4347 66.7102V66.8061H78.3282V68.5H69.7117Z" fill="white"/>
<rect x="108.5" y="44.5" width="59" height="35" rx="5.5" fill="#171717"/>
<rect x="108.5" y="44.5" width="59" height="35" rx="5.5" stroke="#313131"/>
<path d="M126.726 55.4091V68.5H124.744V57.3906H124.668L121.536 59.4361V57.544L124.802 55.4091H126.726ZM134.44 55.2301C135.024 55.2344 135.599 55.3409 136.166 55.5497C136.733 55.7585 137.244 56.0994 137.7 56.5724C138.16 57.0455 138.527 57.6847 138.799 58.4901C139.076 59.2912 139.217 60.2884 139.221 61.4815C139.221 62.6278 139.106 63.6484 138.876 64.5433C138.646 65.4339 138.316 66.1861 137.885 66.7997C137.459 67.4134 136.941 67.88 136.332 68.1996C135.723 68.5192 135.037 68.679 134.274 68.679C133.494 68.679 132.802 68.5256 132.196 68.2188C131.591 67.9119 131.099 67.4879 130.72 66.9467C130.341 66.4013 130.104 65.7749 130.01 65.0675H131.96C132.088 65.63 132.348 66.0859 132.74 66.4354C133.136 66.7805 133.647 66.9531 134.274 66.9531C135.233 66.9531 135.981 66.5355 136.517 65.7003C137.054 64.8608 137.325 63.6889 137.329 62.1847H137.227C137.005 62.5511 136.728 62.8665 136.396 63.1307C136.068 63.3949 135.699 63.5994 135.29 63.7443C134.881 63.8892 134.444 63.9616 133.98 63.9616C133.226 63.9616 132.539 63.7763 131.922 63.4055C131.304 63.0348 130.811 62.5256 130.445 61.8778C130.079 61.2301 129.895 60.4908 129.895 59.6598C129.895 58.8331 130.083 58.0831 130.458 57.4098C130.837 56.7365 131.365 56.2038 132.043 55.8118C132.725 55.4155 133.524 55.2216 134.44 55.2301ZM134.446 56.892C133.948 56.892 133.498 57.0156 133.098 57.2628C132.701 57.5057 132.388 57.8359 132.158 58.2536C131.928 58.6669 131.813 59.1271 131.813 59.6342C131.813 60.1413 131.924 60.6016 132.145 61.0149C132.371 61.424 132.678 61.75 133.066 61.9929C133.458 62.2315 133.905 62.3509 134.408 62.3509C134.783 62.3509 135.132 62.2784 135.456 62.1335C135.78 61.9886 136.064 61.7884 136.307 61.5327C136.549 61.2727 136.739 60.9787 136.875 60.6506C137.012 60.3224 137.08 59.9773 137.08 59.6151C137.08 59.1335 136.965 58.6861 136.735 58.2727C136.509 57.8594 136.198 57.527 135.802 57.2756C135.405 57.0199 134.954 56.892 134.446 56.892ZM142.161 68.6214C141.811 68.6214 141.511 68.4979 141.259 68.2507C141.008 67.9993 140.882 67.6967 140.882 67.343C140.882 66.9936 141.008 66.6953 141.259 66.4482C141.511 66.1967 141.811 66.071 142.161 66.071C142.51 66.071 142.81 66.1967 143.062 66.4482C143.313 66.6953 143.439 66.9936 143.439 67.343C143.439 67.5774 143.379 67.7926 143.26 67.9886C143.145 68.1804 142.992 68.3338 142.8 68.4489C142.608 68.5639 142.395 68.6214 142.161 68.6214ZM149.904 68.679C149.102 68.679 148.382 68.5256 147.743 68.2188C147.108 67.9077 146.601 67.4815 146.222 66.9403C145.842 66.3991 145.64 65.7812 145.614 65.0866H147.532C147.579 65.6491 147.828 66.1115 148.28 66.4737C148.732 66.8359 149.273 67.017 149.904 67.017C150.406 67.017 150.852 66.902 151.239 66.6719C151.632 66.4375 151.938 66.1158 152.16 65.7067C152.386 65.2976 152.499 64.831 152.499 64.3068C152.499 63.7741 152.384 63.299 152.154 62.8814C151.923 62.4638 151.606 62.1357 151.201 61.897C150.801 61.6584 150.34 61.5369 149.82 61.5327C149.424 61.5327 149.026 61.6009 148.625 61.7372C148.225 61.8736 147.901 62.0526 147.654 62.2741L145.845 62.0057L146.58 55.4091H153.777V57.103H148.222L147.807 60.7656H147.884C148.139 60.5185 148.478 60.3118 148.9 60.1456C149.326 59.9794 149.782 59.8963 150.268 59.8963C151.065 59.8963 151.774 60.0859 152.396 60.4652C153.023 60.8445 153.515 61.3622 153.873 62.0185C154.235 62.6705 154.414 63.4205 154.41 64.2685C154.414 65.1165 154.222 65.8729 153.835 66.5376C153.451 67.2024 152.918 67.7266 152.237 68.1101C151.559 68.4893 150.781 68.679 149.904 68.679Z" fill="white"/>
<rect x="180.5" y="44.5" width="59" height="35" rx="5.5" fill="#171717"/>
<rect x="180.5" y="44.5" width="59" height="35" rx="5.5" stroke="#313131"/>
<path d="M198.226 55.4091V68.5H196.244V57.3906H196.168L193.036 59.4361V57.544L196.302 55.4091H198.226ZM205.94 55.2301C206.524 55.2344 207.099 55.3409 207.666 55.5497C208.233 55.7585 208.744 56.0994 209.2 56.5724C209.66 57.0455 210.027 57.6847 210.299 58.4901C210.576 59.2912 210.717 60.2884 210.721 61.4815C210.721 62.6278 210.606 63.6484 210.376 64.5433C210.146 65.4339 209.816 66.1861 209.385 66.7997C208.959 67.4134 208.441 67.88 207.832 68.1996C207.223 68.5192 206.537 68.679 205.774 68.679C204.994 68.679 204.302 68.5256 203.696 68.2188C203.091 67.9119 202.599 67.4879 202.22 66.9467C201.841 66.4013 201.604 65.7749 201.51 65.0675H203.46C203.588 65.63 203.848 66.0859 204.24 66.4354C204.636 66.7805 205.147 66.9531 205.774 66.9531C206.733 66.9531 207.481 66.5355 208.017 65.7003C208.554 64.8608 208.825 63.6889 208.829 62.1847H208.727C208.505 62.5511 208.228 62.8665 207.896 63.1307C207.568 63.3949 207.199 63.5994 206.79 63.7443C206.381 63.8892 205.944 63.9616 205.48 63.9616C204.726 63.9616 204.039 63.7763 203.422 63.4055C202.804 63.0348 202.311 62.5256 201.945 61.8778C201.579 61.2301 201.395 60.4908 201.395 59.6598C201.395 58.8331 201.583 58.0831 201.958 57.4098C202.337 56.7365 202.865 56.2038 203.543 55.8118C204.225 55.4155 205.024 55.2216 205.94 55.2301ZM205.946 56.892C205.448 56.892 204.998 57.0156 204.598 57.2628C204.201 57.5057 203.888 57.8359 203.658 58.2536C203.428 58.6669 203.313 59.1271 203.313 59.6342C203.313 60.1413 203.424 60.6016 203.645 61.0149C203.871 61.424 204.178 61.75 204.566 61.9929C204.958 62.2315 205.405 62.3509 205.908 62.3509C206.283 62.3509 206.632 62.2784 206.956 62.1335C207.28 61.9886 207.564 61.7884 207.807 61.5327C208.049 61.2727 208.239 60.9787 208.375 60.6506C208.512 60.3224 208.58 59.9773 208.58 59.6151C208.58 59.1335 208.465 58.6861 208.235 58.2727C208.009 57.8594 207.698 57.527 207.302 57.2756C206.905 57.0199 206.454 56.892 205.946 56.892ZM213.661 68.6214C213.311 68.6214 213.011 68.4979 212.759 68.2507C212.508 67.9993 212.382 67.6967 212.382 67.343C212.382 66.9936 212.508 66.6953 212.759 66.4482C213.011 66.1967 213.311 66.071 213.661 66.071C214.01 66.071 214.31 66.1967 214.562 66.4482C214.813 66.6953 214.939 66.9936 214.939 67.343C214.939 67.5774 214.879 67.7926 214.76 67.9886C214.645 68.1804 214.492 68.3338 214.3 68.4489C214.108 68.5639 213.895 68.6214 213.661 68.6214ZM221.376 68.679C220.499 68.679 219.714 68.5277 219.024 68.2251C218.338 67.9226 217.795 67.5028 217.394 66.9659C216.998 66.4247 216.785 65.7983 216.755 65.0866H218.762C218.788 65.4744 218.918 65.8111 219.152 66.0966C219.391 66.3778 219.702 66.5952 220.085 66.7486C220.469 66.902 220.895 66.9787 221.364 66.9787C221.879 66.9787 222.335 66.8892 222.731 66.7102C223.132 66.5312 223.445 66.282 223.671 65.9624C223.897 65.6385 224.01 65.2656 224.01 64.8438C224.01 64.4048 223.897 64.0192 223.671 63.6868C223.45 63.3501 223.124 63.0859 222.693 62.8942C222.267 62.7024 221.751 62.6065 221.146 62.6065H220.04V60.9957H221.146C221.632 60.9957 222.058 60.9084 222.425 60.7337C222.795 60.5589 223.085 60.3161 223.294 60.005C223.503 59.6896 223.607 59.321 223.607 58.8991C223.607 58.4943 223.516 58.1428 223.332 57.8445C223.153 57.5419 222.898 57.3054 222.565 57.1349C222.237 56.9645 221.849 56.8793 221.402 56.8793C220.976 56.8793 220.577 56.9581 220.207 57.1158C219.84 57.2692 219.542 57.4908 219.312 57.7805C219.082 58.0661 218.958 58.4091 218.941 58.8097H217.03C217.051 58.1023 217.26 57.4801 217.656 56.9432C218.057 56.4062 218.585 55.9865 219.241 55.6839C219.898 55.3814 220.626 55.2301 221.428 55.2301C222.267 55.2301 222.991 55.3942 223.601 55.7223C224.214 56.0462 224.687 56.4787 225.02 57.0199C225.356 57.5611 225.523 58.1534 225.518 58.7969C225.523 59.5298 225.318 60.152 224.905 60.6634C224.496 61.1747 223.95 61.5178 223.268 61.6925V61.7947C224.138 61.9268 224.811 62.272 225.288 62.8303C225.77 63.3885 226.008 64.081 226.004 64.9077C226.008 65.6278 225.808 66.2734 225.403 66.8445C225.003 67.4155 224.455 67.8651 223.761 68.1932C223.066 68.517 222.271 68.679 221.376 68.679Z" fill="white"/>
<rect x="252.5" y="44.5" width="59" height="35" rx="5.5" fill="#171717"/>
<rect x="252.5" y="44.5" width="59" height="35" rx="5.5" stroke="#313131"/>
<path d="M270.226 55.4091V68.5H268.244V57.3906H268.168L265.036 59.4361V57.544L268.302 55.4091H270.226ZM273.587 68.5V67.0682L278.017 62.4787C278.49 61.9801 278.88 61.5433 279.186 61.1683C279.498 60.7891 279.73 60.429 279.883 60.0881C280.037 59.7472 280.113 59.3849 280.113 59.0014C280.113 58.5668 280.011 58.1918 279.807 57.8764C279.602 57.5568 279.323 57.3118 278.969 57.1413C278.615 56.9666 278.217 56.8793 277.774 56.8793C277.305 56.8793 276.896 56.9751 276.547 57.1669C276.197 57.3587 275.929 57.6293 275.741 57.9787C275.554 58.3281 275.46 58.7372 275.46 59.206H273.574C273.574 58.4091 273.757 57.7124 274.124 57.1158C274.49 56.5192 274.993 56.0568 275.632 55.7287C276.272 55.3963 276.998 55.2301 277.812 55.2301C278.635 55.2301 279.359 55.3942 279.985 55.7223C280.616 56.0462 281.108 56.4893 281.462 57.0518C281.816 57.6101 281.993 58.2408 281.993 58.9439C281.993 59.4297 281.901 59.9048 281.718 60.3693C281.539 60.8338 281.226 61.3516 280.778 61.9226C280.331 62.4893 279.708 63.1776 278.912 63.9872L276.31 66.7102V66.8061H282.204V68.5H273.587ZM285.731 68.6214C285.381 68.6214 285.081 68.4979 284.83 68.2507C284.578 67.9993 284.452 67.6967 284.452 67.343C284.452 66.9936 284.578 66.6953 284.83 66.4482C285.081 66.1967 285.381 66.071 285.731 66.071C286.08 66.071 286.381 66.1967 286.632 66.4482C286.884 66.6953 287.009 66.9936 287.009 67.343C287.009 67.5774 286.95 67.7926 286.83 67.9886C286.715 68.1804 286.562 68.3338 286.37 68.4489C286.178 68.5639 285.965 68.6214 285.731 68.6214ZM293.459 68.679C292.876 68.6705 292.3 68.5639 291.734 68.3594C291.171 68.1548 290.66 67.8139 290.2 67.3366C289.739 66.8594 289.371 66.218 289.094 65.4126C288.821 64.6072 288.685 63.6016 288.685 62.3956C288.685 61.2536 288.798 60.2393 289.023 59.353C289.254 58.4666 289.584 57.7188 290.014 57.1094C290.445 56.4957 290.964 56.0291 291.574 55.7095C292.183 55.3899 292.867 55.2301 293.626 55.2301C294.405 55.2301 295.098 55.3835 295.703 55.6903C296.308 55.9972 296.798 56.4212 297.173 56.9624C297.553 57.5036 297.793 58.1193 297.896 58.8097H295.946C295.814 58.2642 295.552 57.8189 295.16 57.4737C294.768 57.1286 294.256 56.956 293.626 56.956C292.667 56.956 291.919 57.3736 291.382 58.2088C290.849 59.044 290.581 60.2053 290.577 61.6925H290.673C290.898 61.3217 291.175 61.0064 291.504 60.7464C291.836 60.4822 292.207 60.2798 292.616 60.1392C293.029 59.9943 293.464 59.9219 293.92 59.9219C294.678 59.9219 295.364 60.1072 295.978 60.478C296.596 60.8445 297.088 61.3516 297.454 61.9993C297.821 62.647 298.004 63.3885 298.004 64.2237C298.004 65.0589 297.815 65.8153 297.435 66.4929C297.06 67.1705 296.532 67.7074 295.85 68.1037C295.168 68.4957 294.371 68.6875 293.459 68.679ZM293.453 67.017C293.956 67.017 294.405 66.8935 294.802 66.6463C295.198 66.3991 295.511 66.0668 295.741 65.6491C295.972 65.2315 296.087 64.7649 296.087 64.2493C296.087 63.7464 295.974 63.2884 295.748 62.875C295.526 62.4616 295.219 62.1335 294.827 61.8906C294.44 61.6477 293.996 61.5263 293.498 61.5263C293.119 61.5263 292.767 61.5987 292.443 61.7436C292.124 61.8885 291.842 62.0888 291.599 62.3445C291.356 62.6001 291.165 62.8942 291.024 63.2266C290.888 63.5547 290.82 63.902 290.82 64.2685C290.82 64.7585 290.932 65.2124 291.158 65.63C291.388 66.0476 291.702 66.3842 292.098 66.6399C292.499 66.8913 292.95 67.017 293.453 67.017Z" fill="white"/>
<rect x="324.5" y="44.5" width="59" height="35" rx="5.5" fill="#171717"/>
<rect x="324.5" y="44.5" width="59" height="35" rx="5.5" stroke="#313131"/>
<path d="M346.58 68.679C345.779 68.679 345.059 68.5256 344.42 68.2188C343.785 67.9077 343.278 67.4815 342.898 66.9403C342.519 66.3991 342.317 65.7812 342.291 65.0866H344.209C344.256 65.6491 344.505 66.1115 344.957 66.4737C345.408 66.8359 345.95 67.017 346.58 67.017C347.083 67.017 347.528 66.902 347.916 66.6719C348.308 66.4375 348.615 66.1158 348.837 65.7067C349.063 65.2976 349.175 64.831 349.175 64.3068C349.175 63.7741 349.06 63.299 348.83 62.8814C348.6 62.4638 348.283 62.1357 347.878 61.897C347.477 61.6584 347.017 61.5369 346.497 61.5327C346.101 61.5327 345.702 61.6009 345.302 61.7372C344.901 61.8736 344.577 62.0526 344.33 62.2741L342.521 62.0057L343.256 55.4091H350.454V57.103H344.899L344.484 60.7656H344.56C344.816 60.5185 345.155 60.3118 345.577 60.1456C346.003 59.9794 346.459 59.8963 346.945 59.8963C347.741 59.8963 348.451 60.0859 349.073 60.4652C349.7 60.8445 350.192 61.3622 350.55 62.0185C350.912 62.6705 351.091 63.4205 351.087 64.2685C351.091 65.1165 350.899 65.8729 350.511 66.5376C350.128 67.2024 349.595 67.7266 348.913 68.1101C348.236 68.4893 347.458 68.679 346.58 68.679ZM354.052 68.6214C353.702 68.6214 353.402 68.4979 353.15 68.2507C352.899 67.9993 352.773 67.6967 352.773 67.343C352.773 66.9936 352.899 66.6953 353.15 66.4482C353.402 66.1967 353.702 66.071 354.052 66.071C354.401 66.071 354.701 66.1967 354.953 66.4482C355.204 66.6953 355.33 66.9936 355.33 67.343C355.33 67.5774 355.27 67.7926 355.151 67.9886C355.036 68.1804 354.882 68.3338 354.691 68.4489C354.499 68.5639 354.286 68.6214 354.052 68.6214ZM357.791 68.5L363.506 57.1989V57.103H356.897V55.4091H365.551V57.1605L359.856 68.5H357.791Z" fill="white"/>
<rect x="396.5" y="44.5" width="59" height="35" rx="5.5" fill="#171717"/>
<rect x="396.5" y="44.5" width="59" height="35" rx="5.5" stroke="#313131"/>
<path d="M415.726 55.4091V68.5H413.744V57.3906H413.668L410.536 59.4361V57.544L413.802 55.4091H415.726ZM424.054 55.4091V68.5H422.072V57.3906H421.995L418.863 59.4361V57.544L422.13 55.4091H424.054ZM427.944 68.6214C427.594 68.6214 427.294 68.4979 427.043 68.2507C426.791 67.9993 426.665 67.6967 426.665 67.343C426.665 66.9936 426.791 66.6953 427.043 66.4482C427.294 66.1967 427.594 66.071 427.944 66.071C428.293 66.071 428.594 66.1967 428.845 66.4482C429.096 66.6953 429.222 66.9936 429.222 67.343C429.222 67.5774 429.163 67.7926 429.043 67.9886C428.928 68.1804 428.775 68.3338 428.583 68.4489C428.391 68.5639 428.178 68.6214 427.944 68.6214ZM431.302 65.9432V64.3452L436.959 55.4091H438.218V57.7614H437.419L433.373 64.1662V64.2685H441.126V65.9432H431.302ZM437.508 68.5V65.4574L437.521 64.7287V55.4091H439.394V68.5H437.508Z" fill="white"/>
<rect x="24.5" y="124.5" width="443" height="59" rx="11.5" stroke="#DC136C"/>
<rect x="36.5" y="136.5" width="59" height="35" rx="5.5" fill="#171717"/>
<rect x="36.5" y="136.5" width="59" height="35" rx="5.5" stroke="#313131"/>
<path d="M62.2259 147.409V160.5H60.2443V149.391H60.1676L57.0355 151.436V149.544L60.3018 147.409H62.2259ZM66.116 160.621C65.7666 160.621 65.4661 160.498 65.2147 160.251C64.9633 159.999 64.8376 159.697 64.8376 159.343C64.8376 158.994 64.9633 158.695 65.2147 158.448C65.4661 158.197 65.7666 158.071 66.116 158.071C66.4654 158.071 66.7658 158.197 67.0173 158.448C67.2687 158.695 67.3944 158.994 67.3944 159.343C67.3944 159.577 67.3347 159.793 67.2154 159.989C67.1004 160.18 66.947 160.334 66.7552 160.449C66.5634 160.564 66.3504 160.621 66.116 160.621ZM73.1334 147.409V160.5H71.1519V149.391H71.0752L67.9431 151.436V149.544L71.2094 147.409H73.1334Z" fill="white"/>
<rect x="108.5" y="136.5" width="59" height="35" rx="5.5" fill="#171717"/>
<rect x="108.5" y="136.5" width="59" height="35" rx="5.5" stroke="#313131"/>
<path d="M130.58 160.679C129.779 160.679 129.059 160.526 128.42 160.219C127.785 159.908 127.278 159.482 126.898 158.94C126.519 158.399 126.317 157.781 126.291 157.087H128.209C128.256 157.649 128.505 158.112 128.957 158.474C129.408 158.836 129.95 159.017 130.58 159.017C131.083 159.017 131.528 158.902 131.916 158.672C132.308 158.438 132.615 158.116 132.837 157.707C133.063 157.298 133.175 156.831 133.175 156.307C133.175 155.774 133.06 155.299 132.83 154.881C132.6 154.464 132.283 154.136 131.878 153.897C131.477 153.658 131.017 153.537 130.497 153.533C130.101 153.533 129.702 153.601 129.302 153.737C128.901 153.874 128.577 154.053 128.33 154.274L126.521 154.006L127.256 147.409H134.454V149.103H128.899L128.484 152.766H128.56C128.816 152.518 129.155 152.312 129.577 152.146C130.003 151.979 130.459 151.896 130.945 151.896C131.741 151.896 132.451 152.086 133.073 152.465C133.7 152.844 134.192 153.362 134.55 154.018C134.912 154.67 135.091 155.42 135.087 156.268C135.091 157.116 134.899 157.873 134.511 158.538C134.128 159.202 133.595 159.727 132.913 160.11C132.236 160.489 131.458 160.679 130.58 160.679ZM138.052 160.621C137.702 160.621 137.402 160.498 137.15 160.251C136.899 159.999 136.773 159.697 136.773 159.343C136.773 158.994 136.899 158.695 137.15 158.448C137.402 158.197 137.702 158.071 138.052 158.071C138.401 158.071 138.701 158.197 138.953 158.448C139.204 158.695 139.33 158.994 139.33 159.343C139.33 159.577 139.27 159.793 139.151 159.989C139.036 160.18 138.882 160.334 138.691 160.449C138.499 160.564 138.286 160.621 138.052 160.621ZM141.791 160.5L147.506 149.199V149.103H140.897V147.409H149.551V149.161L143.856 160.5H141.791Z" fill="white"/>
<rect x="180.5" y="136.5" width="59" height="35" rx="5.5" fill="#171717"/>
<rect x="180.5" y="136.5" width="59" height="35" rx="5.5" stroke="#313131"/>
<path d="M199.726 147.409V160.5H197.744V149.391H197.668L194.536 151.436V149.544L197.802 147.409H199.726ZM203.528 160.5L209.243 149.199V149.103H202.633V147.409H211.288V149.161L205.593 160.5H203.528ZM212.366 160.621C212.016 160.621 211.716 160.498 211.464 160.251C211.213 159.999 211.087 159.697 211.087 159.343C211.087 158.994 211.213 158.695 211.464 158.448C211.716 158.197 212.016 158.071 212.366 158.071C212.715 158.071 213.016 158.197 213.267 158.448C213.518 158.695 213.644 158.994 213.644 159.343C213.644 159.577 213.584 159.793 213.465 159.989C213.35 160.18 213.197 160.334 213.005 160.449C212.813 160.564 212.6 160.621 212.366 160.621ZM215.999 160.5V159.068L220.428 154.479C220.901 153.98 221.291 153.543 221.598 153.168C221.909 152.789 222.141 152.429 222.295 152.088C222.448 151.747 222.525 151.385 222.525 151.001C222.525 150.567 222.423 150.192 222.218 149.876C222.013 149.557 221.734 149.312 221.381 149.141C221.027 148.967 220.629 148.879 220.185 148.879C219.717 148.879 219.307 148.975 218.958 149.167C218.609 149.359 218.34 149.629 218.153 149.979C217.965 150.328 217.871 150.737 217.871 151.206H215.986C215.986 150.409 216.169 149.712 216.535 149.116C216.902 148.519 217.405 148.057 218.044 147.729C218.683 147.396 219.41 147.23 220.224 147.23C221.046 147.23 221.771 147.394 222.397 147.722C223.028 148.046 223.52 148.489 223.874 149.052C224.227 149.61 224.404 150.241 224.404 150.944C224.404 151.43 224.312 151.905 224.129 152.369C223.95 152.834 223.637 153.352 223.19 153.923C222.742 154.489 222.12 155.178 221.323 155.987L218.722 158.71V158.806H224.615V160.5H215.999Z" fill="white"/>
<rect x="252.5" y="136.5" width="59" height="35" rx="5.5" fill="#171717"/>
<rect x="252.5" y="136.5" width="59" height="35" rx="5.5" stroke="#313131"/>
<path d="M274.33 160.679C273.746 160.67 273.17 160.564 272.604 160.359C272.041 160.155 271.53 159.814 271.07 159.337C270.609 158.859 270.241 158.218 269.964 157.413C269.691 156.607 269.555 155.602 269.555 154.396C269.555 153.254 269.668 152.239 269.893 151.353C270.124 150.467 270.454 149.719 270.884 149.109C271.315 148.496 271.835 148.029 272.444 147.71C273.053 147.39 273.737 147.23 274.496 147.23C275.276 147.23 275.968 147.384 276.573 147.69C277.178 147.997 277.668 148.421 278.043 148.962C278.423 149.504 278.663 150.119 278.766 150.81H276.816C276.684 150.264 276.422 149.819 276.03 149.474C275.638 149.129 275.126 148.956 274.496 148.956C273.537 148.956 272.789 149.374 272.252 150.209C271.719 151.044 271.451 152.205 271.447 153.692H271.543C271.768 153.322 272.045 153.006 272.374 152.746C272.706 152.482 273.077 152.28 273.486 152.139C273.899 151.994 274.334 151.922 274.79 151.922C275.548 151.922 276.234 152.107 276.848 152.478C277.466 152.844 277.958 153.352 278.325 153.999C278.691 154.647 278.874 155.388 278.874 156.224C278.874 157.059 278.685 157.815 278.305 158.493C277.93 159.17 277.402 159.707 276.72 160.104C276.038 160.496 275.241 160.688 274.33 160.679ZM274.323 159.017C274.826 159.017 275.276 158.893 275.672 158.646C276.068 158.399 276.381 158.067 276.612 157.649C276.842 157.232 276.957 156.765 276.957 156.249C276.957 155.746 276.844 155.288 276.618 154.875C276.396 154.462 276.089 154.134 275.697 153.891C275.31 153.648 274.866 153.526 274.368 153.526C273.989 153.526 273.637 153.599 273.313 153.744C272.994 153.888 272.712 154.089 272.469 154.344C272.227 154.6 272.035 154.894 271.894 155.227C271.758 155.555 271.69 155.902 271.69 156.268C271.69 156.759 271.803 157.212 272.028 157.63C272.259 158.048 272.572 158.384 272.968 158.64C273.369 158.891 273.82 159.017 274.323 159.017ZM281.71 160.621C281.36 160.621 281.06 160.498 280.808 160.251C280.557 159.999 280.431 159.697 280.431 159.343C280.431 158.994 280.557 158.695 280.808 158.448C281.06 158.197 281.36 158.071 281.71 158.071C282.059 158.071 282.36 158.197 282.611 158.448C282.862 158.695 282.988 158.994 282.988 159.343C282.988 159.577 282.928 159.793 282.809 159.989C282.694 160.18 282.541 160.334 282.349 160.449C282.157 160.564 281.944 160.621 281.71 160.621ZM289.426 160.679C288.548 160.679 287.764 160.528 287.073 160.225C286.387 159.923 285.844 159.503 285.443 158.966C285.047 158.425 284.834 157.798 284.804 157.087H286.811C286.837 157.474 286.967 157.811 287.201 158.097C287.44 158.378 287.751 158.595 288.134 158.749C288.518 158.902 288.944 158.979 289.413 158.979C289.928 158.979 290.384 158.889 290.781 158.71C291.181 158.531 291.494 158.282 291.72 157.962C291.946 157.638 292.059 157.266 292.059 156.844C292.059 156.405 291.946 156.019 291.72 155.687C291.499 155.35 291.173 155.086 290.742 154.894C290.316 154.702 289.801 154.607 289.195 154.607H288.09V152.996H289.195C289.681 152.996 290.107 152.908 290.474 152.734C290.845 152.559 291.134 152.316 291.343 152.005C291.552 151.69 291.656 151.321 291.656 150.899C291.656 150.494 291.565 150.143 291.381 149.844C291.203 149.542 290.947 149.305 290.614 149.135C290.286 148.964 289.899 148.879 289.451 148.879C289.025 148.879 288.627 148.958 288.256 149.116C287.889 149.269 287.591 149.491 287.361 149.781C287.131 150.066 287.007 150.409 286.99 150.81H285.079C285.1 150.102 285.309 149.48 285.705 148.943C286.106 148.406 286.634 147.987 287.291 147.684C287.947 147.381 288.676 147.23 289.477 147.23C290.316 147.23 291.041 147.394 291.65 147.722C292.264 148.046 292.737 148.479 293.069 149.02C293.406 149.561 293.572 150.153 293.568 150.797C293.572 151.53 293.367 152.152 292.954 152.663C292.545 153.175 291.999 153.518 291.318 153.692V153.795C292.187 153.927 292.86 154.272 293.337 154.83C293.819 155.388 294.058 156.081 294.053 156.908C294.058 157.628 293.857 158.273 293.453 158.844C293.052 159.415 292.504 159.865 291.81 160.193C291.115 160.517 290.32 160.679 289.426 160.679Z" fill="white"/>
<rect x="324.5" y="136.5" width="59" height="35" rx="5.5" fill="#171717"/>
<rect x="324.5" y="136.5" width="59" height="35" rx="5.5" stroke="#313131"/>
<path d="M346.317 160.679C345.439 160.679 344.655 160.528 343.964 160.225C343.278 159.923 342.735 159.503 342.335 158.966C341.938 158.425 341.725 157.798 341.695 157.087H343.702C343.728 157.474 343.858 157.811 344.092 158.097C344.331 158.378 344.642 158.595 345.026 158.749C345.409 158.902 345.835 158.979 346.304 158.979C346.82 158.979 347.276 158.889 347.672 158.71C348.072 158.531 348.386 158.282 348.612 157.962C348.837 157.638 348.95 157.266 348.95 156.844C348.95 156.405 348.837 156.019 348.612 155.687C348.39 155.35 348.064 155.086 347.634 154.894C347.207 154.702 346.692 154.607 346.087 154.607H344.981V152.996H346.087C346.572 152.996 346.999 152.908 347.365 152.734C347.736 152.559 348.026 152.316 348.234 152.005C348.443 151.69 348.548 151.321 348.548 150.899C348.548 150.494 348.456 150.143 348.273 149.844C348.094 149.542 347.838 149.305 347.506 149.135C347.178 148.964 346.79 148.879 346.342 148.879C345.916 148.879 345.518 148.958 345.147 149.116C344.781 149.269 344.482 149.491 344.252 149.781C344.022 150.066 343.898 150.409 343.881 150.81H341.97C341.991 150.102 342.2 149.48 342.597 148.943C342.997 148.406 343.526 147.987 344.182 147.684C344.838 147.381 345.567 147.23 346.368 147.23C347.207 147.23 347.932 147.394 348.541 147.722C349.155 148.046 349.628 148.479 349.96 149.02C350.297 149.561 350.463 150.153 350.459 150.797C350.463 151.53 350.259 152.152 349.845 152.663C349.436 153.175 348.891 153.518 348.209 153.692V153.795C349.078 153.927 349.751 154.272 350.229 154.83C350.71 155.388 350.949 156.081 350.945 156.908C350.949 157.628 350.749 158.273 350.344 158.844C349.943 159.415 349.396 159.865 348.701 160.193C348.006 160.517 347.212 160.679 346.317 160.679ZM354.079 160.621C353.729 160.621 353.429 160.498 353.178 160.251C352.926 159.999 352.8 159.697 352.8 159.343C352.8 158.994 352.926 158.695 353.178 158.448C353.429 158.197 353.729 158.071 354.079 158.071C354.428 158.071 354.729 158.197 354.98 158.448C355.232 158.695 355.357 158.994 355.357 159.343C355.357 159.577 355.298 159.793 355.178 159.989C355.063 160.18 354.91 160.334 354.718 160.449C354.526 160.564 354.313 160.621 354.079 160.621ZM361.822 160.679C361.021 160.679 360.301 160.526 359.661 160.219C359.026 159.908 358.519 159.482 358.14 158.94C357.761 158.399 357.558 157.781 357.533 157.087H359.45C359.497 157.649 359.747 158.112 360.198 158.474C360.65 158.836 361.191 159.017 361.822 159.017C362.325 159.017 362.77 158.902 363.158 158.672C363.55 158.438 363.857 158.116 364.078 157.707C364.304 157.298 364.417 156.831 364.417 156.307C364.417 155.774 364.302 155.299 364.072 154.881C363.842 154.464 363.524 154.136 363.119 153.897C362.719 153.658 362.259 153.537 361.739 153.533C361.342 153.533 360.944 153.601 360.543 153.737C360.143 153.874 359.819 154.053 359.572 154.274L357.763 154.006L358.498 147.409H365.695V149.103H360.141L359.725 152.766H359.802C360.058 152.518 360.396 152.312 360.818 152.146C361.244 151.979 361.7 151.896 362.186 151.896C362.983 151.896 363.693 152.086 364.315 152.465C364.941 152.844 365.433 153.362 365.791 154.018C366.153 154.67 366.332 155.42 366.328 156.268C366.332 157.116 366.141 157.873 365.753 158.538C365.369 159.202 364.837 159.727 364.155 160.11C363.477 160.489 362.7 160.679 361.822 160.679Z" fill="white"/>
<rect x="396.5" y="136.5" width="59" height="35" rx="5.5" fill="#171717"/>
<rect x="396.5" y="136.5" width="59" height="35" rx="5.5" stroke="#313131"/>
<path d="M414.226 147.409V160.5H412.244V149.391H412.168L409.036 151.436V149.544L412.302 147.409H414.226ZM422.145 160.717C421.135 160.713 420.272 160.447 419.556 159.918C418.84 159.39 418.292 158.621 417.913 157.611C417.534 156.601 417.344 155.384 417.344 153.961C417.344 152.542 417.534 151.33 417.913 150.324C418.297 149.318 418.846 148.551 419.562 148.023C420.282 147.494 421.143 147.23 422.145 147.23C423.146 147.23 424.005 147.496 424.721 148.029C425.436 148.558 425.984 149.325 426.363 150.33C426.747 151.332 426.939 152.542 426.939 153.961C426.939 155.388 426.749 156.607 426.37 157.617C425.99 158.623 425.443 159.392 424.727 159.925C424.011 160.453 423.15 160.717 422.145 160.717ZM422.145 159.011C423.031 159.011 423.723 158.578 424.222 157.713C424.725 156.848 424.976 155.597 424.976 153.961C424.976 152.874 424.861 151.956 424.631 151.206C424.405 150.452 424.079 149.881 423.653 149.493C423.231 149.101 422.728 148.905 422.145 148.905C421.262 148.905 420.57 149.339 420.067 150.209C419.564 151.078 419.311 152.329 419.307 153.961C419.307 155.052 419.419 155.974 419.645 156.729C419.875 157.479 420.201 158.048 420.623 158.435C421.045 158.819 421.552 159.011 422.145 159.011ZM429.836 160.621C429.487 160.621 429.187 160.498 428.935 160.251C428.684 159.999 428.558 159.697 428.558 159.343C428.558 158.994 428.684 158.695 428.935 158.448C429.187 158.197 429.487 158.071 429.836 158.071C430.186 158.071 430.486 158.197 430.738 158.448C430.989 158.695 431.115 158.994 431.115 159.343C431.115 159.577 431.055 159.793 430.936 159.989C430.821 160.18 430.667 160.334 430.476 160.449C430.284 160.564 430.071 160.621 429.836 160.621ZM437.579 160.679C436.778 160.679 436.058 160.526 435.419 160.219C434.784 159.908 434.277 159.482 433.897 158.94C433.518 158.399 433.316 157.781 433.29 157.087H435.208C435.255 157.649 435.504 158.112 435.956 158.474C436.407 158.836 436.949 159.017 437.579 159.017C438.082 159.017 438.527 158.902 438.915 158.672C439.307 158.438 439.614 158.116 439.836 157.707C440.062 157.298 440.174 156.831 440.174 156.307C440.174 155.774 440.059 155.299 439.829 154.881C439.599 154.464 439.282 154.136 438.877 153.897C438.476 153.658 438.016 153.537 437.496 153.533C437.1 153.533 436.701 153.601 436.301 153.737C435.9 153.874 435.576 154.053 435.329 154.274L433.52 154.006L434.255 147.409H441.453V149.103H435.898L435.483 152.766H435.559C435.815 152.518 436.154 152.312 436.576 152.146C437.002 151.979 437.458 151.896 437.944 151.896C438.741 151.896 439.45 152.086 440.072 152.465C440.699 152.844 441.191 153.362 441.549 154.018C441.911 154.67 442.09 155.42 442.086 156.268C442.09 157.116 441.898 157.873 441.51 158.538C441.127 159.202 440.594 159.727 439.912 160.11C439.235 160.489 438.457 160.679 437.579 160.679Z" fill="white"/>
<path d="M29.7188 109.565C29.6733 109.162 29.4858 108.849 29.1562 108.628C28.8267 108.403 28.4119 108.291 27.9119 108.291C27.554 108.291 27.2443 108.348 26.983 108.462C26.7216 108.572 26.5185 108.726 26.3736 108.922C26.2315 109.115 26.1605 109.335 26.1605 109.582C26.1605 109.79 26.2088 109.969 26.3054 110.119C26.4048 110.27 26.5341 110.396 26.6932 110.499C26.8551 110.598 27.0284 110.682 27.2131 110.75C27.3977 110.815 27.5753 110.869 27.7457 110.912L28.598 111.134C28.8764 111.202 29.1619 111.294 29.4545 111.411C29.7472 111.527 30.0185 111.68 30.2685 111.871C30.5185 112.061 30.7202 112.297 30.8736 112.578C31.0298 112.859 31.108 113.196 31.108 113.588C31.108 114.082 30.9801 114.521 30.7244 114.905C30.4716 115.288 30.1037 115.591 29.6207 115.812C29.1406 116.034 28.5597 116.145 27.8778 116.145C27.2244 116.145 26.6591 116.041 26.1818 115.834C25.7045 115.626 25.331 115.332 25.0611 114.952C24.7912 114.568 24.642 114.114 24.6136 113.588H25.9347C25.9602 113.903 26.0625 114.166 26.2415 114.376C26.4233 114.584 26.6548 114.739 26.9361 114.841C27.2202 114.94 27.5312 114.99 27.8693 114.99C28.2415 114.99 28.5724 114.932 28.8622 114.815C29.1548 114.696 29.3849 114.531 29.5526 114.321C29.7202 114.108 29.804 113.859 29.804 113.575C29.804 113.317 29.7301 113.105 29.5824 112.94C29.4375 112.776 29.2401 112.639 28.9901 112.531C28.7429 112.423 28.4631 112.328 28.1506 112.246L27.1193 111.964C26.4205 111.774 25.8665 111.494 25.4574 111.125C25.0511 110.756 24.848 110.267 24.848 109.659C24.848 109.156 24.9844 108.717 25.2571 108.342C25.5298 107.967 25.8991 107.676 26.3651 107.469C26.831 107.259 27.3565 107.153 27.9418 107.153C28.5327 107.153 29.054 107.257 29.5057 107.464C29.9602 107.672 30.3182 107.957 30.5795 108.321C30.8409 108.682 30.9773 109.097 30.9886 109.565H29.7188ZM35.2802 116.132C34.6353 116.132 34.0799 115.994 33.614 115.719C33.151 115.44 32.793 115.05 32.5402 114.547C32.2902 114.041 32.1652 113.449 32.1652 112.77C32.1652 112.099 32.2902 111.509 32.5402 110.997C32.793 110.486 33.1453 110.087 33.597 109.8C34.0515 109.513 34.5828 109.369 35.1907 109.369C35.56 109.369 35.918 109.43 36.2646 109.553C36.6112 109.675 36.9223 109.866 37.1978 110.128C37.4734 110.389 37.6907 110.729 37.8498 111.146C38.0089 111.561 38.0885 112.065 38.0885 112.659V113.111H32.8853V112.156H36.8399C36.8399 111.821 36.7717 111.524 36.6353 111.266C36.499 111.004 36.3072 110.798 36.06 110.648C35.8157 110.497 35.5288 110.422 35.1992 110.422C34.8413 110.422 34.5288 110.51 34.2617 110.686C33.9975 110.859 33.793 111.087 33.6481 111.368C33.5061 111.646 33.435 111.949 33.435 112.276V113.021C33.435 113.459 33.5117 113.831 33.6652 114.138C33.8214 114.445 34.0387 114.679 34.3171 114.841C34.5956 115 34.9208 115.08 35.293 115.08C35.5345 115.08 35.7546 115.045 35.9535 114.977C36.1524 114.906 36.3242 114.801 36.4691 114.662C36.614 114.523 36.7248 114.351 36.8015 114.146L38.0075 114.364C37.9109 114.719 37.7376 115.03 37.4876 115.297C37.2404 115.561 36.9294 115.767 36.5544 115.915C36.1822 116.06 35.7575 116.132 35.2802 116.132ZM39.3822 116V109.455H40.6137V110.494H40.6819C40.8012 110.142 41.0114 109.865 41.3126 109.663C41.6165 109.459 41.9603 109.357 42.3438 109.357C42.4234 109.357 42.5171 109.359 42.6251 109.365C42.7359 109.371 42.8225 109.378 42.885 109.386V110.605C42.8339 110.591 42.743 110.575 42.6123 110.558C42.4816 110.538 42.3509 110.528 42.2202 110.528C41.9191 110.528 41.6506 110.592 41.4148 110.72C41.1819 110.845 40.9972 111.02 40.8609 111.244C40.7245 111.466 40.6563 111.719 40.6563 112.003V116H39.3822ZM43.8676 116V109.455H45.1418V116H43.8676ZM44.5111 108.445C44.2895 108.445 44.0992 108.371 43.9401 108.223C43.7838 108.072 43.7057 107.893 43.7057 107.686C43.7057 107.476 43.7838 107.297 43.9401 107.149C44.0992 106.999 44.2895 106.923 44.5111 106.923C44.7327 106.923 44.9216 106.999 45.0779 107.149C45.2369 107.297 45.3165 107.476 45.3165 107.686C45.3165 107.893 45.2369 108.072 45.0779 108.223C44.9216 108.371 44.7327 108.445 44.5111 108.445ZM49.5569 116.132C48.912 116.132 48.3566 115.994 47.8907 115.719C47.4277 115.44 47.0697 115.05 46.8169 114.547C46.5669 114.041 46.4419 113.449 46.4419 112.77C46.4419 112.099 46.5669 111.509 46.8169 110.997C47.0697 110.486 47.422 110.087 47.8737 109.8C48.3282 109.513 48.8595 109.369 49.4674 109.369C49.8368 109.369 50.1947 109.43 50.5413 109.553C50.8879 109.675 51.199 109.866 51.4745 110.128C51.7501 110.389 51.9674 110.729 52.1265 111.146C52.2856 111.561 52.3652 112.065 52.3652 112.659V113.111H47.162V112.156H51.1166C51.1166 111.821 51.0484 111.524 50.912 111.266C50.7757 111.004 50.5839 110.798 50.3368 110.648C50.0924 110.497 49.8055 110.422 49.476 110.422C49.118 110.422 48.8055 110.51 48.5385 110.686C48.2743 110.859 48.0697 111.087 47.9248 111.368C47.7828 111.646 47.7118 111.949 47.7118 112.276V113.021C47.7118 113.459 47.7885 113.831 47.9419 114.138C48.0981 114.445 48.3155 114.679 48.5939 114.841C48.8723 115 49.1976 115.08 49.5697 115.08C49.8112 115.08 50.0314 115.045 50.2302 114.977C50.4291 114.906 50.601 114.801 50.7459 114.662C50.8907 114.523 51.0015 114.351 51.0782 114.146L52.2842 114.364C52.1876 114.719 52.0143 115.03 51.7643 115.297C51.5172 115.561 51.2061 115.767 50.8311 115.915C50.4589 116.06 50.0342 116.132 49.5569 116.132ZM58.5637 111.053L57.4089 111.257C57.3606 111.109 57.2839 110.969 57.1788 110.835C57.0765 110.702 56.9373 110.592 56.7612 110.507C56.585 110.422 56.3648 110.379 56.1006 110.379C55.7398 110.379 55.4387 110.46 55.1972 110.622C54.9558 110.781 54.835 110.987 54.835 111.24C54.835 111.459 54.916 111.635 55.0779 111.768C55.2398 111.902 55.5012 112.011 55.862 112.097L56.9018 112.335C57.504 112.474 57.9529 112.689 58.2484 112.979C58.5438 113.268 58.6915 113.645 58.6915 114.108C58.6915 114.5 58.5779 114.849 58.3506 115.156C58.1262 115.46 57.8123 115.699 57.4089 115.872C57.0083 116.045 56.5438 116.132 56.0154 116.132C55.2825 116.132 54.6844 115.976 54.2214 115.663C53.7583 115.348 53.4742 114.901 53.3691 114.321L54.6006 114.134C54.6773 114.455 54.835 114.697 55.0737 114.862C55.3123 115.024 55.6234 115.105 56.0069 115.105C56.4245 115.105 56.7583 115.018 57.0083 114.845C57.2583 114.669 57.3833 114.455 57.3833 114.202C57.3833 113.997 57.3066 113.825 57.1532 113.686C57.0026 113.547 56.7711 113.442 56.4586 113.371L55.3506 113.128C54.7398 112.989 54.2881 112.767 53.9955 112.463C53.7058 112.159 53.5609 111.774 53.5609 111.308C53.5609 110.922 53.6688 110.584 53.8847 110.294C54.1006 110.004 54.3989 109.778 54.7796 109.616C55.1603 109.452 55.5964 109.369 56.0879 109.369C56.7952 109.369 57.3521 109.523 57.7583 109.83C58.1646 110.134 58.433 110.541 58.5637 111.053ZM66.1433 109.455V110.477H62.4444V109.455H66.1433ZM63.4587 116V108.696C63.4587 108.287 63.5481 107.947 63.7271 107.678C63.9061 107.405 64.1433 107.202 64.4388 107.068C64.7342 106.932 65.0552 106.864 65.4018 106.864C65.6575 106.864 65.8763 106.885 66.0581 106.928C66.2399 106.967 66.3748 107.004 66.4629 107.038L66.1646 108.07C66.105 108.053 66.0283 108.033 65.9345 108.01C65.8408 107.984 65.7271 107.972 65.5936 107.972C65.2839 107.972 65.0623 108.048 64.9288 108.202C64.7981 108.355 64.7328 108.577 64.7328 108.866V116H63.4587ZM69.8372 116.132C69.2236 116.132 68.6881 115.991 68.2307 115.71C67.7733 115.429 67.4182 115.036 67.1654 114.53C66.9125 114.024 66.7861 113.433 66.7861 112.757C66.7861 112.078 66.9125 111.484 67.1654 110.976C67.4182 110.467 67.7733 110.072 68.2307 109.791C68.6881 109.51 69.2236 109.369 69.8372 109.369C70.4509 109.369 70.9864 109.51 71.4438 109.791C71.9012 110.072 72.2563 110.467 72.5091 110.976C72.7619 111.484 72.8884 112.078 72.8884 112.757C72.8884 113.433 72.7619 114.024 72.5091 114.53C72.2563 115.036 71.9012 115.429 71.4438 115.71C70.9864 115.991 70.4509 116.132 69.8372 116.132ZM69.8415 115.062C70.2392 115.062 70.5688 114.957 70.8301 114.747C71.0915 114.537 71.2847 114.257 71.4097 113.908C71.5375 113.558 71.6014 113.173 71.6014 112.753C71.6014 112.335 71.5375 111.952 71.4097 111.602C71.2847 111.25 71.0915 110.967 70.8301 110.754C70.5688 110.541 70.2392 110.435 69.8415 110.435C69.4409 110.435 69.1085 110.541 68.8443 110.754C68.583 110.967 68.3884 111.25 68.2605 111.602C68.1355 111.952 68.073 112.335 68.073 112.753C68.073 113.173 68.1355 113.558 68.2605 113.908C68.3884 114.257 68.583 114.537 68.8443 114.747C69.1085 114.957 69.4409 115.062 69.8415 115.062ZM74.1906 116V109.455H75.4221V110.494H75.4903C75.6096 110.142 75.8199 109.865 76.121 109.663C76.425 109.459 76.7687 109.357 77.1522 109.357C77.2318 109.357 77.3255 109.359 77.4335 109.365C77.5443 109.371 77.6309 109.378 77.6934 109.386V110.605C77.6423 110.591 77.5514 110.575 77.4207 110.558C77.29 110.538 77.1593 110.528 77.0287 110.528C76.7275 110.528 76.4591 110.592 76.2233 110.72C75.9903 110.845 75.8057 111.02 75.6693 111.244C75.5329 111.466 75.4647 111.719 75.4647 112.003V116H74.1906ZM89.0827 110.111H87.7532C87.702 109.827 87.6068 109.577 87.4676 109.361C87.3284 109.145 87.158 108.962 86.9563 108.811C86.7546 108.661 86.5287 108.547 86.2787 108.47C86.0316 108.393 85.7688 108.355 85.4904 108.355C84.9875 108.355 84.5372 108.482 84.1395 108.734C83.7446 108.987 83.4321 109.358 83.202 109.847C82.9747 110.335 82.8611 110.932 82.8611 111.636C82.8611 112.347 82.9747 112.946 83.202 113.435C83.4321 113.923 83.7461 114.293 84.1438 114.543C84.5415 114.793 84.9889 114.918 85.4861 114.918C85.7617 114.918 86.023 114.881 86.2702 114.807C86.5202 114.73 86.7461 114.618 86.9478 114.47C87.1495 114.322 87.3199 114.142 87.4591 113.929C87.6012 113.713 87.6992 113.466 87.7532 113.188L89.0827 113.192C89.0117 113.621 88.8739 114.016 88.6693 114.376C88.4676 114.734 88.2077 115.044 87.8895 115.305C87.5742 115.564 87.2134 115.764 86.8071 115.906C86.4009 116.048 85.9577 116.119 85.4776 116.119C84.7219 116.119 84.0486 115.94 83.4577 115.582C82.8668 115.222 82.4009 114.706 82.06 114.036C81.7219 113.365 81.5529 112.565 81.5529 111.636C81.5529 110.705 81.7233 109.905 82.0642 109.237C82.4051 108.567 82.8711 108.053 83.462 107.695C84.0529 107.334 84.7247 107.153 85.4776 107.153C85.9407 107.153 86.3725 107.22 86.773 107.354C87.1764 107.484 87.5387 107.678 87.8597 107.933C88.1807 108.186 88.4463 108.496 88.6566 108.862C88.8668 109.226 89.0088 109.642 89.0827 110.111ZM91.7102 112.114V116H90.4361V107.273H91.6932V110.52H91.7741C91.9275 110.168 92.1619 109.888 92.4773 109.68C92.7926 109.473 93.2045 109.369 93.7131 109.369C94.1619 109.369 94.554 109.462 94.8892 109.646C95.2273 109.831 95.4886 110.107 95.6733 110.473C95.8608 110.837 95.9545 111.291 95.9545 111.837V116H94.6804V111.99C94.6804 111.51 94.5568 111.138 94.3096 110.874C94.0625 110.607 93.7187 110.473 93.2784 110.473C92.9773 110.473 92.7074 110.537 92.4687 110.665C92.2329 110.793 92.0469 110.98 91.9105 111.227C91.777 111.472 91.7102 111.767 91.7102 112.114ZM99.4396 116.145C99.0249 116.145 98.6499 116.068 98.3146 115.915C97.9794 115.759 97.7138 115.533 97.5178 115.237C97.3246 114.942 97.228 114.58 97.228 114.151C97.228 113.781 97.299 113.477 97.4411 113.239C97.5831 113 97.7749 112.811 98.0164 112.672C98.2578 112.533 98.5277 112.428 98.826 112.357C99.1243 112.286 99.4283 112.232 99.7379 112.195C100.13 112.149 100.448 112.112 100.692 112.084C100.937 112.053 101.114 112.003 101.225 111.935C101.336 111.866 101.391 111.756 101.391 111.602V111.572C101.391 111.2 101.286 110.912 101.076 110.707C100.869 110.503 100.559 110.401 100.147 110.401C99.7181 110.401 99.38 110.496 99.1328 110.686C98.8885 110.874 98.7195 111.082 98.6257 111.312L97.4283 111.04C97.5703 110.642 97.7777 110.321 98.0504 110.077C98.326 109.83 98.6428 109.651 99.0007 109.54C99.3587 109.426 99.7351 109.369 100.13 109.369C100.391 109.369 100.668 109.401 100.961 109.463C101.256 109.523 101.532 109.634 101.788 109.795C102.046 109.957 102.258 110.189 102.423 110.49C102.587 110.788 102.67 111.176 102.67 111.653V116H101.425V115.105H101.374C101.292 115.27 101.168 115.432 101.004 115.591C100.839 115.75 100.627 115.882 100.369 115.987C100.11 116.092 99.8004 116.145 99.4396 116.145ZM99.7166 115.122C100.069 115.122 100.37 115.053 100.62 114.913C100.873 114.774 101.065 114.592 101.195 114.368C101.329 114.141 101.396 113.898 101.396 113.639V112.795C101.35 112.841 101.262 112.884 101.131 112.923C101.004 112.96 100.857 112.993 100.692 113.021C100.528 113.047 100.367 113.071 100.211 113.094C100.055 113.114 99.924 113.131 99.8189 113.145C99.5717 113.176 99.3459 113.229 99.1414 113.303C98.9396 113.376 98.7777 113.483 98.6556 113.622C98.5362 113.759 98.4766 113.94 98.4766 114.168C98.4766 114.483 98.5931 114.722 98.826 114.884C99.059 115.043 99.3558 115.122 99.7166 115.122ZM105.521 112.114V116H104.247V109.455H105.47V110.52H105.551C105.701 110.173 105.937 109.895 106.258 109.685C106.582 109.474 106.99 109.369 107.481 109.369C107.927 109.369 108.318 109.463 108.653 109.651C108.988 109.835 109.248 110.111 109.433 110.477C109.618 110.844 109.71 111.297 109.71 111.837V116H108.436V111.99C108.436 111.516 108.312 111.145 108.065 110.878C107.818 110.608 107.478 110.473 107.047 110.473C106.751 110.473 106.488 110.537 106.258 110.665C106.031 110.793 105.851 110.98 105.717 111.227C105.586 111.472 105.521 111.767 105.521 112.114ZM112.573 112.114V116H111.299V109.455H112.522V110.52H112.603C112.753 110.173 112.989 109.895 113.31 109.685C113.634 109.474 114.042 109.369 114.533 109.369C114.979 109.369 115.37 109.463 115.705 109.651C116.04 109.835 116.3 110.111 116.485 110.477C116.669 110.844 116.762 111.297 116.762 111.837V116H115.488V111.99C115.488 111.516 115.364 111.145 115.117 110.878C114.87 110.608 114.53 110.473 114.098 110.473C113.803 110.473 113.54 110.537 113.31 110.665C113.083 110.793 112.902 110.98 112.769 111.227C112.638 111.472 112.573 111.767 112.573 112.114ZM121.172 116.132C120.527 116.132 119.971 115.994 119.505 115.719C119.042 115.44 118.684 115.05 118.432 114.547C118.182 114.041 118.057 113.449 118.057 112.77C118.057 112.099 118.182 111.509 118.432 110.997C118.684 110.486 119.037 110.087 119.488 109.8C119.943 109.513 120.474 109.369 121.082 109.369C121.451 109.369 121.809 109.43 122.156 109.553C122.503 109.675 122.814 109.866 123.089 110.128C123.365 110.389 123.582 110.729 123.741 111.146C123.9 111.561 123.98 112.065 123.98 112.659V113.111H118.777V112.156H122.731C122.731 111.821 122.663 111.524 122.527 111.266C122.39 111.004 122.199 110.798 121.951 110.648C121.707 110.497 121.42 110.422 121.091 110.422C120.733 110.422 120.42 110.51 120.153 110.686C119.889 110.859 119.684 111.087 119.54 111.368C119.397 111.646 119.326 111.949 119.326 112.276V113.021C119.326 113.459 119.403 113.831 119.557 114.138C119.713 114.445 119.93 114.679 120.209 114.841C120.487 115 120.812 115.08 121.184 115.08C121.426 115.08 121.646 115.045 121.845 114.977C122.044 114.906 122.216 114.801 122.361 114.662C122.505 114.523 122.616 114.351 122.693 114.146L123.899 114.364C123.802 114.719 123.629 115.03 123.379 115.297C123.132 115.561 122.821 115.767 122.446 115.915C122.074 116.06 121.649 116.132 121.172 116.132ZM126.548 107.273V116H125.274V107.273H126.548ZM131.181 116V115.045L134.134 111.986C134.449 111.653 134.709 111.362 134.914 111.112C135.121 110.859 135.276 110.619 135.378 110.392C135.48 110.165 135.531 109.923 135.531 109.668C135.531 109.378 135.463 109.128 135.327 108.918C135.191 108.705 135.004 108.541 134.769 108.428C134.533 108.311 134.267 108.253 133.972 108.253C133.659 108.253 133.387 108.317 133.154 108.445C132.921 108.572 132.742 108.753 132.617 108.986C132.492 109.219 132.429 109.491 132.429 109.804H131.172C131.172 109.273 131.294 108.808 131.539 108.411C131.783 108.013 132.118 107.705 132.544 107.486C132.97 107.264 133.455 107.153 133.997 107.153C134.546 107.153 135.029 107.263 135.446 107.482C135.867 107.697 136.195 107.993 136.431 108.368C136.666 108.74 136.784 109.161 136.784 109.629C136.784 109.953 136.723 110.27 136.601 110.58C136.482 110.889 136.273 111.234 135.975 111.615C135.676 111.993 135.262 112.452 134.73 112.991L132.996 114.807V114.871H136.925V116H131.181Z" fill="white"/>
<path d="M29.7188 17.5653C29.6733 17.1619 29.4858 16.8494 29.1562 16.6278C28.8267 16.4034 28.4119 16.2912 27.9119 16.2912C27.554 16.2912 27.2443 16.348 26.983 16.4616C26.7216 16.5724 26.5185 16.7259 26.3736 16.9219C26.2315 17.1151 26.1605 17.3352 26.1605 17.5824C26.1605 17.7898 26.2088 17.9687 26.3054 18.1193C26.4048 18.2699 26.5341 18.3963 26.6932 18.4986C26.8551 18.598 27.0284 18.6818 27.2131 18.75C27.3977 18.8153 27.5753 18.8693 27.7457 18.9119L28.598 19.1335C28.8764 19.2017 29.1619 19.294 29.4545 19.4105C29.7472 19.527 30.0185 19.6804 30.2685 19.8707C30.5185 20.0611 30.7202 20.2969 30.8736 20.5781C31.0298 20.8594 31.108 21.196 31.108 21.5881C31.108 22.0824 30.9801 22.5213 30.7244 22.9048C30.4716 23.2884 30.1037 23.5909 29.6207 23.8125C29.1406 24.0341 28.5597 24.1449 27.8778 24.1449C27.2244 24.1449 26.6591 24.0412 26.1818 23.8338C25.7045 23.6264 25.331 23.3324 25.0611 22.9517C24.7912 22.5682 24.642 22.1136 24.6136 21.5881H25.9347C25.9602 21.9034 26.0625 22.1662 26.2415 22.3764C26.4233 22.5838 26.6548 22.7386 26.9361 22.8409C27.2202 22.9403 27.5312 22.9901 27.8693 22.9901C28.2415 22.9901 28.5724 22.9318 28.8622 22.8153C29.1548 22.696 29.3849 22.5312 29.5526 22.321C29.7202 22.108 29.804 21.8594 29.804 21.5753C29.804 21.3168 29.7301 21.1051 29.5824 20.9403C29.4375 20.7756 29.2401 20.6392 28.9901 20.5312C28.7429 20.4233 28.4631 20.3281 28.1506 20.2457L27.1193 19.9645C26.4205 19.7741 25.8665 19.4943 25.4574 19.125C25.0511 18.7557 24.848 18.267 24.848 17.6591C24.848 17.1562 24.9844 16.7173 25.2571 16.3423C25.5298 15.9673 25.8991 15.6761 26.3651 15.4688C26.831 15.2585 27.3565 15.1534 27.9418 15.1534C28.5327 15.1534 29.054 15.2571 29.5057 15.4645C29.9602 15.6719 30.3182 15.9574 30.5795 16.321C30.8409 16.6818 30.9773 17.0966 30.9886 17.5653H29.7188ZM35.2802 24.1321C34.6353 24.1321 34.0799 23.9943 33.614 23.7188C33.151 23.4403 32.793 23.0497 32.5402 22.5469C32.2902 22.0412 32.1652 21.4489 32.1652 20.7699C32.1652 20.0994 32.2902 19.5085 32.5402 18.9972C32.793 18.4858 33.1453 18.0866 33.597 17.7997C34.0515 17.5128 34.5828 17.3693 35.1907 17.3693C35.56 17.3693 35.918 17.4304 36.2646 17.5526C36.6112 17.6747 36.9223 17.8665 37.1978 18.1278C37.4734 18.3892 37.6907 18.7287 37.8498 19.1463C38.0089 19.5611 38.0885 20.0653 38.0885 20.6591V21.1108H32.8853V20.1562H36.8399C36.8399 19.821 36.7717 19.5241 36.6353 19.2656C36.499 19.0043 36.3072 18.7983 36.06 18.6477C35.8157 18.4972 35.5288 18.4219 35.1992 18.4219C34.8413 18.4219 34.5288 18.5099 34.2617 18.6861C33.9975 18.8594 33.793 19.0866 33.6481 19.3679C33.5061 19.6463 33.435 19.9489 33.435 20.2756V21.0213C33.435 21.4588 33.5117 21.831 33.6652 22.1378C33.8214 22.4446 34.0387 22.679 34.3171 22.8409C34.5956 23 34.9208 23.0795 35.293 23.0795C35.5345 23.0795 35.7546 23.0455 35.9535 22.9773C36.1524 22.9062 36.3242 22.8011 36.4691 22.6619C36.614 22.5227 36.7248 22.3509 36.8015 22.1463L38.0075 22.3636C37.9109 22.7187 37.7376 23.0298 37.4876 23.2969C37.2404 23.5611 36.9294 23.767 36.5544 23.9148C36.1822 24.0597 35.7575 24.1321 35.2802 24.1321ZM39.3822 24V17.4545H40.6137V18.4943H40.6819C40.8012 18.142 41.0114 17.8651 41.3126 17.6634C41.6165 17.4588 41.9603 17.3565 42.3438 17.3565C42.4234 17.3565 42.5171 17.3594 42.6251 17.3651C42.7359 17.3707 42.8225 17.3778 42.885 17.3864V18.6051C42.8339 18.5909 42.743 18.5753 42.6123 18.5582C42.4816 18.5384 42.3509 18.5284 42.2202 18.5284C41.9191 18.5284 41.6506 18.5923 41.4148 18.7202C41.1819 18.8452 40.9972 19.0199 40.8609 19.2443C40.7245 19.4659 40.6563 19.7187 40.6563 20.0028V24H39.3822ZM43.8676 24V17.4545H45.1418V24H43.8676ZM44.5111 16.4446C44.2895 16.4446 44.0992 16.3707 43.9401 16.223C43.7838 16.0724 43.7057 15.8935 43.7057 15.6861C43.7057 15.4759 43.7838 15.2969 43.9401 15.1491C44.0992 14.9986 44.2895 14.9233 44.5111 14.9233C44.7327 14.9233 44.9216 14.9986 45.0779 15.1491C45.2369 15.2969 45.3165 15.4759 45.3165 15.6861C45.3165 15.8935 45.2369 16.0724 45.0779 16.223C44.9216 16.3707 44.7327 16.4446 44.5111 16.4446ZM49.5569 24.1321C48.912 24.1321 48.3566 23.9943 47.8907 23.7188C47.4277 23.4403 47.0697 23.0497 46.8169 22.5469C46.5669 22.0412 46.4419 21.4489 46.4419 20.7699C46.4419 20.0994 46.5669 19.5085 46.8169 18.9972C47.0697 18.4858 47.422 18.0866 47.8737 17.7997C48.3282 17.5128 48.8595 17.3693 49.4674 17.3693C49.8368 17.3693 50.1947 17.4304 50.5413 17.5526C50.8879 17.6747 51.199 17.8665 51.4745 18.1278C51.7501 18.3892 51.9674 18.7287 52.1265 19.1463C52.2856 19.5611 52.3652 20.0653 52.3652 20.6591V21.1108H47.162V20.1562H51.1166C51.1166 19.821 51.0484 19.5241 50.912 19.2656C50.7757 19.0043 50.5839 18.7983 50.3368 18.6477C50.0924 18.4972 49.8055 18.4219 49.476 18.4219C49.118 18.4219 48.8055 18.5099 48.5385 18.6861C48.2743 18.8594 48.0697 19.0866 47.9248 19.3679C47.7828 19.6463 47.7118 19.9489 47.7118 20.2756V21.0213C47.7118 21.4588 47.7885 21.831 47.9419 22.1378C48.0981 22.4446 48.3155 22.679 48.5939 22.8409C48.8723 23 49.1976 23.0795 49.5697 23.0795C49.8112 23.0795 50.0314 23.0455 50.2302 22.9773C50.4291 22.9062 50.601 22.8011 50.7459 22.6619C50.8907 22.5227 51.0015 22.3509 51.0782 22.1463L52.2842 22.3636C52.1876 22.7187 52.0143 23.0298 51.7643 23.2969C51.5172 23.5611 51.2061 23.767 50.8311 23.9148C50.4589 24.0597 50.0342 24.1321 49.5569 24.1321ZM58.5637 19.0526L57.4089 19.2571C57.3606 19.1094 57.2839 18.9687 57.1788 18.8352C57.0765 18.7017 56.9373 18.5923 56.7612 18.5071C56.585 18.4219 56.3648 18.3793 56.1006 18.3793C55.7398 18.3793 55.4387 18.4602 55.1972 18.6222C54.9558 18.7812 54.835 18.9872 54.835 19.2401C54.835 19.4588 54.916 19.6349 55.0779 19.7685C55.2398 19.902 55.5012 20.0114 55.862 20.0966L56.9018 20.3352C57.504 20.4744 57.9529 20.6889 58.2484 20.9787C58.5438 21.2685 58.6915 21.6449 58.6915 22.108C58.6915 22.5 58.5779 22.8494 58.3506 23.1562C58.1262 23.4602 57.8123 23.6989 57.4089 23.8722C57.0083 24.0455 56.5438 24.1321 56.0154 24.1321C55.2825 24.1321 54.6844 23.9759 54.2214 23.6634C53.7583 23.348 53.4742 22.9006 53.3691 22.321L54.6006 22.1335C54.6773 22.4545 54.835 22.6974 55.0737 22.8622C55.3123 23.0241 55.6234 23.1051 56.0069 23.1051C56.4245 23.1051 56.7583 23.0185 57.0083 22.8452C57.2583 22.669 57.3833 22.4545 57.3833 22.2017C57.3833 21.9972 57.3066 21.8253 57.1532 21.6861C57.0026 21.5469 56.7711 21.4418 56.4586 21.3707L55.3506 21.1278C54.7398 20.9886 54.2881 20.767 53.9955 20.4631C53.7058 20.1591 53.5609 19.7741 53.5609 19.3082C53.5609 18.9219 53.6688 18.5838 53.8847 18.294C54.1006 18.0043 54.3989 17.7784 54.7796 17.6165C55.1603 17.4517 55.5964 17.3693 56.0879 17.3693C56.7952 17.3693 57.3521 17.5227 57.7583 17.8295C58.1646 18.1335 58.433 18.5412 58.5637 19.0526ZM66.1433 17.4545V18.4773H62.4444V17.4545H66.1433ZM63.4587 24V16.696C63.4587 16.2869 63.5481 15.9474 63.7271 15.6776C63.9061 15.4048 64.1433 15.2017 64.4388 15.0682C64.7342 14.9318 65.0552 14.8636 65.4018 14.8636C65.6575 14.8636 65.8763 14.8849 66.0581 14.9276C66.2399 14.9673 66.3748 15.0043 66.4629 15.0384L66.1646 16.0696C66.105 16.0526 66.0283 16.0327 65.9345 16.0099C65.8408 15.9844 65.7271 15.9716 65.5936 15.9716C65.2839 15.9716 65.0623 16.0483 64.9288 16.2017C64.7981 16.3551 64.7328 16.5767 64.7328 16.8665V24H63.4587ZM69.8372 24.1321C69.2236 24.1321 68.6881 23.9915 68.2307 23.7102C67.7733 23.429 67.4182 23.0355 67.1654 22.5298C66.9125 22.0241 66.7861 21.4332 66.7861 20.7571C66.7861 20.0781 66.9125 19.4844 67.1654 18.9759C67.4182 18.4673 67.7733 18.0724 68.2307 17.7912C68.6881 17.5099 69.2236 17.3693 69.8372 17.3693C70.4509 17.3693 70.9864 17.5099 71.4438 17.7912C71.9012 18.0724 72.2563 18.4673 72.5091 18.9759C72.7619 19.4844 72.8884 20.0781 72.8884 20.7571C72.8884 21.4332 72.7619 22.0241 72.5091 22.5298C72.2563 23.0355 71.9012 23.429 71.4438 23.7102C70.9864 23.9915 70.4509 24.1321 69.8372 24.1321ZM69.8415 23.0625C70.2392 23.0625 70.5688 22.9574 70.8301 22.7472C71.0915 22.5369 71.2847 22.2571 71.4097 21.9077C71.5375 21.5582 71.6014 21.1733 71.6014 20.7528C71.6014 20.3352 71.5375 19.9517 71.4097 19.6023C71.2847 19.25 71.0915 18.9673 70.8301 18.7543C70.5688 18.5412 70.2392 18.4347 69.8415 18.4347C69.4409 18.4347 69.1085 18.5412 68.8443 18.7543C68.583 18.9673 68.3884 19.25 68.2605 19.6023C68.1355 19.9517 68.073 20.3352 68.073 20.7528C68.073 21.1733 68.1355 21.5582 68.2605 21.9077C68.3884 22.2571 68.583 22.5369 68.8443 22.7472C69.1085 22.9574 69.4409 23.0625 69.8415 23.0625ZM74.1906 24V17.4545H75.4221V18.4943H75.4903C75.6096 18.142 75.8199 17.8651 76.121 17.6634C76.425 17.4588 76.7687 17.3565 77.1522 17.3565C77.2318 17.3565 77.3255 17.3594 77.4335 17.3651C77.5443 17.3707 77.6309 17.3778 77.6934 17.3864V18.6051C77.6423 18.5909 77.5514 18.5753 77.4207 18.5582C77.29 18.5384 77.1593 18.5284 77.0287 18.5284C76.7275 18.5284 76.4591 18.5923 76.2233 18.7202C75.9903 18.8452 75.8057 19.0199 75.6693 19.2443C75.5329 19.4659 75.4647 19.7187 75.4647 20.0028V24H74.1906ZM89.0827 18.1108H87.7532C87.702 17.8267 87.6068 17.5767 87.4676 17.3608C87.3284 17.1449 87.158 16.9616 86.9563 16.8111C86.7546 16.6605 86.5287 16.5469 86.2787 16.4702C86.0316 16.3935 85.7688 16.3551 85.4904 16.3551C84.9875 16.3551 84.5372 16.4815 84.1395 16.7344C83.7446 16.9872 83.4321 17.358 83.202 17.8466C82.9747 18.3352 82.8611 18.9318 82.8611 19.6364C82.8611 20.3466 82.9747 20.946 83.202 21.4347C83.4321 21.9233 83.7461 22.2926 84.1438 22.5426C84.5415 22.7926 84.9889 22.9176 85.4861 22.9176C85.7617 22.9176 86.023 22.8807 86.2702 22.8068C86.5202 22.7301 86.7461 22.6179 86.9478 22.4702C87.1495 22.3224 87.3199 22.142 87.4591 21.929C87.6012 21.7131 87.6992 21.4659 87.7532 21.1875L89.0827 21.1918C89.0117 21.6207 88.8739 22.0156 88.6693 22.3764C88.4676 22.7344 88.2077 23.044 87.8895 23.3054C87.5742 23.5639 87.2134 23.7642 86.8071 23.9062C86.4009 24.0483 85.9577 24.1193 85.4776 24.1193C84.7219 24.1193 84.0486 23.9403 83.4577 23.5824C82.8668 23.2216 82.4009 22.706 82.06 22.0355C81.7219 21.3651 81.5529 20.5653 81.5529 19.6364C81.5529 18.7045 81.7233 17.9048 82.0642 17.2372C82.4051 16.5668 82.8711 16.0526 83.462 15.6946C84.0529 15.3338 84.7247 15.1534 85.4776 15.1534C85.9407 15.1534 86.3725 15.2202 86.773 15.3537C87.1764 15.4844 87.5387 15.6776 87.8597 15.9332C88.1807 16.1861 88.4463 16.4957 88.6566 16.8622C88.8668 17.2259 89.0088 17.642 89.0827 18.1108ZM91.7102 20.1136V24H90.4361V15.2727H91.6932V18.5199H91.7741C91.9275 18.1676 92.1619 17.8878 92.4773 17.6804C92.7926 17.473 93.2045 17.3693 93.7131 17.3693C94.1619 17.3693 94.554 17.4616 94.8892 17.6463C95.2273 17.831 95.4886 18.1065 95.6733 18.473C95.8608 18.8366 95.9545 19.2912 95.9545 19.8366V24H94.6804V19.9901C94.6804 19.5099 94.5568 19.1378 94.3096 18.8736C94.0625 18.6065 93.7187 18.473 93.2784 18.473C92.9773 18.473 92.7074 18.5369 92.4687 18.6648C92.2329 18.7926 92.0469 18.9801 91.9105 19.2273C91.777 19.4716 91.7102 19.767 91.7102 20.1136ZM99.4396 24.1449C99.0249 24.1449 98.6499 24.0682 98.3146 23.9148C97.9794 23.7585 97.7138 23.5327 97.5178 23.2372C97.3246 22.9418 97.228 22.5795 97.228 22.1506C97.228 21.7812 97.299 21.4773 97.4411 21.2386C97.5831 21 97.7749 20.8111 98.0164 20.6719C98.2578 20.5327 98.5277 20.4276 98.826 20.3565C99.1243 20.2855 99.4283 20.2315 99.7379 20.1946C100.13 20.1491 100.448 20.1122 100.692 20.0838C100.937 20.0526 101.114 20.0028 101.225 19.9347C101.336 19.8665 101.391 19.7557 101.391 19.6023V19.5724C101.391 19.2003 101.286 18.9119 101.076 18.7074C100.869 18.5028 100.559 18.4006 100.147 18.4006C99.7181 18.4006 99.38 18.4957 99.1328 18.6861C98.8885 18.8736 98.7195 19.0824 98.6257 19.3125L97.4283 19.0398C97.5703 18.642 97.7777 18.321 98.0504 18.0767C98.326 17.8295 98.6428 17.6506 99.0007 17.5398C99.3587 17.4261 99.7351 17.3693 100.13 17.3693C100.391 17.3693 100.668 17.4006 100.961 17.4631C101.256 17.5227 101.532 17.6335 101.788 17.7955C102.046 17.9574 102.258 18.1889 102.423 18.4901C102.587 18.7884 102.67 19.1761 102.67 19.6534V24H101.425V23.1051H101.374C101.292 23.2699 101.168 23.4318 101.004 23.5909C100.839 23.75 100.627 23.8821 100.369 23.9872C100.11 24.0923 99.8004 24.1449 99.4396 24.1449ZM99.7166 23.1222C100.069 23.1222 100.37 23.0526 100.62 22.9134C100.873 22.7741 101.065 22.5923 101.195 22.3679C101.329 22.1406 101.396 21.8977 101.396 21.6392V20.7955C101.35 20.8409 101.262 20.8835 101.131 20.9233C101.004 20.9602 100.857 20.9929 100.692 21.0213C100.528 21.0469 100.367 21.071 100.211 21.0938C100.055 21.1136 99.924 21.1307 99.8189 21.1449C99.5717 21.1761 99.3459 21.2287 99.1414 21.3026C98.9396 21.3764 98.7777 21.483 98.6556 21.6222C98.5362 21.7585 98.4766 21.9403 98.4766 22.1676C98.4766 22.483 98.5931 22.7216 98.826 22.8835C99.059 23.0426 99.3558 23.1222 99.7166 23.1222ZM105.521 20.1136V24H104.247V17.4545H105.47V18.5199H105.551C105.701 18.1733 105.937 17.8949 106.258 17.6847C106.582 17.4744 106.99 17.3693 107.481 17.3693C107.927 17.3693 108.318 17.4631 108.653 17.6506C108.988 17.8352 109.248 18.1108 109.433 18.4773C109.618 18.8437 109.71 19.2969 109.71 19.8366V24H108.436V19.9901C108.436 19.5156 108.312 19.1449 108.065 18.8778C107.818 18.608 107.478 18.473 107.047 18.473C106.751 18.473 106.488 18.5369 106.258 18.6648C106.031 18.7926 105.851 18.9801 105.717 19.2273C105.586 19.4716 105.521 19.767 105.521 20.1136ZM112.573 20.1136V24H111.299V17.4545H112.522V18.5199H112.603C112.753 18.1733 112.989 17.8949 113.31 17.6847C113.634 17.4744 114.042 17.3693 114.533 17.3693C114.979 17.3693 115.37 17.4631 115.705 17.6506C116.04 17.8352 116.3 18.1108 116.485 18.4773C116.669 18.8437 116.762 19.2969 116.762 19.8366V24H115.488V19.9901C115.488 19.5156 115.364 19.1449 115.117 18.8778C114.87 18.608 114.53 18.473 114.098 18.473C113.803 18.473 113.54 18.5369 113.31 18.6648C113.083 18.7926 112.902 18.9801 112.769 19.2273C112.638 19.4716 112.573 19.767 112.573 20.1136ZM121.172 24.1321C120.527 24.1321 119.971 23.9943 119.505 23.7188C119.042 23.4403 118.684 23.0497 118.432 22.5469C118.182 22.0412 118.057 21.4489 118.057 20.7699C118.057 20.0994 118.182 19.5085 118.432 18.9972C118.684 18.4858 119.037 18.0866 119.488 17.7997C119.943 17.5128 120.474 17.3693 121.082 17.3693C121.451 17.3693 121.809 17.4304 122.156 17.5526C122.503 17.6747 122.814 17.8665 123.089 18.1278C123.365 18.3892 123.582 18.7287 123.741 19.1463C123.9 19.5611 123.98 20.0653 123.98 20.6591V21.1108H118.777V20.1562H122.731C122.731 19.821 122.663 19.5241 122.527 19.2656C122.39 19.0043 122.199 18.7983 121.951 18.6477C121.707 18.4972 121.42 18.4219 121.091 18.4219C120.733 18.4219 120.42 18.5099 120.153 18.6861C119.889 18.8594 119.684 19.0866 119.54 19.3679C119.397 19.6463 119.326 19.9489 119.326 20.2756V21.0213C119.326 21.4588 119.403 21.831 119.557 22.1378C119.713 22.4446 119.93 22.679 120.209 22.8409C120.487 23 120.812 23.0795 121.184 23.0795C121.426 23.0795 121.646 23.0455 121.845 22.9773C122.044 22.9062 122.216 22.8011 122.361 22.6619C122.505 22.5227 122.616 22.3509 122.693 22.1463L123.899 22.3636C123.802 22.7187 123.629 23.0298 123.379 23.2969C123.132 23.5611 122.821 23.767 122.446 23.9148C122.074 24.0597 121.649 24.1321 121.172 24.1321ZM126.548 15.2727V24H125.274V15.2727H126.548ZM134.492 15.2727V24H133.171V16.5938H133.12L131.031 17.9574V16.696L133.209 15.2727H134.492Z" fill="white"/>
<path d="M1.69602 219H0.298295L3.43892 210.273H4.96023L8.10085 219H6.70312L4.2358 211.858H4.16761L1.69602 219ZM1.9304 215.582H6.46449V216.69H1.9304V215.582ZM12.2969 219V210.273H17.7089V211.406H13.6137V214.065H17.3211V215.195H13.6137V219H12.2969ZM19.0239 219V212.455H20.2554V213.494H20.3236C20.4429 213.142 20.6531 212.865 20.9543 212.663C21.2583 212.459 21.602 212.357 21.9855 212.357C22.0651 212.357 22.1588 212.359 22.2668 212.365C22.3776 212.371 22.4642 212.378 22.5267 212.386V213.605C22.4756 213.591 22.3847 213.575 22.254 213.558C22.1233 213.538 21.9926 213.528 21.8619 213.528C21.5608 213.528 21.2923 213.592 21.0565 213.72C20.8236 213.845 20.6389 214.02 20.5026 214.244C20.3662 214.466 20.298 214.719 20.298 215.003V219H19.0239ZM25.3556 219.145C24.9408 219.145 24.5658 219.068 24.2306 218.915C23.8954 218.759 23.6297 218.533 23.4337 218.237C23.2405 217.942 23.1439 217.58 23.1439 217.151C23.1439 216.781 23.215 216.477 23.357 216.239C23.499 216 23.6908 215.811 23.9323 215.672C24.1738 215.533 24.4437 215.428 24.7419 215.357C25.0402 215.286 25.3442 215.232 25.6539 215.195C26.0459 215.149 26.3641 215.112 26.6084 215.084C26.8527 215.053 27.0303 215.003 27.1411 214.935C27.2519 214.866 27.3073 214.756 27.3073 214.602V214.572C27.3073 214.2 27.2022 213.912 26.9919 213.707C26.7846 213.503 26.4749 213.401 26.063 213.401C25.634 213.401 25.2959 213.496 25.0488 213.686C24.8044 213.874 24.6354 214.082 24.5417 214.312L23.3442 214.04C23.4863 213.642 23.6937 213.321 23.9664 213.077C24.2419 212.83 24.5587 212.651 24.9167 212.54C25.2746 212.426 25.651 212.369 26.0459 212.369C26.3073 212.369 26.5843 212.401 26.8769 212.463C27.1723 212.523 27.4479 212.634 27.7036 212.795C27.9621 212.957 28.1738 213.189 28.3385 213.49C28.5033 213.788 28.5857 214.176 28.5857 214.653V219H27.3414V218.105H27.2902C27.2079 218.27 27.0843 218.432 26.9195 218.591C26.7547 218.75 26.5431 218.882 26.2846 218.987C26.026 219.092 25.7164 219.145 25.3556 219.145ZM25.6326 218.122C25.9848 218.122 26.286 218.053 26.536 217.913C26.7888 217.774 26.9806 217.592 27.1113 217.368C27.2448 217.141 27.3115 216.898 27.3115 216.639V215.795C27.2661 215.841 27.178 215.884 27.0473 215.923C26.9195 215.96 26.7732 215.993 26.6084 216.021C26.4437 216.047 26.2831 216.071 26.1269 216.094C25.9706 216.114 25.84 216.131 25.7348 216.145C25.4877 216.176 25.2618 216.229 25.0573 216.303C24.8556 216.376 24.6937 216.483 24.5715 216.622C24.4522 216.759 24.3925 216.94 24.3925 217.168C24.3925 217.483 24.509 217.722 24.7419 217.884C24.9749 218.043 25.2718 218.122 25.6326 218.122ZM30.1628 219V212.455H31.3858V213.52H31.4668C31.6031 213.159 31.8261 212.878 32.1358 212.676C32.4455 212.472 32.8162 212.369 33.248 212.369C33.6855 212.369 34.052 212.472 34.3474 212.676C34.6457 212.881 34.8659 213.162 35.008 213.52H35.0761C35.2324 213.17 35.481 212.892 35.8219 212.685C36.1628 212.474 36.569 212.369 37.0406 212.369C37.6344 212.369 38.1187 212.555 38.4937 212.928C38.8716 213.3 39.0605 213.861 39.0605 214.611V219H37.7864V214.73C37.7864 214.287 37.6656 213.966 37.4241 213.767C37.1827 213.568 36.8943 213.469 36.5591 213.469C36.1443 213.469 35.8219 213.597 35.5918 213.852C35.3616 214.105 35.2466 214.43 35.2466 214.828V219H33.9767V214.649C33.9767 214.294 33.8659 214.009 33.6443 213.793C33.4227 213.577 33.1344 213.469 32.7793 213.469C32.5378 213.469 32.3148 213.533 32.1102 213.661C31.9085 213.786 31.7452 213.96 31.6202 214.185C31.498 214.409 31.4369 214.669 31.4369 214.964V219H30.1628ZM43.4693 219.132C42.8244 219.132 42.269 218.994 41.8031 218.719C41.34 218.44 40.9821 218.05 40.7292 217.547C40.4792 217.041 40.3542 216.449 40.3542 215.77C40.3542 215.099 40.4792 214.509 40.7292 213.997C40.9821 213.486 41.3343 213.087 41.786 212.8C42.2406 212.513 42.7718 212.369 43.3798 212.369C43.7491 212.369 44.1071 212.43 44.4536 212.553C44.8002 212.675 45.1113 212.866 45.3869 213.128C45.6625 213.389 45.8798 213.729 46.0389 214.146C46.198 214.561 46.2775 215.065 46.2775 215.659V216.111H41.0744V215.156H45.0289C45.0289 214.821 44.9608 214.524 44.8244 214.266C44.688 214.004 44.4963 213.798 44.2491 213.648C44.0048 213.497 43.7179 213.422 43.3883 213.422C43.0304 213.422 42.7179 213.51 42.4508 213.686C42.1866 213.859 41.9821 214.087 41.8372 214.368C41.6951 214.646 41.6241 214.949 41.6241 215.276V216.021C41.6241 216.459 41.7008 216.831 41.8542 217.138C42.0105 217.445 42.2278 217.679 42.5062 217.841C42.7846 218 43.1099 218.08 43.4821 218.08C43.7235 218.08 43.9437 218.045 44.1426 217.977C44.3414 217.906 44.5133 217.801 44.6582 217.662C44.8031 217.523 44.9139 217.351 44.9906 217.146L46.1965 217.364C46.1 217.719 45.9267 218.03 45.6767 218.297C45.4295 218.561 45.1184 218.767 44.7434 218.915C44.3713 219.06 43.9465 219.132 43.4693 219.132Z" fill="white"/>
</svg>
