<svg width="657" height="143" viewBox="0 0 657 143" fill="none" xmlns="http://www.w3.org/2000/svg">
<rect x="0.5" y="48.5" width="116" height="44" rx="5.5" fill="#171717"/>
<rect x="0.5" y="48.5" width="116" height="44" rx="5.5" stroke="#313131"/>
<path d="M36.1948 62.5C32.6955 62.5 29.7427 65.0072 29.0425 68.3069H30.133C30.804 65.5653 33.2528 63.5197 36.1948 63.5197C39.6548 63.5197 42.4266 66.3482 42.4266 69.8081C42.4266 73.2682 39.6548 76.0399 36.1948 76.0399C33.2836 76.0399 30.8624 74.0783 30.1614 71.3944H29.0566C29.7895 74.6384 32.726 77.0455 36.1948 77.0455C40.2106 77.0455 43.4747 73.8238 43.4747 69.8081C43.4747 65.7925 40.2106 62.5 36.1948 62.5ZM36.0674 65.276C34.0905 65.276 32.4082 66.536 31.7901 68.3069H32.9232C33.4767 67.1075 34.6589 66.2815 36.0674 66.2815C38.0045 66.2815 39.5657 67.8569 39.5657 69.794C39.5657 71.7312 38.0045 73.2781 36.0674 73.2781C34.7127 73.2781 33.5596 72.5141 32.9798 71.3944H31.8326C32.4868 73.0917 34.1392 74.2837 36.0674 74.2837C38.5603 74.2837 40.6137 72.2869 40.6137 69.794C40.6137 67.3011 38.5603 65.276 36.0674 65.276ZM27.0172 66.3524C26.998 66.356 26.9791 66.3607 26.9605 66.3665C26.9464 66.366 26.9322 66.366 26.918 66.3665C26.7624 66.4033 26.6271 66.517 26.5639 66.6639L25.1618 69.6381L24.0712 71.9467L23.3914 69.7089C23.3288 69.4972 23.1165 69.3396 22.8957 69.3407H20.7146C20.4439 69.3407 20.1976 69.587 20.1976 69.8577C20.1976 70.1284 20.4439 70.3746 20.7146 70.3746H22.5133L23.4906 73.5188C23.6093 73.9072 24.2536 73.965 24.4395 73.6038L26.1107 70.063L27.003 68.1652L27.7536 70.0488C27.8274 70.2362 28.0198 70.3703 28.221 70.3746H28.915H29.9914H31.5635H32.6257H34.4669C34.7191 71.1157 35.4171 71.6493 36.2373 71.6493C37.2609 71.6493 38.1069 70.8175 38.1069 69.7939C38.1069 68.7704 37.2609 67.9244 36.2373 67.9244C35.3714 67.9244 34.6349 68.5358 34.4245 69.3407H32.6257H31.5494H29.9631H28.915H28.5751L27.4987 66.6781C27.4232 66.4864 27.2231 66.3511 27.0172 66.3524Z" fill="#FCFCFC"/>
<path d="M61.5211 68.5653C61.4757 68.1619 61.2882 67.8494 60.9586 67.6278C60.6291 67.4034 60.2143 67.2912 59.7143 67.2912C59.3563 67.2912 59.0467 67.348 58.7853 67.4616C58.524 67.5724 58.3208 67.7259 58.1759 67.9219C58.0339 68.1151 57.9629 68.3352 57.9629 68.5824C57.9629 68.7898 58.0112 68.9687 58.1078 69.1193C58.2072 69.2699 58.3365 69.3963 58.4956 69.4986C58.6575 69.598 58.8308 69.6818 59.0154 69.75C59.2001 69.8153 59.3777 69.8693 59.5481 69.9119L60.4004 70.1335C60.6788 70.2017 60.9643 70.294 61.2569 70.4105C61.5495 70.527 61.8208 70.6804 62.0708 70.8707C62.3208 71.0611 62.5225 71.2969 62.6759 71.5781C62.8322 71.8594 62.9103 72.196 62.9103 72.5881C62.9103 73.0824 62.7825 73.5213 62.5268 73.9048C62.274 74.2884 61.9061 74.5909 61.4231 74.8125C60.943 75.0341 60.362 75.1449 59.6802 75.1449C59.0268 75.1449 58.4615 75.0412 57.9842 74.8338C57.5069 74.6264 57.1333 74.3324 56.8634 73.9517C56.5936 73.5682 56.4444 73.1136 56.416 72.5881H57.737C57.7626 72.9034 57.8649 73.1662 58.0438 73.3764C58.2257 73.5838 58.4572 73.7386 58.7384 73.8409C59.0225 73.9403 59.3336 73.9901 59.6717 73.9901C60.0438 73.9901 60.3748 73.9318 60.6646 73.8153C60.9572 73.696 61.1873 73.5312 61.3549 73.321C61.5225 73.108 61.6063 72.8594 61.6063 72.5753C61.6063 72.3168 61.5325 72.1051 61.3848 71.9403C61.2399 71.7756 61.0424 71.6392 60.7924 71.5312C60.5453 71.4233 60.2654 71.3281 59.9529 71.2457L58.9217 70.9645C58.2228 70.7741 57.6688 70.4943 57.2598 70.125C56.8535 69.7557 56.6504 69.267 56.6504 68.6591C56.6504 68.1562 56.7867 67.7173 57.0595 67.3423C57.3322 66.9673 57.7015 66.6761 58.1674 66.4688C58.6333 66.2585 59.1589 66.1534 59.7441 66.1534C60.335 66.1534 60.8563 66.2571 61.3081 66.4645C61.7626 66.6719 62.1206 66.9574 62.3819 67.321C62.6433 67.6818 62.7796 68.0966 62.791 68.5653H61.5211ZM67.2026 75.1321C66.5577 75.1321 66.0023 74.9943 65.5364 74.7188C65.0733 74.4403 64.7154 74.0497 64.4625 73.5469C64.2125 73.0412 64.0875 72.4489 64.0875 71.7699C64.0875 71.0994 64.2125 70.5085 64.4625 69.9972C64.7154 69.4858 65.0676 69.0866 65.5193 68.7997C65.9739 68.5128 66.5051 68.3693 67.1131 68.3693C67.4824 68.3693 67.8404 68.4304 68.187 68.5526C68.5335 68.6747 68.8446 68.8665 69.1202 69.1278C69.3958 69.3892 69.6131 69.7287 69.7722 70.1463C69.9313 70.5611 70.0108 71.0653 70.0108 71.6591V72.1108H64.8077V71.1562H68.7622C68.7622 70.821 68.6941 70.5241 68.5577 70.2656C68.4213 70.0043 68.2296 69.7983 67.9824 69.6477C67.7381 69.4972 67.4512 69.4219 67.1216 69.4219C66.7637 69.4219 66.4512 69.5099 66.1841 69.6861C65.9199 69.8594 65.7154 70.0866 65.5705 70.3679C65.4284 70.6463 65.3574 70.9489 65.3574 71.2756V72.0213C65.3574 72.4588 65.4341 72.831 65.5875 73.1378C65.7438 73.4446 65.9611 73.679 66.2395 73.8409C66.5179 74 66.8432 74.0795 67.2154 74.0795C67.4568 74.0795 67.677 74.0455 67.8759 73.9773C68.0747 73.9062 68.2466 73.8011 68.3915 73.6619C68.5364 73.5227 68.6472 73.3509 68.7239 73.1463L69.9299 73.3636C69.8333 73.7187 69.66 74.0298 69.41 74.2969C69.1628 74.5611 68.8517 74.767 68.4767 74.9148C68.1046 75.0597 67.6799 75.1321 67.2026 75.1321ZM72.6987 71.1136V75H71.4245V68.4545H72.6475V69.5199H72.7285C72.8791 69.1733 73.1149 68.8949 73.4359 68.6847C73.7598 68.4744 74.1674 68.3693 74.6589 68.3693C75.1049 68.3693 75.4956 68.4631 75.8308 68.6506C76.166 68.8352 76.4259 69.1108 76.6106 69.4773C76.7953 69.8437 76.8876 70.2969 76.8876 70.8366V75H75.6134V70.9901C75.6134 70.5156 75.4899 70.1449 75.2427 69.8778C74.9956 69.608 74.6561 69.473 74.2242 69.473C73.9288 69.473 73.666 69.5369 73.4359 69.6648C73.2086 69.7926 73.0282 69.9801 72.8947 70.2273C72.764 70.4716 72.6987 70.767 72.6987 71.1136ZM83.5012 70.0526L82.3464 70.2571C82.2981 70.1094 82.2214 69.9687 82.1163 69.8352C82.014 69.7017 81.8748 69.5923 81.6987 69.5071C81.5225 69.4219 81.3024 69.3793 81.0382 69.3793C80.6774 69.3793 80.3762 69.4602 80.1348 69.6222C79.8933 69.7812 79.7725 69.9872 79.7725 70.2401C79.7725 70.4588 79.8535 70.6349 80.0154 70.7685C80.1774 70.902 80.4387 71.0114 80.7995 71.0966L81.8393 71.3352C82.4416 71.4744 82.8904 71.6889 83.1859 71.9787C83.4813 72.2685 83.6291 72.6449 83.6291 73.108C83.6291 73.5 83.5154 73.8494 83.2882 74.1562C83.0637 74.4602 82.7498 74.6989 82.3464 74.8722C81.9458 75.0455 81.4813 75.1321 80.9529 75.1321C80.22 75.1321 79.622 74.9759 79.1589 74.6634C78.6958 74.348 78.4117 73.9006 78.3066 73.321L79.5382 73.1335C79.6149 73.4545 79.7725 73.6974 80.0112 73.8622C80.2498 74.0241 80.5609 74.1051 80.9444 74.1051C81.362 74.1051 81.6958 74.0185 81.9458 73.8452C82.1958 73.669 82.3208 73.4545 82.3208 73.2017C82.3208 72.9972 82.2441 72.8253 82.0907 72.6861C81.9402 72.5469 81.7086 72.4418 81.3961 72.3707L80.2882 72.1278C79.6774 71.9886 79.2257 71.767 78.9331 71.4631C78.6433 71.1591 78.4984 70.7741 78.4984 70.3082C78.4984 69.9219 78.6063 69.5838 78.8223 69.294C79.0382 69.0043 79.3365 68.7784 79.7171 68.6165C80.0978 68.4517 80.5339 68.3693 81.0254 68.3693C81.7328 68.3693 82.2896 68.5227 82.6958 68.8295C83.1021 69.1335 83.3706 69.5412 83.5012 70.0526ZM87.7871 75.1321C87.1735 75.1321 86.638 74.9915 86.1806 74.7102C85.7232 74.429 85.3681 74.0355 85.1152 73.5298C84.8624 73.0241 84.736 72.4332 84.736 71.7571C84.736 71.0781 84.8624 70.4844 85.1152 69.9759C85.3681 69.4673 85.7232 69.0724 86.1806 68.7912C86.638 68.5099 87.1735 68.3693 87.7871 68.3693C88.4007 68.3693 88.9362 68.5099 89.3936 68.7912C89.851 69.0724 90.2061 69.4673 90.459 69.9759C90.7118 70.4844 90.8382 71.0781 90.8382 71.7571C90.8382 72.4332 90.7118 73.0241 90.459 73.5298C90.2061 74.0355 89.851 74.429 89.3936 74.7102C88.9362 74.9915 88.4007 75.1321 87.7871 75.1321ZM87.7914 74.0625C88.1891 74.0625 88.5186 73.9574 88.78 73.7472C89.0414 73.5369 89.2345 73.2571 89.3595 72.9077C89.4874 72.5582 89.5513 72.1733 89.5513 71.7528C89.5513 71.3352 89.4874 70.9517 89.3595 70.6023C89.2345 70.25 89.0414 69.9673 88.78 69.7543C88.5186 69.5412 88.1891 69.4347 87.7914 69.4347C87.3908 69.4347 87.0584 69.5412 86.7942 69.7543C86.5328 69.9673 86.3382 70.25 86.2104 70.6023C86.0854 70.9517 86.0229 71.3352 86.0229 71.7528C86.0229 72.1733 86.0854 72.5582 86.2104 72.9077C86.3382 73.2571 86.5328 73.5369 86.7942 73.7472C87.0584 73.9574 87.3908 74.0625 87.7914 74.0625ZM92.2605 75V68.4545H93.492V69.4943H93.5602C93.6795 69.142 93.8897 68.8651 94.1909 68.6634C94.4948 68.4588 94.8386 68.3565 95.2221 68.3565C95.3017 68.3565 95.3954 68.3594 95.5034 68.3651C95.6142 68.3707 95.7008 68.3778 95.7633 68.3864V69.6051C95.7122 69.5909 95.6213 69.5753 95.4906 69.5582C95.3599 69.5384 95.2292 69.5284 95.0985 69.5284C94.7974 69.5284 94.5289 69.5923 94.2931 69.7202C94.0602 69.8452 93.8755 70.0199 93.7392 70.2443C93.6028 70.4659 93.5346 70.7187 93.5346 71.0028V75H92.2605Z" fill="#EDEDED"/>
<rect x="217.5" y="0.5" width="202" height="142" rx="5.5" fill="#171717"/>
<rect x="217.5" y="0.5" width="202" height="142" rx="5.5" stroke="#313131"/>
<g clip-path="url(#clip0_1537_136)">
<path d="M231.28 24.9408C231.019 24.9409 230.762 24.8723 230.536 24.7419C230.31 24.6114 230.122 24.4238 229.992 24.1978C229.861 23.9717 229.793 23.7153 229.793 23.4544C229.793 23.1934 229.862 22.937 229.992 22.711L235.455 13.2512C236.027 12.2597 237.462 12.2597 238.054 13.2933L243.249 22.2916C243.309 22.395 243.395 22.4811 243.498 22.5414L245.045 23.4345C245.175 23.5096 245.326 23.5397 245.475 23.5202C245.623 23.5006 245.761 23.4325 245.867 23.3264C245.973 23.2204 246.041 23.0823 246.061 22.9336C246.08 22.7849 246.05 22.634 245.975 22.5043L238.029 8.74351C237.899 8.51737 237.711 8.32954 237.485 8.19894C237.259 8.06834 237.003 7.99957 236.742 7.99957C236.481 7.99957 236.225 8.06834 235.999 8.19894C235.773 8.32954 235.585 8.51737 235.455 8.74351L226.201 24.7702C226.07 24.9962 226.002 25.2525 226.002 25.5135C226.001 25.7745 226.07 26.0309 226.201 26.2569C226.331 26.4829 226.519 26.6706 226.745 26.801C226.971 26.9315 227.227 27.0001 227.488 26.9999H243.099C243.248 26.9994 243.394 26.9497 243.512 26.8584C243.631 26.7671 243.716 26.6393 243.755 26.4948C243.793 26.3503 243.783 26.197 243.726 26.0587C243.669 25.9204 243.568 25.8047 243.439 25.7295L242.23 25.0271C242.126 24.9675 242.009 24.936 241.889 24.9358L231.28 24.9408Z" fill="#FDFDFD"/>
</g>
<rect x="223" y="102" width="192" height="34" rx="6" fill="#3774D0"/>
<path d="M304.766 117.638C304.728 117.302 304.571 117.041 304.297 116.857C304.022 116.67 303.677 116.576 303.26 116.576C302.962 116.576 302.704 116.623 302.486 116.718C302.268 116.81 302.099 116.938 301.978 117.102C301.86 117.263 301.8 117.446 301.8 117.652C301.8 117.825 301.841 117.974 301.921 118.099C302.004 118.225 302.112 118.33 302.244 118.415C302.379 118.498 302.524 118.568 302.678 118.625C302.831 118.679 302.979 118.724 303.121 118.76L303.832 118.945C304.064 119.001 304.302 119.078 304.545 119.175C304.789 119.272 305.015 119.4 305.224 119.559C305.432 119.718 305.6 119.914 305.728 120.148C305.858 120.383 305.923 120.663 305.923 120.99C305.923 121.402 305.817 121.768 305.604 122.087C305.393 122.407 305.086 122.659 304.684 122.844C304.284 123.028 303.8 123.121 303.232 123.121C302.687 123.121 302.216 123.034 301.818 122.862C301.42 122.689 301.109 122.444 300.884 122.126C300.659 121.807 300.535 121.428 300.511 120.99H301.612C301.634 121.253 301.719 121.472 301.868 121.647C302.019 121.82 302.212 121.949 302.447 122.034C302.683 122.117 302.943 122.158 303.224 122.158C303.535 122.158 303.81 122.11 304.052 122.013C304.296 121.913 304.487 121.776 304.627 121.601C304.767 121.423 304.837 121.216 304.837 120.979C304.837 120.764 304.775 120.588 304.652 120.45C304.531 120.313 304.367 120.199 304.158 120.109C303.952 120.019 303.719 119.94 303.459 119.871L302.599 119.637C302.017 119.478 301.555 119.245 301.214 118.938C300.876 118.63 300.707 118.223 300.707 117.716C300.707 117.297 300.82 116.931 301.048 116.619C301.275 116.306 301.583 116.063 301.971 115.891C302.359 115.715 302.797 115.628 303.285 115.628C303.777 115.628 304.212 115.714 304.588 115.887C304.967 116.06 305.265 116.298 305.483 116.601C305.701 116.902 305.814 117.247 305.824 117.638H304.766ZM309.695 117.545V118.398H306.716V117.545H309.695ZM307.515 116.239H308.577V121.398C308.577 121.604 308.608 121.759 308.669 121.864C308.731 121.965 308.81 122.035 308.907 122.073C309.007 122.109 309.114 122.126 309.23 122.126C309.316 122.126 309.39 122.121 309.454 122.109C309.518 122.097 309.568 122.087 309.603 122.08L309.795 122.957C309.733 122.981 309.646 123.005 309.532 123.028C309.419 123.054 309.276 123.069 309.106 123.071C308.827 123.076 308.566 123.026 308.325 122.922C308.083 122.818 307.888 122.657 307.739 122.439C307.59 122.221 307.515 121.948 307.515 121.619V116.239ZM313.109 123.11C312.598 123.11 312.151 122.993 311.77 122.759C311.389 122.524 311.093 122.196 310.882 121.775C310.672 121.353 310.566 120.861 310.566 120.298C310.566 119.732 310.672 119.237 310.882 118.813C311.093 118.389 311.389 118.06 311.77 117.826C312.151 117.592 312.598 117.474 313.109 117.474C313.62 117.474 314.067 117.592 314.448 117.826C314.829 118.06 315.125 118.389 315.336 118.813C315.546 119.237 315.652 119.732 315.652 120.298C315.652 120.861 315.546 121.353 315.336 121.775C315.125 122.196 314.829 122.524 314.448 122.759C314.067 122.993 313.62 123.11 313.109 123.11ZM313.113 122.219C313.444 122.219 313.719 122.131 313.936 121.956C314.154 121.781 314.315 121.548 314.419 121.256C314.526 120.965 314.579 120.644 314.579 120.294C314.579 119.946 314.526 119.626 314.419 119.335C314.315 119.042 314.154 118.806 313.936 118.629C313.719 118.451 313.444 118.362 313.113 118.362C312.779 118.362 312.502 118.451 312.282 118.629C312.064 118.806 311.902 119.042 311.795 119.335C311.691 119.626 311.639 119.946 311.639 120.294C311.639 120.644 311.691 120.965 311.795 121.256C311.902 121.548 312.064 121.781 312.282 121.956C312.502 122.131 312.779 122.219 313.113 122.219ZM316.837 123V117.545H317.863V118.412H317.92C318.019 118.118 318.195 117.888 318.445 117.719C318.699 117.549 318.985 117.464 319.305 117.464C319.371 117.464 319.449 117.466 319.539 117.471C319.632 117.476 319.704 117.482 319.756 117.489V118.504C319.713 118.492 319.637 118.479 319.529 118.465C319.42 118.449 319.311 118.44 319.202 118.44C318.951 118.44 318.727 118.494 318.531 118.6C318.337 118.704 318.183 118.85 318.069 119.037C317.955 119.222 317.899 119.432 317.899 119.669V123H316.837ZM322.213 123.121C321.868 123.121 321.555 123.057 321.276 122.929C320.996 122.799 320.775 122.611 320.612 122.364C320.451 122.118 320.37 121.816 320.37 121.459C320.37 121.151 320.429 120.898 320.548 120.699C320.666 120.5 320.826 120.343 321.027 120.227C321.228 120.111 321.453 120.023 321.702 119.964C321.95 119.905 322.204 119.86 322.462 119.829C322.789 119.791 323.054 119.76 323.257 119.737C323.461 119.71 323.609 119.669 323.701 119.612C323.794 119.555 323.84 119.463 323.84 119.335V119.31C323.84 119 323.752 118.76 323.577 118.589C323.404 118.419 323.146 118.334 322.803 118.334C322.445 118.334 322.164 118.413 321.958 118.572C321.754 118.728 321.613 118.902 321.535 119.094L320.537 118.866C320.655 118.535 320.828 118.268 321.056 118.064C321.285 117.858 321.549 117.709 321.847 117.616C322.146 117.522 322.459 117.474 322.789 117.474C323.006 117.474 323.237 117.5 323.481 117.553C323.727 117.602 323.957 117.695 324.17 117.83C324.385 117.964 324.562 118.157 324.699 118.408C324.836 118.657 324.905 118.98 324.905 119.378V123H323.868V122.254H323.825C323.757 122.392 323.654 122.527 323.517 122.659C323.379 122.792 323.203 122.902 322.987 122.989C322.772 123.077 322.514 123.121 322.213 123.121ZM322.444 122.268C322.738 122.268 322.989 122.21 323.197 122.094C323.408 121.978 323.567 121.827 323.676 121.64C323.788 121.451 323.843 121.248 323.843 121.033V120.33C323.805 120.367 323.732 120.403 323.623 120.436C323.517 120.467 323.395 120.494 323.257 120.518C323.12 120.539 322.986 120.559 322.856 120.578C322.726 120.595 322.617 120.609 322.529 120.621C322.323 120.647 322.135 120.691 321.965 120.752C321.797 120.814 321.662 120.902 321.56 121.018C321.46 121.132 321.411 121.284 321.411 121.473C321.411 121.736 321.508 121.935 321.702 122.07C321.896 122.202 322.143 122.268 322.444 122.268ZM328.606 125.159C328.173 125.159 327.8 125.102 327.488 124.989C327.177 124.875 326.924 124.725 326.728 124.538C326.531 124.351 326.384 124.146 326.287 123.923L327.2 123.547C327.264 123.651 327.349 123.761 327.456 123.877C327.565 123.996 327.711 124.096 327.896 124.179C328.083 124.262 328.323 124.303 328.617 124.303C329.019 124.303 329.352 124.205 329.615 124.009C329.877 123.814 330.009 123.504 330.009 123.078V122.006H329.941C329.877 122.122 329.785 122.251 329.664 122.393C329.546 122.535 329.383 122.658 329.174 122.762C328.966 122.866 328.695 122.918 328.361 122.918C327.93 122.918 327.542 122.818 327.196 122.616C326.853 122.413 326.581 122.113 326.38 121.718C326.181 121.32 326.081 120.831 326.081 120.251C326.081 119.671 326.18 119.174 326.376 118.76C326.575 118.346 326.847 118.028 327.193 117.808C327.538 117.586 327.93 117.474 328.368 117.474C328.707 117.474 328.98 117.531 329.189 117.645C329.397 117.756 329.559 117.886 329.675 118.036C329.793 118.185 329.885 118.316 329.949 118.43H330.027V117.545H331.067V123.121C331.067 123.589 330.958 123.974 330.74 124.275C330.523 124.576 330.228 124.798 329.856 124.942C329.487 125.087 329.07 125.159 328.606 125.159ZM328.596 122.038C328.901 122.038 329.159 121.967 329.37 121.825C329.583 121.68 329.744 121.474 329.853 121.207C329.964 120.937 330.02 120.614 330.02 120.237C330.02 119.87 329.965 119.547 329.856 119.268C329.747 118.988 329.587 118.771 329.377 118.614C329.166 118.456 328.906 118.376 328.596 118.376C328.276 118.376 328.01 118.459 327.797 118.625C327.583 118.788 327.422 119.011 327.314 119.293C327.207 119.574 327.154 119.889 327.154 120.237C327.154 120.595 327.208 120.908 327.317 121.178C327.426 121.448 327.587 121.659 327.8 121.81C328.016 121.962 328.281 122.038 328.596 122.038ZM334.842 123.11C334.305 123.11 333.842 122.995 333.453 122.766C333.068 122.534 332.769 122.208 332.559 121.789C332.35 121.368 332.246 120.874 332.246 120.308C332.246 119.75 332.35 119.257 332.559 118.831C332.769 118.405 333.063 118.072 333.439 117.833C333.818 117.594 334.261 117.474 334.767 117.474C335.075 117.474 335.373 117.525 335.662 117.627C335.951 117.729 336.21 117.889 336.44 118.107C336.67 118.324 336.851 118.607 336.983 118.955C337.116 119.301 337.182 119.721 337.182 120.216V120.592H332.846V119.797H336.142C336.142 119.518 336.085 119.27 335.971 119.055C335.858 118.837 335.698 118.665 335.492 118.54C335.288 118.414 335.049 118.352 334.775 118.352C334.476 118.352 334.216 118.425 333.993 118.572C333.773 118.716 333.603 118.906 333.482 119.14C333.364 119.372 333.304 119.624 333.304 119.896V120.518C333.304 120.882 333.368 121.192 333.496 121.448C333.626 121.704 333.807 121.899 334.039 122.034C334.271 122.167 334.542 122.233 334.853 122.233C335.054 122.233 335.237 122.205 335.403 122.148C335.569 122.089 335.712 122.001 335.833 121.885C335.953 121.769 336.046 121.626 336.11 121.455L337.115 121.636C337.034 121.932 336.89 122.192 336.681 122.414C336.475 122.634 336.216 122.806 335.904 122.929C335.594 123.05 335.24 123.11 334.842 123.11Z" fill="#FDFDFD"/>
<path d="M318 72H317V73H318V72ZM425.774 72L420 66.2265L414.226 72L420 77.7735L425.774 72ZM317 59V72H319V59H317ZM318 73H420V71H318V73Z" fill="#515151"/>
<path d="M425.774 19L420 24.7735L414.226 19L420 13.2265L425.774 19ZM317 73V31H319V73H317ZM330 18H420V20H330V18ZM317 31C317 23.8203 322.82 18 330 18V20C323.925 20 319 24.9249 319 31H317Z" fill="#515151"/>
<rect x="520.5" y="0.5" width="136" height="39" rx="5.5" fill="#171717"/>
<rect x="520.5" y="0.5" width="136" height="39" rx="5.5" stroke="#313131"/>
<path d="M544 18.5L538 21.5V26.5H552V18.5L547 21.5L544 18.5Z" fill="#BFBFBF"/>
<path d="M547 16.5L544 13.5L538 16.5V20.38L544.2 17.28L547.16 20.24L552 17.33V13.5L547 16.5Z" fill="#BFBFBF"/>
<path d="M563.435 16.7273L565.459 22.6506H565.54L567.565 16.7273H568.751L566.134 24H564.866L562.249 16.7273H563.435ZM569.716 24V18.5455H570.778V24H569.716ZM570.252 17.7038C570.067 17.7038 569.909 17.6423 569.776 17.5192C569.646 17.3937 569.581 17.2446 569.581 17.0717C569.581 16.8965 569.646 16.7474 569.776 16.6243C569.909 16.4988 570.067 16.4361 570.252 16.4361C570.437 16.4361 570.594 16.4988 570.724 16.6243C570.857 16.7474 570.923 16.8965 570.923 17.0717C570.923 17.2446 570.857 17.3937 570.724 17.5192C570.594 17.6423 570.437 17.7038 570.252 17.7038ZM576.293 19.8771L575.331 20.0476C575.291 19.9245 575.227 19.8073 575.139 19.696C575.054 19.5848 574.938 19.4936 574.791 19.4226C574.644 19.3516 574.461 19.3161 574.241 19.3161C573.94 19.3161 573.689 19.3835 573.488 19.5185C573.287 19.651 573.186 19.8227 573.186 20.0334C573.186 20.2157 573.254 20.3625 573.388 20.4737C573.523 20.585 573.741 20.6761 574.042 20.7472L574.908 20.946C575.41 21.062 575.784 21.2408 576.031 21.4822C576.277 21.7237 576.4 22.0374 576.4 22.4233C576.4 22.75 576.305 23.0412 576.116 23.2969C575.929 23.5502 575.667 23.7491 575.331 23.8935C574.997 24.0379 574.61 24.1101 574.17 24.1101C573.559 24.1101 573.061 23.9799 572.675 23.7195C572.289 23.4567 572.052 23.0838 571.964 22.6009L572.991 22.4446C573.055 22.7121 573.186 22.9145 573.385 23.0518C573.584 23.1868 573.843 23.2543 574.163 23.2543C574.511 23.2543 574.789 23.1821 574.997 23.0376C575.205 22.8909 575.31 22.7121 575.31 22.5014C575.31 22.331 575.246 22.1877 575.118 22.0717C574.992 21.9557 574.799 21.8681 574.539 21.8089L573.616 21.6065C573.107 21.4905 572.73 21.3059 572.487 21.0526C572.245 20.7992 572.124 20.4785 572.124 20.0902C572.124 19.7682 572.214 19.4865 572.394 19.245C572.574 19.0036 572.823 18.8153 573.14 18.6804C573.457 18.5431 573.821 18.4744 574.23 18.4744C574.82 18.4744 575.284 18.6023 575.622 18.858C575.961 19.1113 576.184 19.451 576.293 19.8771ZM581.023 21.7379V18.5455H582.088V24H581.044V23.0554H580.987C580.862 23.3466 580.66 23.5893 580.383 23.7834C580.109 23.9751 579.767 24.071 579.357 24.071C579.007 24.071 578.697 23.9941 578.427 23.8402C578.159 23.6839 577.948 23.4531 577.795 23.1477C577.643 22.8423 577.567 22.4647 577.567 22.0149V18.5455H578.629V21.8871C578.629 22.2588 578.732 22.5547 578.938 22.7749C579.144 22.995 579.412 23.1051 579.741 23.1051C579.939 23.1051 580.137 23.0554 580.334 22.956C580.532 22.8565 580.697 22.7062 580.827 22.505C580.96 22.3037 581.025 22.0481 581.023 21.7379ZM585.102 24.1207C584.756 24.1207 584.444 24.0568 584.164 23.929C583.885 23.7988 583.664 23.6106 583.5 23.3643C583.339 23.1181 583.259 22.8163 583.259 22.4588C583.259 22.151 583.318 21.8977 583.436 21.6989C583.555 21.5 583.715 21.3426 583.916 21.2266C584.117 21.1106 584.342 21.023 584.591 20.9638C584.839 20.9046 585.092 20.8596 585.35 20.8288C585.677 20.791 585.942 20.7602 586.146 20.7365C586.35 20.7105 586.498 20.669 586.59 20.6122C586.682 20.5554 586.728 20.4631 586.728 20.3352V20.3104C586.728 20.0002 586.641 19.7599 586.466 19.5895C586.293 19.419 586.035 19.3338 585.691 19.3338C585.334 19.3338 585.052 19.4131 584.846 19.5717C584.643 19.728 584.502 19.902 584.424 20.0938L583.426 19.8665C583.544 19.535 583.717 19.2675 583.944 19.0639C584.174 18.858 584.438 18.7088 584.736 18.6165C585.034 18.5218 585.348 18.4744 585.677 18.4744C585.895 18.4744 586.126 18.5005 586.37 18.5526C586.616 18.6023 586.846 18.6946 587.059 18.8295C587.274 18.9645 587.45 19.1574 587.588 19.4084C587.725 19.657 587.794 19.9801 587.794 20.3778V24H586.757V23.2543H586.714C586.645 23.3916 586.542 23.5265 586.405 23.6591C586.268 23.7917 586.092 23.9018 585.876 23.9893C585.661 24.0769 585.403 24.1207 585.102 24.1207ZM585.333 23.2685C585.626 23.2685 585.877 23.2105 586.086 23.0945C586.296 22.9785 586.456 22.8269 586.565 22.6399C586.676 22.4505 586.732 22.2481 586.732 22.0327V21.3295C586.694 21.3674 586.621 21.4029 586.512 21.4361C586.405 21.4669 586.283 21.4941 586.146 21.5178C586.009 21.5391 585.875 21.5592 585.745 21.5781C585.614 21.5947 585.506 21.6089 585.418 21.6207C585.212 21.6468 585.024 21.6906 584.853 21.7521C584.685 21.8137 584.55 21.9025 584.449 22.0185C584.349 22.1321 584.299 22.2836 584.299 22.473C584.299 22.7358 584.396 22.9347 584.591 23.0696C584.785 23.2022 585.032 23.2685 585.333 23.2685ZM590.27 16.7273V24H589.208V16.7273H590.27ZM591.698 24V18.5455H592.76V24H591.698ZM592.234 17.7038C592.05 17.7038 591.891 17.6423 591.759 17.5192C591.628 17.3937 591.563 17.2446 591.563 17.0717C591.563 16.8965 591.628 16.7474 591.759 16.6243C591.891 16.4988 592.05 16.4361 592.234 16.4361C592.419 16.4361 592.576 16.4988 592.707 16.6243C592.839 16.7474 592.906 16.8965 592.906 17.0717C592.906 17.2446 592.839 17.3937 592.707 17.5192C592.576 17.6423 592.419 17.7038 592.234 17.7038ZM594.075 24V23.272L597.029 19.5185V19.4688H594.171V18.5455H598.354V19.3196L595.513 23.027V23.0767H598.453V24H594.075ZM601.293 24.1207C600.948 24.1207 600.635 24.0568 600.356 23.929C600.076 23.7988 599.855 23.6106 599.692 23.3643C599.531 23.1181 599.45 22.8163 599.45 22.4588C599.45 22.151 599.509 21.8977 599.628 21.6989C599.746 21.5 599.906 21.3426 600.107 21.2266C600.308 21.1106 600.533 21.023 600.782 20.9638C601.031 20.9046 601.284 20.8596 601.542 20.8288C601.869 20.791 602.134 20.7602 602.337 20.7365C602.541 20.7105 602.689 20.669 602.781 20.6122C602.874 20.5554 602.92 20.4631 602.92 20.3352V20.3104C602.92 20.0002 602.832 19.7599 602.657 19.5895C602.484 19.419 602.226 19.3338 601.883 19.3338C601.525 19.3338 601.244 19.4131 601.038 19.5717C600.834 19.728 600.693 19.902 600.615 20.0938L599.617 19.8665C599.736 19.535 599.908 19.2675 600.136 19.0639C600.365 18.858 600.629 18.7088 600.928 18.6165C601.226 18.5218 601.54 18.4744 601.869 18.4744C602.086 18.4744 602.317 18.5005 602.561 18.5526C602.807 18.6023 603.037 18.6946 603.25 18.8295C603.465 18.9645 603.642 19.1574 603.779 19.4084C603.916 19.657 603.985 19.9801 603.985 20.3778V24H602.948V23.2543H602.906C602.837 23.3916 602.734 23.5265 602.597 23.6591C602.459 23.7917 602.283 23.9018 602.067 23.9893C601.852 24.0769 601.594 24.1207 601.293 24.1207ZM601.524 23.2685C601.818 23.2685 602.069 23.2105 602.277 23.0945C602.488 22.9785 602.647 22.8269 602.756 22.6399C602.868 22.4505 602.923 22.2481 602.923 22.0327V21.3295C602.885 21.3674 602.812 21.4029 602.703 21.4361C602.597 21.4669 602.475 21.4941 602.337 21.5178C602.2 21.5391 602.066 21.5592 601.936 21.5781C601.806 21.5947 601.697 21.6089 601.609 21.6207C601.403 21.6468 601.215 21.6906 601.045 21.7521C600.877 21.8137 600.742 21.9025 600.64 22.0185C600.54 22.1321 600.491 22.2836 600.491 22.473C600.491 22.7358 600.588 22.9347 600.782 23.0696C600.976 23.2022 601.223 23.2685 601.524 23.2685ZM607.945 18.5455V19.3977H604.966V18.5455H607.945ZM605.765 17.2386H606.827V22.3984C606.827 22.6044 606.858 22.7595 606.919 22.8636C606.981 22.9654 607.06 23.0353 607.157 23.0732C607.257 23.1087 607.364 23.1264 607.48 23.1264C607.566 23.1264 607.64 23.1205 607.704 23.1087C607.768 23.0968 607.818 23.0874 607.853 23.0803L608.045 23.9574C607.983 23.9811 607.896 24.0047 607.782 24.0284C607.669 24.0545 607.526 24.0687 607.356 24.071C607.077 24.0758 606.816 24.026 606.575 23.9219C606.333 23.8177 606.138 23.6567 605.989 23.4389C605.84 23.2211 605.765 22.9477 605.765 22.6186V17.2386ZM609.12 24V18.5455H610.182V24H609.12ZM609.656 17.7038C609.472 17.7038 609.313 17.6423 609.18 17.5192C609.05 17.3937 608.985 17.2446 608.985 17.0717C608.985 16.8965 609.05 16.7474 609.18 16.6243C609.313 16.4988 609.472 16.4361 609.656 16.4361C609.841 16.4361 609.998 16.4988 610.129 16.6243C610.261 16.7474 610.327 16.8965 610.327 17.0717C610.327 17.2446 610.261 17.3937 610.129 17.5192C609.998 17.6423 609.841 17.7038 609.656 17.7038ZM613.908 24.1101C613.396 24.1101 612.95 23.9929 612.569 23.7585C612.188 23.5241 611.892 23.1963 611.681 22.7749C611.471 22.3535 611.365 21.861 611.365 21.2976C611.365 20.7318 611.471 20.237 611.681 19.8132C611.892 19.3894 612.188 19.0604 612.569 18.826C612.95 18.5916 613.396 18.4744 613.908 18.4744C614.419 18.4744 614.865 18.5916 615.247 18.826C615.628 19.0604 615.924 19.3894 616.134 19.8132C616.345 20.237 616.45 20.7318 616.45 21.2976C616.45 21.861 616.345 22.3535 616.134 22.7749C615.924 23.1963 615.628 23.5241 615.247 23.7585C614.865 23.9929 614.419 24.1101 613.908 24.1101ZM613.911 23.2188C614.243 23.2188 614.517 23.1312 614.735 22.956C614.953 22.7808 615.114 22.5476 615.218 22.2564C615.325 21.9652 615.378 21.6444 615.378 21.294C615.378 20.946 615.325 20.6264 615.218 20.3352C615.114 20.0417 614.953 19.8061 614.735 19.6286C614.517 19.451 614.243 19.3622 613.911 19.3622C613.578 19.3622 613.301 19.451 613.08 19.6286C612.863 19.8061 612.7 20.0417 612.594 20.3352C612.49 20.6264 612.438 20.946 612.438 21.294C612.438 21.6444 612.49 21.9652 612.594 22.2564C612.7 22.5476 612.863 22.7808 613.08 22.956C613.301 23.1312 613.578 23.2188 613.911 23.2188ZM618.697 20.7614V24H617.636V18.5455H618.655V19.4332H618.722C618.848 19.1444 619.044 18.9124 619.312 18.7372C619.582 18.562 619.921 18.4744 620.331 18.4744C620.703 18.4744 621.028 18.5526 621.308 18.7088C621.587 18.8627 621.804 19.0923 621.957 19.3977C622.111 19.7031 622.188 20.0807 622.188 20.5305V24H621.126V20.6584C621.126 20.263 621.023 19.9541 620.817 19.7315C620.612 19.5066 620.329 19.3942 619.969 19.3942C619.723 19.3942 619.504 19.4474 619.312 19.554C619.122 19.6605 618.972 19.8168 618.861 20.0227C618.752 20.2263 618.697 20.4725 618.697 20.7614Z" fill="#EDEDED"/>
<rect x="520.5" y="53.5" width="136" height="39" rx="5.5" fill="#171717"/>
<rect x="520.5" y="53.5" width="136" height="39" rx="5.5" stroke="#313131"/>
<path d="M547.004 64C541.587 64 538.803 68.6941 538.285 69.625C538.098 69.9705 538 70.3571 538 70.75C538 71.1429 538.098 71.5295 538.285 71.875C538.963 73.1022 539.847 74.2038 540.898 75.1319L542.256 73.3178C541.467 72.5922 540.801 71.7441 540.282 70.8063C540.272 70.7897 540.267 70.7707 540.267 70.7514C540.267 70.7321 540.272 70.7131 540.282 70.6966C540.558 70.1875 542.785 66.25 547.004 66.25C551.223 66.25 553.45 70.1875 553.726 70.6937C553.736 70.7103 553.741 70.7293 553.741 70.7486C553.741 70.7679 553.736 70.7869 553.726 70.8034C553.202 71.7403 552.531 72.5865 551.737 73.3094L553.096 75.1234C554.151 74.1991 555.039 73.1003 555.723 71.875C555.91 71.5295 556.008 71.1429 556.008 70.75C556.008 70.3571 555.91 69.9705 555.723 69.625C555.205 68.6941 552.421 64 547.004 64Z" fill="#BFBFBF"/>
<path d="M547.004 73C548.246 73 549.254 71.9926 549.254 70.75C549.254 69.5074 548.246 68.5 547.004 68.5C545.761 68.5 544.754 69.5074 544.754 70.75C544.754 71.9926 545.761 73 547.004 73Z" fill="#BFBFBF"/>
<path d="M543.629 79.75H541.379V82H543.629V79.75Z" fill="#BFBFBF"/>
<path d="M548.129 79.75H545.879V82H548.129V79.75Z" fill="#BFBFBF"/>
<path d="M552.629 79.75H550.379V82H552.629V79.75Z" fill="#BFBFBF"/>
<path d="M545.879 75.25H543.629V77.5H545.879V75.25Z" fill="#BFBFBF"/>
<path d="M550.379 75.25H548.129V77.5H550.379V75.25Z" fill="#BFBFBF"/>
<path d="M567.421 77H566.256L568.873 69.7273H570.141L572.758 77H571.594L569.537 71.0483H569.481L567.421 77ZM567.616 74.152H571.395V75.0753H567.616V74.152ZM574.785 73.7614V77H573.723V71.5455H574.743V72.4332H574.81C574.935 72.1444 575.132 71.9124 575.399 71.7372C575.669 71.562 576.009 71.4744 576.419 71.4744C576.79 71.4744 577.116 71.5526 577.395 71.7088C577.675 71.8627 577.891 72.0923 578.045 72.3977C578.199 72.7031 578.276 73.0807 578.276 73.5305V77H577.214V73.6584C577.214 73.263 577.111 72.9541 576.905 72.7315C576.699 72.5066 576.416 72.3942 576.056 72.3942C575.81 72.3942 575.591 72.4474 575.399 72.554C575.21 72.6605 575.06 72.8168 574.948 73.0227C574.84 73.2263 574.785 73.4725 574.785 73.7614ZM581.287 77.1207C580.942 77.1207 580.629 77.0568 580.35 76.929C580.07 76.7988 579.849 76.6106 579.686 76.3643C579.525 76.1181 579.444 75.8163 579.444 75.4588C579.444 75.151 579.503 74.8977 579.622 74.6989C579.74 74.5 579.9 74.3426 580.101 74.2266C580.302 74.1106 580.527 74.023 580.776 73.9638C581.024 73.9046 581.278 73.8596 581.536 73.8288C581.863 73.791 582.128 73.7602 582.331 73.7365C582.535 73.7105 582.683 73.669 582.775 73.6122C582.868 73.5554 582.914 73.4631 582.914 73.3352V73.3104C582.914 73.0002 582.826 72.7599 582.651 72.5895C582.478 72.419 582.22 72.3338 581.877 72.3338C581.519 72.3338 581.238 72.4131 581.032 72.5717C580.828 72.728 580.687 72.902 580.609 73.0938L579.611 72.8665C579.729 72.535 579.902 72.2675 580.13 72.0639C580.359 71.858 580.623 71.7088 580.921 71.6165C581.22 71.5218 581.533 71.4744 581.863 71.4744C582.08 71.4744 582.311 71.5005 582.555 71.5526C582.801 71.6023 583.031 71.6946 583.244 71.8295C583.459 71.9645 583.636 72.1574 583.773 72.4084C583.91 72.657 583.979 72.9801 583.979 73.3778V77H582.942V76.2543H582.899C582.831 76.3916 582.728 76.5265 582.591 76.6591C582.453 76.7917 582.277 76.9018 582.061 76.9893C581.846 77.0769 581.588 77.1207 581.287 77.1207ZM581.518 76.2685C581.812 76.2685 582.063 76.2105 582.271 76.0945C582.482 75.9785 582.641 75.8269 582.75 75.6399C582.862 75.4505 582.917 75.2481 582.917 75.0327V74.3295C582.879 74.3674 582.806 74.4029 582.697 74.4361C582.591 74.4669 582.469 74.4941 582.331 74.5178C582.194 74.5391 582.06 74.5592 581.93 74.5781C581.8 74.5947 581.691 74.6089 581.603 74.6207C581.397 74.6468 581.209 74.6906 581.039 74.7521C580.871 74.8137 580.736 74.9025 580.634 75.0185C580.534 75.1321 580.485 75.2836 580.485 75.473C580.485 75.7358 580.582 75.9347 580.776 76.0696C580.97 76.2022 581.217 76.2685 581.518 76.2685ZM586.455 69.7273V77H585.393V69.7273H586.455ZM588.555 79.0455C588.396 79.0455 588.252 79.0324 588.121 79.0064C587.991 78.9827 587.894 78.9567 587.83 78.9283L588.086 78.0582C588.28 78.1103 588.453 78.1328 588.604 78.1257C588.756 78.1186 588.89 78.0618 589.006 77.9553C589.124 77.8487 589.228 77.6747 589.318 77.4332L589.45 77.071L587.454 71.5455H588.59L589.972 75.7784H590.028L591.41 71.5455H592.55L590.302 77.728C590.198 78.0121 590.065 78.2524 589.904 78.4489C589.743 78.6477 589.551 78.7969 589.329 78.8963C589.106 78.9957 588.848 79.0455 588.555 79.0455ZM597.635 72.8771L596.673 73.0476C596.632 72.9245 596.568 72.8073 596.481 72.696C596.396 72.5848 596.28 72.4936 596.133 72.4226C595.986 72.3516 595.803 72.3161 595.582 72.3161C595.282 72.3161 595.031 72.3835 594.83 72.5185C594.628 72.651 594.528 72.8227 594.528 73.0334C594.528 73.2157 594.595 73.3625 594.73 73.4737C594.865 73.585 595.083 73.6761 595.383 73.7472L596.25 73.946C596.752 74.062 597.126 74.2408 597.372 74.4822C597.618 74.7237 597.741 75.0374 597.741 75.4233C597.741 75.75 597.647 76.0412 597.457 76.2969C597.27 76.5502 597.009 76.7491 596.673 76.8935C596.339 77.0379 595.952 77.1101 595.511 77.1101C594.901 77.1101 594.402 76.9799 594.016 76.7195C593.63 76.4567 593.394 76.0838 593.306 75.6009L594.332 75.4446C594.396 75.7121 594.528 75.9145 594.727 76.0518C594.925 76.1868 595.185 76.2543 595.504 76.2543C595.852 76.2543 596.13 76.1821 596.339 76.0376C596.547 75.8909 596.651 75.7121 596.651 75.5014C596.651 75.331 596.587 75.1877 596.459 75.0717C596.334 74.9557 596.141 74.8681 595.881 74.8089L594.957 74.6065C594.448 74.4905 594.072 74.3059 593.828 74.0526C593.587 73.7992 593.466 73.4785 593.466 73.0902C593.466 72.7682 593.556 72.4865 593.736 72.245C593.916 72.0036 594.164 71.8153 594.481 71.6804C594.799 71.5431 595.162 71.4744 595.572 71.4744C596.161 71.4744 596.625 71.6023 596.964 71.858C597.302 72.1113 597.526 72.451 597.635 72.8771ZM598.909 77V71.5455H599.971V77H598.909ZM599.445 70.7038C599.26 70.7038 599.102 70.6423 598.969 70.5192C598.839 70.3937 598.774 70.2446 598.774 70.0717C598.774 69.8965 598.839 69.7474 598.969 69.6243C599.102 69.4988 599.26 69.4361 599.445 69.4361C599.63 69.4361 599.787 69.4988 599.917 69.6243C600.05 69.7474 600.116 69.8965 600.116 70.0717C600.116 70.2446 600.05 70.3937 599.917 70.5192C599.787 70.6423 599.63 70.7038 599.445 70.7038ZM605.486 72.8771L604.524 73.0476C604.484 72.9245 604.42 72.8073 604.332 72.696C604.247 72.5848 604.131 72.4936 603.984 72.4226C603.838 72.3516 603.654 72.3161 603.434 72.3161C603.133 72.3161 602.882 72.3835 602.681 72.5185C602.48 72.651 602.379 72.8227 602.379 73.0334C602.379 73.2157 602.447 73.3625 602.582 73.4737C602.717 73.585 602.934 73.6761 603.235 73.7472L604.102 73.946C604.603 74.062 604.977 74.2408 605.224 74.4822C605.47 74.7237 605.593 75.0374 605.593 75.4233C605.593 75.75 605.498 76.0412 605.309 76.2969C605.122 76.5502 604.86 76.7491 604.524 76.8935C604.19 77.0379 603.803 77.1101 603.363 77.1101C602.752 77.1101 602.254 76.9799 601.868 76.7195C601.482 76.4567 601.245 76.0838 601.158 75.6009L602.184 75.4446C602.248 75.7121 602.379 75.9145 602.578 76.0518C602.777 76.1868 603.036 76.2543 603.356 76.2543C603.704 76.2543 603.982 76.1821 604.19 76.0376C604.399 75.8909 604.503 75.7121 604.503 75.5014C604.503 75.331 604.439 75.1877 604.311 75.0717C604.186 74.9557 603.993 74.8681 603.732 74.8089L602.809 74.6065C602.3 74.4905 601.923 74.3059 601.68 74.0526C601.438 73.7992 601.317 73.4785 601.317 73.0902C601.317 72.7682 601.407 72.4865 601.587 72.245C601.767 72.0036 602.016 71.8153 602.333 71.6804C602.65 71.5431 603.014 71.4744 603.423 71.4744C604.013 71.4744 604.477 71.6023 604.815 71.858C605.154 72.1113 605.378 72.451 605.486 72.8771ZM613.459 71.6378C613.421 71.3016 613.265 71.0412 612.99 70.8565C612.715 70.6695 612.37 70.576 611.953 70.576C611.655 70.576 611.397 70.6233 611.179 70.718C610.961 70.8104 610.792 70.9382 610.671 71.1016C610.553 71.2625 610.494 71.446 610.494 71.652C610.494 71.8248 610.534 71.974 610.614 72.0994C610.697 72.2249 610.805 72.3303 610.937 72.4155C611.072 72.4983 611.217 72.5682 611.371 72.625C611.525 72.6795 611.673 72.7244 611.815 72.7599L612.525 72.9446C612.757 73.0014 612.995 73.0784 613.239 73.1754C613.482 73.2725 613.709 73.4003 613.917 73.5589C614.125 73.7176 614.293 73.9141 614.421 74.1484C614.551 74.3828 614.616 74.6634 614.616 74.9901C614.616 75.402 614.51 75.7678 614.297 76.0874C614.086 76.407 613.78 76.6591 613.377 76.8438C612.977 77.0284 612.493 77.1207 611.925 77.1207C611.38 77.1207 610.909 77.0343 610.511 76.8615C610.114 76.6887 609.802 76.4437 609.577 76.1264C609.352 75.8068 609.228 75.428 609.205 74.9901H610.305C610.327 75.2528 610.412 75.4718 610.561 75.647C610.713 75.8198 610.906 75.9489 611.14 76.0341C611.377 76.117 611.636 76.1584 611.918 76.1584C612.228 76.1584 612.504 76.1098 612.745 76.0128C612.989 75.9134 613.181 75.776 613.32 75.6009C613.46 75.4233 613.53 75.2161 613.53 74.9794C613.53 74.764 613.468 74.5876 613.345 74.4503C613.224 74.313 613.06 74.1993 612.852 74.1094C612.646 74.0194 612.412 73.9401 612.152 73.8714L611.293 73.6371C610.71 73.4785 610.249 73.2453 609.908 72.9375C609.569 72.6297 609.4 72.2225 609.4 71.7159C609.4 71.2969 609.513 70.9311 609.741 70.6186C609.968 70.3061 610.276 70.0634 610.664 69.8906C611.052 69.7154 611.49 69.6278 611.978 69.6278C612.47 69.6278 612.905 69.7143 613.281 69.8871C613.66 70.0599 613.958 70.2978 614.176 70.6009C614.394 70.9015 614.508 71.2472 614.517 71.6378H613.459ZM618.14 77.1101C617.612 77.1101 617.158 76.9905 616.776 76.7514C616.398 76.5099 616.106 76.1773 615.903 75.7536C615.699 75.3298 615.597 74.8445 615.597 74.2976C615.597 73.7436 615.702 73.2547 615.91 72.831C616.118 72.4048 616.412 72.0722 616.791 71.8331C617.169 71.594 617.616 71.4744 618.129 71.4744C618.544 71.4744 618.913 71.5514 619.237 71.7053C619.562 71.8568 619.823 72.0698 620.022 72.3445C620.223 72.6191 620.343 72.9399 620.381 73.3068H619.347C619.291 73.0511 619.16 72.831 618.957 72.6463C618.756 72.4616 618.486 72.3693 618.147 72.3693C617.851 72.3693 617.592 72.4474 617.369 72.6037C617.149 72.7576 616.978 72.9777 616.855 73.2642C616.731 73.5483 616.67 73.8845 616.67 74.2727C616.67 74.6705 616.73 75.0137 616.851 75.3026C616.972 75.5914 617.142 75.8151 617.362 75.9737C617.585 76.1323 617.846 76.2116 618.147 76.2116C618.348 76.2116 618.531 76.175 618.694 76.1016C618.86 76.0258 618.998 75.9181 619.11 75.7784C619.223 75.6387 619.302 75.4706 619.347 75.2741H620.381C620.343 75.6269 620.228 75.9418 620.036 76.2188C619.845 76.4957 619.588 76.7135 619.266 76.8722C618.946 77.0308 618.571 77.1101 618.14 77.1101ZM621.516 77V71.5455H622.543V72.4119H622.599C622.699 72.1184 622.874 71.8875 623.125 71.7195C623.378 71.549 623.665 71.4638 623.984 71.4638C624.051 71.4638 624.129 71.4661 624.219 71.4709C624.311 71.4756 624.383 71.4815 624.435 71.4886V72.5043C624.393 72.4924 624.317 72.4794 624.208 72.4652C624.099 72.4486 623.99 72.4403 623.881 72.4403C623.63 72.4403 623.407 72.4936 623.21 72.6001C623.016 72.7043 622.862 72.8499 622.749 73.0369C622.635 73.2216 622.578 73.4323 622.578 73.669V77H621.516ZM625.354 77V71.5455H626.416V77H625.354ZM625.89 70.7038C625.706 70.7038 625.547 70.6423 625.415 70.5192C625.284 70.3937 625.219 70.2446 625.219 70.0717C625.219 69.8965 625.284 69.7474 625.415 69.6243C625.547 69.4988 625.706 69.4361 625.89 69.4361C626.075 69.4361 626.233 69.4988 626.363 69.6243C626.495 69.7474 626.562 69.8965 626.562 70.0717C626.562 70.2446 626.495 70.3937 626.363 70.5192C626.233 70.6423 626.075 70.7038 625.89 70.7038ZM627.844 79.0455V71.5455H628.881V72.4297H628.97C629.032 72.3161 629.12 72.1847 629.236 72.0355C629.352 71.8864 629.513 71.7562 629.719 71.6449C629.925 71.5312 630.198 71.4744 630.536 71.4744C630.977 71.4744 631.37 71.5857 631.715 71.8082C632.061 72.0308 632.332 72.3516 632.528 72.7706C632.727 73.1896 632.827 73.6939 632.827 74.2834C632.827 74.8729 632.728 75.3783 632.532 75.7997C632.335 76.2187 632.066 76.5419 631.722 76.7692C631.379 76.9941 630.987 77.1065 630.547 77.1065C630.215 77.1065 629.944 77.0509 629.734 76.9396C629.525 76.8284 629.362 76.6982 629.244 76.549C629.125 76.3999 629.034 76.2673 628.97 76.1513H628.906V79.0455H627.844ZM628.885 74.2727C628.885 74.6562 628.941 74.9924 629.052 75.2812C629.163 75.5701 629.324 75.7962 629.535 75.9595C629.745 76.1205 630.004 76.201 630.309 76.201C630.626 76.201 630.891 76.117 631.104 75.9489C631.317 75.7784 631.478 75.5476 631.587 75.2564C631.699 74.9652 631.754 74.6373 631.754 74.2727C631.754 73.9129 631.7 73.5897 631.591 73.3033C631.484 73.0168 631.323 72.7907 631.108 72.625C630.895 72.4593 630.629 72.3764 630.309 72.3764C630.001 72.3764 629.741 72.4557 629.528 72.6143C629.317 72.773 629.157 72.9943 629.048 73.2784C628.939 73.5625 628.885 73.8939 628.885 74.2727ZM636.562 71.5455V72.3977H633.583V71.5455H636.562ZM634.382 70.2386H635.444V75.3984C635.444 75.6044 635.475 75.7595 635.536 75.8636C635.598 75.9654 635.677 76.0353 635.774 76.0732C635.874 76.1087 635.981 76.1264 636.097 76.1264C636.182 76.1264 636.257 76.1205 636.321 76.1087C636.385 76.0968 636.435 76.0874 636.47 76.0803L636.662 76.9574C636.6 76.9811 636.513 77.0047 636.399 77.0284C636.285 77.0545 636.143 77.0687 635.973 77.071C635.694 77.0758 635.433 77.026 635.192 76.9219C634.95 76.8177 634.755 76.6567 634.606 76.4389C634.457 76.2211 634.382 75.9477 634.382 75.6186V70.2386Z" fill="#EDEDED"/>
<path d="M127 70.5L117 65.7265V77.2735L127 72.5V70.5ZM222.774 71.5L217 65.7265L211.226 71.5L217 77.2735L222.774 71.5ZM126 72.5H217V70.5H126V72.5Z" fill="#515151"/>
<path d="M227.005 70.5481L217.028 65.7266L216.972 77.2734L226.995 72.5481L227.005 70.5481ZM323.774 72.0133L318.028 66.2121L312.227 71.9578L317.972 77.759L323.774 72.0133ZM225.995 72.5433L317.995 72.9856L318.005 70.9856L226.005 70.5433L225.995 72.5433Z" fill="#515151"/>
<path d="M318 102L323.774 92H312.226L318 102ZM317 72V93H319V72H317Z" fill="#515151"/>
<path d="M430 71L420 66.2265V77.7735L430 73V71ZM520 72L510 66.2265V77.7735L520 72ZM429 73H511V71H429V73Z" fill="#515151"/>
<path d="M430 18L420 13.2265V24.7735L430 20V18ZM520 19L510 13.2265V24.7735L520 19ZM429 20H511V18H429V20Z" fill="#515151"/>
<defs>
<clipPath id="clip0_1537_136">
<rect width="20.0697" height="19" fill="white" transform="translate(226 8)"/>
</clipPath>
</defs>
</svg>
