<svg width="553" height="313" viewBox="0 0 553 313" fill="none" xmlns="http://www.w3.org/2000/svg">
<rect x="0.5" y="21.5" width="552" height="83" rx="11.5" stroke="#3774D0"/>
<rect x="24.5" y="45.5" width="59" height="35" rx="5.5" fill="#171717"/>
<rect x="24.5" y="45.5" width="59" height="35" rx="5.5" stroke="#313131"/>
<path d="M50.2259 56.4091V69.5H48.2443V58.3906H48.1676L45.0355 60.4361V58.544L48.3018 56.4091H50.2259ZM54.116 69.6214C53.7666 69.6214 53.4661 69.4979 53.2147 69.2507C52.9633 68.9993 52.8376 68.6967 52.8376 68.343C52.8376 67.9936 52.9633 67.6953 53.2147 67.4482C53.4661 67.1967 53.7666 67.071 54.116 67.071C54.4654 67.071 54.7658 67.1967 55.0173 67.4482C55.2687 67.6953 55.3944 67.9936 55.3944 68.343C55.3944 68.5774 55.3347 68.7926 55.2154 68.9886C55.1004 69.1804 54.947 69.3338 54.7552 69.4489C54.5634 69.5639 54.3504 69.6214 54.116 69.6214ZM61.1334 56.4091V69.5H59.1519V58.3906H59.0752L55.9431 60.4361V58.544L59.2094 56.4091H61.1334Z" fill="white"/>
<rect x="96.5" y="45.5" width="59" height="35" rx="5.5" fill="#171717"/>
<rect x="96.5" y="45.5" width="59" height="35" rx="5.5" stroke="#313131"/>
<path d="M118.58 69.679C117.779 69.679 117.059 69.5256 116.42 69.2188C115.785 68.9077 115.278 68.4815 114.898 67.9403C114.519 67.3991 114.317 66.7812 114.291 66.0866H116.209C116.256 66.6491 116.505 67.1115 116.957 67.4737C117.408 67.8359 117.95 68.017 118.58 68.017C119.083 68.017 119.528 67.902 119.916 67.6719C120.308 67.4375 120.615 67.1158 120.837 66.7067C121.063 66.2976 121.175 65.831 121.175 65.3068C121.175 64.7741 121.06 64.299 120.83 63.8814C120.6 63.4638 120.283 63.1357 119.878 62.897C119.477 62.6584 119.017 62.5369 118.497 62.5327C118.101 62.5327 117.702 62.6009 117.302 62.7372C116.901 62.8736 116.577 63.0526 116.33 63.2741L114.521 63.0057L115.256 56.4091H122.454V58.103H116.899L116.484 61.7656H116.56C116.816 61.5185 117.155 61.3118 117.577 61.1456C118.003 60.9794 118.459 60.8963 118.945 60.8963C119.741 60.8963 120.451 61.0859 121.073 61.4652C121.7 61.8445 122.192 62.3622 122.55 63.0185C122.912 63.6705 123.091 64.4205 123.087 65.2685C123.091 66.1165 122.899 66.8729 122.511 67.5376C122.128 68.2024 121.595 68.7266 120.913 69.1101C120.236 69.4893 119.458 69.679 118.58 69.679ZM126.052 69.6214C125.702 69.6214 125.402 69.4979 125.15 69.2507C124.899 68.9993 124.773 68.6967 124.773 68.343C124.773 67.9936 124.899 67.6953 125.15 67.4482C125.402 67.1967 125.702 67.071 126.052 67.071C126.401 67.071 126.701 67.1967 126.953 67.4482C127.204 67.6953 127.33 67.9936 127.33 68.343C127.33 68.5774 127.27 68.7926 127.151 68.9886C127.036 69.1804 126.882 69.3338 126.691 69.4489C126.499 69.5639 126.286 69.6214 126.052 69.6214ZM129.791 69.5L135.506 58.1989V58.103H128.897V56.4091H137.551V58.1605L131.856 69.5H129.791Z" fill="white"/>
<rect x="168.5" y="45.5" width="59" height="35" rx="5.5" fill="#171717"/>
<rect x="168.5" y="45.5" width="59" height="35" rx="5.5" stroke="#313131"/>
<path d="M187.726 56.4091V69.5H185.744V58.3906H185.668L182.536 60.4361V58.544L185.802 56.4091H187.726ZM191.528 69.5L197.243 58.1989V58.103H190.633V56.4091H199.288V58.1605L193.593 69.5H191.528ZM200.366 69.6214C200.016 69.6214 199.716 69.4979 199.464 69.2507C199.213 68.9993 199.087 68.6967 199.087 68.343C199.087 67.9936 199.213 67.6953 199.464 67.4482C199.716 67.1967 200.016 67.071 200.366 67.071C200.715 67.071 201.016 67.1967 201.267 67.4482C201.518 67.6953 201.644 67.9936 201.644 68.343C201.644 68.5774 201.584 68.7926 201.465 68.9886C201.35 69.1804 201.197 69.3338 201.005 69.4489C200.813 69.5639 200.6 69.6214 200.366 69.6214ZM203.999 69.5V68.0682L208.428 63.4787C208.901 62.9801 209.291 62.5433 209.598 62.1683C209.909 61.7891 210.141 61.429 210.295 61.0881C210.448 60.7472 210.525 60.3849 210.525 60.0014C210.525 59.5668 210.423 59.1918 210.218 58.8764C210.013 58.5568 209.734 58.3118 209.381 58.1413C209.027 57.9666 208.629 57.8793 208.185 57.8793C207.717 57.8793 207.307 57.9751 206.958 58.1669C206.609 58.3587 206.34 58.6293 206.153 58.9787C205.965 59.3281 205.871 59.7372 205.871 60.206H203.986C203.986 59.4091 204.169 58.7124 204.535 58.1158C204.902 57.5192 205.405 57.0568 206.044 56.7287C206.683 56.3963 207.41 56.2301 208.224 56.2301C209.046 56.2301 209.771 56.3942 210.397 56.7223C211.028 57.0462 211.52 57.4893 211.874 58.0518C212.227 58.6101 212.404 59.2408 212.404 59.9439C212.404 60.4297 212.312 60.9048 212.129 61.3693C211.95 61.8338 211.637 62.3516 211.19 62.9226C210.742 63.4893 210.12 64.1776 209.323 64.9872L206.722 67.7102V67.8061H212.615V69.5H203.999Z" fill="white"/>
<rect x="240.5" y="45.5" width="59" height="35" rx="5.5" fill="#171717"/>
<rect x="240.5" y="45.5" width="59" height="35" rx="5.5" stroke="#313131"/>
<path d="M262.33 69.679C261.746 69.6705 261.17 69.5639 260.604 69.3594C260.041 69.1548 259.53 68.8139 259.07 68.3366C258.609 67.8594 258.241 67.218 257.964 66.4126C257.691 65.6072 257.555 64.6016 257.555 63.3956C257.555 62.2536 257.668 61.2393 257.893 60.353C258.124 59.4666 258.454 58.7188 258.884 58.1094C259.315 57.4957 259.835 57.0291 260.444 56.7095C261.053 56.3899 261.737 56.2301 262.496 56.2301C263.276 56.2301 263.968 56.3835 264.573 56.6903C265.178 56.9972 265.668 57.4212 266.043 57.9624C266.423 58.5036 266.663 59.1193 266.766 59.8097H264.816C264.684 59.2642 264.422 58.8189 264.03 58.4737C263.638 58.1286 263.126 57.956 262.496 57.956C261.537 57.956 260.789 58.3736 260.252 59.2088C259.719 60.044 259.451 61.2053 259.447 62.6925H259.543C259.768 62.3217 260.045 62.0064 260.374 61.7464C260.706 61.4822 261.077 61.2798 261.486 61.1392C261.899 60.9943 262.334 60.9219 262.79 60.9219C263.548 60.9219 264.234 61.1072 264.848 61.478C265.466 61.8445 265.958 62.3516 266.325 62.9993C266.691 63.647 266.874 64.3885 266.874 65.2237C266.874 66.0589 266.685 66.8153 266.305 67.4929C265.93 68.1705 265.402 68.7074 264.72 69.1037C264.038 69.4957 263.241 69.6875 262.33 69.679ZM262.323 68.017C262.826 68.017 263.276 67.8935 263.672 67.6463C264.068 67.3991 264.381 67.0668 264.612 66.6491C264.842 66.2315 264.957 65.7649 264.957 65.2493C264.957 64.7464 264.844 64.2884 264.618 63.875C264.396 63.4616 264.089 63.1335 263.697 62.8906C263.31 62.6477 262.866 62.5263 262.368 62.5263C261.989 62.5263 261.637 62.5987 261.313 62.7436C260.994 62.8885 260.712 63.0888 260.469 63.3445C260.227 63.6001 260.035 63.8942 259.894 64.2266C259.758 64.5547 259.69 64.902 259.69 65.2685C259.69 65.7585 259.803 66.2124 260.028 66.63C260.259 67.0476 260.572 67.3842 260.968 67.6399C261.369 67.8913 261.82 68.017 262.323 68.017ZM269.71 69.6214C269.36 69.6214 269.06 69.4979 268.808 69.2507C268.557 68.9993 268.431 68.6967 268.431 68.343C268.431 67.9936 268.557 67.6953 268.808 67.4482C269.06 67.1967 269.36 67.071 269.71 67.071C270.059 67.071 270.36 67.1967 270.611 67.4482C270.862 67.6953 270.988 67.9936 270.988 68.343C270.988 68.5774 270.928 68.7926 270.809 68.9886C270.694 69.1804 270.541 69.3338 270.349 69.4489C270.157 69.5639 269.944 69.6214 269.71 69.6214ZM277.426 69.679C276.548 69.679 275.764 69.5277 275.073 69.2251C274.387 68.9226 273.844 68.5028 273.443 67.9659C273.047 67.4247 272.834 66.7983 272.804 66.0866H274.811C274.837 66.4744 274.967 66.8111 275.201 67.0966C275.44 67.3778 275.751 67.5952 276.134 67.7486C276.518 67.902 276.944 67.9787 277.413 67.9787C277.928 67.9787 278.384 67.8892 278.781 67.7102C279.181 67.5312 279.494 67.282 279.72 66.9624C279.946 66.6385 280.059 66.2656 280.059 65.8438C280.059 65.4048 279.946 65.0192 279.72 64.6868C279.499 64.3501 279.173 64.0859 278.742 63.8942C278.316 63.7024 277.801 63.6065 277.195 63.6065H276.09V61.9957H277.195C277.681 61.9957 278.107 61.9084 278.474 61.7337C278.845 61.5589 279.134 61.3161 279.343 61.005C279.552 60.6896 279.656 60.321 279.656 59.8991C279.656 59.4943 279.565 59.1428 279.381 58.8445C279.203 58.5419 278.947 58.3054 278.614 58.1349C278.286 57.9645 277.899 57.8793 277.451 57.8793C277.025 57.8793 276.627 57.9581 276.256 58.1158C275.889 58.2692 275.591 58.4908 275.361 58.7805C275.131 59.0661 275.007 59.4091 274.99 59.8097H273.079C273.1 59.1023 273.309 58.4801 273.705 57.9432C274.106 57.4062 274.634 56.9865 275.291 56.6839C275.947 56.3814 276.676 56.2301 277.477 56.2301C278.316 56.2301 279.041 56.3942 279.65 56.7223C280.264 57.0462 280.737 57.4787 281.069 58.0199C281.406 58.5611 281.572 59.1534 281.568 59.7969C281.572 60.5298 281.367 61.152 280.954 61.6634C280.545 62.1747 279.999 62.5178 279.318 62.6925V62.7947C280.187 62.9268 280.86 63.272 281.337 63.8303C281.819 64.3885 282.058 65.081 282.053 65.9077C282.058 66.6278 281.857 67.2734 281.453 67.8445C281.052 68.4155 280.504 68.8651 279.81 69.1932C279.115 69.517 278.32 69.679 277.426 69.679Z" fill="white"/>
<rect x="312.5" y="45.5" width="59" height="35" rx="5.5" fill="#171717"/>
<rect x="312.5" y="45.5" width="59" height="35" rx="5.5" stroke="#313131"/>
<path d="M334.317 69.679C333.439 69.679 332.655 69.5277 331.964 69.2251C331.278 68.9226 330.735 68.5028 330.335 67.9659C329.938 67.4247 329.725 66.7983 329.695 66.0866H331.702C331.728 66.4744 331.858 66.8111 332.092 67.0966C332.331 67.3778 332.642 67.5952 333.026 67.7486C333.409 67.902 333.835 67.9787 334.304 67.9787C334.82 67.9787 335.276 67.8892 335.672 67.7102C336.072 67.5312 336.386 67.282 336.612 66.9624C336.837 66.6385 336.95 66.2656 336.95 65.8438C336.95 65.4048 336.837 65.0192 336.612 64.6868C336.39 64.3501 336.064 64.0859 335.634 63.8942C335.207 63.7024 334.692 63.6065 334.087 63.6065H332.981V61.9957H334.087C334.572 61.9957 334.999 61.9084 335.365 61.7337C335.736 61.5589 336.026 61.3161 336.234 61.005C336.443 60.6896 336.548 60.321 336.548 59.8991C336.548 59.4943 336.456 59.1428 336.273 58.8445C336.094 58.5419 335.838 58.3054 335.506 58.1349C335.178 57.9645 334.79 57.8793 334.342 57.8793C333.916 57.8793 333.518 57.9581 333.147 58.1158C332.781 58.2692 332.482 58.4908 332.252 58.7805C332.022 59.0661 331.898 59.4091 331.881 59.8097H329.97C329.991 59.1023 330.2 58.4801 330.597 57.9432C330.997 57.4062 331.526 56.9865 332.182 56.6839C332.838 56.3814 333.567 56.2301 334.368 56.2301C335.207 56.2301 335.932 56.3942 336.541 56.7223C337.155 57.0462 337.628 57.4787 337.96 58.0199C338.297 58.5611 338.463 59.1534 338.459 59.7969C338.463 60.5298 338.259 61.152 337.845 61.6634C337.436 62.1747 336.891 62.5178 336.209 62.6925V62.7947C337.078 62.9268 337.751 63.272 338.229 63.8303C338.71 64.3885 338.949 65.081 338.945 65.9077C338.949 66.6278 338.749 67.2734 338.344 67.8445C337.943 68.4155 337.396 68.8651 336.701 69.1932C336.006 69.517 335.212 69.679 334.317 69.679ZM342.079 69.6214C341.729 69.6214 341.429 69.4979 341.178 69.2507C340.926 68.9993 340.8 68.6967 340.8 68.343C340.8 67.9936 340.926 67.6953 341.178 67.4482C341.429 67.1967 341.729 67.071 342.079 67.071C342.428 67.071 342.729 67.1967 342.98 67.4482C343.232 67.6953 343.357 67.9936 343.357 68.343C343.357 68.5774 343.298 68.7926 343.178 68.9886C343.063 69.1804 342.91 69.3338 342.718 69.4489C342.526 69.5639 342.313 69.6214 342.079 69.6214ZM349.822 69.679C349.021 69.679 348.301 69.5256 347.661 69.2188C347.026 68.9077 346.519 68.4815 346.14 67.9403C345.761 67.3991 345.558 66.7812 345.533 66.0866H347.45C347.497 66.6491 347.747 67.1115 348.198 67.4737C348.65 67.8359 349.191 68.017 349.822 68.017C350.325 68.017 350.77 67.902 351.158 67.6719C351.55 67.4375 351.857 67.1158 352.078 66.7067C352.304 66.2976 352.417 65.831 352.417 65.3068C352.417 64.7741 352.302 64.299 352.072 63.8814C351.842 63.4638 351.524 63.1357 351.119 62.897C350.719 62.6584 350.259 62.5369 349.739 62.5327C349.342 62.5327 348.944 62.6009 348.543 62.7372C348.143 62.8736 347.819 63.0526 347.572 63.2741L345.763 63.0057L346.498 56.4091H353.695V58.103H348.141L347.725 61.7656H347.802C348.058 61.5185 348.396 61.3118 348.818 61.1456C349.244 60.9794 349.7 60.8963 350.186 60.8963C350.983 60.8963 351.693 61.0859 352.315 61.4652C352.941 61.8445 353.433 62.3622 353.791 63.0185C354.153 63.6705 354.332 64.4205 354.328 65.2685C354.332 66.1165 354.141 66.8729 353.753 67.5376C353.369 68.2024 352.837 68.7266 352.155 69.1101C351.477 69.4893 350.7 69.679 349.822 69.679Z" fill="white"/>
<rect x="384.5" y="45.5" width="59" height="35" rx="5.5" fill="#171717"/>
<rect x="384.5" y="45.5" width="59" height="35" rx="5.5" stroke="#313131"/>
<path d="M402.226 56.4091V69.5H400.244V58.3906H400.168L397.036 60.4361V58.544L400.302 56.4091H402.226ZM410.145 69.7173C409.135 69.7131 408.272 69.4467 407.556 68.9183C406.84 68.3899 406.292 67.6207 405.913 66.6108C405.534 65.6009 405.344 64.3842 405.344 62.9609C405.344 61.5419 405.534 60.3295 405.913 59.3239C406.297 58.3182 406.846 57.5511 407.562 57.0227C408.282 56.4943 409.143 56.2301 410.145 56.2301C411.146 56.2301 412.005 56.4964 412.721 57.0291C413.436 57.5575 413.984 58.3246 414.363 59.3303C414.747 60.3317 414.939 61.5419 414.939 62.9609C414.939 64.3885 414.749 65.6072 414.37 66.6172C413.99 67.6229 413.443 68.392 412.727 68.9247C412.011 69.4531 411.15 69.7173 410.145 69.7173ZM410.145 68.0107C411.031 68.0107 411.723 67.5781 412.222 66.7131C412.725 65.848 412.976 64.5973 412.976 62.9609C412.976 61.8743 412.861 60.956 412.631 60.206C412.405 59.4517 412.079 58.8807 411.653 58.4929C411.231 58.1009 410.728 57.9048 410.145 57.9048C409.262 57.9048 408.57 58.3395 408.067 59.2088C407.564 60.0781 407.311 61.3288 407.307 62.9609C407.307 64.0518 407.419 64.9744 407.645 65.7287C407.875 66.4787 408.201 67.0476 408.623 67.4354C409.045 67.8189 409.552 68.0107 410.145 68.0107ZM417.836 69.6214C417.487 69.6214 417.187 69.4979 416.935 69.2507C416.684 68.9993 416.558 68.6967 416.558 68.343C416.558 67.9936 416.684 67.6953 416.935 67.4482C417.187 67.1967 417.487 67.071 417.836 67.071C418.186 67.071 418.486 67.1967 418.738 67.4482C418.989 67.6953 419.115 67.9936 419.115 68.343C419.115 68.5774 419.055 68.7926 418.936 68.9886C418.821 69.1804 418.667 69.3338 418.476 69.4489C418.284 69.5639 418.071 69.6214 417.836 69.6214ZM425.579 69.679C424.778 69.679 424.058 69.5256 423.419 69.2188C422.784 68.9077 422.277 68.4815 421.897 67.9403C421.518 67.3991 421.316 66.7812 421.29 66.0866H423.208C423.255 66.6491 423.504 67.1115 423.956 67.4737C424.407 67.8359 424.949 68.017 425.579 68.017C426.082 68.017 426.527 67.902 426.915 67.6719C427.307 67.4375 427.614 67.1158 427.836 66.7067C428.062 66.2976 428.174 65.831 428.174 65.3068C428.174 64.7741 428.059 64.299 427.829 63.8814C427.599 63.4638 427.282 63.1357 426.877 62.897C426.476 62.6584 426.016 62.5369 425.496 62.5327C425.1 62.5327 424.701 62.6009 424.301 62.7372C423.9 62.8736 423.576 63.0526 423.329 63.2741L421.52 63.0057L422.255 56.4091H429.453V58.103H423.898L423.483 61.7656H423.559C423.815 61.5185 424.154 61.3118 424.576 61.1456C425.002 60.9794 425.458 60.8963 425.944 60.8963C426.741 60.8963 427.45 61.0859 428.072 61.4652C428.699 61.8445 429.191 62.3622 429.549 63.0185C429.911 63.6705 430.09 64.4205 430.086 65.2685C430.09 66.1165 429.898 66.8729 429.51 67.5376C429.127 68.2024 428.594 68.7266 427.912 69.1101C427.235 69.4893 426.457 69.679 425.579 69.679Z" fill="white"/>
<rect x="456.5" y="45.5" width="59" height="35" rx="5.5" fill="#171717"/>
<rect x="456.5" y="45.5" width="59" height="35" rx="5.5" stroke="#313131"/>
<path d="M474.317 69.679C473.439 69.679 472.655 69.5277 471.964 69.2251C471.278 68.9226 470.735 68.5028 470.335 67.9659C469.938 67.4247 469.725 66.7983 469.695 66.0866H471.702C471.728 66.4744 471.858 66.8111 472.092 67.0966C472.331 67.3778 472.642 67.5952 473.026 67.7486C473.409 67.902 473.835 67.9787 474.304 67.9787C474.82 67.9787 475.276 67.8892 475.672 67.7102C476.072 67.5312 476.386 67.282 476.612 66.9624C476.837 66.6385 476.95 66.2656 476.95 65.8438C476.95 65.4048 476.837 65.0192 476.612 64.6868C476.39 64.3501 476.064 64.0859 475.634 63.8942C475.207 63.7024 474.692 63.6065 474.087 63.6065H472.981V61.9957H474.087C474.572 61.9957 474.999 61.9084 475.365 61.7337C475.736 61.5589 476.026 61.3161 476.234 61.005C476.443 60.6896 476.548 60.321 476.548 59.8991C476.548 59.4943 476.456 59.1428 476.273 58.8445C476.094 58.5419 475.838 58.3054 475.506 58.1349C475.178 57.9645 474.79 57.8793 474.342 57.8793C473.916 57.8793 473.518 57.9581 473.147 58.1158C472.781 58.2692 472.482 58.4908 472.252 58.7805C472.022 59.0661 471.898 59.4091 471.881 59.8097H469.97C469.991 59.1023 470.2 58.4801 470.597 57.9432C470.997 57.4062 471.526 56.9865 472.182 56.6839C472.838 56.3814 473.567 56.2301 474.368 56.2301C475.207 56.2301 475.932 56.3942 476.541 56.7223C477.155 57.0462 477.628 57.4787 477.96 58.0199C478.297 58.5611 478.463 59.1534 478.459 59.7969C478.463 60.5298 478.259 61.152 477.845 61.6634C477.436 62.1747 476.891 62.5178 476.209 62.6925V62.7947C477.078 62.9268 477.751 63.272 478.229 63.8303C478.71 64.3885 478.949 65.081 478.945 65.9077C478.949 66.6278 478.749 67.2734 478.344 67.8445C477.943 68.4155 477.396 68.8651 476.701 69.1932C476.006 69.517 475.212 69.679 474.317 69.679ZM482.079 69.6214C481.729 69.6214 481.429 69.4979 481.178 69.2507C480.926 68.9993 480.8 68.6967 480.8 68.343C480.8 67.9936 480.926 67.6953 481.178 67.4482C481.429 67.1967 481.729 67.071 482.079 67.071C482.428 67.071 482.729 67.1967 482.98 67.4482C483.232 67.6953 483.357 67.9936 483.357 68.343C483.357 68.5774 483.298 68.7926 483.178 68.9886C483.063 69.1804 482.91 69.3338 482.718 69.4489C482.526 69.5639 482.313 69.6214 482.079 69.6214ZM489.096 56.4091V69.5H487.115V58.3906H487.038L483.906 60.4361V58.544L487.172 56.4091H489.096ZM492.183 66.9432V65.3452L497.84 56.4091H499.099V58.7614H498.3L494.254 65.1662V65.2685H502.007V66.9432H492.183ZM498.389 69.5V66.4574L498.402 65.7287V56.4091H500.275V69.5H498.389Z" fill="white"/>
<rect x="0.5" y="150.5" width="552" height="83" rx="11.5" stroke="#3774D0"/>
<rect x="24.5" y="174.5" width="59" height="35" rx="5.5" fill="#171717"/>
<rect x="24.5" y="174.5" width="59" height="35" rx="5.5" stroke="#313131"/>
<path d="M50.2259 185.409V198.5H48.2443V187.391H48.1676L45.0355 189.436V187.544L48.3018 185.409H50.2259ZM54.116 198.621C53.7666 198.621 53.4661 198.498 53.2147 198.251C52.9633 197.999 52.8376 197.697 52.8376 197.343C52.8376 196.994 52.9633 196.695 53.2147 196.448C53.4661 196.197 53.7666 196.071 54.116 196.071C54.4654 196.071 54.7658 196.197 55.0173 196.448C55.2687 196.695 55.3944 196.994 55.3944 197.343C55.3944 197.577 55.3347 197.793 55.2154 197.989C55.1004 198.18 54.947 198.334 54.7552 198.449C54.5634 198.564 54.3504 198.621 54.116 198.621ZM61.1334 185.409V198.5H59.1519V187.391H59.0752L55.9431 189.436V187.544L59.2094 185.409H61.1334Z" fill="white"/>
<rect x="96.5" y="174.5" width="59" height="35" rx="5.5" fill="#171717"/>
<rect x="96.5" y="174.5" width="59" height="35" rx="5.5" stroke="#313131"/>
<path d="M118.58 198.679C117.779 198.679 117.059 198.526 116.42 198.219C115.785 197.908 115.278 197.482 114.898 196.94C114.519 196.399 114.317 195.781 114.291 195.087H116.209C116.256 195.649 116.505 196.112 116.957 196.474C117.408 196.836 117.95 197.017 118.58 197.017C119.083 197.017 119.528 196.902 119.916 196.672C120.308 196.438 120.615 196.116 120.837 195.707C121.063 195.298 121.175 194.831 121.175 194.307C121.175 193.774 121.06 193.299 120.83 192.881C120.6 192.464 120.283 192.136 119.878 191.897C119.477 191.658 119.017 191.537 118.497 191.533C118.101 191.533 117.702 191.601 117.302 191.737C116.901 191.874 116.577 192.053 116.33 192.274L114.521 192.006L115.256 185.409H122.454V187.103H116.899L116.484 190.766H116.56C116.816 190.518 117.155 190.312 117.577 190.146C118.003 189.979 118.459 189.896 118.945 189.896C119.741 189.896 120.451 190.086 121.073 190.465C121.7 190.844 122.192 191.362 122.55 192.018C122.912 192.67 123.091 193.42 123.087 194.268C123.091 195.116 122.899 195.873 122.511 196.538C122.128 197.202 121.595 197.727 120.913 198.11C120.236 198.489 119.458 198.679 118.58 198.679ZM126.052 198.621C125.702 198.621 125.402 198.498 125.15 198.251C124.899 197.999 124.773 197.697 124.773 197.343C124.773 196.994 124.899 196.695 125.15 196.448C125.402 196.197 125.702 196.071 126.052 196.071C126.401 196.071 126.701 196.197 126.953 196.448C127.204 196.695 127.33 196.994 127.33 197.343C127.33 197.577 127.27 197.793 127.151 197.989C127.036 198.18 126.882 198.334 126.691 198.449C126.499 198.564 126.286 198.621 126.052 198.621ZM129.791 198.5L135.506 187.199V187.103H128.897V185.409H137.551V187.161L131.856 198.5H129.791Z" fill="white"/>
<rect x="168.5" y="174.5" width="59" height="35" rx="5.5" fill="#171717"/>
<rect x="168.5" y="174.5" width="59" height="35" rx="5.5" stroke="#313131"/>
<path d="M187.726 185.409V198.5H185.744V187.391H185.668L182.536 189.436V187.544L185.802 185.409H187.726ZM191.528 198.5L197.243 187.199V187.103H190.633V185.409H199.288V187.161L193.593 198.5H191.528ZM200.366 198.621C200.016 198.621 199.716 198.498 199.464 198.251C199.213 197.999 199.087 197.697 199.087 197.343C199.087 196.994 199.213 196.695 199.464 196.448C199.716 196.197 200.016 196.071 200.366 196.071C200.715 196.071 201.016 196.197 201.267 196.448C201.518 196.695 201.644 196.994 201.644 197.343C201.644 197.577 201.584 197.793 201.465 197.989C201.35 198.18 201.197 198.334 201.005 198.449C200.813 198.564 200.6 198.621 200.366 198.621ZM203.999 198.5V197.068L208.428 192.479C208.901 191.98 209.291 191.543 209.598 191.168C209.909 190.789 210.141 190.429 210.295 190.088C210.448 189.747 210.525 189.385 210.525 189.001C210.525 188.567 210.423 188.192 210.218 187.876C210.013 187.557 209.734 187.312 209.381 187.141C209.027 186.967 208.629 186.879 208.185 186.879C207.717 186.879 207.307 186.975 206.958 187.167C206.609 187.359 206.34 187.629 206.153 187.979C205.965 188.328 205.871 188.737 205.871 189.206H203.986C203.986 188.409 204.169 187.712 204.535 187.116C204.902 186.519 205.405 186.057 206.044 185.729C206.683 185.396 207.41 185.23 208.224 185.23C209.046 185.23 209.771 185.394 210.397 185.722C211.028 186.046 211.52 186.489 211.874 187.052C212.227 187.61 212.404 188.241 212.404 188.944C212.404 189.43 212.312 189.905 212.129 190.369C211.95 190.834 211.637 191.352 211.19 191.923C210.742 192.489 210.12 193.178 209.323 193.987L206.722 196.71V196.806H212.615V198.5H203.999Z" fill="white"/>
<rect x="240.5" y="174.5" width="59" height="35" rx="5.5" fill="#171717"/>
<rect x="240.5" y="174.5" width="59" height="35" rx="5.5" stroke="#313131"/>
<path d="M262.33 198.679C261.746 198.67 261.17 198.564 260.604 198.359C260.041 198.155 259.53 197.814 259.07 197.337C258.609 196.859 258.241 196.218 257.964 195.413C257.691 194.607 257.555 193.602 257.555 192.396C257.555 191.254 257.668 190.239 257.893 189.353C258.124 188.467 258.454 187.719 258.884 187.109C259.315 186.496 259.835 186.029 260.444 185.71C261.053 185.39 261.737 185.23 262.496 185.23C263.276 185.23 263.968 185.384 264.573 185.69C265.178 185.997 265.668 186.421 266.043 186.962C266.423 187.504 266.663 188.119 266.766 188.81H264.816C264.684 188.264 264.422 187.819 264.03 187.474C263.638 187.129 263.126 186.956 262.496 186.956C261.537 186.956 260.789 187.374 260.252 188.209C259.719 189.044 259.451 190.205 259.447 191.692H259.543C259.768 191.322 260.045 191.006 260.374 190.746C260.706 190.482 261.077 190.28 261.486 190.139C261.899 189.994 262.334 189.922 262.79 189.922C263.548 189.922 264.234 190.107 264.848 190.478C265.466 190.844 265.958 191.352 266.325 191.999C266.691 192.647 266.874 193.388 266.874 194.224C266.874 195.059 266.685 195.815 266.305 196.493C265.93 197.17 265.402 197.707 264.72 198.104C264.038 198.496 263.241 198.688 262.33 198.679ZM262.323 197.017C262.826 197.017 263.276 196.893 263.672 196.646C264.068 196.399 264.381 196.067 264.612 195.649C264.842 195.232 264.957 194.765 264.957 194.249C264.957 193.746 264.844 193.288 264.618 192.875C264.396 192.462 264.089 192.134 263.697 191.891C263.31 191.648 262.866 191.526 262.368 191.526C261.989 191.526 261.637 191.599 261.313 191.744C260.994 191.888 260.712 192.089 260.469 192.344C260.227 192.6 260.035 192.894 259.894 193.227C259.758 193.555 259.69 193.902 259.69 194.268C259.69 194.759 259.803 195.212 260.028 195.63C260.259 196.048 260.572 196.384 260.968 196.64C261.369 196.891 261.82 197.017 262.323 197.017ZM269.71 198.621C269.36 198.621 269.06 198.498 268.808 198.251C268.557 197.999 268.431 197.697 268.431 197.343C268.431 196.994 268.557 196.695 268.808 196.448C269.06 196.197 269.36 196.071 269.71 196.071C270.059 196.071 270.36 196.197 270.611 196.448C270.862 196.695 270.988 196.994 270.988 197.343C270.988 197.577 270.928 197.793 270.809 197.989C270.694 198.18 270.541 198.334 270.349 198.449C270.157 198.564 269.944 198.621 269.71 198.621ZM277.426 198.679C276.548 198.679 275.764 198.528 275.073 198.225C274.387 197.923 273.844 197.503 273.443 196.966C273.047 196.425 272.834 195.798 272.804 195.087H274.811C274.837 195.474 274.967 195.811 275.201 196.097C275.44 196.378 275.751 196.595 276.134 196.749C276.518 196.902 276.944 196.979 277.413 196.979C277.928 196.979 278.384 196.889 278.781 196.71C279.181 196.531 279.494 196.282 279.72 195.962C279.946 195.638 280.059 195.266 280.059 194.844C280.059 194.405 279.946 194.019 279.72 193.687C279.499 193.35 279.173 193.086 278.742 192.894C278.316 192.702 277.801 192.607 277.195 192.607H276.09V190.996H277.195C277.681 190.996 278.107 190.908 278.474 190.734C278.845 190.559 279.134 190.316 279.343 190.005C279.552 189.69 279.656 189.321 279.656 188.899C279.656 188.494 279.565 188.143 279.381 187.844C279.203 187.542 278.947 187.305 278.614 187.135C278.286 186.964 277.899 186.879 277.451 186.879C277.025 186.879 276.627 186.958 276.256 187.116C275.889 187.269 275.591 187.491 275.361 187.781C275.131 188.066 275.007 188.409 274.99 188.81H273.079C273.1 188.102 273.309 187.48 273.705 186.943C274.106 186.406 274.634 185.987 275.291 185.684C275.947 185.381 276.676 185.23 277.477 185.23C278.316 185.23 279.041 185.394 279.65 185.722C280.264 186.046 280.737 186.479 281.069 187.02C281.406 187.561 281.572 188.153 281.568 188.797C281.572 189.53 281.367 190.152 280.954 190.663C280.545 191.175 279.999 191.518 279.318 191.692V191.795C280.187 191.927 280.86 192.272 281.337 192.83C281.819 193.388 282.058 194.081 282.053 194.908C282.058 195.628 281.857 196.273 281.453 196.844C281.052 197.415 280.504 197.865 279.81 198.193C279.115 198.517 278.32 198.679 277.426 198.679Z" fill="white"/>
<rect x="312.5" y="174.5" width="59" height="35" rx="5.5" fill="#171717"/>
<rect x="312.5" y="174.5" width="59" height="35" rx="5.5" stroke="#313131"/>
<path d="M334.317 198.679C333.439 198.679 332.655 198.528 331.964 198.225C331.278 197.923 330.735 197.503 330.335 196.966C329.938 196.425 329.725 195.798 329.695 195.087H331.702C331.728 195.474 331.858 195.811 332.092 196.097C332.331 196.378 332.642 196.595 333.026 196.749C333.409 196.902 333.835 196.979 334.304 196.979C334.82 196.979 335.276 196.889 335.672 196.71C336.072 196.531 336.386 196.282 336.612 195.962C336.837 195.638 336.95 195.266 336.95 194.844C336.95 194.405 336.837 194.019 336.612 193.687C336.39 193.35 336.064 193.086 335.634 192.894C335.207 192.702 334.692 192.607 334.087 192.607H332.981V190.996H334.087C334.572 190.996 334.999 190.908 335.365 190.734C335.736 190.559 336.026 190.316 336.234 190.005C336.443 189.69 336.548 189.321 336.548 188.899C336.548 188.494 336.456 188.143 336.273 187.844C336.094 187.542 335.838 187.305 335.506 187.135C335.178 186.964 334.79 186.879 334.342 186.879C333.916 186.879 333.518 186.958 333.147 187.116C332.781 187.269 332.482 187.491 332.252 187.781C332.022 188.066 331.898 188.409 331.881 188.81H329.97C329.991 188.102 330.2 187.48 330.597 186.943C330.997 186.406 331.526 185.987 332.182 185.684C332.838 185.381 333.567 185.23 334.368 185.23C335.207 185.23 335.932 185.394 336.541 185.722C337.155 186.046 337.628 186.479 337.96 187.02C338.297 187.561 338.463 188.153 338.459 188.797C338.463 189.53 338.259 190.152 337.845 190.663C337.436 191.175 336.891 191.518 336.209 191.692V191.795C337.078 191.927 337.751 192.272 338.229 192.83C338.71 193.388 338.949 194.081 338.945 194.908C338.949 195.628 338.749 196.273 338.344 196.844C337.943 197.415 337.396 197.865 336.701 198.193C336.006 198.517 335.212 198.679 334.317 198.679ZM342.079 198.621C341.729 198.621 341.429 198.498 341.178 198.251C340.926 197.999 340.8 197.697 340.8 197.343C340.8 196.994 340.926 196.695 341.178 196.448C341.429 196.197 341.729 196.071 342.079 196.071C342.428 196.071 342.729 196.197 342.98 196.448C343.232 196.695 343.357 196.994 343.357 197.343C343.357 197.577 343.298 197.793 343.178 197.989C343.063 198.18 342.91 198.334 342.718 198.449C342.526 198.564 342.313 198.621 342.079 198.621ZM349.822 198.679C349.021 198.679 348.301 198.526 347.661 198.219C347.026 197.908 346.519 197.482 346.14 196.94C345.761 196.399 345.558 195.781 345.533 195.087H347.45C347.497 195.649 347.747 196.112 348.198 196.474C348.65 196.836 349.191 197.017 349.822 197.017C350.325 197.017 350.77 196.902 351.158 196.672C351.55 196.438 351.857 196.116 352.078 195.707C352.304 195.298 352.417 194.831 352.417 194.307C352.417 193.774 352.302 193.299 352.072 192.881C351.842 192.464 351.524 192.136 351.119 191.897C350.719 191.658 350.259 191.537 349.739 191.533C349.342 191.533 348.944 191.601 348.543 191.737C348.143 191.874 347.819 192.053 347.572 192.274L345.763 192.006L346.498 185.409H353.695V187.103H348.141L347.725 190.766H347.802C348.058 190.518 348.396 190.312 348.818 190.146C349.244 189.979 349.7 189.896 350.186 189.896C350.983 189.896 351.693 190.086 352.315 190.465C352.941 190.844 353.433 191.362 353.791 192.018C354.153 192.67 354.332 193.42 354.328 194.268C354.332 195.116 354.141 195.873 353.753 196.538C353.369 197.202 352.837 197.727 352.155 198.11C351.477 198.489 350.7 198.679 349.822 198.679Z" fill="white"/>
<rect x="384.5" y="174.5" width="59" height="35" rx="5.5" fill="#171717"/>
<rect x="384.5" y="174.5" width="59" height="35" rx="5.5" stroke="#313131"/>
<path d="M402.226 185.409V198.5H400.244V187.391H400.168L397.036 189.436V187.544L400.302 185.409H402.226ZM410.145 198.717C409.135 198.713 408.272 198.447 407.556 197.918C406.84 197.39 406.292 196.621 405.913 195.611C405.534 194.601 405.344 193.384 405.344 191.961C405.344 190.542 405.534 189.33 405.913 188.324C406.297 187.318 406.846 186.551 407.562 186.023C408.282 185.494 409.143 185.23 410.145 185.23C411.146 185.23 412.005 185.496 412.721 186.029C413.436 186.558 413.984 187.325 414.363 188.33C414.747 189.332 414.939 190.542 414.939 191.961C414.939 193.388 414.749 194.607 414.37 195.617C413.99 196.623 413.443 197.392 412.727 197.925C412.011 198.453 411.15 198.717 410.145 198.717ZM410.145 197.011C411.031 197.011 411.723 196.578 412.222 195.713C412.725 194.848 412.976 193.597 412.976 191.961C412.976 190.874 412.861 189.956 412.631 189.206C412.405 188.452 412.079 187.881 411.653 187.493C411.231 187.101 410.728 186.905 410.145 186.905C409.262 186.905 408.57 187.339 408.067 188.209C407.564 189.078 407.311 190.329 407.307 191.961C407.307 193.052 407.419 193.974 407.645 194.729C407.875 195.479 408.201 196.048 408.623 196.435C409.045 196.819 409.552 197.011 410.145 197.011ZM417.836 198.621C417.487 198.621 417.187 198.498 416.935 198.251C416.684 197.999 416.558 197.697 416.558 197.343C416.558 196.994 416.684 196.695 416.935 196.448C417.187 196.197 417.487 196.071 417.836 196.071C418.186 196.071 418.486 196.197 418.738 196.448C418.989 196.695 419.115 196.994 419.115 197.343C419.115 197.577 419.055 197.793 418.936 197.989C418.821 198.18 418.667 198.334 418.476 198.449C418.284 198.564 418.071 198.621 417.836 198.621ZM425.579 198.679C424.778 198.679 424.058 198.526 423.419 198.219C422.784 197.908 422.277 197.482 421.897 196.94C421.518 196.399 421.316 195.781 421.29 195.087H423.208C423.255 195.649 423.504 196.112 423.956 196.474C424.407 196.836 424.949 197.017 425.579 197.017C426.082 197.017 426.527 196.902 426.915 196.672C427.307 196.438 427.614 196.116 427.836 195.707C428.062 195.298 428.174 194.831 428.174 194.307C428.174 193.774 428.059 193.299 427.829 192.881C427.599 192.464 427.282 192.136 426.877 191.897C426.476 191.658 426.016 191.537 425.496 191.533C425.1 191.533 424.701 191.601 424.301 191.737C423.9 191.874 423.576 192.053 423.329 192.274L421.52 192.006L422.255 185.409H429.453V187.103H423.898L423.483 190.766H423.559C423.815 190.518 424.154 190.312 424.576 190.146C425.002 189.979 425.458 189.896 425.944 189.896C426.741 189.896 427.45 190.086 428.072 190.465C428.699 190.844 429.191 191.362 429.549 192.018C429.911 192.67 430.09 193.42 430.086 194.268C430.09 195.116 429.898 195.873 429.51 196.538C429.127 197.202 428.594 197.727 427.912 198.11C427.235 198.489 426.457 198.679 425.579 198.679Z" fill="white"/>
<rect x="456.5" y="174.5" width="59" height="35" rx="5.5" fill="#171717"/>
<rect x="456.5" y="174.5" width="59" height="35" rx="5.5" stroke="#313131"/>
<path d="M474.317 198.679C473.439 198.679 472.655 198.528 471.964 198.225C471.278 197.923 470.735 197.503 470.335 196.966C469.938 196.425 469.725 195.798 469.695 195.087H471.702C471.728 195.474 471.858 195.811 472.092 196.097C472.331 196.378 472.642 196.595 473.026 196.749C473.409 196.902 473.835 196.979 474.304 196.979C474.82 196.979 475.276 196.889 475.672 196.71C476.072 196.531 476.386 196.282 476.612 195.962C476.837 195.638 476.95 195.266 476.95 194.844C476.95 194.405 476.837 194.019 476.612 193.687C476.39 193.35 476.064 193.086 475.634 192.894C475.207 192.702 474.692 192.607 474.087 192.607H472.981V190.996H474.087C474.572 190.996 474.999 190.908 475.365 190.734C475.736 190.559 476.026 190.316 476.234 190.005C476.443 189.69 476.548 189.321 476.548 188.899C476.548 188.494 476.456 188.143 476.273 187.844C476.094 187.542 475.838 187.305 475.506 187.135C475.178 186.964 474.79 186.879 474.342 186.879C473.916 186.879 473.518 186.958 473.147 187.116C472.781 187.269 472.482 187.491 472.252 187.781C472.022 188.066 471.898 188.409 471.881 188.81H469.97C469.991 188.102 470.2 187.48 470.597 186.943C470.997 186.406 471.526 185.987 472.182 185.684C472.838 185.381 473.567 185.23 474.368 185.23C475.207 185.23 475.932 185.394 476.541 185.722C477.155 186.046 477.628 186.479 477.96 187.02C478.297 187.561 478.463 188.153 478.459 188.797C478.463 189.53 478.259 190.152 477.845 190.663C477.436 191.175 476.891 191.518 476.209 191.692V191.795C477.078 191.927 477.751 192.272 478.229 192.83C478.71 193.388 478.949 194.081 478.945 194.908C478.949 195.628 478.749 196.273 478.344 196.844C477.943 197.415 477.396 197.865 476.701 198.193C476.006 198.517 475.212 198.679 474.317 198.679ZM482.079 198.621C481.729 198.621 481.429 198.498 481.178 198.251C480.926 197.999 480.8 197.697 480.8 197.343C480.8 196.994 480.926 196.695 481.178 196.448C481.429 196.197 481.729 196.071 482.079 196.071C482.428 196.071 482.729 196.197 482.98 196.448C483.232 196.695 483.357 196.994 483.357 197.343C483.357 197.577 483.298 197.793 483.178 197.989C483.063 198.18 482.91 198.334 482.718 198.449C482.526 198.564 482.313 198.621 482.079 198.621ZM489.096 185.409V198.5H487.115V187.391H487.038L483.906 189.436V187.544L487.172 185.409H489.096ZM492.183 195.943V194.345L497.84 185.409H499.099V187.761H498.3L494.254 194.166V194.268H502.007V195.943H492.183ZM498.389 198.5V195.457L498.402 194.729V185.409H500.275V198.5H498.389Z" fill="white"/>
<path d="M17.2074 116.111H15.8778C15.8267 115.827 15.7315 115.577 15.5923 115.361C15.4531 115.145 15.2827 114.962 15.081 114.811C14.8793 114.661 14.6534 114.547 14.4034 114.47C14.1563 114.393 13.8935 114.355 13.6151 114.355C13.1122 114.355 12.6619 114.482 12.2642 114.734C11.8693 114.987 11.5568 115.358 11.3267 115.847C11.0994 116.335 10.9858 116.932 10.9858 117.636C10.9858 118.347 11.0994 118.946 11.3267 119.435C11.5568 119.923 11.8707 120.293 12.2685 120.543C12.6662 120.793 13.1136 120.918 13.6108 120.918C13.8864 120.918 14.1477 120.881 14.3949 120.807C14.6449 120.73 14.8707 120.618 15.0724 120.47C15.2741 120.322 15.4446 120.142 15.5838 119.929C15.7259 119.713 15.8239 119.466 15.8778 119.188L17.2074 119.192C17.1364 119.621 16.9986 120.016 16.794 120.376C16.5923 120.734 16.3324 121.044 16.0142 121.305C15.6989 121.564 15.3381 121.764 14.9318 121.906C14.5256 122.048 14.0824 122.119 13.6023 122.119C12.8466 122.119 12.1733 121.94 11.5824 121.582C10.9915 121.222 10.5256 120.706 10.1847 120.036C9.84659 119.365 9.67756 118.565 9.67756 117.636C9.67756 116.705 9.84801 115.905 10.1889 115.237C10.5298 114.567 10.9957 114.053 11.5866 113.695C12.1776 113.334 12.8494 113.153 13.6023 113.153C14.0653 113.153 14.4972 113.22 14.8977 113.354C15.3011 113.484 15.6634 113.678 15.9844 113.933C16.3054 114.186 16.571 114.496 16.7812 114.862C16.9915 115.226 17.1335 115.642 17.2074 116.111ZM19.8349 118.114V122H18.5608V113.273H19.8179V116.52H19.8988C20.0522 116.168 20.2866 115.888 20.6019 115.68C20.9173 115.473 21.3292 115.369 21.8377 115.369C22.2866 115.369 22.6787 115.462 23.0139 115.646C23.3519 115.831 23.6133 116.107 23.798 116.473C23.9855 116.837 24.0792 117.291 24.0792 117.837V122H22.8051V117.99C22.8051 117.51 22.6815 117.138 22.4343 116.874C22.1872 116.607 21.8434 116.473 21.4031 116.473C21.1019 116.473 20.8321 116.537 20.5934 116.665C20.3576 116.793 20.1715 116.98 20.0352 117.227C19.9017 117.472 19.8349 117.767 19.8349 118.114ZM27.5643 122.145C27.1496 122.145 26.7746 122.068 26.4393 121.915C26.1041 121.759 25.8385 121.533 25.6425 121.237C25.4493 120.942 25.3527 120.58 25.3527 120.151C25.3527 119.781 25.4237 119.477 25.5658 119.239C25.7078 119 25.8996 118.811 26.141 118.672C26.3825 118.533 26.6524 118.428 26.9507 118.357C27.249 118.286 27.553 118.232 27.8626 118.195C28.2547 118.149 28.5729 118.112 28.8172 118.084C29.0615 118.053 29.239 118.003 29.3498 117.935C29.4606 117.866 29.516 117.756 29.516 117.602V117.572C29.516 117.2 29.4109 116.912 29.2007 116.707C28.9933 116.503 28.6837 116.401 28.2717 116.401C27.8427 116.401 27.5047 116.496 27.2575 116.686C27.0132 116.874 26.8442 117.082 26.7504 117.312L25.553 117.04C25.695 116.642 25.9024 116.321 26.1751 116.077C26.4507 115.83 26.7675 115.651 27.1254 115.54C27.4834 115.426 27.8598 115.369 28.2547 115.369C28.516 115.369 28.793 115.401 29.0856 115.463C29.3811 115.523 29.6567 115.634 29.9123 115.795C30.1709 115.957 30.3825 116.189 30.5473 116.49C30.7121 116.788 30.7944 117.176 30.7944 117.653V122H29.5501V121.105H29.499C29.4166 121.27 29.293 121.432 29.1283 121.591C28.9635 121.75 28.7518 121.882 28.4933 121.987C28.2348 122.092 27.9251 122.145 27.5643 122.145ZM27.8413 121.122C28.1936 121.122 28.4947 121.053 28.7447 120.913C28.9976 120.774 29.1893 120.592 29.32 120.368C29.4535 120.141 29.5203 119.898 29.5203 119.639V118.795C29.4748 118.841 29.3868 118.884 29.2561 118.923C29.1283 118.96 28.9819 118.993 28.8172 119.021C28.6524 119.047 28.4919 119.071 28.3356 119.094C28.1794 119.114 28.0487 119.131 27.9436 119.145C27.6964 119.176 27.4706 119.229 27.266 119.303C27.0643 119.376 26.9024 119.483 26.7802 119.622C26.6609 119.759 26.6013 119.94 26.6013 120.168C26.6013 120.483 26.7177 120.722 26.9507 120.884C27.1837 121.043 27.4805 121.122 27.8413 121.122ZM33.6457 118.114V122H32.3715V115.455H33.5945V116.52H33.6755C33.8261 116.173 34.0619 115.895 34.3829 115.685C34.7068 115.474 35.1144 115.369 35.6059 115.369C36.0519 115.369 36.4426 115.463 36.7778 115.651C37.113 115.835 37.373 116.111 37.5576 116.477C37.7423 116.844 37.8346 117.297 37.8346 117.837V122H36.5605V117.99C36.5605 117.516 36.4369 117.145 36.1897 116.878C35.9426 116.608 35.6031 116.473 35.1712 116.473C34.8758 116.473 34.613 116.537 34.3829 116.665C34.1556 116.793 33.9752 116.98 33.8417 117.227C33.711 117.472 33.6457 117.767 33.6457 118.114ZM40.6976 118.114V122H39.4234V115.455H40.6464V116.52H40.7274C40.878 116.173 41.1138 115.895 41.4348 115.685C41.7586 115.474 42.1663 115.369 42.6578 115.369C43.1038 115.369 43.4944 115.463 43.8297 115.651C44.1649 115.835 44.4248 116.111 44.6095 116.477C44.7941 116.844 44.8865 117.297 44.8865 117.837V122H43.6123V117.99C43.6123 117.516 43.4888 117.145 43.2416 116.878C42.9944 116.608 42.6549 116.473 42.2231 116.473C41.9277 116.473 41.6649 116.537 41.4348 116.665C41.2075 116.793 41.0271 116.98 40.8936 117.227C40.7629 117.472 40.6976 117.767 40.6976 118.114ZM49.2963 122.132C48.6514 122.132 48.096 121.994 47.6301 121.719C47.167 121.44 46.8091 121.05 46.5563 120.547C46.3063 120.041 46.1813 119.449 46.1813 118.77C46.1813 118.099 46.3063 117.509 46.5563 116.997C46.8091 116.486 47.1614 116.087 47.6131 115.8C48.0676 115.513 48.5989 115.369 49.2068 115.369C49.5761 115.369 49.9341 115.43 50.2807 115.553C50.6273 115.675 50.9384 115.866 51.2139 116.128C51.4895 116.389 51.7068 116.729 51.8659 117.146C52.025 117.561 52.1045 118.065 52.1045 118.659V119.111H46.9014V118.156H50.856C50.856 117.821 50.7878 117.524 50.6514 117.266C50.5151 117.004 50.3233 116.798 50.0761 116.648C49.8318 116.497 49.5449 116.422 49.2153 116.422C48.8574 116.422 48.5449 116.51 48.2778 116.686C48.0136 116.859 47.8091 117.087 47.6642 117.368C47.5222 117.646 47.4511 117.949 47.4511 118.276V119.021C47.4511 119.459 47.5278 119.831 47.6813 120.138C47.8375 120.445 48.0548 120.679 48.3332 120.841C48.6116 121 48.9369 121.08 49.3091 121.08C49.5506 121.08 49.7707 121.045 49.9696 120.977C50.1685 120.906 50.3403 120.801 50.4852 120.662C50.6301 120.523 50.7409 120.351 50.8176 120.146L52.0236 120.364C51.927 120.719 51.7537 121.03 51.5037 121.297C51.2565 121.561 50.9455 121.767 50.5705 121.915C50.1983 122.06 49.7736 122.132 49.2963 122.132ZM54.6724 113.273V122H53.3983V113.273H54.6724ZM67.0056 117.636C67.0056 118.568 66.8351 119.369 66.4942 120.04C66.1533 120.707 65.686 121.222 65.0922 121.582C64.5013 121.94 63.8294 122.119 63.0766 122.119C62.3209 122.119 61.6462 121.94 61.0524 121.582C60.4615 121.222 59.9956 120.706 59.6547 120.036C59.3138 119.365 59.1433 118.565 59.1433 117.636C59.1433 116.705 59.3138 115.905 59.6547 115.237C59.9956 114.567 60.4615 114.053 61.0524 113.695C61.6462 113.334 62.3209 113.153 63.0766 113.153C63.8294 113.153 64.5013 113.334 65.0922 113.695C65.686 114.053 66.1533 114.567 66.4942 115.237C66.8351 115.905 67.0056 116.705 67.0056 117.636ZM65.7016 117.636C65.7016 116.926 65.5865 116.328 65.3564 115.842C65.1291 115.354 64.8166 114.984 64.4189 114.734C64.024 114.482 63.5766 114.355 63.0766 114.355C62.5737 114.355 62.1249 114.482 61.73 114.734C61.3351 114.984 61.0226 115.354 60.7925 115.842C60.5652 116.328 60.4516 116.926 60.4516 117.636C60.4516 118.347 60.5652 118.946 60.7925 119.435C61.0226 119.92 61.3351 120.29 61.73 120.543C62.1249 120.793 62.5737 120.918 63.0766 120.918C63.5766 120.918 64.024 120.793 64.4189 120.543C64.8166 120.29 65.1291 119.92 65.3564 119.435C65.5865 118.946 65.7016 118.347 65.7016 117.636ZM69.6991 118.114V122H68.425V115.455H69.648V116.52H69.7289C69.8795 116.173 70.1153 115.895 70.4363 115.685C70.7602 115.474 71.1679 115.369 71.6593 115.369C72.1054 115.369 72.496 115.463 72.8312 115.651C73.1664 115.835 73.4264 116.111 73.611 116.477C73.7957 116.844 73.888 117.297 73.888 117.837V122H72.6139V117.99C72.6139 117.516 72.4903 117.145 72.2432 116.878C71.996 116.608 71.6565 116.473 71.2247 116.473C70.9292 116.473 70.6664 116.537 70.4363 116.665C70.2091 116.793 70.0287 116.98 69.8951 117.227C69.7645 117.472 69.6991 117.767 69.6991 118.114ZM78.2979 122.132C77.653 122.132 77.0976 121.994 76.6317 121.719C76.1686 121.44 75.8107 121.05 75.5578 120.547C75.3078 120.041 75.1828 119.449 75.1828 118.77C75.1828 118.099 75.3078 117.509 75.5578 116.997C75.8107 116.486 76.1629 116.087 76.6146 115.8C77.0692 115.513 77.6004 115.369 78.2084 115.369C78.5777 115.369 78.9357 115.43 79.2822 115.553C79.6288 115.675 79.9399 115.866 80.2155 116.128C80.4911 116.389 80.7084 116.729 80.8675 117.146C81.0266 117.561 81.1061 118.065 81.1061 118.659V119.111H75.903V118.156H79.8575C79.8575 117.821 79.7893 117.524 79.653 117.266C79.5166 117.004 79.3249 116.798 79.0777 116.648C78.8334 116.497 78.5465 116.422 78.2169 116.422C77.859 116.422 77.5465 116.51 77.2794 116.686C77.0152 116.859 76.8107 117.087 76.6658 117.368C76.5237 117.646 76.4527 117.949 76.4527 118.276V119.021C76.4527 119.459 76.5294 119.831 76.6828 120.138C76.8391 120.445 77.0564 120.679 77.3348 120.841C77.6132 121 77.9385 121.08 78.3107 121.08C78.5521 121.08 78.7723 121.045 78.9712 120.977C79.17 120.906 79.3419 120.801 79.4868 120.662C79.6317 120.523 79.7425 120.351 79.8192 120.146L81.0251 120.364C80.9286 120.719 80.7553 121.03 80.5053 121.297C80.2581 121.561 79.947 121.767 79.572 121.915C79.1999 122.06 78.7751 122.132 78.2979 122.132Z" fill="white"/>
<path d="M17.2074 245.111H15.8778C15.8267 244.827 15.7315 244.577 15.5923 244.361C15.4531 244.145 15.2827 243.962 15.081 243.811C14.8793 243.661 14.6534 243.547 14.4034 243.47C14.1563 243.393 13.8935 243.355 13.6151 243.355C13.1122 243.355 12.6619 243.482 12.2642 243.734C11.8693 243.987 11.5568 244.358 11.3267 244.847C11.0994 245.335 10.9858 245.932 10.9858 246.636C10.9858 247.347 11.0994 247.946 11.3267 248.435C11.5568 248.923 11.8707 249.293 12.2685 249.543C12.6662 249.793 13.1136 249.918 13.6108 249.918C13.8864 249.918 14.1477 249.881 14.3949 249.807C14.6449 249.73 14.8707 249.618 15.0724 249.47C15.2741 249.322 15.4446 249.142 15.5838 248.929C15.7259 248.713 15.8239 248.466 15.8778 248.188L17.2074 248.192C17.1364 248.621 16.9986 249.016 16.794 249.376C16.5923 249.734 16.3324 250.044 16.0142 250.305C15.6989 250.564 15.3381 250.764 14.9318 250.906C14.5256 251.048 14.0824 251.119 13.6023 251.119C12.8466 251.119 12.1733 250.94 11.5824 250.582C10.9915 250.222 10.5256 249.706 10.1847 249.036C9.84659 248.365 9.67756 247.565 9.67756 246.636C9.67756 245.705 9.84801 244.905 10.1889 244.237C10.5298 243.567 10.9957 243.053 11.5866 242.695C12.1776 242.334 12.8494 242.153 13.6023 242.153C14.0653 242.153 14.4972 242.22 14.8977 242.354C15.3011 242.484 15.6634 242.678 15.9844 242.933C16.3054 243.186 16.571 243.496 16.7812 243.862C16.9915 244.226 17.1335 244.642 17.2074 245.111ZM19.8349 247.114V251H18.5608V242.273H19.8179V245.52H19.8988C20.0522 245.168 20.2866 244.888 20.6019 244.68C20.9173 244.473 21.3292 244.369 21.8377 244.369C22.2866 244.369 22.6787 244.462 23.0139 244.646C23.3519 244.831 23.6133 245.107 23.798 245.473C23.9855 245.837 24.0792 246.291 24.0792 246.837V251H22.8051V246.99C22.8051 246.51 22.6815 246.138 22.4343 245.874C22.1872 245.607 21.8434 245.473 21.4031 245.473C21.1019 245.473 20.8321 245.537 20.5934 245.665C20.3576 245.793 20.1715 245.98 20.0352 246.227C19.9017 246.472 19.8349 246.767 19.8349 247.114ZM27.5643 251.145C27.1496 251.145 26.7746 251.068 26.4393 250.915C26.1041 250.759 25.8385 250.533 25.6425 250.237C25.4493 249.942 25.3527 249.58 25.3527 249.151C25.3527 248.781 25.4237 248.477 25.5658 248.239C25.7078 248 25.8996 247.811 26.141 247.672C26.3825 247.533 26.6524 247.428 26.9507 247.357C27.249 247.286 27.553 247.232 27.8626 247.195C28.2547 247.149 28.5729 247.112 28.8172 247.084C29.0615 247.053 29.239 247.003 29.3498 246.935C29.4606 246.866 29.516 246.756 29.516 246.602V246.572C29.516 246.2 29.4109 245.912 29.2007 245.707C28.9933 245.503 28.6837 245.401 28.2717 245.401C27.8427 245.401 27.5047 245.496 27.2575 245.686C27.0132 245.874 26.8442 246.082 26.7504 246.312L25.553 246.04C25.695 245.642 25.9024 245.321 26.1751 245.077C26.4507 244.83 26.7675 244.651 27.1254 244.54C27.4834 244.426 27.8598 244.369 28.2547 244.369C28.516 244.369 28.793 244.401 29.0856 244.463C29.3811 244.523 29.6567 244.634 29.9123 244.795C30.1709 244.957 30.3825 245.189 30.5473 245.49C30.7121 245.788 30.7944 246.176 30.7944 246.653V251H29.5501V250.105H29.499C29.4166 250.27 29.293 250.432 29.1283 250.591C28.9635 250.75 28.7518 250.882 28.4933 250.987C28.2348 251.092 27.9251 251.145 27.5643 251.145ZM27.8413 250.122C28.1936 250.122 28.4947 250.053 28.7447 249.913C28.9976 249.774 29.1893 249.592 29.32 249.368C29.4535 249.141 29.5203 248.898 29.5203 248.639V247.795C29.4748 247.841 29.3868 247.884 29.2561 247.923C29.1283 247.96 28.9819 247.993 28.8172 248.021C28.6524 248.047 28.4919 248.071 28.3356 248.094C28.1794 248.114 28.0487 248.131 27.9436 248.145C27.6964 248.176 27.4706 248.229 27.266 248.303C27.0643 248.376 26.9024 248.483 26.7802 248.622C26.6609 248.759 26.6013 248.94 26.6013 249.168C26.6013 249.483 26.7177 249.722 26.9507 249.884C27.1837 250.043 27.4805 250.122 27.8413 250.122ZM33.6457 247.114V251H32.3715V244.455H33.5945V245.52H33.6755C33.8261 245.173 34.0619 244.895 34.3829 244.685C34.7068 244.474 35.1144 244.369 35.6059 244.369C36.0519 244.369 36.4426 244.463 36.7778 244.651C37.113 244.835 37.373 245.111 37.5576 245.477C37.7423 245.844 37.8346 246.297 37.8346 246.837V251H36.5605V246.99C36.5605 246.516 36.4369 246.145 36.1897 245.878C35.9426 245.608 35.6031 245.473 35.1712 245.473C34.8758 245.473 34.613 245.537 34.3829 245.665C34.1556 245.793 33.9752 245.98 33.8417 246.227C33.711 246.472 33.6457 246.767 33.6457 247.114ZM40.6976 247.114V251H39.4234V244.455H40.6464V245.52H40.7274C40.878 245.173 41.1138 244.895 41.4348 244.685C41.7586 244.474 42.1663 244.369 42.6578 244.369C43.1038 244.369 43.4944 244.463 43.8297 244.651C44.1649 244.835 44.4248 245.111 44.6095 245.477C44.7941 245.844 44.8865 246.297 44.8865 246.837V251H43.6123V246.99C43.6123 246.516 43.4888 246.145 43.2416 245.878C42.9944 245.608 42.6549 245.473 42.2231 245.473C41.9277 245.473 41.6649 245.537 41.4348 245.665C41.2075 245.793 41.0271 245.98 40.8936 246.227C40.7629 246.472 40.6976 246.767 40.6976 247.114ZM49.2963 251.132C48.6514 251.132 48.096 250.994 47.6301 250.719C47.167 250.44 46.8091 250.05 46.5563 249.547C46.3063 249.041 46.1813 248.449 46.1813 247.77C46.1813 247.099 46.3063 246.509 46.5563 245.997C46.8091 245.486 47.1614 245.087 47.6131 244.8C48.0676 244.513 48.5989 244.369 49.2068 244.369C49.5761 244.369 49.9341 244.43 50.2807 244.553C50.6273 244.675 50.9384 244.866 51.2139 245.128C51.4895 245.389 51.7068 245.729 51.8659 246.146C52.025 246.561 52.1045 247.065 52.1045 247.659V248.111H46.9014V247.156H50.856C50.856 246.821 50.7878 246.524 50.6514 246.266C50.5151 246.004 50.3233 245.798 50.0761 245.648C49.8318 245.497 49.5449 245.422 49.2153 245.422C48.8574 245.422 48.5449 245.51 48.2778 245.686C48.0136 245.859 47.8091 246.087 47.6642 246.368C47.5222 246.646 47.4511 246.949 47.4511 247.276V248.021C47.4511 248.459 47.5278 248.831 47.6813 249.138C47.8375 249.445 48.0548 249.679 48.3332 249.841C48.6116 250 48.9369 250.08 49.3091 250.08C49.5506 250.08 49.7707 250.045 49.9696 249.977C50.1685 249.906 50.3403 249.801 50.4852 249.662C50.6301 249.523 50.7409 249.351 50.8176 249.146L52.0236 249.364C51.927 249.719 51.7537 250.03 51.5037 250.297C51.2565 250.561 50.9455 250.767 50.5705 250.915C50.1983 251.06 49.7736 251.132 49.2963 251.132ZM54.6724 242.273V251H53.3983V242.273H54.6724ZM58.9942 243.406V242.273H65.7485V243.406H63.0254V251H61.7129V243.406H58.9942ZM67.6878 251L65.7616 244.455H67.0784L68.361 249.261H68.425L69.7119 244.455H71.0287L72.3071 249.24H72.371L73.6451 244.455H74.9619L73.04 251H71.7403L70.4108 246.274H70.3128L68.9832 251H67.6878ZM78.609 251.132C77.9953 251.132 77.4598 250.991 77.0024 250.71C76.545 250.429 76.1899 250.036 75.9371 249.53C75.6842 249.024 75.5578 248.433 75.5578 247.757C75.5578 247.078 75.6842 246.484 75.9371 245.976C76.1899 245.467 76.545 245.072 77.0024 244.791C77.4598 244.51 77.9953 244.369 78.609 244.369C79.2226 244.369 79.7581 244.51 80.2155 244.791C80.6729 245.072 81.028 245.467 81.2808 245.976C81.5337 246.484 81.6601 247.078 81.6601 247.757C81.6601 248.433 81.5337 249.024 81.2808 249.53C81.028 250.036 80.6729 250.429 80.2155 250.71C79.7581 250.991 79.2226 251.132 78.609 251.132ZM78.6132 250.062C79.0109 250.062 79.3405 249.957 79.6018 249.747C79.8632 249.537 80.0564 249.257 80.1814 248.908C80.3092 248.558 80.3732 248.173 80.3732 247.753C80.3732 247.335 80.3092 246.952 80.1814 246.602C80.0564 246.25 79.8632 245.967 79.6018 245.754C79.3405 245.541 79.0109 245.435 78.6132 245.435C78.2126 245.435 77.8803 245.541 77.6161 245.754C77.3547 245.967 77.1601 246.25 77.0322 246.602C76.9072 246.952 76.8447 247.335 76.8447 247.753C76.8447 248.173 76.9072 248.558 77.0322 248.908C77.1601 249.257 77.3547 249.537 77.6161 249.747C77.8803 249.957 78.2126 250.062 78.6132 250.062Z" fill="white"/>
<mask id="path-33-inside-1_1555_1694" fill="white">
<path d="M163 0H378V288H163V0Z"/>
</mask>
<path d="M163 0H378V288H163V0Z" fill="#50C878" fill-opacity="0.1"/>
<path d="M377 0V288H379V0H377ZM164 288V0H162V288H164Z" fill="#50C878" mask="url(#path-33-inside-1_1555_1694)"/>
<path d="M135.719 301.565C135.673 301.162 135.486 300.849 135.156 300.628C134.827 300.403 134.412 300.291 133.912 300.291C133.554 300.291 133.244 300.348 132.983 300.462C132.722 300.572 132.518 300.726 132.374 300.922C132.232 301.115 132.161 301.335 132.161 301.582C132.161 301.79 132.209 301.969 132.305 302.119C132.405 302.27 132.534 302.396 132.693 302.499C132.855 302.598 133.028 302.682 133.213 302.75C133.398 302.815 133.575 302.869 133.746 302.912L134.598 303.134C134.876 303.202 135.162 303.294 135.455 303.411C135.747 303.527 136.018 303.68 136.268 303.871C136.518 304.061 136.72 304.297 136.874 304.578C137.03 304.859 137.108 305.196 137.108 305.588C137.108 306.082 136.98 306.521 136.724 306.905C136.472 307.288 136.104 307.591 135.621 307.812C135.141 308.034 134.56 308.145 133.878 308.145C133.224 308.145 132.659 308.041 132.182 307.834C131.705 307.626 131.331 307.332 131.061 306.952C130.791 306.568 130.642 306.114 130.614 305.588H131.935C131.96 305.903 132.063 306.166 132.241 306.376C132.423 306.584 132.655 306.739 132.936 306.841C133.22 306.94 133.531 306.99 133.869 306.99C134.241 306.99 134.572 306.932 134.862 306.815C135.155 306.696 135.385 306.531 135.553 306.321C135.72 306.108 135.804 305.859 135.804 305.575C135.804 305.317 135.73 305.105 135.582 304.94C135.438 304.776 135.24 304.639 134.99 304.531C134.743 304.423 134.463 304.328 134.151 304.246L133.119 303.964C132.42 303.774 131.866 303.494 131.457 303.125C131.051 302.756 130.848 302.267 130.848 301.659C130.848 301.156 130.984 300.717 131.257 300.342C131.53 299.967 131.899 299.676 132.365 299.469C132.831 299.259 133.357 299.153 133.942 299.153C134.533 299.153 135.054 299.257 135.506 299.464C135.96 299.672 136.318 299.957 136.58 300.321C136.841 300.682 136.977 301.097 136.989 301.565H135.719ZM141.515 301.455V302.477H137.939V301.455H141.515ZM138.898 299.886H140.172V306.078C140.172 306.325 140.209 306.511 140.283 306.636C140.357 306.759 140.452 306.842 140.569 306.888C140.688 306.93 140.817 306.952 140.956 306.952C141.059 306.952 141.148 306.945 141.225 306.93C141.302 306.916 141.361 306.905 141.404 306.896L141.634 307.949C141.56 307.977 141.455 308.006 141.319 308.034C141.182 308.065 141.012 308.082 140.807 308.085C140.472 308.091 140.159 308.031 139.87 307.906C139.58 307.781 139.346 307.588 139.167 307.327C138.988 307.065 138.898 306.737 138.898 306.342V299.886ZM144.709 308.145C144.294 308.145 143.919 308.068 143.584 307.915C143.249 307.759 142.983 307.533 142.787 307.237C142.594 306.942 142.497 306.58 142.497 306.151C142.497 305.781 142.568 305.477 142.71 305.239C142.852 305 143.044 304.811 143.286 304.672C143.527 304.533 143.797 304.428 144.095 304.357C144.394 304.286 144.698 304.232 145.007 304.195C145.399 304.149 145.717 304.112 145.962 304.084C146.206 304.053 146.384 304.003 146.494 303.935C146.605 303.866 146.661 303.756 146.661 303.602V303.572C146.661 303.2 146.555 302.912 146.345 302.707C146.138 302.503 145.828 302.401 145.416 302.401C144.987 302.401 144.649 302.496 144.402 302.686C144.158 302.874 143.989 303.082 143.895 303.312L142.698 303.04C142.84 302.642 143.047 302.321 143.32 302.077C143.595 301.83 143.912 301.651 144.27 301.54C144.628 301.426 145.004 301.369 145.399 301.369C145.661 301.369 145.938 301.401 146.23 301.463C146.526 301.523 146.801 301.634 147.057 301.795C147.315 301.957 147.527 302.189 147.692 302.49C147.857 302.788 147.939 303.176 147.939 303.653V308H146.695V307.105H146.644C146.561 307.27 146.438 307.432 146.273 307.591C146.108 307.75 145.896 307.882 145.638 307.987C145.379 308.092 145.07 308.145 144.709 308.145ZM144.986 307.122C145.338 307.122 145.639 307.053 145.889 306.913C146.142 306.774 146.334 306.592 146.465 306.368C146.598 306.141 146.665 305.898 146.665 305.639V304.795C146.619 304.841 146.531 304.884 146.401 304.923C146.273 304.96 146.126 304.993 145.962 305.021C145.797 305.047 145.636 305.071 145.48 305.094C145.324 305.114 145.193 305.131 145.088 305.145C144.841 305.176 144.615 305.229 144.411 305.303C144.209 305.376 144.047 305.483 143.925 305.622C143.805 305.759 143.746 305.94 143.746 306.168C143.746 306.483 143.862 306.722 144.095 306.884C144.328 307.043 144.625 307.122 144.986 307.122ZM149.516 308V301.455H150.748V302.494H150.816C150.935 302.142 151.145 301.865 151.446 301.663C151.75 301.459 152.094 301.357 152.478 301.357C152.557 301.357 152.651 301.359 152.759 301.365C152.87 301.371 152.956 301.378 153.019 301.386V302.605C152.968 302.591 152.877 302.575 152.746 302.558C152.615 302.538 152.485 302.528 152.354 302.528C152.053 302.528 151.785 302.592 151.549 302.72C151.316 302.845 151.131 303.02 150.995 303.244C150.858 303.466 150.79 303.719 150.79 304.003V308H149.516ZM157.444 301.455V302.477H153.868V301.455H157.444ZM154.827 299.886H156.101V306.078C156.101 306.325 156.138 306.511 156.212 306.636C156.286 306.759 156.381 306.842 156.498 306.888C156.617 306.93 156.746 306.952 156.885 306.952C156.988 306.952 157.077 306.945 157.154 306.93C157.231 306.916 157.29 306.905 157.333 306.896L157.563 307.949C157.489 307.977 157.384 308.006 157.248 308.034C157.111 308.065 156.941 308.082 156.736 308.085C156.401 308.091 156.089 308.031 155.799 307.906C155.509 307.781 155.275 307.588 155.096 307.327C154.917 307.065 154.827 306.737 154.827 306.342V299.886ZM161.461 300.406V299.273H168.215V300.406H165.492V308H164.18V300.406H161.461ZM169.485 308V301.455H170.759V308H169.485ZM170.129 300.445C169.907 300.445 169.717 300.371 169.558 300.223C169.401 300.072 169.323 299.893 169.323 299.686C169.323 299.476 169.401 299.297 169.558 299.149C169.717 298.999 169.907 298.923 170.129 298.923C170.35 298.923 170.539 298.999 170.696 299.149C170.855 299.297 170.934 299.476 170.934 299.686C170.934 299.893 170.855 300.072 170.696 300.223C170.539 300.371 170.35 300.445 170.129 300.445ZM172.354 308V301.455H173.577V302.52H173.658C173.794 302.159 174.017 301.878 174.327 301.676C174.636 301.472 175.007 301.369 175.439 301.369C175.876 301.369 176.243 301.472 176.538 301.676C176.837 301.881 177.057 302.162 177.199 302.52H177.267C177.423 302.17 177.672 301.892 178.013 301.685C178.354 301.474 178.76 301.369 179.231 301.369C179.825 301.369 180.31 301.555 180.685 301.928C181.062 302.3 181.251 302.861 181.251 303.611V308H179.977V303.73C179.977 303.287 179.856 302.966 179.615 302.767C179.373 302.568 179.085 302.469 178.75 302.469C178.335 302.469 178.013 302.597 177.783 302.852C177.552 303.105 177.437 303.43 177.437 303.828V308H176.167V303.649C176.167 303.294 176.057 303.009 175.835 302.793C175.614 302.577 175.325 302.469 174.97 302.469C174.729 302.469 174.506 302.533 174.301 302.661C174.099 302.786 173.936 302.96 173.811 303.185C173.689 303.409 173.628 303.669 173.628 303.964V308H172.354ZM185.66 308.132C185.015 308.132 184.46 307.994 183.994 307.719C183.531 307.44 183.173 307.05 182.92 306.547C182.67 306.041 182.545 305.449 182.545 304.77C182.545 304.099 182.67 303.509 182.92 302.997C183.173 302.486 183.525 302.087 183.977 301.8C184.431 301.513 184.963 301.369 185.571 301.369C185.94 301.369 186.298 301.43 186.644 301.553C186.991 301.675 187.302 301.866 187.578 302.128C187.853 302.389 188.071 302.729 188.23 303.146C188.389 303.561 188.468 304.065 188.468 304.659V305.111H183.265V304.156H187.22C187.22 303.821 187.152 303.524 187.015 303.266C186.879 303.004 186.687 302.798 186.44 302.648C186.196 302.497 185.909 302.422 185.579 302.422C185.221 302.422 184.909 302.51 184.642 302.686C184.377 302.859 184.173 303.087 184.028 303.368C183.886 303.646 183.815 303.949 183.815 304.276V305.021C183.815 305.459 183.892 305.831 184.045 306.138C184.201 306.445 184.419 306.679 184.697 306.841C184.975 307 185.301 307.08 185.673 307.08C185.914 307.08 186.134 307.045 186.333 306.977C186.532 306.906 186.704 306.801 186.849 306.662C186.994 306.523 187.105 306.351 187.181 306.146L188.387 306.364C188.291 306.719 188.117 307.03 187.867 307.297C187.62 307.561 187.309 307.767 186.934 307.915C186.562 308.06 186.137 308.132 185.66 308.132Z" fill="white"/>
<path d="M351.959 308V299.273H357.43V300.406H353.276V303.065H357.145V304.195H353.276V306.866H357.482V308H351.959ZM360.241 304.114V308H358.967V301.455H360.19V302.52H360.271C360.422 302.173 360.657 301.895 360.978 301.685C361.302 301.474 361.71 301.369 362.201 301.369C362.647 301.369 363.038 301.463 363.373 301.651C363.708 301.835 363.968 302.111 364.153 302.477C364.338 302.844 364.43 303.297 364.43 303.837V308H363.156V303.99C363.156 303.516 363.032 303.145 362.785 302.878C362.538 302.608 362.199 302.473 361.767 302.473C361.471 302.473 361.208 302.537 360.978 302.665C360.751 302.793 360.571 302.98 360.437 303.227C360.306 303.472 360.241 303.767 360.241 304.114ZM368.469 308.128C367.941 308.128 367.469 307.993 367.054 307.723C366.642 307.45 366.319 307.062 366.083 306.56C365.85 306.054 365.733 305.447 365.733 304.74C365.733 304.033 365.851 303.428 366.087 302.925C366.326 302.422 366.652 302.037 367.067 301.77C367.482 301.503 367.952 301.369 368.478 301.369C368.884 301.369 369.211 301.438 369.458 301.574C369.708 301.707 369.901 301.864 370.037 302.043C370.177 302.222 370.285 302.379 370.361 302.516H370.438V299.273H371.712V308H370.468V306.982H370.361C370.285 307.121 370.174 307.28 370.029 307.459C369.887 307.638 369.691 307.794 369.441 307.928C369.191 308.061 368.867 308.128 368.469 308.128ZM368.75 307.041C369.117 307.041 369.427 306.945 369.679 306.751C369.935 306.555 370.128 306.284 370.259 305.938C370.392 305.591 370.459 305.187 370.459 304.727C370.459 304.273 370.394 303.875 370.263 303.534C370.133 303.193 369.941 302.928 369.688 302.737C369.435 302.547 369.123 302.452 368.75 302.452C368.367 302.452 368.047 302.551 367.792 302.75C367.536 302.949 367.343 303.22 367.212 303.564C367.084 303.908 367.02 304.295 367.02 304.727C367.02 305.165 367.086 305.558 367.216 305.908C367.347 306.257 367.54 306.534 367.796 306.739C368.054 306.94 368.373 307.041 368.75 307.041ZM376.138 300.406V299.273H382.893V300.406H380.17V308H378.857V300.406H376.138ZM384.163 308V301.455H385.437V308H384.163ZM384.806 300.445C384.585 300.445 384.394 300.371 384.235 300.223C384.079 300.072 384.001 299.893 384.001 299.686C384.001 299.476 384.079 299.297 384.235 299.149C384.394 298.999 384.585 298.923 384.806 298.923C385.028 298.923 385.217 298.999 385.373 299.149C385.532 299.297 385.612 299.476 385.612 299.686C385.612 299.893 385.532 300.072 385.373 300.223C385.217 300.371 385.028 300.445 384.806 300.445ZM387.031 308V301.455H388.254V302.52H388.335C388.471 302.159 388.694 301.878 389.004 301.676C389.314 301.472 389.684 301.369 390.116 301.369C390.554 301.369 390.92 301.472 391.216 301.676C391.514 301.881 391.734 302.162 391.876 302.52H391.944C392.101 302.17 392.349 301.892 392.69 301.685C393.031 301.474 393.437 301.369 393.909 301.369C394.503 301.369 394.987 301.555 395.362 301.928C395.74 302.3 395.929 302.861 395.929 303.611V308H394.655V303.73C394.655 303.287 394.534 302.966 394.292 302.767C394.051 302.568 393.763 302.469 393.427 302.469C393.013 302.469 392.69 302.597 392.46 302.852C392.23 303.105 392.115 303.43 392.115 303.828V308H390.845V303.649C390.845 303.294 390.734 303.009 390.513 302.793C390.291 302.577 390.003 302.469 389.648 302.469C389.406 302.469 389.183 302.533 388.979 302.661C388.777 302.786 388.613 302.96 388.488 303.185C388.366 303.409 388.305 303.669 388.305 303.964V308H387.031ZM400.338 308.132C399.693 308.132 399.137 307.994 398.671 307.719C398.208 307.44 397.85 307.05 397.597 306.547C397.347 306.041 397.222 305.449 397.222 304.77C397.222 304.099 397.347 303.509 397.597 302.997C397.85 302.486 398.203 302.087 398.654 301.8C399.109 301.513 399.64 301.369 400.248 301.369C400.617 301.369 400.975 301.43 401.322 301.553C401.669 301.675 401.98 301.866 402.255 302.128C402.531 302.389 402.748 302.729 402.907 303.146C403.066 303.561 403.146 304.065 403.146 304.659V305.111H397.943V304.156H401.897C401.897 303.821 401.829 303.524 401.693 303.266C401.556 303.004 401.365 302.798 401.117 302.648C400.873 302.497 400.586 302.422 400.257 302.422C399.899 302.422 399.586 302.51 399.319 302.686C399.055 302.859 398.85 303.087 398.705 303.368C398.563 303.646 398.492 303.949 398.492 304.276V305.021C398.492 305.459 398.569 305.831 398.722 306.138C398.879 306.445 399.096 306.679 399.374 306.841C399.653 307 399.978 307.08 400.35 307.08C400.592 307.08 400.812 307.045 401.011 306.977C401.21 306.906 401.382 306.801 401.526 306.662C401.671 306.523 401.782 306.351 401.859 306.146L403.065 306.364C402.968 306.719 402.795 307.03 402.545 307.297C402.298 307.561 401.987 307.767 401.612 307.915C401.24 308.06 400.815 308.132 400.338 308.132Z" fill="white"/>
<path d="M243.12 263H241.373L245.299 252.091H247.2L251.126 263H249.379L246.295 254.072H246.21L243.12 263ZM243.413 258.728H249.081V260.113H243.413V258.728ZM256.371 263V252.091H260.26C261.105 252.091 261.806 252.237 262.364 252.528C262.925 252.819 263.344 253.222 263.621 253.737C263.898 254.248 264.036 254.839 264.036 255.511C264.036 256.178 263.896 256.766 263.615 257.274C263.338 257.778 262.919 258.17 262.358 258.451C261.801 258.732 261.1 258.872 260.254 258.872H257.309V257.455H260.105C260.638 257.455 261.071 257.379 261.405 257.226C261.742 257.073 261.989 256.851 262.145 256.56C262.302 256.269 262.38 255.919 262.38 255.511C262.38 255.099 262.3 254.742 262.14 254.44C261.984 254.138 261.737 253.907 261.4 253.748C261.066 253.584 260.627 253.502 260.084 253.502H258.017V263H256.371ZM261.756 258.078L264.452 263H262.577L259.935 258.078H261.756ZM268.142 263.181C267.624 263.181 267.155 263.085 266.736 262.893C266.317 262.698 265.985 262.416 265.74 262.047C265.499 261.677 265.378 261.224 265.378 260.688C265.378 260.227 265.467 259.847 265.644 259.548C265.822 259.25 266.061 259.014 266.363 258.84C266.665 258.666 267.002 258.534 267.375 258.446C267.748 258.357 268.128 258.289 268.515 258.243C269.005 258.186 269.403 258.14 269.708 258.105C270.014 258.066 270.236 258.004 270.374 257.918C270.513 257.833 270.582 257.695 270.582 257.503V257.466C270.582 257 270.451 256.64 270.188 256.384C269.929 256.129 269.541 256.001 269.027 256.001C268.49 256.001 268.068 256.12 267.759 256.358C267.453 256.592 267.242 256.853 267.125 257.141L265.628 256.8C265.806 256.303 266.065 255.901 266.406 255.596C266.75 255.287 267.146 255.063 267.594 254.925C268.041 254.783 268.512 254.712 269.005 254.712C269.332 254.712 269.678 254.751 270.044 254.829C270.413 254.903 270.758 255.042 271.077 255.244C271.4 255.447 271.665 255.736 271.871 256.113C272.077 256.485 272.18 256.97 272.18 257.567V263H270.625V261.881H270.561C270.458 262.087 270.303 262.29 270.097 262.489C269.891 262.687 269.627 262.853 269.304 262.984C268.98 263.115 268.593 263.181 268.142 263.181ZM268.489 261.903C268.929 261.903 269.305 261.816 269.618 261.642C269.934 261.468 270.174 261.24 270.337 260.96C270.504 260.676 270.587 260.372 270.587 260.049V258.994C270.53 259.051 270.42 259.104 270.257 259.154C270.097 259.2 269.914 259.241 269.708 259.277C269.502 259.309 269.302 259.339 269.106 259.367C268.911 259.392 268.748 259.413 268.616 259.431C268.307 259.47 268.025 259.536 267.769 259.628C267.517 259.721 267.315 259.854 267.162 260.028C267.013 260.198 266.938 260.425 266.938 260.71C266.938 261.104 267.084 261.402 267.375 261.604C267.666 261.803 268.038 261.903 268.489 261.903ZM275.744 258.142V263H274.151V254.818H275.68V256.15H275.781C275.97 255.717 276.264 255.369 276.666 255.106C277.07 254.843 277.58 254.712 278.194 254.712C278.752 254.712 279.24 254.829 279.659 255.063C280.078 255.294 280.403 255.638 280.634 256.097C280.865 256.555 280.98 257.121 280.98 257.796V263H279.387V257.988C279.387 257.395 279.233 256.931 278.924 256.597C278.615 256.26 278.191 256.091 277.651 256.091C277.282 256.091 276.953 256.171 276.666 256.331C276.381 256.491 276.156 256.725 275.989 257.034C275.826 257.339 275.744 257.709 275.744 258.142ZM286.397 266.239C285.747 266.239 285.187 266.153 284.719 265.983C284.253 265.813 283.873 265.587 283.579 265.306C283.284 265.026 283.064 264.719 282.918 264.385L284.287 263.82C284.383 263.977 284.511 264.142 284.671 264.316C284.834 264.493 285.054 264.644 285.331 264.768C285.612 264.893 285.972 264.955 286.413 264.955C287.016 264.955 287.515 264.808 287.909 264.513C288.304 264.222 288.501 263.756 288.501 263.117V261.509H288.399C288.304 261.683 288.165 261.876 287.984 262.089C287.806 262.302 287.561 262.487 287.249 262.643C286.936 262.799 286.53 262.877 286.029 262.877C285.383 262.877 284.8 262.727 284.282 262.425C283.767 262.119 283.359 261.67 283.057 261.077C282.758 260.48 282.609 259.747 282.609 258.877C282.609 258.007 282.757 257.261 283.051 256.64C283.35 256.018 283.758 255.543 284.277 255.212C284.795 254.879 285.383 254.712 286.04 254.712C286.547 254.712 286.958 254.797 287.27 254.967C287.583 255.134 287.826 255.33 288 255.553C288.177 255.777 288.314 255.974 288.41 256.145H288.527V254.818H290.088V263.181C290.088 263.884 289.925 264.461 289.598 264.912C289.271 265.363 288.829 265.697 288.272 265.914C287.718 266.13 287.093 266.239 286.397 266.239ZM286.381 261.556C286.839 261.556 287.226 261.45 287.542 261.237C287.861 261.02 288.103 260.711 288.266 260.31C288.433 259.905 288.517 259.42 288.517 258.856C288.517 258.305 288.435 257.821 288.272 257.402C288.108 256.983 287.869 256.656 287.552 256.422C287.236 256.184 286.846 256.065 286.381 256.065C285.901 256.065 285.502 256.189 285.182 256.438C284.862 256.683 284.621 257.016 284.458 257.439C284.298 257.862 284.218 258.334 284.218 258.856C284.218 259.392 284.3 259.863 284.463 260.267C284.626 260.672 284.868 260.988 285.187 261.216C285.511 261.443 285.908 261.556 286.381 261.556ZM295.6 263.165C294.794 263.165 294.1 262.993 293.518 262.648C292.939 262.3 292.491 261.812 292.175 261.184C291.863 260.551 291.706 259.811 291.706 258.962C291.706 258.124 291.863 257.386 292.175 256.746C292.491 256.107 292.932 255.608 293.496 255.25C294.064 254.891 294.728 254.712 295.488 254.712C295.95 254.712 296.397 254.788 296.831 254.941C297.264 255.093 297.653 255.333 297.997 255.66C298.342 255.987 298.613 256.411 298.812 256.933C299.011 257.451 299.111 258.082 299.111 258.824V259.388H292.607V258.195H297.55C297.55 257.776 297.465 257.405 297.294 257.082C297.124 256.755 296.884 256.498 296.575 256.31C296.27 256.121 295.911 256.027 295.499 256.027C295.052 256.027 294.661 256.137 294.327 256.358C293.997 256.574 293.741 256.858 293.56 257.21C293.383 257.558 293.294 257.936 293.294 258.344V259.277C293.294 259.824 293.39 260.289 293.581 260.672C293.777 261.056 294.048 261.349 294.396 261.551C294.744 261.75 295.151 261.849 295.616 261.849C295.918 261.849 296.193 261.807 296.442 261.722C296.69 261.633 296.905 261.501 297.086 261.327C297.268 261.153 297.406 260.939 297.502 260.683L299.009 260.955C298.889 261.398 298.672 261.787 298.359 262.121C298.051 262.451 297.662 262.709 297.193 262.893C296.728 263.075 296.197 263.165 295.6 263.165Z" fill="white"/>
</svg>
