<svg width="108" height="106" viewBox="0 0 108 106" fill="none" xmlns="http://www.w3.org/2000/svg">
<rect x="0.5" y="0.5" width="107" height="83" rx="5.5" stroke="#3774D0"/>
<rect x="24.5" y="24.5" width="59" height="35" rx="5.5" fill="#171717"/>
<rect x="24.5" y="24.5" width="59" height="35" rx="5.5" stroke="#313131"/>
<path d="M42.3168 48.679C41.4389 48.679 40.6548 48.5277 39.9645 48.2251C39.2784 47.9226 38.7351 47.5028 38.3345 46.9659C37.9382 46.4247 37.7251 45.7983 37.6953 45.0866H39.7024C39.728 45.4744 39.858 45.8111 40.0923 46.0966C40.331 46.3778 40.642 46.5952 41.0256 46.7486C41.4091 46.902 41.8352 46.9787 42.304 46.9787C42.8196 46.9787 43.2756 46.8892 43.6719 46.7102C44.0724 46.5312 44.3857 46.282 44.6115 45.9624C44.8374 45.6385 44.9503 45.2656 44.9503 44.8438C44.9503 44.4048 44.8374 44.0192 44.6115 43.6868C44.3899 43.3501 44.0639 43.0859 43.6335 42.8942C43.2074 42.7024 42.6918 42.6065 42.0866 42.6065H40.9808V40.9957H42.0866C42.5724 40.9957 42.9986 40.9084 43.3651 40.7337C43.7358 40.5589 44.0256 40.3161 44.2344 40.005C44.4432 39.6896 44.5476 39.321 44.5476 38.8991C44.5476 38.4943 44.456 38.1428 44.2727 37.8445C44.0938 37.5419 43.8381 37.3054 43.5057 37.1349C43.1776 36.9645 42.7898 36.8793 42.3423 36.8793C41.9162 36.8793 41.5178 36.9581 41.147 37.1158C40.7805 37.2692 40.4822 37.4908 40.2521 37.7805C40.022 38.0661 39.8984 38.4091 39.8814 38.8097H37.9702C37.9915 38.1023 38.2003 37.4801 38.5966 36.9432C38.9972 36.4062 39.5256 35.9865 40.1818 35.6839C40.8381 35.3814 41.5668 35.2301 42.3679 35.2301C43.2074 35.2301 43.9318 35.3942 44.5412 35.7223C45.1548 36.0462 45.6278 36.4787 45.9602 37.0199C46.2969 37.5611 46.4631 38.1534 46.4588 38.7969C46.4631 39.5298 46.2585 40.152 45.8452 40.6634C45.4361 41.1747 44.8906 41.5178 44.2088 41.6925V41.7947C45.0781 41.9268 45.7514 42.272 46.2287 42.8303C46.7102 43.3885 46.9489 44.081 46.9446 44.9077C46.9489 45.6278 46.7486 46.2734 46.3438 46.8445C45.9432 47.4155 45.3956 47.8651 44.701 48.1932C44.0064 48.517 43.2116 48.679 42.3168 48.679ZM50.0789 48.6214C49.7294 48.6214 49.429 48.4979 49.1776 48.2507C48.9262 47.9993 48.8005 47.6967 48.8005 47.343C48.8005 46.9936 48.9262 46.6953 49.1776 46.4482C49.429 46.1967 49.7294 46.071 50.0789 46.071C50.4283 46.071 50.7287 46.1967 50.9802 46.4482C51.2316 46.6953 51.3573 46.9936 51.3573 47.343C51.3573 47.5774 51.2976 47.7926 51.1783 47.9886C51.0633 48.1804 50.9098 48.3338 50.7181 48.4489C50.5263 48.5639 50.3133 48.6214 50.0789 48.6214ZM57.0963 35.4091V48.5H55.1148V37.3906H55.0381L51.906 39.4361V37.544L55.1723 35.4091H57.0963ZM60.1827 45.9432V44.3452L65.8396 35.4091H67.0988V37.7614H66.2998L62.2537 44.1662V44.2685H70.0072V45.9432H60.1827ZM66.3893 48.5V45.4574L66.4021 44.7287V35.4091H68.275V48.5H66.3893Z" fill="white"/>
<path d="M10.696 101H9.2983L12.4389 92.2727H13.9602L17.1009 101H15.7031L13.2358 93.858H13.1676L10.696 101ZM10.9304 97.5824H15.4645V98.6903H10.9304V97.5824ZM26.0569 94.5653C26.0114 94.1619 25.8239 93.8494 25.4944 93.6278C25.1648 93.4034 24.7501 93.2912 24.2501 93.2912C23.8921 93.2912 23.5824 93.348 23.3211 93.4616C23.0597 93.5724 22.8566 93.7259 22.7117 93.9219C22.5697 94.1151 22.4986 94.3352 22.4986 94.5824C22.4986 94.7898 22.5469 94.9687 22.6435 95.1193C22.743 95.2699 22.8722 95.3963 23.0313 95.4986C23.1932 95.598 23.3665 95.6818 23.5512 95.75C23.7359 95.8153 23.9134 95.8693 24.0839 95.9119L24.9361 96.1335C25.2145 96.2017 25.5001 96.294 25.7927 96.4105C26.0853 96.527 26.3566 96.6804 26.6066 96.8707C26.8566 97.0611 27.0583 97.2969 27.2117 97.5781C27.368 97.8594 27.4461 98.196 27.4461 98.5881C27.4461 99.0824 27.3182 99.5213 27.0626 99.9048C26.8097 100.288 26.4418 100.591 25.9589 100.812C25.4788 101.034 24.8978 101.145 24.216 101.145C23.5626 101.145 22.9972 101.041 22.5199 100.834C22.0427 100.626 21.6691 100.332 21.3992 99.9517C21.1293 99.5682 20.9802 99.1136 20.9518 98.5881H22.2728C22.2984 98.9034 22.4006 99.1662 22.5796 99.3764C22.7614 99.5838 22.993 99.7386 23.2742 99.8409C23.5583 99.9403 23.8694 99.9901 24.2074 99.9901C24.5796 99.9901 24.9106 99.9318 25.2003 99.8153C25.493 99.696 25.7231 99.5312 25.8907 99.321C26.0583 99.108 26.1421 98.8594 26.1421 98.5753C26.1421 98.3168 26.0682 98.1051 25.9205 97.9403C25.7756 97.7756 25.5782 97.6392 25.3282 97.5312C25.081 97.4233 24.8012 97.3281 24.4887 97.2457L23.4574 96.9645C22.7586 96.7741 22.2046 96.4943 21.7955 96.125C21.3893 95.7557 21.1861 95.267 21.1861 94.6591C21.1861 94.1562 21.3225 93.7173 21.5952 93.3423C21.868 92.9673 22.2373 92.6761 22.7032 92.4688C23.1691 92.2585 23.6947 92.1534 24.2799 92.1534C24.8708 92.1534 25.3921 92.2571 25.8438 92.4645C26.2984 92.6719 26.6563 92.9574 26.9177 93.321C27.179 93.6818 27.3154 94.0966 27.3268 94.5653H26.0569ZM28.7973 101V94.4545H30.0715V101H28.7973ZM29.4408 93.4446C29.2192 93.4446 29.0288 93.3707 28.8698 93.223C28.7135 93.0724 28.6354 92.8935 28.6354 92.6861C28.6354 92.4759 28.7135 92.2969 28.8698 92.1491C29.0288 91.9986 29.2192 91.9233 29.4408 91.9233C29.6624 91.9233 29.8513 91.9986 30.0075 92.1491C30.1666 92.2969 30.2462 92.4759 30.2462 92.6861C30.2462 92.8935 30.1666 93.0724 30.0075 93.223C29.8513 93.3707 29.6624 93.4446 29.4408 93.4446ZM32.9397 97.1136V101H31.6656V94.4545H32.8886V95.5199H32.9696C33.1201 95.1733 33.3559 94.8949 33.677 94.6847C34.0008 94.4744 34.4085 94.3693 34.9 94.3693C35.346 94.3693 35.7366 94.4631 36.0718 94.6506C36.4071 94.8352 36.667 95.1108 36.8517 95.4773C37.0363 95.8437 37.1287 96.2969 37.1287 96.8366V101H35.8545V96.9901C35.8545 96.5156 35.7309 96.1449 35.4838 95.8778C35.2366 95.608 34.8971 95.473 34.4653 95.473C34.1699 95.473 33.9071 95.5369 33.677 95.6648C33.4497 95.7926 33.2693 95.9801 33.1358 96.2273C33.0051 96.4716 32.9397 96.767 32.9397 97.1136ZM41.4618 103.591C40.9419 103.591 40.4945 103.523 40.1195 103.386C39.7473 103.25 39.4433 103.07 39.2075 102.845C38.9717 102.621 38.7956 102.375 38.6791 102.108L39.7743 101.656C39.851 101.781 39.9533 101.913 40.0811 102.053C40.2118 102.195 40.3879 102.315 40.6095 102.415C40.8339 102.514 41.1223 102.564 41.4746 102.564C41.9575 102.564 42.3567 102.446 42.672 102.21C42.9874 101.977 43.145 101.605 43.145 101.094V99.8068H43.0641C42.9874 99.946 42.8766 100.101 42.7317 100.271C42.5896 100.442 42.3936 100.589 42.1436 100.714C41.8936 100.839 41.5683 100.902 41.1678 100.902C40.6507 100.902 40.1848 100.781 39.77 100.54C39.3581 100.295 39.0314 99.9361 38.7899 99.4616C38.5513 98.9844 38.432 98.3977 38.432 97.7017C38.432 97.0057 38.5499 96.4091 38.7857 95.9119C39.0243 95.4148 39.351 95.0341 39.7658 94.7699C40.1805 94.5028 40.6507 94.3693 41.1763 94.3693C41.5825 94.3693 41.9107 94.4375 42.1607 94.5739C42.4107 94.7074 42.6053 94.8636 42.7445 95.0426C42.8865 95.2216 42.9959 95.3793 43.0726 95.5156H43.1663V94.4545H44.4149V101.145C44.4149 101.707 44.2842 102.169 44.0229 102.53C43.7615 102.891 43.4078 103.158 42.9618 103.331C42.5186 103.504 42.0186 103.591 41.4618 103.591ZM41.449 99.8452C41.8155 99.8452 42.1251 99.7599 42.378 99.5895C42.6337 99.4162 42.8268 99.169 42.9575 98.848C43.0911 98.5241 43.1578 98.1364 43.1578 97.6847C43.1578 97.2443 43.0925 96.8565 42.9618 96.5213C42.8311 96.1861 42.6393 95.9247 42.3865 95.7372C42.1337 95.5469 41.8212 95.4517 41.449 95.4517C41.0655 95.4517 40.7459 95.5511 40.4902 95.75C40.2345 95.946 40.0413 96.2131 39.9107 96.5511C39.7828 96.8892 39.7189 97.267 39.7189 97.6847C39.7189 98.1136 39.7842 98.4901 39.9149 98.8139C40.0456 99.1378 40.2388 99.3906 40.4945 99.5724C40.753 99.7543 41.0712 99.8452 41.449 99.8452ZM47.2779 92.2727V101H46.0037V92.2727H47.2779ZM51.693 101.132C51.0481 101.132 50.4927 100.994 50.0268 100.719C49.5638 100.44 49.2058 100.05 48.953 99.5469C48.703 99.0412 48.578 98.4489 48.578 97.7699C48.578 97.0994 48.703 96.5085 48.953 95.9972C49.2058 95.4858 49.5581 95.0866 50.0098 94.7997C50.4643 94.5128 50.9956 94.3693 51.6035 94.3693C51.9729 94.3693 52.3308 94.4304 52.6774 94.5526C53.024 94.6747 53.3351 94.8665 53.6106 95.1278C53.8862 95.3892 54.1035 95.7287 54.2626 96.1463C54.4217 96.5611 54.5013 97.0653 54.5013 97.6591V98.1108H49.2981V97.1562H53.2527C53.2527 96.821 53.1845 96.5241 53.0481 96.2656C52.9118 96.0043 52.72 95.7983 52.4729 95.6477C52.2285 95.4972 51.9416 95.4219 51.6121 95.4219C51.2541 95.4219 50.9416 95.5099 50.6746 95.6861C50.4104 95.8594 50.2058 96.0866 50.0609 96.3679C49.9189 96.6463 49.8479 96.9489 49.8479 97.2756V98.0213C49.8479 98.4588 49.9246 98.831 50.078 99.1378C50.2342 99.4446 50.4515 99.679 50.73 99.8409C51.0084 100 51.3337 100.08 51.7058 100.08C51.9473 100.08 52.1675 100.045 52.3663 99.9773C52.5652 99.9062 52.7371 99.8011 52.8819 99.6619C53.0268 99.5227 53.1376 99.3509 53.2143 99.1463L54.4203 99.3636C54.3237 99.7187 54.1504 100.03 53.9004 100.297C53.6533 100.561 53.3422 100.767 52.9672 100.915C52.595 101.06 52.1703 101.132 51.693 101.132ZM63.713 94.5653C63.6675 94.1619 63.48 93.8494 63.1505 93.6278C62.8209 93.4034 62.4061 93.2912 61.9061 93.2912C61.5482 93.2912 61.2385 93.348 60.9772 93.4616C60.7158 93.5724 60.5127 93.7259 60.3678 93.9219C60.2258 94.1151 60.1547 94.3352 60.1547 94.5824C60.1547 94.7898 60.203 94.9687 60.2996 95.1193C60.399 95.2699 60.5283 95.3963 60.6874 95.4986C60.8493 95.598 61.0226 95.6818 61.2073 95.75C61.3919 95.8153 61.5695 95.8693 61.74 95.9119L62.5922 96.1335C62.8706 96.2017 63.1561 96.294 63.4488 96.4105C63.7414 96.527 64.0127 96.6804 64.2627 96.8707C64.5127 97.0611 64.7144 97.2969 64.8678 97.5781C65.024 97.8594 65.1022 98.196 65.1022 98.5881C65.1022 99.0824 64.9743 99.5213 64.7186 99.9048C64.4658 100.288 64.0979 100.591 63.615 100.812C63.1348 101.034 62.5539 101.145 61.8721 101.145C61.2186 101.145 60.6533 101.041 60.176 100.834C59.6988 100.626 59.3252 100.332 59.0553 99.9517C58.7854 99.5682 58.6363 99.1136 58.6079 98.5881H59.9289C59.9544 98.9034 60.0567 99.1662 60.2357 99.3764C60.4175 99.5838 60.649 99.7386 60.9303 99.8409C61.2144 99.9403 61.5255 99.9901 61.8635 99.9901C62.2357 99.9901 62.5667 99.9318 62.8564 99.8153C63.149 99.696 63.3792 99.5312 63.5468 99.321C63.7144 99.108 63.7982 98.8594 63.7982 98.5753C63.7982 98.3168 63.7243 98.1051 63.5766 97.9403C63.4317 97.7756 63.2343 97.6392 62.9843 97.5312C62.7371 97.4233 62.4573 97.3281 62.1448 97.2457L61.1135 96.9645C60.4147 96.7741 59.8607 96.4943 59.4516 96.125C59.0454 95.7557 58.8422 95.267 58.8422 94.6591C58.8422 94.1562 58.9786 93.7173 59.2513 93.3423C59.524 92.9673 59.8934 92.6761 60.3593 92.4688C60.8252 92.2585 61.3508 92.1534 61.936 92.1534C62.5269 92.1534 63.0482 92.2571 63.4999 92.4645C63.9544 92.6719 64.3124 92.9574 64.5738 93.321C64.8351 93.6818 64.9715 94.0966 64.9829 94.5653H63.713ZM68.3582 101.145C67.9435 101.145 67.5685 101.068 67.2332 100.915C66.898 100.759 66.6324 100.533 66.4364 100.237C66.2432 99.9418 66.1466 99.5795 66.1466 99.1506C66.1466 98.7812 66.2176 98.4773 66.3597 98.2386C66.5017 98 66.6935 97.8111 66.9349 97.6719C67.1764 97.5327 67.4463 97.4276 67.7446 97.3565C68.0429 97.2855 68.3469 97.2315 68.6565 97.1946C69.0486 97.1491 69.3668 97.1122 69.6111 97.0838C69.8554 97.0526 70.033 97.0028 70.1437 96.9347C70.2545 96.8665 70.3099 96.7557 70.3099 96.6023V96.5724C70.3099 96.2003 70.2048 95.9119 69.9946 95.7074C69.7872 95.5028 69.4776 95.4006 69.0656 95.4006C68.6366 95.4006 68.2986 95.4957 68.0514 95.6861C67.8071 95.8736 67.6381 96.0824 67.5443 96.3125L66.3469 96.0398C66.4889 95.642 66.6963 95.321 66.969 95.0767C67.2446 94.8295 67.5614 94.6506 67.9193 94.5398C68.2773 94.4261 68.6537 94.3693 69.0486 94.3693C69.3099 94.3693 69.5869 94.4006 69.8795 94.4631C70.175 94.5227 70.4506 94.6335 70.7062 94.7955C70.9648 94.9574 71.1764 95.1889 71.3412 95.4901C71.506 95.7884 71.5884 96.1761 71.5884 96.6534V101H70.344V100.105H70.2929C70.2105 100.27 70.0869 100.432 69.9222 100.591C69.7574 100.75 69.5457 100.882 69.2872 100.987C69.0287 101.092 68.719 101.145 68.3582 101.145ZM68.6352 100.122C68.9875 100.122 69.2886 100.053 69.5386 99.9134C69.7915 99.7741 69.9832 99.5923 70.1139 99.3679C70.2474 99.1406 70.3142 98.8977 70.3142 98.6392V97.7955C70.2687 97.8409 70.1807 97.8835 70.05 97.9233C69.9222 97.9602 69.7759 97.9929 69.6111 98.0213C69.4463 98.0469 69.2858 98.071 69.1295 98.0938C68.9733 98.1136 68.8426 98.1307 68.7375 98.1449C68.4903 98.1761 68.2645 98.2287 68.0599 98.3026C67.8582 98.3764 67.6963 98.483 67.5741 98.6222C67.4548 98.7585 67.3952 98.9403 67.3952 99.1676C67.3952 99.483 67.5116 99.7216 67.7446 99.8835C67.9776 100.043 68.2744 100.122 68.6352 100.122ZM73.1654 101V94.4545H74.3885V95.5199H74.4694C74.6058 95.1591 74.8288 94.8778 75.1385 94.6761C75.4481 94.4716 75.8188 94.3693 76.2507 94.3693C76.6882 94.3693 77.0546 94.4716 77.3501 94.6761C77.6484 94.8807 77.8686 95.1619 78.0106 95.5199H78.0788C78.235 95.1705 78.4836 94.892 78.8245 94.6847C79.1654 94.4744 79.5717 94.3693 80.0433 94.3693C80.637 94.3693 81.1214 94.5554 81.4964 94.9276C81.8742 95.2997 82.0632 95.8608 82.0632 96.6108V101H80.789V96.7301C80.789 96.2869 80.6683 95.9659 80.4268 95.767C80.1853 95.5682 79.897 95.4688 79.5617 95.4688C79.147 95.4688 78.8245 95.5966 78.5944 95.8523C78.3643 96.1051 78.2492 96.4304 78.2492 96.8281V101H76.9794V96.6491C76.9794 96.294 76.8686 96.0085 76.647 95.7926C76.4254 95.5767 76.137 95.4688 75.7819 95.4688C75.5404 95.4688 75.3174 95.5327 75.1129 95.6605C74.9112 95.7855 74.7478 95.9602 74.6228 96.1847C74.5007 96.4091 74.4396 96.669 74.4396 96.9645V101H73.1654ZM83.6509 103.455V94.4545H84.8952V95.5156H85.0018C85.0756 95.3793 85.1822 95.2216 85.3214 95.0426C85.4606 94.8636 85.6537 94.7074 85.9009 94.5739C86.1481 94.4375 86.4748 94.3693 86.881 94.3693C87.4094 94.3693 87.881 94.5028 88.2958 94.7699C88.7106 95.0369 89.0359 95.4219 89.2716 95.9247C89.5103 96.4276 89.6296 97.0327 89.6296 97.7401C89.6296 98.4474 89.5117 99.054 89.2759 99.5597C89.0401 100.062 88.7162 100.45 88.3043 100.723C87.8924 100.993 87.4222 101.128 86.8938 101.128C86.4961 101.128 86.1708 101.061 85.918 100.928C85.668 100.794 85.4719 100.638 85.3299 100.459C85.1878 100.28 85.0785 100.121 85.0018 99.9815H84.9251V103.455H83.6509ZM84.8995 97.7273C84.8995 98.1875 84.9662 98.5909 85.0998 98.9375C85.2333 99.2841 85.4265 99.5554 85.6793 99.7514C85.9322 99.9446 86.2418 100.041 86.6083 100.041C86.989 100.041 87.3072 99.9403 87.5628 99.7386C87.8185 99.5341 88.0117 99.2571 88.1424 98.9077C88.2759 98.5582 88.3427 98.1648 88.3427 97.7273C88.3427 97.2955 88.2773 96.9077 88.1466 96.5639C88.0188 96.2202 87.8256 95.9489 87.5671 95.75C87.3114 95.5511 86.9918 95.4517 86.6083 95.4517C86.239 95.4517 85.9265 95.5469 85.6708 95.7372C85.418 95.9276 85.2262 96.1932 85.0955 96.5341C84.9648 96.875 84.8995 97.2727 84.8995 97.7273ZM92.2113 92.2727V101H90.9372V92.2727H92.2113ZM96.6265 101.132C95.9816 101.132 95.4262 100.994 94.9603 100.719C94.4972 100.44 94.1392 100.05 93.8864 99.5469C93.6364 99.0412 93.5114 98.4489 93.5114 97.7699C93.5114 97.0994 93.6364 96.5085 93.8864 95.9972C94.1392 95.4858 94.4915 95.0866 94.9432 94.7997C95.3978 94.5128 95.929 94.3693 96.537 94.3693C96.9063 94.3693 97.2642 94.4304 97.6108 94.5526C97.9574 94.6747 98.2685 94.8665 98.5441 95.1278C98.8196 95.3892 99.037 95.7287 99.1961 96.1463C99.3552 96.5611 99.4347 97.0653 99.4347 97.6591V98.1108H94.2316V97.1562H98.1861C98.1861 96.821 98.1179 96.5241 97.9816 96.2656C97.8452 96.0043 97.6535 95.7983 97.4063 95.6477C97.162 95.4972 96.875 95.4219 96.5455 95.4219C96.1875 95.4219 95.875 95.5099 95.608 95.6861C95.3438 95.8594 95.1392 96.0866 94.9944 96.3679C94.8523 96.6463 94.7813 96.9489 94.7813 97.2756V98.0213C94.7813 98.4588 94.858 98.831 95.0114 99.1378C95.1677 99.4446 95.385 99.679 95.6634 99.8409C95.9418 100 96.2671 100.08 96.6392 100.08C96.8807 100.08 97.1009 100.045 97.2998 99.9773C97.4986 99.9062 97.6705 99.8011 97.8154 99.6619C97.9603 99.5227 98.0711 99.3509 98.1478 99.1463L99.3537 99.3636C99.2571 99.7187 99.0838 100.03 98.8338 100.297C98.5867 100.561 98.2756 100.767 97.9006 100.915C97.5285 101.06 97.1037 101.132 96.6265 101.132Z" fill="white"/>
</svg>
