<svg width="588" height="146" viewBox="0 0 588 146" fill="none" xmlns="http://www.w3.org/2000/svg">
<rect x="0.5" y="0.5" width="587" height="123" rx="11.5" stroke="#3774D0"/>
<rect x="24.5" y="32.5" width="299" height="59" rx="11.5" stroke="#DC136C"/>
<rect x="36.5" y="44.5" width="59" height="35" rx="5.5" fill="#171717"/>
<rect x="36.5" y="44.5" width="59" height="35" rx="5.5" stroke="#313131"/>
<path d="M62.2259 55.4091V68.5H60.2443V57.3906H60.1676L57.0355 59.4361V57.544L60.3018 55.4091H62.2259ZM66.116 68.6214C65.7666 68.6214 65.4661 68.4979 65.2147 68.2507C64.9633 67.9993 64.8376 67.6967 64.8376 67.343C64.8376 66.9936 64.9633 66.6953 65.2147 66.4482C65.4661 66.1967 65.7666 66.071 66.116 66.071C66.4654 66.071 66.7658 66.1967 67.0173 66.4482C67.2687 66.6953 67.3944 66.9936 67.3944 67.343C67.3944 67.5774 67.3347 67.7926 67.2154 67.9886C67.1004 68.1804 66.947 68.3338 66.7552 68.4489C66.5634 68.5639 66.3504 68.6214 66.116 68.6214ZM73.1334 55.4091V68.5H71.1519V57.3906H71.0752L67.9431 59.4361V57.544L71.2094 55.4091H73.1334Z" fill="white"/>
<rect x="108.5" y="44.5" width="59" height="35" rx="5.5" fill="#171717"/>
<rect x="108.5" y="44.5" width="59" height="35" rx="5.5" stroke="#313131"/>
<path d="M130.58 68.679C129.779 68.679 129.059 68.5256 128.42 68.2188C127.785 67.9077 127.278 67.4815 126.898 66.9403C126.519 66.3991 126.317 65.7812 126.291 65.0866H128.209C128.256 65.6491 128.505 66.1115 128.957 66.4737C129.408 66.8359 129.95 67.017 130.58 67.017C131.083 67.017 131.528 66.902 131.916 66.6719C132.308 66.4375 132.615 66.1158 132.837 65.7067C133.063 65.2976 133.175 64.831 133.175 64.3068C133.175 63.7741 133.06 63.299 132.83 62.8814C132.6 62.4638 132.283 62.1357 131.878 61.897C131.477 61.6584 131.017 61.5369 130.497 61.5327C130.101 61.5327 129.702 61.6009 129.302 61.7372C128.901 61.8736 128.577 62.0526 128.33 62.2741L126.521 62.0057L127.256 55.4091H134.454V57.103H128.899L128.484 60.7656H128.56C128.816 60.5185 129.155 60.3118 129.577 60.1456C130.003 59.9794 130.459 59.8963 130.945 59.8963C131.741 59.8963 132.451 60.0859 133.073 60.4652C133.7 60.8445 134.192 61.3622 134.55 62.0185C134.912 62.6705 135.091 63.4205 135.087 64.2685C135.091 65.1165 134.899 65.8729 134.511 66.5376C134.128 67.2024 133.595 67.7266 132.913 68.1101C132.236 68.4893 131.458 68.679 130.58 68.679ZM138.052 68.6214C137.702 68.6214 137.402 68.4979 137.15 68.2507C136.899 67.9993 136.773 67.6967 136.773 67.343C136.773 66.9936 136.899 66.6953 137.15 66.4482C137.402 66.1967 137.702 66.071 138.052 66.071C138.401 66.071 138.701 66.1967 138.953 66.4482C139.204 66.6953 139.33 66.9936 139.33 67.343C139.33 67.5774 139.27 67.7926 139.151 67.9886C139.036 68.1804 138.882 68.3338 138.691 68.4489C138.499 68.5639 138.286 68.6214 138.052 68.6214ZM141.791 68.5L147.506 57.1989V57.103H140.897V55.4091H149.551V57.1605L143.856 68.5H141.791Z" fill="white"/>
<rect x="180.5" y="44.5" width="59" height="35" rx="5.5" fill="#171717"/>
<rect x="180.5" y="44.5" width="59" height="35" rx="5.5" stroke="#313131"/>
<path d="M199.726 55.4091V68.5H197.744V57.3906H197.668L194.536 59.4361V57.544L197.802 55.4091H199.726ZM203.528 68.5L209.243 57.1989V57.103H202.633V55.4091H211.288V57.1605L205.593 68.5H203.528ZM212.366 68.6214C212.016 68.6214 211.716 68.4979 211.464 68.2507C211.213 67.9993 211.087 67.6967 211.087 67.343C211.087 66.9936 211.213 66.6953 211.464 66.4482C211.716 66.1967 212.016 66.071 212.366 66.071C212.715 66.071 213.016 66.1967 213.267 66.4482C213.518 66.6953 213.644 66.9936 213.644 67.343C213.644 67.5774 213.584 67.7926 213.465 67.9886C213.35 68.1804 213.197 68.3338 213.005 68.4489C212.813 68.5639 212.6 68.6214 212.366 68.6214ZM215.999 68.5V67.0682L220.428 62.4787C220.901 61.9801 221.291 61.5433 221.598 61.1683C221.909 60.7891 222.141 60.429 222.295 60.0881C222.448 59.7472 222.525 59.3849 222.525 59.0014C222.525 58.5668 222.423 58.1918 222.218 57.8764C222.013 57.5568 221.734 57.3118 221.381 57.1413C221.027 56.9666 220.629 56.8793 220.185 56.8793C219.717 56.8793 219.307 56.9751 218.958 57.1669C218.609 57.3587 218.34 57.6293 218.153 57.9787C217.965 58.3281 217.871 58.7372 217.871 59.206H215.986C215.986 58.4091 216.169 57.7124 216.535 57.1158C216.902 56.5192 217.405 56.0568 218.044 55.7287C218.683 55.3963 219.41 55.2301 220.224 55.2301C221.046 55.2301 221.771 55.3942 222.397 55.7223C223.028 56.0462 223.52 56.4893 223.874 57.0518C224.227 57.6101 224.404 58.2408 224.404 58.9439C224.404 59.4297 224.312 59.9048 224.129 60.3693C223.95 60.8338 223.637 61.3516 223.19 61.9226C222.742 62.4893 222.12 63.1776 221.323 63.9872L218.722 66.7102V66.8061H224.615V68.5H215.999Z" fill="white"/>
<rect x="252.5" y="44.5" width="59" height="35" rx="5.5" fill="#171717"/>
<rect x="252.5" y="44.5" width="59" height="35" rx="5.5" stroke="#313131"/>
<path d="M274.33 68.679C273.746 68.6705 273.17 68.5639 272.604 68.3594C272.041 68.1548 271.53 67.8139 271.07 67.3366C270.609 66.8594 270.241 66.218 269.964 65.4126C269.691 64.6072 269.555 63.6016 269.555 62.3956C269.555 61.2536 269.668 60.2393 269.893 59.353C270.124 58.4666 270.454 57.7188 270.884 57.1094C271.315 56.4957 271.835 56.0291 272.444 55.7095C273.053 55.3899 273.737 55.2301 274.496 55.2301C275.276 55.2301 275.968 55.3835 276.573 55.6903C277.178 55.9972 277.668 56.4212 278.043 56.9624C278.423 57.5036 278.663 58.1193 278.766 58.8097H276.816C276.684 58.2642 276.422 57.8189 276.03 57.4737C275.638 57.1286 275.126 56.956 274.496 56.956C273.537 56.956 272.789 57.3736 272.252 58.2088C271.719 59.044 271.451 60.2053 271.447 61.6925H271.543C271.768 61.3217 272.045 61.0064 272.374 60.7464C272.706 60.4822 273.077 60.2798 273.486 60.1392C273.899 59.9943 274.334 59.9219 274.79 59.9219C275.548 59.9219 276.234 60.1072 276.848 60.478C277.466 60.8445 277.958 61.3516 278.325 61.9993C278.691 62.647 278.874 63.3885 278.874 64.2237C278.874 65.0589 278.685 65.8153 278.305 66.4929C277.93 67.1705 277.402 67.7074 276.72 68.1037C276.038 68.4957 275.241 68.6875 274.33 68.679ZM274.323 67.017C274.826 67.017 275.276 66.8935 275.672 66.6463C276.068 66.3991 276.381 66.0668 276.612 65.6491C276.842 65.2315 276.957 64.7649 276.957 64.2493C276.957 63.7464 276.844 63.2884 276.618 62.875C276.396 62.4616 276.089 62.1335 275.697 61.8906C275.31 61.6477 274.866 61.5263 274.368 61.5263C273.989 61.5263 273.637 61.5987 273.313 61.7436C272.994 61.8885 272.712 62.0888 272.469 62.3445C272.227 62.6001 272.035 62.8942 271.894 63.2266C271.758 63.5547 271.69 63.902 271.69 64.2685C271.69 64.7585 271.803 65.2124 272.028 65.63C272.259 66.0476 272.572 66.3842 272.968 66.6399C273.369 66.8913 273.82 67.017 274.323 67.017ZM281.71 68.6214C281.36 68.6214 281.06 68.4979 280.808 68.2507C280.557 67.9993 280.431 67.6967 280.431 67.343C280.431 66.9936 280.557 66.6953 280.808 66.4482C281.06 66.1967 281.36 66.071 281.71 66.071C282.059 66.071 282.36 66.1967 282.611 66.4482C282.862 66.6953 282.988 66.9936 282.988 67.343C282.988 67.5774 282.928 67.7926 282.809 67.9886C282.694 68.1804 282.541 68.3338 282.349 68.4489C282.157 68.5639 281.944 68.6214 281.71 68.6214ZM289.426 68.679C288.548 68.679 287.764 68.5277 287.073 68.2251C286.387 67.9226 285.844 67.5028 285.443 66.9659C285.047 66.4247 284.834 65.7983 284.804 65.0866H286.811C286.837 65.4744 286.967 65.8111 287.201 66.0966C287.44 66.3778 287.751 66.5952 288.134 66.7486C288.518 66.902 288.944 66.9787 289.413 66.9787C289.928 66.9787 290.384 66.8892 290.781 66.7102C291.181 66.5312 291.494 66.282 291.72 65.9624C291.946 65.6385 292.059 65.2656 292.059 64.8438C292.059 64.4048 291.946 64.0192 291.72 63.6868C291.499 63.3501 291.173 63.0859 290.742 62.8942C290.316 62.7024 289.801 62.6065 289.195 62.6065H288.09V60.9957H289.195C289.681 60.9957 290.107 60.9084 290.474 60.7337C290.845 60.5589 291.134 60.3161 291.343 60.005C291.552 59.6896 291.656 59.321 291.656 58.8991C291.656 58.4943 291.565 58.1428 291.381 57.8445C291.203 57.5419 290.947 57.3054 290.614 57.1349C290.286 56.9645 289.899 56.8793 289.451 56.8793C289.025 56.8793 288.627 56.9581 288.256 57.1158C287.889 57.2692 287.591 57.4908 287.361 57.7805C287.131 58.0661 287.007 58.4091 286.99 58.8097H285.079C285.1 58.1023 285.309 57.4801 285.705 56.9432C286.106 56.4062 286.634 55.9865 287.291 55.6839C287.947 55.3814 288.676 55.2301 289.477 55.2301C290.316 55.2301 291.041 55.3942 291.65 55.7223C292.264 56.0462 292.737 56.4787 293.069 57.0199C293.406 57.5611 293.572 58.1534 293.568 58.7969C293.572 59.5298 293.367 60.152 292.954 60.6634C292.545 61.1747 291.999 61.5178 291.318 61.6925V61.7947C292.187 61.9268 292.86 62.272 293.337 62.8303C293.819 63.3885 294.058 64.081 294.053 64.9077C294.058 65.6278 293.857 66.2734 293.453 66.8445C293.052 67.4155 292.504 67.8651 291.81 68.1932C291.115 68.517 290.32 68.679 289.426 68.679Z" fill="white"/>
<rect x="336.5" y="32.5" width="227" height="59" rx="11.5" stroke="#DC136C"/>
<rect x="348.5" y="44.5" width="59" height="35" rx="5.5" fill="#171717"/>
<rect x="348.5" y="44.5" width="59" height="35" rx="5.5" stroke="#313131"/>
<path d="M370.317 68.679C369.439 68.679 368.655 68.5277 367.964 68.2251C367.278 67.9226 366.735 67.5028 366.335 66.9659C365.938 66.4247 365.725 65.7983 365.695 65.0866H367.702C367.728 65.4744 367.858 65.8111 368.092 66.0966C368.331 66.3778 368.642 66.5952 369.026 66.7486C369.409 66.902 369.835 66.9787 370.304 66.9787C370.82 66.9787 371.276 66.8892 371.672 66.7102C372.072 66.5312 372.386 66.282 372.612 65.9624C372.837 65.6385 372.95 65.2656 372.95 64.8438C372.95 64.4048 372.837 64.0192 372.612 63.6868C372.39 63.3501 372.064 63.0859 371.634 62.8942C371.207 62.7024 370.692 62.6065 370.087 62.6065H368.981V60.9957H370.087C370.572 60.9957 370.999 60.9084 371.365 60.7337C371.736 60.5589 372.026 60.3161 372.234 60.005C372.443 59.6896 372.548 59.321 372.548 58.8991C372.548 58.4943 372.456 58.1428 372.273 57.8445C372.094 57.5419 371.838 57.3054 371.506 57.1349C371.178 56.9645 370.79 56.8793 370.342 56.8793C369.916 56.8793 369.518 56.9581 369.147 57.1158C368.781 57.2692 368.482 57.4908 368.252 57.7805C368.022 58.0661 367.898 58.4091 367.881 58.8097H365.97C365.991 58.1023 366.2 57.4801 366.597 56.9432C366.997 56.4062 367.526 55.9865 368.182 55.6839C368.838 55.3814 369.567 55.2301 370.368 55.2301C371.207 55.2301 371.932 55.3942 372.541 55.7223C373.155 56.0462 373.628 56.4787 373.96 57.0199C374.297 57.5611 374.463 58.1534 374.459 58.7969C374.463 59.5298 374.259 60.152 373.845 60.6634C373.436 61.1747 372.891 61.5178 372.209 61.6925V61.7947C373.078 61.9268 373.751 62.272 374.229 62.8303C374.71 63.3885 374.949 64.081 374.945 64.9077C374.949 65.6278 374.749 66.2734 374.344 66.8445C373.943 67.4155 373.396 67.8651 372.701 68.1932C372.006 68.517 371.212 68.679 370.317 68.679ZM378.079 68.6214C377.729 68.6214 377.429 68.4979 377.178 68.2507C376.926 67.9993 376.8 67.6967 376.8 67.343C376.8 66.9936 376.926 66.6953 377.178 66.4482C377.429 66.1967 377.729 66.071 378.079 66.071C378.428 66.071 378.729 66.1967 378.98 66.4482C379.232 66.6953 379.357 66.9936 379.357 67.343C379.357 67.5774 379.298 67.7926 379.178 67.9886C379.063 68.1804 378.91 68.3338 378.718 68.4489C378.526 68.5639 378.313 68.6214 378.079 68.6214ZM385.822 68.679C385.021 68.679 384.301 68.5256 383.661 68.2188C383.026 67.9077 382.519 67.4815 382.14 66.9403C381.761 66.3991 381.558 65.7812 381.533 65.0866H383.45C383.497 65.6491 383.747 66.1115 384.198 66.4737C384.65 66.8359 385.191 67.017 385.822 67.017C386.325 67.017 386.77 66.902 387.158 66.6719C387.55 66.4375 387.857 66.1158 388.078 65.7067C388.304 65.2976 388.417 64.831 388.417 64.3068C388.417 63.7741 388.302 63.299 388.072 62.8814C387.842 62.4638 387.524 62.1357 387.119 61.897C386.719 61.6584 386.259 61.5369 385.739 61.5327C385.342 61.5327 384.944 61.6009 384.543 61.7372C384.143 61.8736 383.819 62.0526 383.572 62.2741L381.763 62.0057L382.498 55.4091H389.695V57.103H384.141L383.725 60.7656H383.802C384.058 60.5185 384.396 60.3118 384.818 60.1456C385.244 59.9794 385.7 59.8963 386.186 59.8963C386.983 59.8963 387.693 60.0859 388.315 60.4652C388.941 60.8445 389.433 61.3622 389.791 62.0185C390.153 62.6705 390.332 63.4205 390.328 64.2685C390.332 65.1165 390.141 65.8729 389.753 66.5376C389.369 67.2024 388.837 67.7266 388.155 68.1101C387.477 68.4893 386.7 68.679 385.822 68.679Z" fill="white"/>
<rect x="420.5" y="44.5" width="59" height="35" rx="5.5" fill="#171717"/>
<rect x="420.5" y="44.5" width="59" height="35" rx="5.5" stroke="#313131"/>
<path d="M438.226 55.4091V68.5H436.244V57.3906H436.168L433.036 59.4361V57.544L436.302 55.4091H438.226ZM446.145 68.7173C445.135 68.7131 444.272 68.4467 443.556 67.9183C442.84 67.3899 442.292 66.6207 441.913 65.6108C441.534 64.6009 441.344 63.3842 441.344 61.9609C441.344 60.5419 441.534 59.3295 441.913 58.3239C442.297 57.3182 442.846 56.5511 443.562 56.0227C444.282 55.4943 445.143 55.2301 446.145 55.2301C447.146 55.2301 448.005 55.4964 448.721 56.0291C449.436 56.5575 449.984 57.3246 450.363 58.3303C450.747 59.3317 450.939 60.5419 450.939 61.9609C450.939 63.3885 450.749 64.6072 450.37 65.6172C449.99 66.6229 449.443 67.392 448.727 67.9247C448.011 68.4531 447.15 68.7173 446.145 68.7173ZM446.145 67.0107C447.031 67.0107 447.723 66.5781 448.222 65.7131C448.725 64.848 448.976 63.5973 448.976 61.9609C448.976 60.8743 448.861 59.956 448.631 59.206C448.405 58.4517 448.079 57.8807 447.653 57.4929C447.231 57.1009 446.728 56.9048 446.145 56.9048C445.262 56.9048 444.57 57.3395 444.067 58.2088C443.564 59.0781 443.311 60.3288 443.307 61.9609C443.307 63.0518 443.419 63.9744 443.645 64.7287C443.875 65.4787 444.201 66.0476 444.623 66.4354C445.045 66.8189 445.552 67.0107 446.145 67.0107ZM453.836 68.6214C453.487 68.6214 453.187 68.4979 452.935 68.2507C452.684 67.9993 452.558 67.6967 452.558 67.343C452.558 66.9936 452.684 66.6953 452.935 66.4482C453.187 66.1967 453.487 66.071 453.836 66.071C454.186 66.071 454.486 66.1967 454.738 66.4482C454.989 66.6953 455.115 66.9936 455.115 67.343C455.115 67.5774 455.055 67.7926 454.936 67.9886C454.821 68.1804 454.667 68.3338 454.476 68.4489C454.284 68.5639 454.071 68.6214 453.836 68.6214ZM461.579 68.679C460.778 68.679 460.058 68.5256 459.419 68.2188C458.784 67.9077 458.277 67.4815 457.897 66.9403C457.518 66.3991 457.316 65.7812 457.29 65.0866H459.208C459.255 65.6491 459.504 66.1115 459.956 66.4737C460.407 66.8359 460.949 67.017 461.579 67.017C462.082 67.017 462.527 66.902 462.915 66.6719C463.307 66.4375 463.614 66.1158 463.836 65.7067C464.062 65.2976 464.174 64.831 464.174 64.3068C464.174 63.7741 464.059 63.299 463.829 62.8814C463.599 62.4638 463.282 62.1357 462.877 61.897C462.476 61.6584 462.016 61.5369 461.496 61.5327C461.1 61.5327 460.701 61.6009 460.301 61.7372C459.9 61.8736 459.576 62.0526 459.329 62.2741L457.52 62.0057L458.255 55.4091H465.453V57.103H459.898L459.483 60.7656H459.559C459.815 60.5185 460.154 60.3118 460.576 60.1456C461.002 59.9794 461.458 59.8963 461.944 59.8963C462.741 59.8963 463.45 60.0859 464.072 60.4652C464.699 60.8445 465.191 61.3622 465.549 62.0185C465.911 62.6705 466.09 63.4205 466.086 64.2685C466.09 65.1165 465.898 65.8729 465.51 66.5376C465.127 67.2024 464.594 67.7266 463.912 68.1101C463.235 68.4893 462.457 68.679 461.579 68.679Z" fill="white"/>
<rect x="492.5" y="44.5" width="59" height="35" rx="5.5" fill="#171717"/>
<rect x="492.5" y="44.5" width="59" height="35" rx="5.5" stroke="#313131"/>
<path d="M510.317 68.679C509.439 68.679 508.655 68.5277 507.964 68.2251C507.278 67.9226 506.735 67.5028 506.335 66.9659C505.938 66.4247 505.725 65.7983 505.695 65.0866H507.702C507.728 65.4744 507.858 65.8111 508.092 66.0966C508.331 66.3778 508.642 66.5952 509.026 66.7486C509.409 66.902 509.835 66.9787 510.304 66.9787C510.82 66.9787 511.276 66.8892 511.672 66.7102C512.072 66.5312 512.386 66.282 512.612 65.9624C512.837 65.6385 512.95 65.2656 512.95 64.8438C512.95 64.4048 512.837 64.0192 512.612 63.6868C512.39 63.3501 512.064 63.0859 511.634 62.8942C511.207 62.7024 510.692 62.6065 510.087 62.6065H508.981V60.9957H510.087C510.572 60.9957 510.999 60.9084 511.365 60.7337C511.736 60.5589 512.026 60.3161 512.234 60.005C512.443 59.6896 512.548 59.321 512.548 58.8991C512.548 58.4943 512.456 58.1428 512.273 57.8445C512.094 57.5419 511.838 57.3054 511.506 57.1349C511.178 56.9645 510.79 56.8793 510.342 56.8793C509.916 56.8793 509.518 56.9581 509.147 57.1158C508.781 57.2692 508.482 57.4908 508.252 57.7805C508.022 58.0661 507.898 58.4091 507.881 58.8097H505.97C505.991 58.1023 506.2 57.4801 506.597 56.9432C506.997 56.4062 507.526 55.9865 508.182 55.6839C508.838 55.3814 509.567 55.2301 510.368 55.2301C511.207 55.2301 511.932 55.3942 512.541 55.7223C513.155 56.0462 513.628 56.4787 513.96 57.0199C514.297 57.5611 514.463 58.1534 514.459 58.7969C514.463 59.5298 514.259 60.152 513.845 60.6634C513.436 61.1747 512.891 61.5178 512.209 61.6925V61.7947C513.078 61.9268 513.751 62.272 514.229 62.8303C514.71 63.3885 514.949 64.081 514.945 64.9077C514.949 65.6278 514.749 66.2734 514.344 66.8445C513.943 67.4155 513.396 67.8651 512.701 68.1932C512.006 68.517 511.212 68.679 510.317 68.679ZM518.079 68.6214C517.729 68.6214 517.429 68.4979 517.178 68.2507C516.926 67.9993 516.8 67.6967 516.8 67.343C516.8 66.9936 516.926 66.6953 517.178 66.4482C517.429 66.1967 517.729 66.071 518.079 66.071C518.428 66.071 518.729 66.1967 518.98 66.4482C519.232 66.6953 519.357 66.9936 519.357 67.343C519.357 67.5774 519.298 67.7926 519.178 67.9886C519.063 68.1804 518.91 68.3338 518.718 68.4489C518.526 68.5639 518.313 68.6214 518.079 68.6214ZM525.096 55.4091V68.5H523.115V57.3906H523.038L519.906 59.4361V57.544L523.172 55.4091H525.096ZM528.183 65.9432V64.3452L533.84 55.4091H535.099V57.7614H534.3L530.254 64.1662V64.2685H538.007V65.9432H528.183ZM534.389 68.5V65.4574L534.402 64.7287V55.4091H536.275V68.5H534.389Z" fill="white"/>
<path d="M37.7188 12.5653C37.6733 12.1619 37.4858 11.8494 37.1562 11.6278C36.8267 11.4034 36.4119 11.2912 35.9119 11.2912C35.554 11.2912 35.2443 11.348 34.983 11.4616C34.7216 11.5724 34.5185 11.7259 34.3736 11.9219C34.2315 12.1151 34.1605 12.3352 34.1605 12.5824C34.1605 12.7898 34.2088 12.9687 34.3054 13.1193C34.4048 13.2699 34.5341 13.3963 34.6932 13.4986C34.8551 13.598 35.0284 13.6818 35.2131 13.75C35.3977 13.8153 35.5753 13.8693 35.7457 13.9119L36.598 14.1335C36.8764 14.2017 37.1619 14.294 37.4545 14.4105C37.7472 14.527 38.0185 14.6804 38.2685 14.8707C38.5185 15.0611 38.7202 15.2969 38.8736 15.5781C39.0298 15.8594 39.108 16.196 39.108 16.5881C39.108 17.0824 38.9801 17.5213 38.7244 17.9048C38.4716 18.2884 38.1037 18.5909 37.6207 18.8125C37.1406 19.0341 36.5597 19.1449 35.8778 19.1449C35.2244 19.1449 34.6591 19.0412 34.1818 18.8338C33.7045 18.6264 33.331 18.3324 33.0611 17.9517C32.7912 17.5682 32.642 17.1136 32.6136 16.5881H33.9347C33.9602 16.9034 34.0625 17.1662 34.2415 17.3764C34.4233 17.5838 34.6548 17.7386 34.9361 17.8409C35.2202 17.9403 35.5312 17.9901 35.8693 17.9901C36.2415 17.9901 36.5724 17.9318 36.8622 17.8153C37.1548 17.696 37.3849 17.5312 37.5526 17.321C37.7202 17.108 37.804 16.8594 37.804 16.5753C37.804 16.3168 37.7301 16.1051 37.5824 15.9403C37.4375 15.7756 37.2401 15.6392 36.9901 15.5312C36.7429 15.4233 36.4631 15.3281 36.1506 15.2457L35.1193 14.9645C34.4205 14.7741 33.8665 14.4943 33.4574 14.125C33.0511 13.7557 32.848 13.267 32.848 12.6591C32.848 12.1562 32.9844 11.7173 33.2571 11.3423C33.5298 10.9673 33.8991 10.6761 34.3651 10.4688C34.831 10.2585 35.3565 10.1534 35.9418 10.1534C36.5327 10.1534 37.054 10.2571 37.5057 10.4645C37.9602 10.6719 38.3182 10.9574 38.5795 11.321C38.8409 11.6818 38.9773 12.0966 38.9886 12.5653H37.7188ZM43.2802 19.1321C42.6353 19.1321 42.0799 18.9943 41.614 18.7188C41.151 18.4403 40.793 18.0497 40.5402 17.5469C40.2902 17.0412 40.1652 16.4489 40.1652 15.7699C40.1652 15.0994 40.2902 14.5085 40.5402 13.9972C40.793 13.4858 41.1453 13.0866 41.597 12.7997C42.0515 12.5128 42.5828 12.3693 43.1907 12.3693C43.56 12.3693 43.918 12.4304 44.2646 12.5526C44.6112 12.6747 44.9223 12.8665 45.1978 13.1278C45.4734 13.3892 45.6907 13.7287 45.8498 14.1463C46.0089 14.5611 46.0885 15.0653 46.0885 15.6591V16.1108H40.8853V15.1562H44.8399C44.8399 14.821 44.7717 14.5241 44.6353 14.2656C44.499 14.0043 44.3072 13.7983 44.06 13.6477C43.8157 13.4972 43.5288 13.4219 43.1992 13.4219C42.8413 13.4219 42.5288 13.5099 42.2617 13.6861C41.9975 13.8594 41.793 14.0866 41.6481 14.3679C41.5061 14.6463 41.435 14.9489 41.435 15.2756V16.0213C41.435 16.4588 41.5117 16.831 41.6652 17.1378C41.8214 17.4446 42.0387 17.679 42.3171 17.8409C42.5956 18 42.9208 18.0795 43.293 18.0795C43.5345 18.0795 43.7546 18.0455 43.9535 17.9773C44.1524 17.9062 44.3242 17.8011 44.4691 17.6619C44.614 17.5227 44.7248 17.3509 44.8015 17.1463L46.0075 17.3636C45.9109 17.7187 45.7376 18.0298 45.4876 18.2969C45.2404 18.5611 44.9294 18.767 44.5544 18.9148C44.1822 19.0597 43.7575 19.1321 43.2802 19.1321ZM47.3822 19V12.4545H48.6137V13.4943H48.6819C48.8012 13.142 49.0114 12.8651 49.3126 12.6634C49.6165 12.4588 49.9603 12.3565 50.3438 12.3565C50.4234 12.3565 50.5171 12.3594 50.6251 12.3651C50.7359 12.3707 50.8225 12.3778 50.885 12.3864V13.6051C50.8339 13.5909 50.743 13.5753 50.6123 13.5582C50.4816 13.5384 50.3509 13.5284 50.2202 13.5284C49.9191 13.5284 49.6506 13.5923 49.4148 13.7202C49.1819 13.8452 48.9972 14.0199 48.8609 14.2443C48.7245 14.4659 48.6563 14.7187 48.6563 15.0028V19H47.3822ZM51.8676 19V12.4545H53.1418V19H51.8676ZM52.5111 11.4446C52.2895 11.4446 52.0992 11.3707 51.9401 11.223C51.7838 11.0724 51.7057 10.8935 51.7057 10.6861C51.7057 10.4759 51.7838 10.2969 51.9401 10.1491C52.0992 9.99858 52.2895 9.9233 52.5111 9.9233C52.7327 9.9233 52.9216 9.99858 53.0779 10.1491C53.2369 10.2969 53.3165 10.4759 53.3165 10.6861C53.3165 10.8935 53.2369 11.0724 53.0779 11.223C52.9216 11.3707 52.7327 11.4446 52.5111 11.4446ZM57.5569 19.1321C56.912 19.1321 56.3566 18.9943 55.8907 18.7188C55.4277 18.4403 55.0697 18.0497 54.8169 17.5469C54.5669 17.0412 54.4419 16.4489 54.4419 15.7699C54.4419 15.0994 54.5669 14.5085 54.8169 13.9972C55.0697 13.4858 55.422 13.0866 55.8737 12.7997C56.3282 12.5128 56.8595 12.3693 57.4674 12.3693C57.8368 12.3693 58.1947 12.4304 58.5413 12.5526C58.8879 12.6747 59.199 12.8665 59.4745 13.1278C59.7501 13.3892 59.9674 13.7287 60.1265 14.1463C60.2856 14.5611 60.3652 15.0653 60.3652 15.6591V16.1108H55.162V15.1562H59.1166C59.1166 14.821 59.0484 14.5241 58.912 14.2656C58.7757 14.0043 58.5839 13.7983 58.3368 13.6477C58.0924 13.4972 57.8055 13.4219 57.476 13.4219C57.118 13.4219 56.8055 13.5099 56.5385 13.6861C56.2743 13.8594 56.0697 14.0866 55.9248 14.3679C55.7828 14.6463 55.7118 14.9489 55.7118 15.2756V16.0213C55.7118 16.4588 55.7885 16.831 55.9419 17.1378C56.0981 17.4446 56.3155 17.679 56.5939 17.8409C56.8723 18 57.1976 18.0795 57.5697 18.0795C57.8112 18.0795 58.0314 18.0455 58.2302 17.9773C58.4291 17.9062 58.601 17.8011 58.7459 17.6619C58.8907 17.5227 59.0015 17.3509 59.0782 17.1463L60.2842 17.3636C60.1876 17.7187 60.0143 18.0298 59.7643 18.2969C59.5172 18.5611 59.2061 18.767 58.8311 18.9148C58.4589 19.0597 58.0342 19.1321 57.5569 19.1321ZM66.5637 14.0526L65.4089 14.2571C65.3606 14.1094 65.2839 13.9687 65.1788 13.8352C65.0765 13.7017 64.9373 13.5923 64.7612 13.5071C64.585 13.4219 64.3648 13.3793 64.1006 13.3793C63.7398 13.3793 63.4387 13.4602 63.1972 13.6222C62.9558 13.7812 62.835 13.9872 62.835 14.2401C62.835 14.4588 62.916 14.6349 63.0779 14.7685C63.2398 14.902 63.5012 15.0114 63.862 15.0966L64.9018 15.3352C65.504 15.4744 65.9529 15.6889 66.2484 15.9787C66.5438 16.2685 66.6915 16.6449 66.6915 17.108C66.6915 17.5 66.5779 17.8494 66.3506 18.1562C66.1262 18.4602 65.8123 18.6989 65.4089 18.8722C65.0083 19.0455 64.5438 19.1321 64.0154 19.1321C63.2825 19.1321 62.6844 18.9759 62.2214 18.6634C61.7583 18.348 61.4742 17.9006 61.3691 17.321L62.6006 17.1335C62.6773 17.4545 62.835 17.6974 63.0737 17.8622C63.3123 18.0241 63.6234 18.1051 64.0069 18.1051C64.4245 18.1051 64.7583 18.0185 65.0083 17.8452C65.2583 17.669 65.3833 17.4545 65.3833 17.2017C65.3833 16.9972 65.3066 16.8253 65.1532 16.6861C65.0026 16.5469 64.7711 16.4418 64.4586 16.3707L63.3506 16.1278C62.7398 15.9886 62.2881 15.767 61.9955 15.4631C61.7058 15.1591 61.5609 14.7741 61.5609 14.3082C61.5609 13.9219 61.6688 13.5838 61.8847 13.294C62.1006 13.0043 62.3989 12.7784 62.7796 12.6165C63.1603 12.4517 63.5964 12.3693 64.0879 12.3693C64.7952 12.3693 65.3521 12.5227 65.7583 12.8295C66.1646 13.1335 66.433 13.5412 66.5637 14.0526ZM74.3223 10.2727V19H73.0013V11.5938H72.9501L70.8621 12.9574V11.696L73.0396 10.2727H74.3223Z" fill="white"/>
<path d="M347.719 12.5653C347.673 12.1619 347.486 11.8494 347.156 11.6278C346.827 11.4034 346.412 11.2912 345.912 11.2912C345.554 11.2912 345.244 11.348 344.983 11.4616C344.722 11.5724 344.518 11.7259 344.374 11.9219C344.232 12.1151 344.161 12.3352 344.161 12.5824C344.161 12.7898 344.209 12.9687 344.305 13.1193C344.405 13.2699 344.534 13.3963 344.693 13.4986C344.855 13.598 345.028 13.6818 345.213 13.75C345.398 13.8153 345.575 13.8693 345.746 13.9119L346.598 14.1335C346.876 14.2017 347.162 14.294 347.455 14.4105C347.747 14.527 348.018 14.6804 348.268 14.8707C348.518 15.0611 348.72 15.2969 348.874 15.5781C349.03 15.8594 349.108 16.196 349.108 16.5881C349.108 17.0824 348.98 17.5213 348.724 17.9048C348.472 18.2884 348.104 18.5909 347.621 18.8125C347.141 19.0341 346.56 19.1449 345.878 19.1449C345.224 19.1449 344.659 19.0412 344.182 18.8338C343.705 18.6264 343.331 18.3324 343.061 17.9517C342.791 17.5682 342.642 17.1136 342.614 16.5881H343.935C343.96 16.9034 344.063 17.1662 344.241 17.3764C344.423 17.5838 344.655 17.7386 344.936 17.8409C345.22 17.9403 345.531 17.9901 345.869 17.9901C346.241 17.9901 346.572 17.9318 346.862 17.8153C347.155 17.696 347.385 17.5312 347.553 17.321C347.72 17.108 347.804 16.8594 347.804 16.5753C347.804 16.3168 347.73 16.1051 347.582 15.9403C347.438 15.7756 347.24 15.6392 346.99 15.5312C346.743 15.4233 346.463 15.3281 346.151 15.2457L345.119 14.9645C344.42 14.7741 343.866 14.4943 343.457 14.125C343.051 13.7557 342.848 13.267 342.848 12.6591C342.848 12.1562 342.984 11.7173 343.257 11.3423C343.53 10.9673 343.899 10.6761 344.365 10.4688C344.831 10.2585 345.357 10.1534 345.942 10.1534C346.533 10.1534 347.054 10.2571 347.506 10.4645C347.96 10.6719 348.318 10.9574 348.58 11.321C348.841 11.6818 348.977 12.0966 348.989 12.5653H347.719ZM353.28 19.1321C352.635 19.1321 352.08 18.9943 351.614 18.7188C351.151 18.4403 350.793 18.0497 350.54 17.5469C350.29 17.0412 350.165 16.4489 350.165 15.7699C350.165 15.0994 350.29 14.5085 350.54 13.9972C350.793 13.4858 351.145 13.0866 351.597 12.7997C352.052 12.5128 352.583 12.3693 353.191 12.3693C353.56 12.3693 353.918 12.4304 354.265 12.5526C354.611 12.6747 354.922 12.8665 355.198 13.1278C355.473 13.3892 355.691 13.7287 355.85 14.1463C356.009 14.5611 356.088 15.0653 356.088 15.6591V16.1108H350.885V15.1562H354.84C354.84 14.821 354.772 14.5241 354.635 14.2656C354.499 14.0043 354.307 13.7983 354.06 13.6477C353.816 13.4972 353.529 13.4219 353.199 13.4219C352.841 13.4219 352.529 13.5099 352.262 13.6861C351.998 13.8594 351.793 14.0866 351.648 14.3679C351.506 14.6463 351.435 14.9489 351.435 15.2756V16.0213C351.435 16.4588 351.512 16.831 351.665 17.1378C351.821 17.4446 352.039 17.679 352.317 17.8409C352.596 18 352.921 18.0795 353.293 18.0795C353.534 18.0795 353.755 18.0455 353.954 17.9773C354.152 17.9062 354.324 17.8011 354.469 17.6619C354.614 17.5227 354.725 17.3509 354.802 17.1463L356.007 17.3636C355.911 17.7187 355.738 18.0298 355.488 18.2969C355.24 18.5611 354.929 18.767 354.554 18.9148C354.182 19.0597 353.757 19.1321 353.28 19.1321ZM357.382 19V12.4545H358.614V13.4943H358.682C358.801 13.142 359.011 12.8651 359.313 12.6634C359.617 12.4588 359.96 12.3565 360.344 12.3565C360.423 12.3565 360.517 12.3594 360.625 12.3651C360.736 12.3707 360.823 12.3778 360.885 12.3864V13.6051C360.834 13.5909 360.743 13.5753 360.612 13.5582C360.482 13.5384 360.351 13.5284 360.22 13.5284C359.919 13.5284 359.651 13.5923 359.415 13.7202C359.182 13.8452 358.997 14.0199 358.861 14.2443C358.724 14.4659 358.656 14.7187 358.656 15.0028V19H357.382ZM361.868 19V12.4545H363.142V19H361.868ZM362.511 11.4446C362.29 11.4446 362.099 11.3707 361.94 11.223C361.784 11.0724 361.706 10.8935 361.706 10.6861C361.706 10.4759 361.784 10.2969 361.94 10.1491C362.099 9.99858 362.29 9.9233 362.511 9.9233C362.733 9.9233 362.922 9.99858 363.078 10.1491C363.237 10.2969 363.316 10.4759 363.316 10.6861C363.316 10.8935 363.237 11.0724 363.078 11.223C362.922 11.3707 362.733 11.4446 362.511 11.4446ZM367.557 19.1321C366.912 19.1321 366.357 18.9943 365.891 18.7188C365.428 18.4403 365.07 18.0497 364.817 17.5469C364.567 17.0412 364.442 16.4489 364.442 15.7699C364.442 15.0994 364.567 14.5085 364.817 13.9972C365.07 13.4858 365.422 13.0866 365.874 12.7997C366.328 12.5128 366.859 12.3693 367.467 12.3693C367.837 12.3693 368.195 12.4304 368.541 12.5526C368.888 12.6747 369.199 12.8665 369.475 13.1278C369.75 13.3892 369.967 13.7287 370.127 14.1463C370.286 14.5611 370.365 15.0653 370.365 15.6591V16.1108H365.162V15.1562H369.117C369.117 14.821 369.048 14.5241 368.912 14.2656C368.776 14.0043 368.584 13.7983 368.337 13.6477C368.092 13.4972 367.806 13.4219 367.476 13.4219C367.118 13.4219 366.806 13.5099 366.538 13.6861C366.274 13.8594 366.07 14.0866 365.925 14.3679C365.783 14.6463 365.712 14.9489 365.712 15.2756V16.0213C365.712 16.4588 365.788 16.831 365.942 17.1378C366.098 17.4446 366.315 17.679 366.594 17.8409C366.872 18 367.198 18.0795 367.57 18.0795C367.811 18.0795 368.031 18.0455 368.23 17.9773C368.429 17.9062 368.601 17.8011 368.746 17.6619C368.891 17.5227 369.002 17.3509 369.078 17.1463L370.284 17.3636C370.188 17.7187 370.014 18.0298 369.764 18.2969C369.517 18.5611 369.206 18.767 368.831 18.9148C368.459 19.0597 368.034 19.1321 367.557 19.1321ZM376.564 14.0526L375.409 14.2571C375.361 14.1094 375.284 13.9687 375.179 13.8352C375.076 13.7017 374.937 13.5923 374.761 13.5071C374.585 13.4219 374.365 13.3793 374.101 13.3793C373.74 13.3793 373.439 13.4602 373.197 13.6222C372.956 13.7812 372.835 13.9872 372.835 14.2401C372.835 14.4588 372.916 14.6349 373.078 14.7685C373.24 14.902 373.501 15.0114 373.862 15.0966L374.902 15.3352C375.504 15.4744 375.953 15.6889 376.248 15.9787C376.544 16.2685 376.692 16.6449 376.692 17.108C376.692 17.5 376.578 17.8494 376.351 18.1562C376.126 18.4602 375.812 18.6989 375.409 18.8722C375.008 19.0455 374.544 19.1321 374.015 19.1321C373.282 19.1321 372.684 18.9759 372.221 18.6634C371.758 18.348 371.474 17.9006 371.369 17.321L372.601 17.1335C372.677 17.4545 372.835 17.6974 373.074 17.8622C373.312 18.0241 373.623 18.1051 374.007 18.1051C374.425 18.1051 374.758 18.0185 375.008 17.8452C375.258 17.669 375.383 17.4545 375.383 17.2017C375.383 16.9972 375.307 16.8253 375.153 16.6861C375.003 16.5469 374.771 16.4418 374.459 16.3707L373.351 16.1278C372.74 15.9886 372.288 15.767 371.996 15.4631C371.706 15.1591 371.561 14.7741 371.561 14.3082C371.561 13.9219 371.669 13.5838 371.885 13.294C372.101 13.0043 372.399 12.7784 372.78 12.6165C373.16 12.4517 373.596 12.3693 374.088 12.3693C374.795 12.3693 375.352 12.5227 375.758 12.8295C376.165 13.1335 376.433 13.5412 376.564 14.0526ZM381.011 19V18.0455L383.964 14.9858C384.28 14.6534 384.54 14.3622 384.744 14.1122C384.952 13.8594 385.106 13.6193 385.209 13.392C385.311 13.1648 385.362 12.9233 385.362 12.6676C385.362 12.3778 385.294 12.1278 385.158 11.9176C385.021 11.7045 384.835 11.5412 384.599 11.4276C384.363 11.3111 384.098 11.2528 383.802 11.2528C383.49 11.2528 383.217 11.3168 382.984 11.4446C382.751 11.5724 382.572 11.7528 382.447 11.9858C382.322 12.2187 382.26 12.4915 382.26 12.804H381.003C381.003 12.2727 381.125 11.8082 381.369 11.4105C381.613 11.0128 381.949 10.7045 382.375 10.4858C382.801 10.2642 383.285 10.1534 383.828 10.1534C384.376 10.1534 384.859 10.2628 385.277 10.4815C385.697 10.6974 386.025 10.9929 386.261 11.3679C386.497 11.7401 386.615 12.1605 386.615 12.6293C386.615 12.9531 386.554 13.2699 386.432 13.5795C386.312 13.8892 386.104 14.2344 385.805 14.6151C385.507 14.9929 385.092 15.4517 384.561 15.9915L382.827 17.8068V17.8707H386.756V19H381.011Z" fill="white"/>
<path d="M11.696 141H10.2983L13.4389 132.273H14.9602L18.1009 141H16.7031L14.2358 133.858H14.1676L11.696 141ZM11.9304 137.582H16.4645V138.69H11.9304V137.582ZM29.5455 135.111H28.216C28.1648 134.827 28.0697 134.577 27.9305 134.361C27.7913 134.145 27.6208 133.962 27.4191 133.811C27.2174 133.661 26.9915 133.547 26.7415 133.47C26.4944 133.393 26.2316 133.355 25.9532 133.355C25.4503 133.355 25.0001 133.482 24.6023 133.734C24.2074 133.987 23.8949 134.358 23.6648 134.847C23.4376 135.335 23.3239 135.932 23.3239 136.636C23.3239 137.347 23.4376 137.946 23.6648 138.435C23.8949 138.923 24.2089 139.293 24.6066 139.543C25.0043 139.793 25.4518 139.918 25.9489 139.918C26.2245 139.918 26.4859 139.881 26.733 139.807C26.983 139.73 27.2089 139.618 27.4106 139.47C27.6123 139.322 27.7827 139.142 27.9219 138.929C28.064 138.713 28.162 138.466 28.216 138.188L29.5455 138.192C29.4745 138.621 29.3367 139.016 29.1322 139.376C28.9305 139.734 28.6705 140.044 28.3523 140.305C28.037 140.564 27.6762 140.764 27.2699 140.906C26.8637 141.048 26.4205 141.119 25.9404 141.119C25.1847 141.119 24.5114 140.94 23.9205 140.582C23.3296 140.222 22.8637 139.706 22.5228 139.036C22.1847 138.365 22.0157 137.565 22.0157 136.636C22.0157 135.705 22.1861 134.905 22.527 134.237C22.868 133.567 23.3339 133.053 23.9248 132.695C24.5157 132.334 25.1876 132.153 25.9404 132.153C26.4035 132.153 26.8353 132.22 27.2359 132.354C27.6393 132.484 28.0015 132.678 28.3225 132.933C28.6435 133.186 28.9091 133.496 29.1194 133.862C29.3296 134.226 29.4716 134.642 29.5455 135.111ZM32.173 137.114V141H30.8989V132.273H32.156V135.52H32.2369C32.3904 135.168 32.6247 134.888 32.9401 134.68C33.2554 134.473 33.6673 134.369 34.1759 134.369C34.6247 134.369 35.0168 134.462 35.352 134.646C35.6901 134.831 35.9514 135.107 36.1361 135.473C36.3236 135.837 36.4173 136.291 36.4173 136.837V141H35.1432V136.99C35.1432 136.51 35.0196 136.138 34.7725 135.874C34.5253 135.607 34.1815 135.473 33.7412 135.473C33.4401 135.473 33.1702 135.537 32.9315 135.665C32.6958 135.793 32.5097 135.98 32.3733 136.227C32.2398 136.472 32.173 136.767 32.173 137.114ZM39.9025 141.145C39.4877 141.145 39.1127 141.068 38.7775 140.915C38.4422 140.759 38.1766 140.533 37.9806 140.237C37.7874 139.942 37.6908 139.58 37.6908 139.151C37.6908 138.781 37.7618 138.477 37.9039 138.239C38.0459 138 38.2377 137.811 38.4792 137.672C38.7206 137.533 38.9905 137.428 39.2888 137.357C39.5871 137.286 39.8911 137.232 40.2008 137.195C40.5928 137.149 40.911 137.112 41.1553 137.084C41.3996 137.053 41.5772 137.003 41.688 136.935C41.7988 136.866 41.8542 136.756 41.8542 136.602V136.572C41.8542 136.2 41.749 135.912 41.5388 135.707C41.3314 135.503 41.0218 135.401 40.6098 135.401C40.1809 135.401 39.8428 135.496 39.5956 135.686C39.3513 135.874 39.1823 136.082 39.0885 136.312L37.8911 136.04C38.0331 135.642 38.2405 135.321 38.5133 135.077C38.7888 134.83 39.1056 134.651 39.4635 134.54C39.8215 134.426 40.1979 134.369 40.5928 134.369C40.8542 134.369 41.1312 134.401 41.4238 134.463C41.7192 134.523 41.9948 134.634 42.2505 134.795C42.509 134.957 42.7206 135.189 42.8854 135.49C43.0502 135.788 43.1326 136.176 43.1326 136.653V141H41.8883V140.105H41.8371C41.7547 140.27 41.6312 140.432 41.4664 140.591C41.3016 140.75 41.09 140.882 40.8314 140.987C40.5729 141.092 40.2633 141.145 39.9025 141.145ZM40.1794 140.122C40.5317 140.122 40.8329 140.053 41.0829 139.913C41.3357 139.774 41.5275 139.592 41.6581 139.368C41.7917 139.141 41.8584 138.898 41.8584 138.639V137.795C41.813 137.841 41.7249 137.884 41.5942 137.923C41.4664 137.96 41.3201 137.993 41.1553 138.021C40.9905 138.047 40.83 138.071 40.6738 138.094C40.5175 138.114 40.3868 138.131 40.2817 138.145C40.0346 138.176 39.8087 138.229 39.6042 138.303C39.4025 138.376 39.2405 138.483 39.1184 138.622C38.999 138.759 38.9394 138.94 38.9394 139.168C38.9394 139.483 39.0559 139.722 39.2888 139.884C39.5218 140.043 39.8187 140.122 40.1794 140.122ZM45.9838 137.114V141H44.7097V134.455H45.9327V135.52H46.0136C46.1642 135.173 46.4 134.895 46.721 134.685C47.0449 134.474 47.4526 134.369 47.944 134.369C48.3901 134.369 48.7807 134.463 49.1159 134.651C49.4511 134.835 49.7111 135.111 49.8957 135.477C50.0804 135.844 50.1727 136.297 50.1727 136.837V141H48.8986V136.99C48.8986 136.516 48.775 136.145 48.5278 135.878C48.2807 135.608 47.9412 135.473 47.5094 135.473C47.2139 135.473 46.9511 135.537 46.721 135.665C46.4938 135.793 46.3134 135.98 46.1798 136.227C46.0491 136.472 45.9838 136.767 45.9838 137.114ZM53.0357 137.114V141H51.7615V134.455H52.9845V135.52H53.0655C53.2161 135.173 53.4519 134.895 53.7729 134.685C54.0968 134.474 54.5044 134.369 54.9959 134.369C55.4419 134.369 55.8326 134.463 56.1678 134.651C56.503 134.835 56.763 135.111 56.9476 135.477C57.1323 135.844 57.2246 136.297 57.2246 136.837V141H55.9505V136.99C55.9505 136.516 55.8269 136.145 55.5797 135.878C55.3326 135.608 54.9931 135.473 54.5612 135.473C54.2658 135.473 54.003 135.537 53.7729 135.665C53.5456 135.793 53.3652 135.98 53.2317 136.227C53.101 136.472 53.0357 136.767 53.0357 137.114ZM61.6344 141.132C60.9895 141.132 60.4341 140.994 59.9682 140.719C59.5052 140.44 59.1472 140.05 58.8944 139.547C58.6444 139.041 58.5194 138.449 58.5194 137.77C58.5194 137.099 58.6444 136.509 58.8944 135.997C59.1472 135.486 59.4995 135.087 59.9512 134.8C60.4057 134.513 60.937 134.369 61.5449 134.369C61.9143 134.369 62.2722 134.43 62.6188 134.553C62.9654 134.675 63.2765 134.866 63.552 135.128C63.8276 135.389 64.0449 135.729 64.204 136.146C64.3631 136.561 64.4427 137.065 64.4427 137.659V138.111H59.2395V137.156H63.1941C63.1941 136.821 63.1259 136.524 62.9895 136.266C62.8532 136.004 62.6614 135.798 62.4143 135.648C62.1699 135.497 61.883 135.422 61.5535 135.422C61.1955 135.422 60.883 135.51 60.616 135.686C60.3518 135.859 60.1472 136.087 60.0023 136.368C59.8603 136.646 59.7893 136.949 59.7893 137.276V138.021C59.7893 138.459 59.866 138.831 60.0194 139.138C60.1756 139.445 60.393 139.679 60.6714 139.841C60.9498 140 61.2751 140.08 61.6472 140.08C61.8887 140.08 62.1089 140.045 62.3077 139.977C62.5066 139.906 62.6785 139.801 62.8234 139.662C62.9682 139.523 63.079 139.351 63.1557 139.146L64.3617 139.364C64.2651 139.719 64.0918 140.03 63.8418 140.297C63.5947 140.561 63.2836 140.767 62.9086 140.915C62.5364 141.06 62.1117 141.132 61.6344 141.132ZM67.0105 132.273V141H65.7364V132.273H67.0105Z" fill="white"/>
</svg>
