<svg viewBox="0 0 200 190" fill="none" xmlns="http://www.w3.org/2000/svg">
<path opacity="0.85" d="M52.6212 169.167C50.0204 169.168 47.4651 168.485 45.2124 167.185C42.9598 165.885 41.0891 164.015 39.7886 161.763C38.4881 159.51 37.8037 156.955 37.8041 154.355C37.8046 151.754 38.4899 149.199 39.7912 146.947L94.2312 52.6771C99.9312 42.7971 114.231 42.7971 120.131 53.0971L171.901 142.767C172.498 143.798 173.353 144.656 174.381 145.257L189.801 154.157C191.094 154.905 192.599 155.205 194.08 155.01C195.561 154.816 196.937 154.137 197.993 153.08C199.049 152.023 199.726 150.647 199.919 149.165C200.112 147.684 199.811 146.18 199.061 144.887L119.881 7.75713C118.583 5.50358 116.714 3.6318 114.463 2.33031C112.211 1.02882 109.657 0.343567 107.056 0.343567C104.456 0.343567 101.901 1.02882 99.6494 2.33031C97.3979 3.6318 95.5291 5.50358 94.2312 7.75713L2.01116 167.467C0.70989 169.719 0.0245602 172.274 0.0241091 174.875C0.023658 177.475 0.708102 180.03 2.00859 182.283C3.30908 184.535 5.17976 186.405 7.43244 187.705C9.68512 189.005 12.2404 189.688 14.8412 189.687H170.401C171.892 189.682 173.34 189.187 174.521 188.277C175.703 187.367 176.552 186.094 176.937 184.653C177.323 183.213 177.224 181.686 176.655 180.308C176.087 178.929 175.08 177.777 173.791 177.027L161.741 170.027C160.71 169.434 159.541 169.12 158.351 169.117L52.6212 169.167Z" fill="url(#paint0_linear_2_213)"/>
<defs>
<linearGradient id="paint0_linear_2_213" x1="-2.61884" y1="57.1971" x2="167.201" y2="158.227" gradientUnits="userSpaceOnUse">
<stop stop-color="#10007F"/>
<stop offset="1" stop-color="#0084E9"/>
</linearGradient>
</defs>
</svg>
