<svg viewBox="0 0 200 191" fill="none" xmlns="http://www.w3.org/2000/svg">
<path opacity="0.85" d="M52.6212 169.511C50.0204 169.512 47.4651 168.828 45.2124 167.528C42.9598 166.229 41.0891 164.359 39.7886 162.106C38.4881 159.854 37.8037 157.299 37.8041 154.698C37.8046 152.097 38.4899 149.543 39.7912 147.291L94.2312 53.0207C99.9312 43.1407 114.231 43.1407 120.131 53.4407L171.901 143.111C172.498 144.141 173.353 144.999 174.381 145.601L189.801 154.501C191.094 155.249 192.599 155.549 194.08 155.354C195.561 155.159 196.937 154.48 197.993 153.423C199.049 152.366 199.726 150.99 199.919 149.509C200.112 148.027 199.811 146.523 199.061 145.231L119.881 8.1007C118.583 5.84714 116.714 3.97537 114.463 2.67388C112.211 1.37238 109.657 0.687134 107.056 0.687134C104.456 0.687134 101.901 1.37238 99.6494 2.67388C97.3979 3.97537 95.5291 5.84714 94.2312 8.1007L2.01116 167.811C0.70989 170.063 0.0245602 172.617 0.0241091 175.218C0.023658 177.819 0.708102 180.374 2.00859 182.626C3.30908 184.879 5.17976 186.749 7.43244 188.048C9.68512 189.348 12.2404 190.032 14.8412 190.031H170.401C171.892 190.026 173.34 189.53 174.521 188.62C175.703 187.711 176.552 186.437 176.937 184.997C177.323 183.557 177.224 182.03 176.655 180.651C176.087 179.273 175.08 178.12 173.791 177.371L161.741 170.371C160.71 169.777 159.541 169.464 158.351 169.461L52.6212 169.511Z" fill="#212429"/>
</svg>
