<?xml version="1.0" encoding="utf-8"?>
<!-- Copyright 2023 Synnax Labs, Inc. -->
<!-- -->
<!-- Use of this software is governed by the Business Source License included in the file -->
<!-- licenses/BSL.txt. -->
<!-- -->
<!-- As of the Change Date specified in that file, in accordance with the Business Source -->
<!-- License, use of this software will be governed by the Apache License, Version 2.0, -->
<!-- included in the file licenses/APL.txt. -->

<!-- Generator: Adobe Illustrator 24.1.0, SVG Export Plug-In . SVG Version: 6.00 Build 0)  -->
<svg version="1.1" id="Layer_1" xmlns="http://www.w3.org/2000/svg" xmlns:xlink="http://www.w3.org/1999/xlink" x="0px" y="0px"
	 viewBox="0 0 1200 231.7" style="enable-background:new 0 0 1200 231.7;" xml:space="preserve">
<style type="text/css">
	.st0{opacity:0.85;fill:url(#SVGID_1_);enable-background:new    ;}
	.st1{fill:#212429;}
	.st2{font-family:'Roboto-Regular';}
	.st3{font-size:252px;}
</style>
<g id="Layer_2_1_">
	<g id="Layer_1-2">

			<linearGradient id="SVGID_1_" gradientUnits="userSpaceOnUse" x1="100.6837" y1="136.0478" x2="270.5037" y2="35.0078" gradientTransform="matrix(1 0 0 -1 0 209.89)">
			<stop  offset="0" style="stop-color:#10007F"/>
			<stop  offset="1" style="stop-color:#0084E9"/>
		</linearGradient>
		<path class="st0" d="M155.9,185.8c-8.2,0-14.8-6.6-14.8-14.8c0-2.6,0.7-5.2,2-7.4l54.4-94.3c5.7-9.9,20-9.9,25.9,0.4l51.8,89.7
			c0.6,1,1.5,1.9,2.5,2.5l15.4,8.9c3.2,1.9,7.4,0.8,9.3-2.5c1.2-2.1,1.2-4.7,0-6.8L223.2,24.4c-4.1-7.1-13.1-9.5-20.2-5.4
			c-2.3,1.3-4.1,3.2-5.4,5.4l-92.2,159.7c-4.1,7.1-1.7,16.1,5.4,20.2c2.3,1.3,4.8,2,7.4,2h155.6c3.7,0,6.8-3,6.8-6.8
			c0-2.4-1.3-4.7-3.4-5.9l-12.1-6.9c-1-0.6-2.2-0.9-3.4-0.9L155.9,185.8z"/>
		<text transform="matrix(1 0 0 1 312.315 207)" class="st1 st2 st3">Synnax</text>
	</g>
</g>
</svg>
