<svg viewBox="0 0 1550 233" fill="none" xmlns="http://www.w3.org/2000/svg">
<path d="M53.0167 169.389C50.4159 169.39 47.8606 168.707 45.6079 167.407C43.3553 166.107 41.4846 164.237 40.1841 161.985C38.8836 159.732 38.1992 157.177 38.1996 154.576C38.2001 151.976 38.8854 149.421 40.1867 147.169L94.6267 52.899C100.327 43.019 114.627 43.019 120.527 53.319L172.297 142.989C172.892 144.019 173.747 144.874 174.777 145.469L190.197 154.379C191.49 155.127 192.994 155.427 194.475 155.232C195.957 155.037 197.332 154.359 198.388 153.302C199.444 152.245 200.121 150.868 200.314 149.387C200.508 147.905 200.206 146.401 199.457 145.109L120.277 7.979C118.979 5.72544 117.11 3.85366 114.858 2.55217C112.607 1.25068 110.052 0.56543 107.452 0.56543C104.851 0.56543 102.296 1.25068 100.045 2.55217C97.7934 3.85366 95.9246 5.72544 94.6267 7.979L2.40667 167.679C1.1054 169.931 0.420068 172.486 0.419617 175.086C0.419166 177.687 1.10361 180.242 2.4041 182.495C3.70459 184.747 5.57526 186.617 7.82795 187.917C10.0806 189.217 12.6359 189.9 15.2367 189.899H170.797C172.289 189.898 173.739 189.406 174.922 188.497C176.106 187.589 176.957 186.315 177.343 184.874C177.729 183.433 177.629 181.905 177.058 180.526C176.488 179.147 175.478 177.996 174.187 177.249L162.137 170.299C161.105 169.706 159.937 169.392 158.747 169.389H53.0167Z" fill="#212429"/>
<path d="M226.597 62.5789H247.837V84.0589H248.327C250.115 77.2511 253.956 71.1587 259.327 66.6089C264.533 62.2953 271.117 59.9987 277.877 60.1389C279.571 60.1282 281.265 60.2284 282.947 60.4389C284.447 60.6489 285.607 60.8289 286.427 60.9889V81.6189C285.017 81.172 283.561 80.8869 282.087 80.7689C279.763 80.5071 277.425 80.3836 275.087 80.3989C270.062 80.2886 265.104 81.5542 260.747 84.0589C256.595 86.5558 253.281 90.2319 251.227 94.6189C248.864 99.805 247.715 105.462 247.867 111.159V189.529H226.597V62.5789Z" fill="#212429"/>
<path d="M310.917 231.949C308.837 231.749 307.107 231.529 305.727 231.279V213.949C306.627 214.109 307.657 214.269 308.837 214.439C310.073 214.603 311.319 214.683 312.567 214.679C319.32 214.679 324.71 213.499 328.737 211.139C332.763 208.779 336.04 204.019 338.567 196.859L341.127 189.659L294.007 62.5791H316.717L353.337 173.179L348.817 168.289H355.167L350.647 173.179L387.407 62.5791H409.747L360.177 197.459C357.701 204.475 354.29 211.125 350.037 217.229C346.576 222.121 341.908 226.035 336.487 228.589C331.2 231.029 324.73 232.249 317.077 232.249C315.02 232.253 312.964 232.153 310.917 231.949Z" fill="#212429"/>
<path d="M440.277 187.209C434.14 184.248 428.98 179.591 425.407 173.789C421.784 167.706 419.944 160.727 420.097 153.649V153.399C420.097 142.579 424.127 133.932 432.187 127.459C440.247 120.986 451.557 117.346 466.117 116.539L513.117 113.849V130.329L468.557 133.019C460.097 133.499 453.527 135.532 448.847 139.119C446.61 140.754 444.804 142.907 443.584 145.395C442.365 147.883 441.769 150.63 441.847 153.399V153.649C441.747 156.445 442.322 159.225 443.523 161.752C444.724 164.279 446.515 166.48 448.747 168.169C453.333 171.749 459.457 173.539 467.117 173.539C473.372 173.639 479.555 172.193 485.117 169.329C490.287 166.664 494.666 162.688 497.817 157.799C500.957 152.882 502.591 147.153 502.517 141.319V103.839C502.517 96.1123 500.097 90.029 495.257 85.589C490.417 81.149 483.56 78.9323 474.687 78.939C466.547 78.939 459.973 80.709 454.967 84.249C450.173 87.4781 446.824 92.4448 445.627 98.099L445.387 99.199H424.897L425.017 97.859C425.63 90.9954 428.098 84.4278 432.157 78.859C436.549 72.927 442.407 68.2373 449.157 65.249C456.41 61.869 464.997 60.179 474.917 60.179C484.837 60.179 493.483 61.889 500.857 65.309C507.766 68.4038 513.637 73.4241 517.767 79.769C521.767 86.0023 523.767 93.3356 523.767 101.769V189.529H502.537V168.899H502.047C499.604 173.541 496.286 177.667 492.277 181.049C483.947 188.146 473.35 192.024 462.407 191.979C454.758 192.149 447.176 190.514 440.277 187.209Z" fill="#212429"/>
<path d="M659.337 13.3889H675.567V39.7489H669.957L616.857 189.529H593.777L659.337 13.3889ZM631.137 120.389H709.257L716.587 139.069H623.807L631.137 120.389ZM670.407 39.7489V13.3889H681.027L746.457 189.529H723.407L670.407 39.7489Z" fill="#212429"/>
<path d="M764.587 62.5789H785.827V80.6489H786.317C789.911 74.5299 795.044 69.4585 801.207 65.9389C807.713 62.0656 815.77 60.1323 825.377 60.1389C839.297 60.1389 850.1 64.3489 857.787 72.7689C865.473 81.1889 869.32 92.6456 869.327 107.139V189.529H848.087V110.919C848.087 100.586 845.663 92.6723 840.817 87.1789C835.97 81.6856 828.667 78.9389 818.907 78.9389C812.775 78.7869 806.721 80.3265 801.407 83.3889C796.439 86.3665 792.436 90.7136 789.877 95.9089C787.031 101.802 785.629 108.287 785.787 114.829V189.529H764.587V62.5789Z" fill="#212429"/>
<path d="M912.567 187.209C906.443 184.244 901.296 179.587 897.737 173.789C894.107 167.708 892.26 160.729 892.407 153.649V153.399C892.407 142.579 896.433 133.932 904.487 127.459C912.54 120.986 923.847 117.346 938.407 116.539L985.407 113.849V130.329L940.857 133.019C932.383 133.499 925.81 135.532 921.137 139.119C918.9 140.754 917.094 142.907 915.874 145.395C914.655 147.883 914.059 150.63 914.137 153.399V153.649C914.037 156.445 914.612 159.225 915.813 161.752C917.014 164.279 918.805 166.48 921.037 168.169C925.637 171.749 931.76 173.539 939.407 173.539C945.662 173.639 951.845 172.193 957.407 169.329C962.576 166.667 966.953 162.69 970.097 157.799C973.241 152.884 974.876 147.154 974.797 141.319V103.839C974.797 96.1123 972.377 90.029 967.537 85.589C962.697 81.149 955.84 78.9323 946.967 78.939C938.827 78.939 932.257 80.709 927.257 84.249C922.46 87.475 919.11 92.4432 917.917 98.099L917.677 99.199H897.187L897.307 97.859C897.92 90.9954 900.388 84.4278 904.447 78.859C908.839 72.927 914.697 68.2373 921.447 65.249C928.687 61.869 937.273 60.179 947.207 60.179C957.14 60.179 965.787 61.889 973.147 65.309C980.053 68.4039 985.921 73.4244 990.047 79.769C994.047 86.0023 996.047 93.3356 996.047 101.769V189.529H974.817V168.899H974.337C971.89 173.539 968.573 177.664 964.567 181.049C956.226 188.155 945.613 192.033 934.657 191.979C927.021 192.143 919.454 190.509 912.567 187.209Z" fill="#212429"/>
<path d="M1025.41 13.3889H1046.65V189.529H1025.41V13.3889Z" fill="#212429"/>
<path d="M1082.61 231.949C1080.53 231.749 1078.8 231.529 1077.42 231.279V213.949C1078.32 214.109 1079.35 214.269 1080.53 214.439C1081.76 214.603 1083.01 214.683 1084.26 214.679C1091.01 214.679 1096.4 213.499 1100.43 211.139C1104.45 208.779 1107.73 204.019 1110.26 196.859L1112.82 189.659L1065.7 62.5791H1088.41L1125.03 173.179L1120.51 168.289H1126.86L1122.34 173.179L1159.09 62.5791H1181.41L1131.86 197.459C1129.39 204.476 1125.98 211.127 1121.73 217.229C1118.27 222.121 1113.6 226.035 1108.18 228.589C1102.89 231.029 1096.42 232.249 1088.77 232.249C1086.71 232.253 1084.65 232.153 1082.61 231.949Z" fill="#212429"/>
<path d="M1214.54 183.669C1208.76 178.142 1205.87 169.316 1205.87 157.189V80.1891H1187.31V62.5791H1205.87V28.2791H1227.87V62.5791H1252.04V80.159H1227.87V157.059C1227.87 163.819 1229.33 168.399 1232.27 170.799C1235.2 173.199 1239.51 174.399 1245.21 174.399C1246.45 174.404 1247.69 174.34 1248.93 174.209L1252.04 173.909V191.119C1250.74 191.279 1249.04 191.469 1246.98 191.669C1244.92 191.869 1242.8 191.979 1240.69 191.979C1229.03 191.979 1220.31 189.209 1214.54 183.669Z" fill="#212429"/>
<path d="M1278.53 37.189C1277.29 35.9511 1276.3 34.4811 1275.63 32.863C1274.96 31.2449 1274.62 29.5106 1274.62 27.759C1274.62 26.0075 1274.96 24.2731 1275.63 22.6551C1276.3 21.037 1277.29 19.567 1278.53 18.329C1280.39 16.4538 1282.76 15.1754 1285.35 14.6573C1287.94 14.1392 1290.63 14.4048 1293.06 15.4202C1295.5 16.4357 1297.58 18.1548 1299.04 20.358C1300.49 22.5612 1301.26 25.1484 1301.24 27.789C1301.26 29.5346 1300.94 31.2674 1300.27 32.883C1299.61 34.4985 1298.63 35.9633 1297.39 37.189C1296.15 38.4281 1294.68 39.4111 1293.06 40.0817C1291.44 40.7524 1289.71 41.0976 1287.96 41.0976C1286.21 41.0976 1284.47 40.7524 1282.85 40.0817C1281.23 39.4111 1279.76 38.4281 1278.53 37.189ZM1277.31 62.579H1298.55V189.579H1277.31V62.579Z" fill="#212429"/>
<path d="M1350.15 183.859C1341.23 178.351 1334.13 170.356 1329.71 160.859C1324.9 150.972 1322.5 139.306 1322.5 125.859V125.729C1322.5 112.396 1324.94 100.799 1329.83 90.9391C1334.33 81.5192 1341.45 73.5963 1350.34 68.1191C1359.12 62.7391 1369.38 60.0524 1381.1 60.0591C1391.68 60.0591 1400.75 62.1124 1408.32 66.2191C1415.5 69.9789 1421.64 75.4503 1426.2 82.1491C1430.42 88.3064 1433.12 95.3763 1434.08 102.779L1434.2 103.779H1413.41L1413.16 102.779C1411.53 96.3012 1407.98 90.4699 1402.97 86.0591C1397.72 81.2591 1390.42 78.8591 1381.06 78.8591C1374.18 78.7206 1367.43 80.7497 1361.77 84.6591C1356.01 88.7959 1351.53 94.4592 1348.83 101.009C1345.73 108.049 1344.19 116.382 1344.19 126.009V126.129C1344.19 135.982 1345.75 144.406 1348.89 151.399C1351.62 157.904 1356.15 163.494 1361.95 167.509C1367.68 171.302 1374.43 173.262 1381.3 173.129C1390.01 173.129 1397.07 170.909 1402.48 166.469C1407.88 162.055 1411.67 155.986 1413.28 149.199L1413.53 148.199H1434.41L1434.29 149.059C1433.21 156.951 1430.17 164.445 1425.44 170.849C1420.61 177.374 1414.29 182.647 1407.01 186.229C1399.01 190.119 1390.2 192.065 1381.31 191.909C1369.37 191.956 1358.99 189.272 1350.15 183.859Z" fill="#212429"/>
<path d="M1474.51 187.209C1467.74 184.464 1461.85 179.919 1457.48 174.067C1453.12 168.214 1450.43 161.278 1449.73 154.009L1449.61 152.909H1470.85L1471.09 154.129C1472.13 160.061 1475.41 165.368 1480.25 168.959C1485.05 172.499 1491.76 174.269 1500.39 174.269C1505.4 174.39 1510.4 173.628 1515.16 172.019C1518.83 170.781 1522.09 168.54 1524.56 165.549C1526.78 162.696 1527.94 159.163 1527.86 155.549V155.459C1527.86 150.899 1526.47 147.232 1523.71 144.459C1520.94 141.686 1515.94 139.406 1508.71 137.619L1488.57 132.739C1476.61 129.892 1467.7 125.599 1461.84 119.859C1455.98 114.119 1453.05 106.692 1453.05 97.5789V97.4589C1452.93 90.5268 1455 83.7338 1458.97 78.0489C1463.15 72.2527 1468.83 67.7065 1475.41 64.8989C1483.05 61.6042 1491.31 59.9813 1499.64 60.1389C1508.92 60.1389 1516.99 61.7856 1523.87 65.0789C1530.36 68.058 1535.96 72.689 1540.1 78.5089C1544.04 84.1387 1546.34 90.7495 1546.76 97.6089L1546.88 99.1989H1526.62L1526.49 98.3489C1525.87 92.5133 1522.96 87.1605 1518.41 83.4589C1513.81 79.7189 1507.56 77.8489 1499.67 77.8489C1495.12 77.7419 1490.6 78.5302 1486.36 80.1689C1482.92 81.478 1479.94 83.7443 1477.76 86.6989C1475.74 89.5723 1474.68 93.0163 1474.76 96.5289V96.6489C1474.72 98.7038 1475.11 100.744 1475.91 102.638C1476.71 104.532 1477.89 106.239 1479.39 107.649C1482.49 110.669 1487.53 113.029 1494.53 114.729L1514.67 119.619C1527.53 122.706 1536.56 126.956 1541.77 132.369C1546.97 137.782 1549.58 145.006 1549.58 154.039V154.159C1549.69 161.241 1547.43 168.158 1543.18 173.819C1538.6 179.743 1532.53 184.352 1525.6 187.179C1517.57 190.511 1508.95 192.155 1500.27 192.009C1490.36 191.989 1481.77 190.389 1474.51 187.209Z" fill="#212429"/>
</svg>
