<svg viewBox="0 0 524 233" fill="none" xmlns="http://www.w3.org/2000/svg">
<path d="M52.9235 169.222C50.3227 169.223 47.7675 168.539 45.5148 167.239C43.2621 165.94 41.3915 164.069 40.091 161.817C38.7905 159.565 38.106 157.01 38.1065 154.409C38.1069 151.808 38.7923 149.253 40.0935 147.002L94.5335 52.7316C100.234 42.8516 114.534 42.8516 120.434 53.1516L172.204 142.822C172.798 143.852 173.654 144.707 174.684 145.302L190.104 154.212C191.397 154.96 192.901 155.26 194.382 155.065C195.864 154.87 197.239 154.191 198.295 153.134C199.351 152.077 200.028 150.701 200.221 149.22C200.415 147.738 200.113 146.234 199.364 144.942L120.184 7.81164C118.886 5.55808 117.017 3.6863 114.765 2.38481C112.514 1.08332 109.959 0.398071 107.359 0.398071C104.758 0.398071 102.203 1.08332 99.9518 2.38481C97.7003 3.6863 95.8314 5.55808 94.5335 7.81164L2.31353 167.512C1.01226 169.763 0.326928 172.318 0.326477 174.919C0.326026 177.52 1.01047 180.075 2.31096 182.327C3.61145 184.579 5.48212 186.45 7.73481 187.749C9.98749 189.049 12.5427 189.733 15.1435 189.732H170.704C172.196 189.731 173.646 189.238 174.829 188.33C176.013 187.421 176.863 186.148 177.25 184.707C177.636 183.266 177.536 181.737 176.965 180.359C176.395 178.98 175.385 177.828 174.094 177.082L162.044 170.132C161.012 169.538 159.843 169.224 158.654 169.222H52.9235Z" fill="#212429"/>
<path d="M226.504 62.4116H247.744V83.8916H248.234C250.022 77.0838 253.863 70.9914 259.234 66.4416C264.44 62.128 271.024 59.8315 277.784 59.9716C279.478 59.961 281.172 60.0612 282.854 60.2716C284.354 60.4816 285.514 60.6616 286.334 60.8216V81.4516C284.924 81.0048 283.468 80.7196 281.994 80.6016C279.67 80.3399 277.332 80.2164 274.994 80.2316C269.969 80.1214 265.01 81.387 260.654 83.8916C256.502 86.3885 253.188 90.0646 251.134 94.4516C248.771 99.6378 247.621 105.295 247.774 110.992V189.362H226.504V62.4116Z" fill="#212429"/>
<path d="M310.824 231.782C308.744 231.582 307.014 231.362 305.634 231.112V213.782C306.534 213.942 307.564 214.102 308.744 214.272C309.98 214.435 311.226 214.516 312.474 214.512C319.227 214.512 324.617 213.332 328.644 210.972C332.67 208.612 335.947 203.852 338.474 196.692L341.034 189.492L293.914 62.4116H316.624L353.244 173.012L348.724 168.122H355.074L350.554 173.012L387.314 62.4116H409.654L360.084 197.292C357.608 204.308 354.197 210.958 349.944 217.062C346.483 221.954 341.815 225.867 336.394 228.422C331.107 230.862 324.637 232.082 316.984 232.082C314.927 232.085 312.871 231.985 310.824 231.782Z" fill="#212429"/>
<path d="M440.184 187.042C434.045 184.083 428.884 179.426 425.314 173.622C421.691 167.539 419.851 160.56 420.004 153.482V153.232C420.004 142.412 424.034 133.765 432.094 127.292C440.154 120.818 451.464 117.178 466.024 116.372L513.024 113.682V130.162L468.464 132.852C460.004 133.332 453.434 135.365 448.754 138.952C446.517 140.586 444.711 142.74 443.491 145.228C442.272 147.715 441.675 150.462 441.754 153.232V153.482C441.654 156.278 442.229 159.057 443.43 161.585C444.631 164.112 446.422 166.313 448.654 168.002C453.24 171.582 459.364 173.372 467.024 173.372C473.279 173.471 479.462 172.025 485.024 169.162C490.194 166.497 494.573 162.521 497.724 157.632C500.864 152.714 502.498 146.986 502.424 141.152V103.672C502.424 95.9449 500.004 89.8616 495.164 85.4216C490.324 80.9816 483.467 78.7649 474.594 78.7716C466.454 78.7716 459.88 80.5416 454.874 84.0816C450.08 87.3107 446.731 92.2775 445.534 97.9316L445.294 99.0316H424.804L424.924 97.6916C425.537 90.828 428.005 84.2604 432.064 78.6916C436.456 72.7597 442.314 68.07 449.064 65.0816C456.317 61.7016 464.904 60.0116 474.824 60.0116C484.744 60.0116 493.39 61.7216 500.764 65.1416C507.673 68.2364 513.544 73.2567 517.674 79.6016C521.674 85.8349 523.674 93.1683 523.674 101.602V189.362H502.444V168.732H501.954C499.51 173.373 496.193 177.499 492.184 180.882C483.854 187.979 473.257 191.856 462.314 191.812C454.665 191.981 447.083 190.347 440.184 187.042Z" fill="#212429"/>
</svg>
