<!--
Copyright 2025 Synnax Labs, Inc.

Use of this software is governed by the Business Source License included in the file
licenses/BSL.txt.

As of the Change Date specified in that file, in accordance with the Business Source
License, use of this software will be governed by the Apache License, Version 2.0,
included in the file licenses/APL.txt.
-->
<svg
    width="256"
    height="256"
    viewBox="0 0 256 256"
    fill="none"
    xmlns="http://www.w3.org/2000/svg"
>
    <rect width="256" height="256" fill="white" />
    <path
        d="M90.6831 180.73C88.623 180.731 86.5988 180.189 84.8144 179.159C83.0301 178.13 81.5483 176.648 80.5181 174.864C79.4879 173.08 78.9458 171.056 78.9461 168.996C78.9465 166.936 79.4894 164.912 80.5202 163.129L123.643 88.4788C128.159 80.6523 139.486 80.6523 144.16 88.8115L185.168 159.841C185.637 160.658 186.315 161.336 187.132 161.806L199.347 168.864C200.371 169.456 201.562 169.694 202.736 169.539C203.91 169.385 204.999 168.847 205.835 168.01C206.672 167.172 207.208 166.083 207.362 164.909C207.515 163.735 207.275 162.544 206.682 161.521L143.962 52.8725C142.933 51.0874 141.453 49.6047 139.67 48.5737C137.886 47.5428 135.862 47 133.803 47C131.742 47 129.719 47.5428 127.935 48.5737C126.152 49.6047 124.672 51.0874 123.643 52.8725L50.5936 179.375C49.5544 181.159 49.0046 183.185 49 185.25C48.9954 187.315 49.5361 189.344 50.5675 191.133C51.5988 192.921 53.0842 194.406 54.8733 195.436C56.6625 196.466 58.692 197.005 60.7566 197H183.98C185.162 196.999 186.31 196.609 187.247 195.889C188.185 195.169 188.859 194.161 189.165 193.02C189.471 191.877 189.391 190.667 188.94 189.575C188.488 188.483 187.688 187.571 186.665 186.98L177.12 181.474C176.3 181.009 175.376 180.761 174.435 180.753L90.6831 180.73Z"
        fill="url(#paint0_linear_1035_1278)"
    />
    <defs>
        <linearGradient
            id="paint0_linear_1035_1278"
            x1="46.9062"
            y1="92.0402"
            x2="181.44"
            y2="172.079"
            gradientUnits="userSpaceOnUse"
        >
            <stop stop-color="#10007F" />
            <stop offset="1" stop-color="#0084E9" />
        </linearGradient>
    </defs>
</svg>
