<!--
Copyright 2025 Synnax Labs, Inc.

Use of this software is governed by the Business Source License included in the file
licenses/BSL.txt.

As of the Change Date specified in that file, in accordance with the Business Source
License, use of this software will be governed by the Apache License, Version 2.0,
included in the file licenses/APL.txt.
-->
<svg
    width="1075"
    height="290"
    viewBox="0 0 1075 290"
    fill="none"
    xmlns="http://www.w3.org/2000/svg"
>
    <path
        d="M52.6219 218.824C50.0211 218.825 47.4658 218.141 45.2131 216.841C42.9605 215.542 41.0898 213.671 39.7893 211.419C38.4888 209.167 37.8044 206.612 37.8048 204.011C37.8053 201.41 38.4906 198.855 39.7919 196.604L94.2319 102.364C99.9319 92.4836 114.232 92.4836 120.132 102.784L171.902 192.454C172.494 193.485 173.35 194.341 174.382 194.934L189.802 203.844C191.095 204.592 192.599 204.892 194.081 204.697C195.562 204.502 196.937 203.823 197.993 202.766C199.049 201.709 199.726 200.333 199.92 198.851C200.113 197.37 199.811 195.866 199.062 194.574L119.882 57.4136C118.584 55.16 116.715 53.2882 114.464 51.9867C112.212 50.6852 109.657 50 107.057 50C104.456 50 101.902 50.6852 99.6501 51.9867C97.3986 53.2882 95.5298 55.16 94.2319 57.4136L2.01186 217.114C0.699848 219.366 0.00583722 221.924 3.66616e-05 224.531C-0.00576389 227.137 0.676849 229.699 1.97883 231.957C3.2808 234.215 5.15597 236.089 7.41466 237.389C9.67336 238.69 12.2355 239.371 14.8419 239.364H170.402C171.894 239.363 173.344 238.87 174.527 237.962C175.711 237.053 176.562 235.78 176.948 234.339C177.334 232.897 177.234 231.369 176.664 229.991C176.093 228.612 175.084 227.46 173.792 226.714L161.742 219.764C160.707 219.177 159.541 218.864 158.352 218.854L52.6219 218.824Z"
        fill="#242424"
    />
    <path
        d="M335.321 105.026C334.274 96.1873 330.029 89.3258 322.586 84.4413C315.143 79.5568 306.014 77.1146 295.198 77.1146C287.29 77.1146 280.37 78.3939 274.439 80.9524C268.566 83.5109 263.973 87.0289 260.658 91.5064C257.402 95.9838 255.774 101.072 255.774 106.77C255.774 111.539 256.907 115.638 259.175 119.069C261.501 122.441 264.467 125.262 268.072 127.529C271.677 129.739 275.457 131.571 279.411 133.024C283.365 134.42 286.999 135.554 290.314 136.426L308.456 141.311C313.108 142.532 318.283 144.218 323.982 146.369C329.738 148.521 335.233 151.457 340.467 155.179C345.758 158.842 350.119 163.552 353.55 169.309C356.981 175.066 358.696 182.131 358.696 190.504C358.696 200.157 356.167 208.879 351.108 216.671C346.107 224.463 338.781 230.656 329.128 235.249C319.533 239.843 307.875 242.14 294.152 242.14C281.359 242.14 270.282 240.076 260.92 235.947C251.616 231.819 244.289 226.062 238.94 218.677C233.648 211.292 230.653 202.715 229.956 192.946H252.285C252.866 199.692 255.134 205.274 259.088 209.693C263.1 214.054 268.159 217.311 274.265 219.462C280.429 221.555 287.057 222.602 294.152 222.602C302.409 222.602 309.823 221.265 316.393 218.59C322.964 215.857 328.168 212.077 332.006 207.251C335.844 202.366 337.763 196.668 337.763 190.155C337.763 184.224 336.106 179.398 332.791 175.676C329.477 171.955 325.116 168.931 319.708 166.605C314.3 164.279 308.456 162.244 302.176 160.5L280.196 154.219C266.24 150.207 255.192 144.48 247.051 137.037C238.911 129.594 234.84 119.854 234.84 107.817C234.84 97.8155 237.544 89.0932 242.952 81.6502C248.418 74.149 255.744 68.3342 264.932 64.2056C274.178 60.0189 284.499 57.9256 295.896 57.9256C307.409 57.9256 317.644 59.9899 326.598 64.1184C335.553 68.1888 342.647 73.7711 347.881 80.8652C353.172 87.9593 355.963 96.0129 356.254 105.026H335.321ZM404.728 289.24C401.239 289.24 398.128 288.95 395.395 288.368C392.662 287.845 390.773 287.321 389.726 286.798L394.959 268.656C399.96 269.935 404.379 270.4 408.217 270.051C412.055 269.702 415.457 267.987 418.422 264.905C421.446 261.881 424.208 256.968 426.708 250.165L430.546 239.698L381.004 105.026H403.333L440.315 211.787H441.711L478.693 105.026H501.022L444.153 258.538C441.594 265.458 438.425 271.185 434.646 275.721C430.866 280.315 426.476 283.716 421.475 285.926C416.532 288.135 410.95 289.24 404.728 289.24ZM548.777 158.406V239H528.192V105.026H548.079V125.959H549.823C552.963 119.156 557.731 113.69 564.128 109.561C570.524 105.375 578.781 103.281 588.899 103.281C597.97 103.281 605.907 105.142 612.711 108.864C619.514 112.527 624.806 118.109 628.585 125.61C632.365 133.053 634.255 142.474 634.255 153.871V239H613.67V155.266C613.67 144.741 610.937 136.542 605.471 130.669C600.005 124.738 592.504 121.773 582.968 121.773C576.397 121.773 570.524 123.197 565.349 126.047C560.232 128.896 556.19 133.053 553.225 138.519C550.259 143.985 548.777 150.614 548.777 158.406ZM692.454 158.406V239H671.87V105.026H691.756V125.959H693.501C696.641 119.156 701.409 113.69 707.805 109.561C714.202 105.375 722.459 103.281 732.577 103.281C741.648 103.281 749.585 105.142 756.388 108.864C763.192 112.527 768.483 118.109 772.263 125.61C776.043 133.053 777.932 142.474 777.932 153.871V239H757.348V155.266C757.348 144.741 754.615 136.542 749.149 130.669C743.683 124.738 736.182 121.773 726.645 121.773C720.075 121.773 714.202 123.197 709.026 126.047C703.909 128.896 699.868 133.053 696.903 138.519C693.937 143.985 692.454 150.614 692.454 158.406ZM854.972 242.14C846.482 242.14 838.778 240.541 831.858 237.343C824.938 234.086 819.443 229.405 815.373 223.3C811.302 217.136 809.267 209.693 809.267 200.971C809.267 193.295 810.779 187.073 813.803 182.305C816.827 177.479 820.868 173.699 825.927 170.966C830.986 168.233 836.568 166.198 842.674 164.861C848.837 163.465 855.03 162.36 861.252 161.546C869.393 160.5 875.993 159.715 881.052 159.191C886.169 158.61 889.89 157.65 892.216 156.313C894.6 154.975 895.792 152.649 895.792 149.335V148.637C895.792 140.031 893.437 133.344 888.727 128.576C884.075 123.808 877.01 121.424 867.532 121.424C857.705 121.424 850 123.575 844.418 127.878C838.836 132.181 834.911 136.775 832.643 141.659L813.105 134.682C816.594 126.541 821.246 120.203 827.061 115.667C832.934 111.073 839.33 107.875 846.25 106.073C853.227 104.212 860.089 103.281 866.834 103.281C871.137 103.281 876.08 103.805 881.662 104.851C887.303 105.84 892.739 107.904 897.973 111.044C903.264 114.184 907.654 118.923 911.143 125.262C914.632 131.6 916.377 140.089 916.377 150.731V239H895.792V220.858H894.746C893.35 223.765 891.024 226.876 887.768 230.191C884.511 233.505 880.179 236.325 874.772 238.651C869.364 240.977 862.764 242.14 854.972 242.14ZM858.112 223.649C866.253 223.649 873.114 222.05 878.697 218.852C884.337 215.653 888.582 211.525 891.431 206.466C894.338 201.407 895.792 196.086 895.792 190.504V171.664C894.92 172.711 893.001 173.67 890.035 174.542C887.128 175.356 883.755 176.083 879.918 176.723C876.138 177.304 872.446 177.828 868.84 178.293C865.293 178.7 862.415 179.049 860.205 179.34C854.856 180.037 849.855 181.171 845.203 182.741C840.609 184.253 836.888 186.55 834.038 189.632C831.247 192.656 829.852 196.784 829.852 202.018C829.852 209.17 832.498 214.578 837.789 218.241C843.139 221.846 849.913 223.649 858.112 223.649ZM969.299 105.026L1001.4 159.802L1033.5 105.026H1057.22L1013.96 172.013L1057.22 239H1033.5L1001.4 187.015L969.299 239H945.575L988.139 172.013L945.575 105.026H969.299Z"
        fill="#242424"
    />
</svg>
