<!--
  - Copyright 2024 Synnax Labs, Inc.
  -
  - Use of this software is governed by the Business Source License included in the file
  - licenses/BSL.txt.
  -
  - As of the Change Date specified in that file, in accordance with the Business Source
  - License, use of this software will be governed by the Apache License, Version 2.0,
  - included in the file licenses/APL.txt.
  -->

<svg xmlns="http://www.w3.org/2000/svg" xmlns:xlink="http://www.w3.org/1999/xlink" viewBox="0 0 1160.14 320"><defs><style>.cls-1{fill:#212429;}.cls-2{isolation:isolate;fill:url(#linear-gradient);}.cls-3{font-size:252px;fill:#fff;font-family:Roboto-Regular, Roboto;}</style><linearGradient id="linear-gradient" x1="81.05" y1="-1275.17" x2="250.87" y2="-1376.21" gradientTransform="matrix(1, 0, 0, -1, 0, -1174.68)" gradientUnits="userSpaceOnUse"><stop offset="0" stop-color="#fff"/><stop offset="1" stop-color="#fff"/></linearGradient></defs><g id="Layer_2" data-name="Layer 2"><g id="Layer_1-2" data-name="Layer 1"><g id="Synnax_Logo" data-name="Synnax Logo"><rect class="cls-1" width="1160.14" height="320"/><g id="Layer_2-2" data-name="Layer 2"><g id="Layer_1-2-2" data-name="Layer 1-2"><path class="cls-2" d="M136.3,212.46a14.81,14.81,0,0,1-12.83-22.22L177.91,96c5.7-9.88,20-9.88,25.9.42l51.77,89.67a6.71,6.71,0,0,0,2.48,2.48l15.42,8.91a6.78,6.78,0,0,0,9.26-9.27L203.56,51.05a14.8,14.8,0,0,0-25.65,0L85.69,210.75A14.8,14.8,0,0,0,98.52,233H254.08a6.78,6.78,0,0,0,3.39-12.65l-12.05-6.95a7,7,0,0,0-3.39-.91Z"/><text class="cls-3" transform="translate(307.43 233.64) scale(0.95 1)">Synnax</text></g></g></g></g></g></svg>
