<!--
Copyright 2025 Synnax Labs, Inc.

Use of this software is governed by the Business Source License included in the file
licenses/BSL.txt.

As of the Change Date specified in that file, in accordance with the Business Source
License, use of this software will be governed by the Apache License, Version 2.0,
included in the file licenses/APL.txt.
-->
<svg
    width="2130"
    height="1200"
    viewBox="0 0 2130 1200"
    fill="none"
    xmlns="http://www.w3.org/2000/svg"
>
    <rect width="2130" height="1200" fill="white" />
    <path
        d="M269.166 682.267C264.818 682.269 260.546 681.125 256.779 678.952C253.013 676.78 249.885 673.652 247.711 669.886C245.536 666.121 244.392 661.849 244.393 657.501C244.394 653.152 245.539 648.88 247.715 645.116L338.737 487.551C348.267 471.031 372.176 471.031 382.041 488.253L468.598 638.178C469.588 639.901 471.019 641.333 472.745 642.324L498.526 657.221C500.688 658.472 503.203 658.974 505.681 658.647C508.157 658.321 510.456 657.186 512.221 655.419C513.987 653.652 515.119 651.351 515.443 648.873C515.766 646.397 515.261 643.882 514.009 641.722L381.623 412.395C379.452 408.627 376.328 405.498 372.564 403.322C368.799 401.146 364.527 400 360.18 400C355.831 400 351.561 401.146 347.796 403.322C344.031 405.498 340.907 408.627 338.737 412.395L184.548 679.408C182.355 683.173 181.194 687.45 181.185 691.809C181.175 696.166 182.316 700.45 184.493 704.225C186.67 708 189.805 711.134 193.582 713.307C197.358 715.482 201.642 716.621 206 716.609H466.09C468.585 716.608 471.009 715.783 472.987 714.265C474.967 712.745 476.389 710.617 477.035 708.208C477.68 705.797 477.513 703.242 476.56 700.938C475.605 698.632 473.918 696.706 471.758 695.459L451.611 683.839C449.881 682.857 447.931 682.334 445.943 682.317L269.166 682.267Z"
        fill="url(#paint0_linear_1035_1274)"
    />
    <path
        d="M741.828 492.001C740.078 477.223 732.98 465.751 720.536 457.584C708.092 449.418 692.828 445.334 674.744 445.334C661.522 445.334 649.952 447.473 640.036 451.751C630.217 456.029 622.537 461.911 616.995 469.397C611.551 476.883 608.829 485.39 608.829 494.917C608.829 502.891 610.723 509.744 614.515 515.481C618.404 521.118 623.363 525.835 629.391 529.625C635.418 533.32 641.738 536.384 648.349 538.813C654.96 541.147 661.036 543.043 666.578 544.501L696.911 552.668C704.689 554.71 713.341 557.529 722.87 561.125C732.494 564.723 741.681 569.632 750.432 575.855C759.279 581.98 766.57 589.855 772.307 599.48C778.043 609.105 780.91 620.918 780.91 634.917C780.91 651.057 776.682 665.64 768.224 678.667C759.862 691.695 747.613 702.05 731.474 709.729C715.431 717.41 695.94 721.251 672.995 721.251C651.606 721.251 633.086 717.8 617.433 710.896C601.877 703.994 589.626 694.369 580.683 682.021C571.835 669.674 566.827 655.334 565.662 639H602.995C603.967 650.279 607.759 659.612 614.37 667C621.078 674.292 629.536 679.738 639.745 683.334C650.051 686.833 661.133 688.584 672.995 688.584C686.801 688.584 699.197 686.348 710.181 681.876C721.168 677.306 729.869 670.986 736.286 662.918C742.703 654.75 745.911 645.223 745.911 634.334C745.911 624.417 743.141 616.348 737.598 610.125C732.057 603.904 724.766 598.848 715.724 594.959C706.682 591.07 696.911 587.668 686.411 584.752L649.661 574.25C626.328 567.542 607.856 557.967 594.244 545.522C580.635 533.078 573.828 516.793 573.828 496.668C573.828 479.946 578.349 465.362 587.391 452.918C596.53 440.376 608.779 430.654 624.141 423.751C639.6 416.751 656.856 413.251 675.911 413.251C695.161 413.251 712.273 416.703 727.244 423.605C742.216 430.411 754.077 439.744 762.828 451.605C771.675 463.466 776.341 476.932 776.828 492.001H741.828ZM857.874 800C852.041 800 846.839 799.515 842.27 798.542C837.7 797.668 834.542 796.792 832.791 795.917L841.541 765.584C849.902 767.723 857.291 768.5 863.708 767.917C870.125 767.333 875.813 764.466 880.77 759.313C885.826 754.257 890.444 746.042 894.624 734.668L901.041 717.168L818.209 492.001H855.542L917.374 670.502H919.708L981.541 492.001H1018.87L923.791 748.667C919.513 760.237 914.214 769.813 907.896 777.397C901.576 785.078 894.236 790.764 885.875 794.459C877.61 798.153 868.277 800 857.874 800ZM1098.72 581.251V716.001H1064.3V492.001H1097.55V527H1100.47C1105.72 515.626 1113.69 506.487 1124.38 499.584C1135.08 492.585 1148.88 489.084 1165.8 489.084C1180.97 489.084 1194.24 492.195 1205.61 498.418C1216.99 504.543 1225.84 513.876 1232.15 526.417C1238.47 538.861 1241.63 554.613 1241.63 573.668V716.001H1207.22V576.001C1207.22 558.403 1202.65 544.695 1193.51 534.875C1184.37 524.959 1171.83 520.002 1155.88 520.002C1144.9 520.002 1135.08 522.382 1126.43 527.148C1117.87 531.911 1111.11 538.861 1106.16 548C1101.2 557.139 1098.72 568.223 1098.72 581.251ZM1338.94 581.251V716.001H1304.53V492.001H1337.77V527H1340.69C1345.94 515.626 1353.91 506.487 1364.61 499.584C1375.3 492.585 1389.11 489.084 1406.03 489.084C1421.19 489.084 1434.46 492.195 1445.84 498.418C1457.21 504.543 1466.06 513.876 1472.38 526.417C1478.7 538.861 1481.86 554.613 1481.86 573.668V716.001H1447.44V576.001C1447.44 558.403 1442.87 544.695 1433.73 534.875C1424.59 524.959 1412.05 520.002 1396.11 520.002C1385.12 520.002 1375.3 522.382 1366.65 527.148C1358.09 531.911 1351.34 538.861 1346.38 548C1341.42 557.139 1338.94 568.223 1338.94 581.251ZM1610.66 721.251C1596.47 721.251 1583.59 718.577 1572.02 713.23C1560.45 707.785 1551.26 699.958 1544.46 689.751C1537.65 679.445 1534.25 667 1534.25 652.418C1534.25 639.584 1536.78 629.181 1541.83 621.209C1546.89 613.14 1553.64 606.82 1562.1 602.25C1570.56 597.681 1579.89 594.279 1590.1 592.043C1600.41 589.709 1610.76 587.862 1621.16 586.501C1634.78 584.752 1645.81 583.439 1654.27 582.563C1662.83 581.592 1669.05 579.987 1672.94 577.751C1676.92 575.514 1678.91 571.625 1678.91 566.084V564.917C1678.91 550.528 1674.98 539.348 1667.1 531.376C1659.32 523.404 1647.51 519.418 1631.66 519.418C1615.23 519.418 1602.35 523.015 1593.02 530.209C1583.69 537.403 1577.12 545.084 1573.33 553.25L1540.66 541.585C1546.5 527.974 1554.28 517.377 1564 509.793C1573.82 502.112 1584.51 496.765 1596.08 493.752C1607.75 490.64 1619.22 489.084 1630.5 489.084C1637.69 489.084 1645.96 489.96 1655.29 491.709C1664.72 493.362 1673.81 496.813 1682.56 502.063C1691.41 507.313 1698.75 515.237 1704.58 525.835C1710.41 536.432 1713.33 550.625 1713.33 568.418V716.001H1678.91V685.668H1677.17C1674.83 690.528 1670.94 695.73 1665.5 701.272C1660.05 706.813 1652.81 711.528 1643.77 715.417C1634.73 719.306 1623.69 721.251 1610.66 721.251ZM1615.91 690.334C1629.53 690.334 1641 687.661 1650.33 682.314C1659.76 676.965 1666.86 670.064 1671.62 661.605C1676.48 653.147 1678.91 644.25 1678.91 634.917V603.417C1677.46 605.168 1674.25 606.771 1669.29 608.229C1664.43 609.59 1658.79 610.806 1652.37 611.876C1646.05 612.847 1639.88 613.723 1633.85 614.501C1627.92 615.181 1623.11 615.765 1619.41 616.251C1610.47 617.417 1602.11 619.313 1594.33 621.938C1586.65 624.466 1580.43 628.306 1575.66 633.459C1571 638.515 1568.67 645.417 1568.67 654.168C1568.67 666.126 1573.09 675.168 1581.94 681.292C1590.88 687.32 1602.21 690.334 1615.91 690.334ZM1801.82 492.001L1855.49 583.585L1909.16 492.001H1948.82L1876.49 604.001L1948.82 716.001H1909.16L1855.49 629.084L1801.82 716.001H1762.15L1833.31 604.001L1762.15 492.001H1801.82Z"
        fill="#242424"
    />
    <defs>
        <linearGradient
            id="paint0_linear_1035_1274"
            x1="176.765"
            y1="495.068"
            x2="460.73"
            y2="664.008"
            gradientUnits="userSpaceOnUse"
        >
            <stop stop-color="#10007F" />
            <stop offset="1" stop-color="#0084E9" />
        </linearGradient>
    </defs>
</svg>
